<?xml version="1.0" encoding="utf-8"?>
<!-- Generator: Adobe Illustrator 25.2.3, SVG Export Plug-In . SVG Version: 6.00 Build 0)  -->
<svg version="1.1" id="Capa_1" xmlns="http://www.w3.org/2000/svg" xmlns:xlink="http://www.w3.org/1999/xlink" x="0px" y="0px"
	 viewBox="0 0 280.6 90" style="enable-background:new 0 0 280.6 90;" xml:space="preserve">
<style type="text/css">
	.st0{fill:none;}
	.st1{fill:#410D1C;}
</style>
<rect id="Rectángulo_2" class="st0" width="280.6" height="90"/>
<g>
	<rect id="Rectángulo_3" x="124.2" y="26.5" class="st1" width="0.5" height="37.1"/>
	<path id="Trazado_1" class="st1" d="M86.9,47.7c0.2,0.4,0.7,0.6,1.1,0.6c0.5,0,0.9-0.3,1.1-0.7l11.6-14.8c0.5-0.6,1.3-0.7,1.9-0.2
		l0,0c0.5,0.5,0.6,1.3,0.2,1.8l-2.6,3.3l0,0c-0.5,0.5-0.5,1.2-0.1,1.7l0,0l2.6,3.3l8.2-10.4l-3.3-4.2l-0.6-0.8
		c-0.4-0.5-1.1-0.8-1.7-0.9h-4.9c-0.8,0-1.5,0.3-2,0.9L84.8,45L86.9,47.7z"/>
	<path id="Trazado_2" class="st1" d="M86.3,38.7L83,34.5c-0.4-0.6-0.2-1.4,0.4-1.9c0.6-0.4,1.4-0.2,1.9,0.4l2.7,3.5l3.2-4.1
		l-3.7-4.8c-0.5-0.7-1.3-1.2-2.2-1.1h-4.4c-0.8,0-1.5,0.3-2,0.9l-3.9,5l8.2,10.5L86.3,38.7z"/>
	<path id="Trazado_3" class="st1" d="M99,42.3c-0.3-0.4-0.7-0.6-1.1-0.6s-0.8,0.2-1.1,0.5l-11.7,15c-0.5,0.6-1.4,0.7-2,0.2
		c-0.5-0.5-0.6-1.3-0.2-1.8l2.6-3.4l0,0c0.5-0.5,0.5-1.2,0.1-1.7l0,0L83,47.2l-8.2,10.5l4.6,5.8h7.2L101.1,45L99,42.3z"/>
	<path id="Trazado_4" class="st1" d="M99.6,51.3l3.3,4.3c0.4,0.6,0.4,1.4-0.2,1.8c-0.6,0.5-1.5,0.3-2-0.3l-0.1-0.1l-2.8-3.5
		l-3.2,4.1l4.6,5.9h7.1l4.6-5.9l-8.2-10.5L99.6,51.3z"/>
	<path id="Trazado_5" class="st1" d="M111,41.8c-1.8,0-3.3,1.5-3.2,3.3s1.5,3.3,3.3,3.2c1.8,0,3.2-1.5,3.2-3.3
		C114.3,43.3,112.8,41.8,111,41.8L111,41.8 M111,46.8c-1,0-1.8-0.8-1.8-1.7s0.8-1.8,1.7-1.8c1,0,1.8,0.8,1.8,1.7l0,0
		C112.7,46,112,46.8,111,46.8"/>
	<path id="Trazado_6" class="st1" d="M92.9,26.5c-1.8,0-3.3-1.5-3.3-3.3s1.5-3.3,3.3-3.3s3.3,1.5,3.3,3.3
		C96.3,25,94.8,26.5,92.9,26.5 M92.9,21.5c1,0,1.8,0.8,1.8,1.7S94,25,93,25s-1.8-0.8-1.8-1.7l0,0C91.2,22.3,92,21.5,92.9,21.5"/>
	<path id="Trazado_7" class="st1" d="M78.2,45.1c0-1.8-1.4-3.3-3.3-3.4c-1.8,0-3.3,1.4-3.4,3.3s1.4,3.3,3.3,3.4l0,0
		C76.7,48.3,78.1,46.9,78.2,45.1 M73.1,45.1c0-1,0.8-1.7,1.8-1.7s1.7,0.8,1.7,1.8s-0.8,1.7-1.8,1.7C73.9,46.8,73.1,46,73.1,45.1"/>
	<path id="Trazado_8" class="st1" d="M92.9,63.6c-1.8,0-3.3,1.5-3.2,3.3c0,1.8,1.5,3.3,3.3,3.2c1.8,0,3.2-1.5,3.2-3.3
		C96.3,65.1,94.8,63.6,92.9,63.6C93,63.6,93,63.6,92.9,63.6 M92.9,68.6c-1,0-1.8-0.8-1.8-1.7s0.8-1.8,1.7-1.8c1,0,1.8,0.8,1.8,1.7
		l0,0C94.7,67.8,93.9,68.6,92.9,68.6"/>
	<path id="Trazado_9" class="st1" d="M57.3,24.1v24.5c0,2.9-1,5.8-2.8,8.1c-1.7,2.2-3.9,4-6.3,5.4c-2.9,1.6-5.9,2.9-9.1,3.7
		c-3.2-0.8-6.2-2.1-9.1-3.7c-2.4-1.4-4.6-3.2-6.3-5.4s-2.7-5.1-2.7-8V24.1H57.3 M58.2,23.2H20v25.5c0,14,19.1,18.2,19.1,18.2l0,0
		c0,0,19.1-4.2,19.1-18.2L58.2,23.2z"/>
	<path id="Trazado_10" class="st1" d="M43.8,31.4V29h-2.4v2.2h-0.9V29H38v2.2h-1V29h-2.4v2.3l1.2,2.1c0,0.1,0.1,0.2,0.1,0.2v10.7H37
		v-3.8c0.3-1.2,1.5-1.9,2.7-1.7c0.8,0.2,1.5,0.8,1.7,1.7v3.8h1.2v-4.1c0,0,0,0,0-0.1v-6.6c0-0.1,0-0.2,0.1-0.2L43.8,31.4z"/>
	<path id="Trazado_11" class="st1" d="M34.9,44.6v-3.5l-0.4,0.3c-0.2,0.1-0.4,0.1-0.5,0L33.4,41v1.4c0,0.1-0.1,0.3-0.2,0.4
		c0.1,0,0.1,0,0.1,0.1c0.5,0.4,0.7,1.1,0.5,1.8L34.9,44.6z"/>
	<path id="Trazado_12" class="st1" d="M39.1,39.7c-0.7,0-1.2,0.5-1.2,0.8v3.8h2.5v-3.8C40.4,40.2,39.9,39.7,39.1,39.7"/>
	<path id="Trazado_13" class="st1" d="M24.8,44.6c-0.1-0.3-0.2-0.7-0.3-1.1c-0.1-0.5-0.1-1-0.1-1.5c0-0.2,0.1-0.4,0.3-0.4l1-0.3
		l-1.2-0.8c-0.1-0.1-0.2-0.2-0.2-0.4v-1.3c0-0.2,0.1-0.3,0.3-0.4l0.5-0.2v-0.4l-0.4-0.2c-0.2-0.1-0.3-0.2-0.3-0.4v-1.6
		c0-0.3,0.2-0.5,0.5-0.5h1.4c0-0.4,0-0.9,0.1-1.3c0.1-0.5,0.3-1.1,0.6-1.6l-0.1-0.5c0-0.3,0.2-0.5,0.4-0.5l0,0h0.8
		c0.1,0,0.2,0,0.3,0.1l1.9,1.2h0.9c0.1,0,0.3,0,0.4,0.1s0.1,0.2,0.1,0.4l-0.1,1.5c0,0.1-0.1,0.2-0.2,0.3H32c0.1,0,0.3,0,0.4,0.1
		l0.3,0.3l0.2-0.2l0.4-0.7c0.1-0.2,0.2-0.3,0.4-0.3h1.2v-0.3l-1.2-2.1c0-0.1-0.1-0.2-0.1-0.2v-3c0-0.3,0.2-0.5,0.5-0.5l0,0h10.2
		c0.3,0,0.5,0.2,0.5,0.5l0,0v2.9c0,0.1,0,0.2-0.1,0.2l-1.2,2.1V34h1.2c0.2,0,0.3,0.1,0.4,0.3l0.4,0.7l0.2,0.2l0.3-0.3
		c0.1-0.1,0.2-0.2,0.4-0.1H47c-0.1-0.1-0.1-0.2-0.2-0.3L46.7,33c0-0.3,0.2-0.5,0.5-0.5l0,0H48l1.9-1.2c0.1,0,0.2-0.1,0.3-0.1H51
		c0.1,0,0.3,0.1,0.4,0.2c0.1,0.1,0.1,0.2,0.1,0.4l-0.1,0.5c0.3,0.5,0.5,1,0.6,1.5c0.1,0.4,0.1,0.9,0.1,1.3h1.4
		c0.3,0,0.5,0.2,0.5,0.5v1.6c0,0.2-0.1,0.4-0.3,0.4l-0.4,0.2v0.4l0.5,0.2c0.2,0.1,0.3,0.2,0.3,0.4v1.3c0,0.2-0.1,0.3-0.2,0.4
		l-1.2,0.8l1,0.3c0.2,0.1,0.3,0.2,0.3,0.4c0,0.5,0,1-0.1,1.5c-0.1,0.4-0.2,0.7-0.3,1.1h1.7V26.5H23.1v18.2h1.7
		C24.8,44.7,24.8,44.6,24.8,44.6z"/>
	<path id="Trazado_14" class="st1" d="M44.9,42.8L44.9,42.8c0-0.2-0.1-0.3-0.1-0.5V41l0,0l-0.5,0.4c-0.2,0.1-0.4,0.1-0.5,0l-0.4-0.2
		v3.5h0.9C44.2,44,44.4,43.3,44.9,42.8"/>
	<path id="Trazado_15" class="st1" d="M51.1,54.3c-0.3,0-0.5-0.2-0.5-0.5l0,0v-3.1c0-0.3-0.2-0.5-0.4-0.7c-0.3-0.3-0.6-0.4-1-0.4
		c-0.6,0-1.2,0.5-1.2,1.1v3c0,0.3-0.2,0.5-0.5,0.5h-2.8c-0.3,0-0.5-0.2-0.5-0.5v-3.1c0-0.3-0.2-0.5-0.4-0.7c-0.3-0.3-0.6-0.4-1-0.4
		c-0.3,0-0.6,0.1-0.8,0.3l2.3,11.7c3.2-1.4,7.1-3.8,9.1-7.4L51.1,54.3z"/>
	<path id="Trazado_16" class="st1" d="M43.7,62l-3.2-16.5h-2.6L34.6,62c0,0,0,0,0,0.1c1.5,0.6,3,1.1,4.6,1.5
		C40.7,63.2,42.2,62.7,43.7,62C43.7,62.1,43.7,62,43.7,62"/>
	<path id="Trazado_17" class="st1" d="M36,50c-0.2-0.2-0.5-0.3-0.8-0.3l0,0c-0.4,0-0.7,0.1-0.9,0.4c-0.2,0.2-0.3,0.4-0.4,0.7v3.1
		c0,0.3-0.2,0.5-0.5,0.5h-2.8c-0.1,0-0.2,0-0.3-0.1c-0.1-0.1-0.1-0.2-0.1-0.3v-3c-0.1-0.6-0.6-1.1-1.2-1.1l0,0
		c-0.4,0-0.7,0.1-0.9,0.4c-0.2,0.2-0.3,0.4-0.4,0.7v3.1c0,0.3-0.2,0.5-0.5,0.5h-2.5c2.1,3.6,5.9,5.9,9.1,7.4L36,50z"/>
	<path id="Trazado_18" class="st1" d="M55.2,45.6H41.4l0.7,3.4c0.3-0.2,0.7-0.3,1-0.3c0.6,0,1.2,0.2,1.6,0.6
		c0.4,0.4,0.6,0.9,0.6,1.4v2.6h1.9v-2.6c0.1-1.1,1-2,2.1-2c0.6,0,1.2,0.2,1.6,0.6c0.4,0.4,0.6,0.9,0.6,1.4v2.6h2.6
		c0.7-1.5,1-3.1,1-4.8L55.2,45.6L55.2,45.6"/>
	<path id="Trazado_19" class="st1" d="M26.7,53.4v-2.6c0-0.5,0.2-1,0.6-1.4s1-0.7,1.6-0.6c1.1,0,2,0.9,2.1,2v2.6h1.9v-2.6
		c0-0.5,0.2-1,0.6-1.4c0.4-0.4,1-0.7,1.6-0.6c0.3,0,0.7,0.1,1,0.2l0.7-3.4H23.1v3.1c0,1.6,0.3,3.3,1,4.8L26.7,53.4z"/>
	<path id="Trazado_20" class="st1" d="M27.8,43.7h0.8c0.1,0.1,0.1,0.2,0.1,0.3v0.2c0,0.2,0,0.3-0.1,0.5H26c-0.4-0.3-0.6-1.3-0.6-2.2
		l1.2-0.4c0.2-0.1,0.3-0.2,0.3-0.4v-0.4c0-0.2-0.1-0.3-0.2-0.4L25.4,40v-0.8l0.5-0.2c0.2-0.1,0.3-0.2,0.3-0.4v-1.1
		c0-0.2-0.1-0.4-0.3-0.4l-0.4-0.2V36h1.2l0.6,1v1.3l-0.4,1.3c-0.1,0.2,0.1,0.5,0.3,0.6h0.1h0.4c0.2,0,0.4-0.2,0.5-0.4
		c0.1-0.4,0.1-0.7,0.2-1.1c0.2-0.3,0.4-0.6,0.6-0.9c0.2-0.2,0.2-0.4,0-0.6l-1.6-1.9c-0.1-0.5-0.1-0.9,0-1.4s0.3-0.9,0.6-1.3
		c0.1-0.1,0.1-0.2,0.1-0.3v-0.2H28l1.9,1.2c0.1,0,0.2,0.1,0.3,0.1h0.5v0.7l-0.6,0.2c-0.2,0.1-0.3,0.2-0.3,0.4v0.5
		c0,0.3,0.2,0.5,0.5,0.5h1.6l0.4,0.4c0.2,0.2,0.4,0.2,0.6,0c0.3-0.2,0.5-0.4,0.8-0.6L34,35h0.9v1.7c0,0-1.7,0.6-1.9,0.7
		s-0.2,0.6-0.2,0.7s0,0.2,0.2,0.3c0.2,0.2,0.4,0.3,0.7,0.4l0.5-0.5h0.7V40l-0.6,0.4l-2-1.3c-0.2-0.1-0.5-0.1-0.6,0.1l-0.3,0.4
		c-0.1,0.2-0.1,0.5,0.1,0.6l1.1,1.1v0.9l-1.1,0.5c-0.2,0.1-0.3,0.2-0.3,0.4v0.2c0,0.3,0.2,0.5,0.5,0.5h1.4c0.2,0.3,0.2,0.7,0.1,1
		h-3.1c-0.1-0.2-0.2-0.3-0.2-0.5c0-0.1,0-0.1,0-0.2c0-0.3,0-0.5,0.1-0.8l0.7-0.9c0.1-0.1,0.1-0.2,0.1-0.3v-0.4
		c0-0.2-0.1-0.3-0.2-0.4C30.2,41,30,41,29.9,41l-1.2,0.5c-0.2,0.1-0.3,0.2-0.3,0.4l-0.1,0.5l-0.7,0.2c-0.2,0.1-0.3,0.2-0.3,0.5v0.2
		C27.3,43.4,27.5,43.7,27.8,43.7"/>
	<path id="Trazado_21" class="st1" d="M50.5,43.7h-0.8c-0.1,0.1-0.1,0.2-0.1,0.3v0.2c0,0.2,0,0.3,0.1,0.5h2.7
		c0.4-0.3,0.6-1.3,0.6-2.2l-1.2-0.4c-0.2-0.1-0.3-0.2-0.3-0.4v-0.4c0-0.2,0.1-0.3,0.2-0.4L53,40v-0.8L52.5,39
		c-0.2-0.1-0.3-0.2-0.3-0.4v-1.1c0-0.2,0.1-0.4,0.3-0.4l0.4-0.2V36h-1.2l-0.6,1v1.3l0.4,1.3c0.1,0.2-0.1,0.5-0.3,0.6h-0.1h-0.4
		c-0.2,0-0.4-0.2-0.5-0.4c-0.1-0.4-0.1-0.7-0.3-1.1c-0.2-0.3-0.4-0.6-0.6-0.9c-0.2-0.2-0.2-0.4,0-0.6l1.6-1.8c0.1-0.5,0.1-0.9,0-1.4
		s-0.4-0.9-0.6-1.3c-0.1-0.1-0.1-0.2-0.1-0.3v-0.2h-0.1l-1.9,1.2c-0.1,0-0.2,0.1-0.3,0.1h-0.5v0.7l0.6,0.2c0.2,0.1,0.3,0.2,0.3,0.4
		v0.5c0,0.3-0.2,0.5-0.5,0.5h-1.6L46,36.1c-0.2,0.2-0.4,0.2-0.6,0c0,0-0.7-0.6-0.8-0.6L44.4,35h-0.9v1.7c0,0,1.7,0.6,1.9,0.7
		s0.2,0.6,0.2,0.7s0,0.2-0.2,0.3c-0.2,0.2-0.4,0.3-0.7,0.4l-0.5-0.5h-0.7V40l0.6,0.4l2-1.3c0.2-0.1,0.5-0.1,0.6,0.1l0.3,0.4
		c0.1,0.2,0.1,0.5-0.1,0.6l-1.1,1.1v0.9l1.1,0.5c0.2,0.1,0.3,0.2,0.3,0.4v0.2c0,0.3-0.2,0.5-0.5,0.5h-1.4c-0.2,0.3-0.2,0.7,0,1h3.1
		c0.1-0.2,0.2-0.3,0.2-0.5c0-0.1,0-0.1,0-0.2c0-0.3,0-0.5-0.1-0.8l-0.7-0.9c-0.1-0.1-0.1-0.2-0.1-0.3v-0.4c0-0.2,0.1-0.3,0.2-0.4
		c0.1-0.1,0.3-0.1,0.4-0.1l1.2,0.5c0.1,0.1,0.3,0.2,0.3,0.4l0.1,0.5l0.7,0.2c0.2,0.1,0.3,0.2,0.3,0.5v0.2
		C50.9,43.4,50.7,43.7,50.5,43.7"/>
	<path id="Trazado_22" class="st1" d="M138.6,35.6c-0.1,0.2-0.3,0.5-0.5,0.6c-0.2,0.2-0.5,0.3-0.8,0.4c-0.3,0.1-0.6,0.1-1,0.1
		c-0.5,0-1-0.1-1.5-0.3s-0.9-0.4-1.3-0.8l0.9-1c0.3,0.2,0.6,0.4,0.9,0.6c0.3,0.1,0.7,0.2,1,0.2c0.2,0,0.5,0,0.7-0.2
		c0.2-0.1,0.3-0.3,0.2-0.5l0,0c0-0.1,0-0.2,0-0.2c0-0.1-0.1-0.2-0.2-0.2c-0.1-0.1-0.3-0.1-0.4-0.2c-0.2-0.1-0.4-0.1-0.7-0.2
		c-0.3-0.1-0.6-0.2-0.9-0.3c-0.2-0.1-0.5-0.2-0.7-0.4c-0.2-0.1-0.3-0.3-0.4-0.5c-0.1-0.3-0.2-0.5-0.2-0.8l0,0c0-0.3,0.1-0.6,0.2-0.8
		c0.1-0.2,0.3-0.4,0.5-0.6s0.4-0.3,0.7-0.4s0.6-0.1,0.9-0.1c0.5,0,0.9,0.1,1.3,0.2c0.4,0.1,0.8,0.4,1.1,0.6l-0.7,1
		c-0.3-0.2-0.6-0.3-0.9-0.5c-0.3-0.1-0.6-0.2-0.8-0.2s-0.4,0-0.6,0.2c-0.1,0.1-0.2,0.2-0.2,0.4l0,0c0,0.1,0,0.2,0.1,0.3
		c0.1,0.1,0.1,0.2,0.2,0.2c0.1,0.1,0.3,0.1,0.4,0.2c0.2,0.1,0.4,0.1,0.7,0.2c0.3,0.1,0.6,0.2,0.9,0.3c0.2,0.1,0.5,0.2,0.7,0.4
		s0.3,0.3,0.4,0.6c0.1,0.2,0.1,0.5,0.1,0.7l0,0C138.7,35.1,138.7,35.4,138.6,35.6L138.6,35.6z"/>
	<path id="Trazado_23" class="st1" d="M140.1,36.7v-6.6h4.9v1.3h-3.5v1.3h3.1V34h-3.1v1.4h3.5v1.3H140.1z"/>
	<path id="Trazado_24" class="st1" d="M152.4,34.7c-0.2,0.4-0.4,0.7-0.7,1s-0.7,0.5-1.1,0.7c-0.5,0.2-0.9,0.3-1.4,0.3h-2.6v-6.6h2.6
		c0.5,0,1,0.1,1.4,0.2c0.4,0.2,0.8,0.4,1.1,0.7c0.3,0.3,0.5,0.6,0.7,1c0.2,0.4,0.3,0.8,0.3,1.3l0,0
		C152.6,33.9,152.6,34.3,152.4,34.7z M151.1,33.4c0-0.3,0-0.5-0.1-0.8c-0.1-0.2-0.2-0.4-0.4-0.6c-0.2-0.2-0.4-0.3-0.6-0.4
		c-0.3-0.1-0.5-0.1-0.8-0.1H148v3.9h1.1c0.3,0,0.5,0,0.8-0.1c0.2-0.1,0.4-0.2,0.6-0.4c0.2-0.2,0.3-0.4,0.4-0.6
		C151.1,34,151.1,33.7,151.1,33.4L151.1,33.4z"/>
	<path id="Trazado_25" class="st1" d="M154,36.7v-6.6h4.9v1.3h-3.5v1.3h3.1V34h-3.1v1.4h3.5v1.3H154z"/>
	<path id="Trazado_26" class="st1" d="M165.6,36.7v-4.3l-1.8,2.8l0,0l-1.8-2.8v4.3h-1.4v-6.6h1.6l1.7,2.8l1.7-2.8h1.6v6.6H165.6z"/>
	<path id="Trazado_27" class="st1" d="M173.5,36.7l-0.6-1.5h-2.8l-0.6,1.5H168l2.8-6.6h1.3l2.8,6.6H173.5z M171.6,31.8l-0.9,2.1h1.7
		L171.6,31.8z"/>
	<path id="Trazado_28" class="st1" d="M137.7,43.1c-0.1,0.3-0.3,0.5-0.5,0.7s-0.5,0.4-0.8,0.5s-0.6,0.2-1,0.2h-1.6V40h1.6
		c0.3,0,0.7,0.1,1,0.2c0.3,0.1,0.5,0.3,0.8,0.5c0.2,0.2,0.4,0.4,0.5,0.7C137.9,41.9,137.9,42.5,137.7,43.1L137.7,43.1z M137.2,41.5
		c-0.1-0.2-0.2-0.4-0.4-0.6c-0.2-0.2-0.4-0.3-0.6-0.4c-0.2-0.1-0.5-0.1-0.8-0.1h-1.1V44h1.1c0.3,0,0.5,0,0.8-0.1
		c0.4-0.2,0.8-0.5,1-0.9c0.1-0.2,0.1-0.5,0.1-0.7C137.3,42,137.3,41.7,137.2,41.5L137.2,41.5z"/>
	<path id="Trazado_29" class="st1" d="M139.6,39.9v4.5h-0.5v-4.5H139.6z"/>
	<path id="Trazado_30" class="st1" d="M144.3,44.5l-1.3-1.8h-1.3v1.8h-0.5V40h1.9c0.2,0,0.5,0,0.7,0.1s0.4,0.2,0.5,0.3
		s0.3,0.3,0.3,0.4c0.1,0.2,0.1,0.4,0.1,0.6c0,0.2,0,0.3-0.1,0.5c-0.1,0.1-0.1,0.3-0.3,0.4c-0.1,0.1-0.2,0.2-0.4,0.3
		s-0.3,0.1-0.5,0.2l1.4,1.8L144.3,44.5z M143.9,40.6c-0.3-0.2-0.6-0.3-0.9-0.2h-1.4v1.8h1.4c0.2,0,0.3,0,0.5-0.1
		c0.1,0,0.2-0.1,0.4-0.2c0.1-0.1,0.2-0.2,0.2-0.3c0.1-0.1,0.1-0.3,0.1-0.4C144.3,41.1,144.1,40.8,143.9,40.6L143.9,40.6z"/>
	<path id="Trazado_31" class="st1" d="M149.3,40.4h-2.8v1.5h2.5v0.5h-2.5V44h2.8v0.5H146V40h3.3V40.4z"/>
	<path id="Trazado_32" class="st1" d="M154,44.1c-0.1,0.1-0.3,0.2-0.4,0.3c-0.2,0.1-0.3,0.1-0.5,0.2c-0.2,0-0.4,0.1-0.6,0.1
		c-0.3,0-0.6-0.1-0.9-0.2c-0.3-0.1-0.5-0.3-0.7-0.5s-0.4-0.5-0.5-0.7c-0.2-0.6-0.2-1.2,0-1.8c0.1-0.3,0.3-0.5,0.5-0.7
		s0.5-0.4,0.7-0.5c0.3-0.1,0.6-0.2,0.9-0.2c0.2,0,0.4,0,0.6,0.1c0.2,0,0.3,0.1,0.5,0.1c0.1,0.1,0.3,0.1,0.4,0.2
		c0.1,0.1,0.2,0.2,0.4,0.3l-0.4,0.4c-0.2-0.2-0.4-0.3-0.6-0.4c-0.2-0.1-0.5-0.2-0.8-0.2c-0.5,0-0.9,0.2-1.3,0.5
		c-0.2,0.2-0.3,0.4-0.4,0.6c-0.1,0.2-0.1,0.5-0.1,0.7c0,0.3,0,0.5,0.1,0.7s0.2,0.4,0.4,0.6c0.2,0.2,0.3,0.3,0.6,0.4
		c0.2,0.1,0.5,0.2,0.7,0.1c0.3,0,0.6-0.1,0.8-0.2c0.2-0.1,0.5-0.3,0.7-0.5l0.3,0.3C154.2,43.9,154.1,44,154,44.1L154,44.1z"/>
	<path id="Trazado_33" class="st1" d="M158.8,44.1c-0.1,0.1-0.3,0.2-0.4,0.3c-0.3,0.1-0.7,0.2-1,0.2s-0.6-0.1-0.9-0.2
		c-0.3-0.1-0.5-0.3-0.7-0.5s-0.4-0.5-0.5-0.7c-0.2-0.6-0.2-1.2,0-1.8c0.1-0.3,0.3-0.5,0.5-0.7s0.4-0.4,0.7-0.5s0.6-0.2,0.9-0.2
		c0.2,0,0.4,0,0.6,0.1c0.2,0,0.3,0.1,0.5,0.1c0.1,0.1,0.3,0.1,0.4,0.2c0.1,0.1,0.2,0.2,0.4,0.3l-0.4,0.4c-0.2-0.2-0.4-0.3-0.6-0.4
		c-0.2-0.1-0.5-0.2-0.8-0.2c-0.2,0-0.5,0-0.7,0.1s-0.4,0.2-0.6,0.4c-0.2,0.2-0.3,0.4-0.4,0.6c-0.1,0.2-0.1,0.5-0.1,0.7
		c0,0.3,0,0.5,0.1,0.7s0.2,0.4,0.4,0.6c0.2,0.2,0.3,0.3,0.6,0.4c0.2,0.1,0.5,0.2,0.7,0.1c0.3,0,0.6-0.1,0.8-0.2
		c0.2-0.1,0.5-0.3,0.7-0.5l0.3,0.3C159.1,43.9,158.9,44,158.8,44.1L158.8,44.1z"/>
	<path id="Trazado_34" class="st1" d="M160.8,39.9v4.5h-0.5v-4.5H160.8z"/>
	<path id="Trazado_35" class="st1" d="M166.6,43.1c-0.1,0.3-0.3,0.5-0.5,0.7c-0.4,0.5-1,0.7-1.7,0.7c-0.3,0-0.6-0.1-0.9-0.2
		c-0.6-0.2-1-0.7-1.2-1.3s-0.2-1.2,0-1.8c0.1-0.3,0.3-0.5,0.5-0.7s0.5-0.4,0.7-0.5c0.6-0.3,1.3-0.3,1.9,0c0.6,0.2,1,0.7,1.2,1.3
		c0.1,0.3,0.2,0.6,0.2,0.9C166.7,42.5,166.7,42.8,166.6,43.1z M166.1,41.5c-0.2-0.4-0.5-0.8-0.9-1c-0.2-0.1-0.5-0.2-0.7-0.1
		c-0.2,0-0.5,0-0.7,0.1s-0.4,0.2-0.6,0.4c-0.2,0.2-0.3,0.4-0.4,0.6c-0.1,0.2-0.1,0.5-0.1,0.7c0,0.3,0,0.5,0.1,0.7
		c0.2,0.4,0.5,0.8,0.9,1c0.7,0.3,1.5,0.1,2-0.4c0.2-0.2,0.3-0.4,0.4-0.6c0.1-0.2,0.1-0.5,0.1-0.7C166.2,41.9,166.1,41.7,166.1,41.5
		L166.1,41.5z M164.2,39.5l0.6-0.9l0.5,0.2l-0.7,0.7H164.2z"/>
	<path id="Trazado_36" class="st1" d="M171.3,39.9h0.5v4.5h-0.4l-2.9-3.7v3.7H168v-4.5h0.5l2.9,3.6L171.3,39.9z"/>
	<path id="Trazado_37" class="st1" d="M178.2,44.3c-0.3,0.1-0.7,0.2-1,0.2s-0.7-0.1-1-0.2c-0.3-0.1-0.5-0.3-0.7-0.5
		s-0.4-0.5-0.5-0.7c-0.1-0.3-0.2-0.6-0.2-0.9c0-0.3,0.1-0.6,0.2-0.9c0.1-0.3,0.3-0.5,0.5-0.8c0.4-0.5,1-0.7,1.6-0.7
		c0.2,0,0.3,0,0.5,0s0.3,0.1,0.4,0.1c0.1,0,0.3,0.1,0.4,0.2c0.1,0.1,0.2,0.2,0.4,0.3l-0.3,0.4c-0.1-0.1-0.2-0.1-0.3-0.2
		c-0.1-0.1-0.2-0.1-0.3-0.2c-0.1,0-0.2-0.1-0.4-0.1c-0.1,0-0.3,0-0.4,0c-0.2,0-0.5,0-0.7,0.1s-0.4,0.2-0.5,0.4
		c-0.2,0.2-0.3,0.4-0.4,0.6c-0.1,0.2-0.1,0.5-0.1,0.7c0,0.3,0,0.5,0.1,0.8c0.1,0.2,0.2,0.4,0.4,0.6c0.2,0.2,0.3,0.3,0.6,0.4
		c0.2,0.1,0.5,0.1,0.7,0.1s0.5,0,0.7-0.1s0.4-0.2,0.6-0.3v-1.1h-1.4V42h1.9v1.8C178.8,44,178.5,44.2,178.2,44.3z"/>
	<path id="Trazado_38" class="st1" d="M183.7,40.4h-2.8v1.5h2.5v0.5h-2.5V44h2.8v0.5h-3.3V40h3.3V40.4z"/>
	<path id="Trazado_39" class="st1" d="M188.2,39.9h0.5v4.5h-0.4l-2.9-3.7v3.7h-0.5v-4.5h0.5l2.9,3.6v-3.6H188.2z"/>
	<path id="Trazado_40" class="st1" d="M193.5,40.4h-2.8v1.5h2.5v0.5h-2.5V44h2.8v0.5h-3.3V40h3.3V40.4z"/>
	<path id="Trazado_41" class="st1" d="M197.8,44.5l-1.3-1.8h-1.3v1.8h-0.5V40h1.9c0.2,0,0.5,0,0.7,0.1s0.4,0.2,0.5,0.3
		s0.3,0.3,0.3,0.4c0.1,0.2,0.1,0.4,0.1,0.6c0,0.2,0,0.3-0.1,0.5c-0.1,0.1-0.1,0.3-0.3,0.4c-0.1,0.1-0.2,0.2-0.4,0.3
		s-0.3,0.1-0.5,0.2l1.4,1.8L197.8,44.5z M197.5,40.6c-0.2-0.2-0.6-0.3-0.9-0.2h-1.4v1.8h1.4c0.2,0,0.3,0,0.5-0.1
		c0.1,0,0.2-0.1,0.4-0.2c0.1-0.1,0.2-0.2,0.2-0.3c0.1-0.1,0.1-0.3,0.1-0.4C197.8,41,197.7,40.8,197.5,40.6L197.5,40.6z"/>
	<path id="Trazado_42" class="st1" d="M203.9,44.5h-0.5l-0.5-1.2h-2.5l-0.5,1.2h-0.5l2.1-4.6h0.5L203.9,44.5z M201.6,40.5l-1,2.3
		h2.1L201.6,40.5z"/>
	<path id="Trazado_43" class="st1" d="M205,39.9h0.5V44h2.6v0.5H205V39.9z"/>
	<path id="Trazado_44" class="st1" d="M214.8,43.1c-0.1,0.3-0.3,0.5-0.5,0.7s-0.5,0.4-0.8,0.5s-0.6,0.2-1,0.2H211V40h1.6
		c0.3,0,0.7,0.1,1,0.2c0.3,0.1,0.5,0.3,0.8,0.5c0.2,0.2,0.4,0.4,0.5,0.7C215,41.9,215,42.5,214.8,43.1L214.8,43.1z M214.3,41.5
		c-0.1-0.2-0.2-0.4-0.4-0.6c-0.2-0.2-0.4-0.3-0.6-0.4c-0.2-0.1-0.5-0.1-0.8-0.1h-1.1V44h1.1c0.3,0,0.5,0,0.8-0.1
		c0.4-0.2,0.8-0.5,1-0.9c0.1-0.2,0.1-0.5,0.1-0.7C214.4,42,214.4,41.7,214.3,41.5L214.3,41.5z"/>
	<path id="Trazado_45" class="st1" d="M219.5,40.4h-2.8v1.5h2.5v0.5h-2.5V44h2.8v0.5h-3.3V40h3.3V40.4z"/>
	<path id="Trazado_46" class="st1" d="M220.7,39.9h0.5V44h2.6v0.5h-3.1V39.9z"/>
	<path id="Trazado_47" class="st1" d="M227.1,41.4c0,0.1,0.1,0.2,0.2,0.2c0.1,0.1,0.2,0.1,0.4,0.2c0.2,0.1,0.4,0.1,0.6,0.2
		c0.4,0.1,0.8,0.2,1.1,0.5c0.2,0.2,0.4,0.5,0.4,0.8c0,0.2,0,0.4-0.1,0.5c-0.1,0.2-0.2,0.3-0.3,0.4c-0.1,0.1-0.3,0.2-0.5,0.3
		s-0.4,0.1-0.6,0.1c-0.3,0-0.7-0.1-1-0.2c-0.3-0.1-0.6-0.3-0.9-0.5l0.3-0.4c0.2,0.2,0.4,0.4,0.7,0.5s0.5,0.2,0.8,0.2
		s0.5-0.1,0.7-0.2c0.2-0.1,0.3-0.3,0.3-0.6c0-0.1,0-0.2-0.1-0.3c0-0.1-0.1-0.2-0.2-0.2c-0.1-0.1-0.2-0.1-0.4-0.2
		c-0.2-0.1-0.4-0.1-0.6-0.2c-0.2,0-0.5-0.1-0.7-0.2c-0.2-0.1-0.3-0.2-0.5-0.3c-0.1-0.1-0.2-0.2-0.3-0.4s-0.1-0.3-0.1-0.5
		s0-0.3,0.1-0.5s0.2-0.3,0.3-0.4c0.1-0.1,0.3-0.2,0.5-0.3s0.4-0.1,0.6-0.1c0.3,0,0.6,0,0.9,0.1c0.3,0.1,0.5,0.2,0.7,0.4l-0.3,0.4
		c-0.2-0.2-0.4-0.3-0.6-0.4c-0.2-0.1-0.4-0.1-0.7-0.1c-0.1,0-0.3,0-0.4,0.1c-0.1,0-0.2,0.1-0.3,0.2c-0.1,0.1-0.1,0.1-0.2,0.2
		c0,0.1-0.1,0.2-0.1,0.3C227.1,41.2,227.1,41.3,227.1,41.4z"/>
	<path id="Trazado_48" class="st1" d="M231.6,39.9v4.5h-0.5v-4.5H231.6z"/>
	<path id="Trazado_49" class="st1" d="M233.5,41.4c0,0.1,0.1,0.2,0.2,0.2c0.1,0.1,0.2,0.2,0.4,0.2c0.2,0.1,0.4,0.1,0.6,0.2
		c0.4,0.1,0.8,0.2,1.1,0.5c0.2,0.2,0.4,0.5,0.4,0.8c0,0.2,0,0.4-0.1,0.5c-0.1,0.2-0.2,0.3-0.3,0.4c-0.1,0.1-0.3,0.2-0.5,0.3
		s-0.4,0.1-0.6,0.1c-0.3,0-0.7-0.1-1-0.2c-0.3-0.1-0.6-0.3-0.9-0.5l0.3-0.4c0.2,0.2,0.4,0.4,0.7,0.5s0.5,0.2,0.8,0.2
		s0.5-0.1,0.7-0.2c0.2-0.1,0.3-0.3,0.3-0.6c0-0.1,0-0.2,0-0.3s-0.1-0.2-0.2-0.2c-0.1-0.1-0.2-0.1-0.4-0.2c-0.2-0.1-0.4-0.1-0.6-0.2
		c-0.2,0-0.5-0.1-0.7-0.2c-0.2-0.1-0.3-0.2-0.5-0.3c-0.1-0.1-0.2-0.2-0.3-0.4s-0.1-0.3-0.1-0.5s0-0.3,0.1-0.5s0.2-0.3,0.3-0.4
		c0.1-0.1,0.3-0.2,0.5-0.3s0.4-0.1,0.6-0.1c0.3,0,0.6,0,0.9,0.1c0.3,0.1,0.5,0.2,0.7,0.4l-0.3,0.4c-0.2-0.2-0.4-0.3-0.6-0.4
		c-0.2-0.1-0.4-0.1-0.7-0.1c-0.1,0-0.3,0-0.4,0.1c-0.1,0-0.2,0.1-0.3,0.2c-0.1,0.1-0.1,0.1-0.2,0.2c0,0.1-0.1,0.2-0.1,0.3
		C233.5,41.2,233.5,41.3,233.5,41.4z"/>
	<path id="Trazado_50" class="st1" d="M239.1,44.5h-0.5v-4.1h-1.5v-0.5h3.5v0.5h-1.5V44.5z"/>
	<path id="Trazado_51" class="st1" d="M245,40.4h-2.8v1.5h2.5v0.5h-2.5V44h2.8v0.5h-3.3V40h3.3V40.4z"/>
	<path id="Trazado_52" class="st1" d="M248.4,43.2L248.4,43.2l-1.7-2.4v3.7h-0.5V40h0.5l1.7,2.5L250,40h0.5v4.5H250v-3.7L248.4,43.2
		z"/>
	<path id="Trazado_53" class="st1" d="M256.2,44.5h-0.5l-0.5-1.2h-2.5l-0.5,1.2h-0.5l2.1-4.6h0.5L256.2,44.5z M253.9,40.5l-1,2.3
		h2.1L253.9,40.5z"/>
	<path id="Trazado_54" class="st1" d="M137.7,50.9c-0.1,0.3-0.3,0.5-0.5,0.7s-0.5,0.4-0.8,0.5s-0.6,0.2-1,0.2h-1.6v-4.5h1.6
		c0.3,0,0.7,0.1,1,0.2c0.3,0.1,0.5,0.3,0.8,0.5c0.2,0.2,0.4,0.4,0.5,0.7C137.9,49.6,137.9,50.3,137.7,50.9L137.7,50.9z M137.2,49.3
		c-0.2-0.4-0.5-0.8-1-1c-0.2-0.1-0.5-0.1-0.8-0.1h-1.1v3.6h1.1c0.3,0,0.5,0,0.8-0.1c0.4-0.2,0.8-0.5,1-0.9c0.1-0.2,0.1-0.5,0.1-0.7
		C137.3,49.7,137.3,49.5,137.2,49.3L137.2,49.3z"/>
	<path id="Trazado_55" class="st1" d="M142.4,48.2h-2.8v1.5h2.5v0.5h-2.5v1.6h2.8v0.5h-3.3v-4.5h3.3V48.2z"/>
	<path id="Trazado_56" class="st1" d="M149.7,52.2h-0.5l-0.5-1.2h-2.5l-0.5,1.2h-0.5l2.1-4.6h0.5L149.7,52.2z M147.4,48.3l-1,2.3
		h2.1L147.4,48.3z M147.2,47.3l0.6-0.9l0.5,0.2l-0.7,0.7H147.2z"/>
	<path id="Trazado_57" class="st1" d="M153.8,52.2l-1.3-1.8h-1.3v1.8h-0.5v-4.5h2c0.2,0,0.5,0,0.7,0.1s0.4,0.2,0.5,0.3
		s0.3,0.3,0.3,0.4c0.1,0.2,0.1,0.4,0.1,0.6c0,0.2,0,0.3-0.1,0.5c-0.1,0.1-0.1,0.3-0.3,0.4c-0.1,0.1-0.2,0.2-0.4,0.3
		s-0.3,0.1-0.5,0.2l1.4,1.8L153.8,52.2z M153.5,48.4c-0.3-0.2-0.6-0.3-0.9-0.2h-1.4V50h1.4c0.2,0,0.3,0,0.5-0.1
		c0.1,0,0.2-0.1,0.4-0.2c0.1-0.1,0.2-0.2,0.2-0.3c0.1-0.1,0.1-0.3,0.1-0.4C153.8,48.8,153.7,48.6,153.5,48.4L153.5,48.4z"/>
	<path id="Trazado_58" class="st1" d="M158.9,48.2h-2.8v1.5h2.5v0.5h-2.5v1.6h2.8v0.5h-3.3v-4.5h3.3V48.2z"/>
	<path id="Trazado_59" class="st1" d="M164.4,52.2h-0.6l-0.5-1.2h-2.5l-0.5,1.2h-0.5l2.1-4.6h0.5L164.4,52.2z M162.1,48.3l-1,2.3
		h2.1L162.1,48.3z"/>
	<path id="Trazado_60" class="st1" d="M166,49.1c0,0.1,0.1,0.2,0.2,0.2c0.1,0.1,0.2,0.1,0.4,0.2c0.2,0.1,0.4,0.1,0.6,0.2
		c0.4,0.1,0.8,0.2,1.1,0.5c0.2,0.2,0.4,0.5,0.4,0.8c0,0.2,0,0.4-0.1,0.5c-0.1,0.2-0.2,0.3-0.3,0.4c-0.1,0.1-0.3,0.2-0.5,0.3
		s-0.4,0.1-0.6,0.1c-0.3,0-0.7-0.1-1-0.2c-0.3-0.1-0.6-0.3-0.9-0.5l0.3-0.4c0.2,0.2,0.4,0.4,0.7,0.5s0.5,0.2,0.8,0.2
		s0.5-0.1,0.7-0.2c0.2-0.1,0.3-0.3,0.3-0.6c0-0.1,0-0.2-0.1-0.3c0-0.1-0.1-0.2-0.2-0.2c-0.1-0.1-0.2-0.1-0.4-0.2
		c-0.2-0.1-0.4-0.1-0.6-0.2c-0.2,0-0.5-0.1-0.7-0.2c-0.2-0.1-0.3-0.2-0.5-0.3c-0.1-0.1-0.2-0.2-0.3-0.4s-0.1-0.3-0.1-0.5
		s0-0.3,0.1-0.5s0.2-0.3,0.3-0.4c0.1-0.1,0.3-0.2,0.5-0.3s0.4-0.1,0.6-0.1c0.3,0,0.6,0,0.9,0.1c0.3,0.1,0.5,0.2,0.7,0.4l-0.3,0.4
		c-0.2-0.2-0.4-0.3-0.6-0.4c-0.2-0.1-0.4-0.1-0.7-0.1c-0.1,0-0.3,0-0.4,0.1c-0.1,0-0.2,0.1-0.3,0.2c-0.1,0.1-0.1,0.1-0.2,0.2
		c0,0.1-0.1,0.2-0.1,0.3C165.9,48.9,165.9,49,166,49.1z"/>
	<path id="Trazado_61" class="st1" d="M175,47.7h0.5v4.5h-0.4l-2.9-3.7v3.7h-0.5v-4.5h0.5l2.9,3.6L175,47.7z"/>
	<path id="Trazado_62" class="st1" d="M181.1,52.2h-0.5l-0.5-1.2h-2.5l-0.5,1.2h-0.5l2.1-4.6h0.5L181.1,52.2z M178.8,48.3l-1,2.3
		h2.1L178.8,48.3z"/>
	<path id="Trazado_63" class="st1" d="M183.4,52.2h-0.5v-4.1h-1.5v-0.5h3.5v0.5h-1.5V52.2z"/>
	<path id="Trazado_64" class="st1" d="M189.7,50.3c0,0.3,0,0.6-0.1,0.9c-0.1,0.2-0.2,0.4-0.4,0.6c-0.2,0.2-0.4,0.3-0.6,0.4
		c-0.2,0.1-0.5,0.1-0.8,0.1s-0.5,0-0.8-0.1c-0.2-0.1-0.4-0.2-0.6-0.4c-0.2-0.2-0.3-0.4-0.4-0.6c-0.1-0.3-0.1-0.6-0.1-0.8v-2.6h0.5
		v2.6c0,0.4,0.1,0.8,0.4,1.1c0.6,0.5,1.4,0.5,2,0c0.3-0.3,0.4-0.7,0.4-1.1v-2.6h0.5L189.7,50.3z"/>
	<path id="Trazado_65" class="st1" d="M194.3,52.2l-1.3-1.8h-1.3v1.8h-0.5v-4.5h1.9c0.2,0,0.5,0,0.7,0.1s0.4,0.2,0.5,0.3
		s0.3,0.3,0.3,0.4c0.1,0.2,0.1,0.4,0.1,0.6c0,0.2,0,0.3-0.1,0.5c-0.1,0.1-0.1,0.3-0.3,0.4c-0.1,0.1-0.2,0.2-0.4,0.3
		s-0.3,0.1-0.5,0.2l1.4,1.8L194.3,52.2z M193.9,48.4c-0.3-0.2-0.6-0.3-0.9-0.2h-1.4V50h1.4c0.2,0,0.3,0,0.5-0.1
		c0.1,0,0.2-0.1,0.4-0.2c0.1-0.1,0.2-0.2,0.2-0.3c0.1-0.1,0.1-0.3,0.1-0.4C194.2,48.8,194.1,48.6,193.9,48.4L193.9,48.4z"/>
	<path id="Trazado_66" class="st1" d="M200.4,52.2h-0.5l-0.5-1.2h-2.5l-0.5,1.2h-0.5l2.1-4.6h0.5L200.4,52.2z M198.1,48.3l-1,2.3
		h2.1L198.1,48.3z"/>
	<path id="Trazado_67" class="st1" d="M201.4,47.7h0.5v4.1h2.6v0.5h-3.1V47.7z"/>
	<path id="Trazado_68" class="st1" d="M208.8,48.2H206v1.5h2.5v0.5H206v1.6h2.8v0.5h-3.3v-4.5h3.3V48.2z"/>
	<path id="Trazado_69" class="st1" d="M210.5,49.1c0,0.1,0.1,0.2,0.2,0.2c0.1,0.1,0.2,0.1,0.4,0.2c0.2,0.1,0.4,0.1,0.6,0.2
		c0.4,0.1,0.8,0.2,1.1,0.5c0.2,0.2,0.4,0.5,0.4,0.8c0,0.2,0,0.4-0.1,0.5c-0.1,0.2-0.2,0.3-0.3,0.4c-0.1,0.1-0.3,0.2-0.5,0.3
		s-0.4,0.1-0.6,0.1c-0.3,0-0.7-0.1-1-0.2c-0.3-0.1-0.6-0.3-0.9-0.5l0.3-0.4c0.2,0.2,0.4,0.4,0.7,0.5s0.5,0.2,0.8,0.2
		s0.5-0.1,0.7-0.2c0.2-0.1,0.3-0.3,0.3-0.6c0-0.1,0-0.2-0.1-0.3c0-0.1-0.1-0.2-0.2-0.2c-0.1-0.1-0.2-0.1-0.4-0.2
		c-0.2-0.1-0.4-0.1-0.6-0.2c-0.2,0-0.5-0.1-0.7-0.2c-0.2-0.1-0.3-0.2-0.5-0.3c-0.1-0.1-0.2-0.2-0.3-0.4s-0.1-0.3-0.1-0.5
		c0-0.3,0.2-0.7,0.4-0.9c0.1-0.1,0.3-0.2,0.5-0.3s0.4-0.1,0.6-0.1c0.3,0,0.6,0,0.9,0.1c0.3,0.1,0.5,0.2,0.7,0.4l-0.3,0.4
		c-0.2-0.2-0.4-0.3-0.6-0.4c-0.2-0.1-0.4-0.1-0.7-0.1c-0.1,0-0.3,0-0.4,0.1c-0.1,0-0.2,0.1-0.3,0.2c-0.1,0.1-0.1,0.1-0.2,0.2
		c0,0.1-0.1,0.2-0.1,0.3C210.5,48.9,210.5,49,210.5,49.1L210.5,49.1z"/>
	<path id="Trazado_70" class="st1" d="M219.5,49.8c-0.1,0.2-0.2,0.3-0.4,0.5c-0.2,0.1-0.4,0.2-0.6,0.3c-0.2,0.1-0.5,0.1-0.7,0.1
		h-1.1v1.6h-0.5v-4.5h1.7c0.2,0,0.5,0,0.7,0.1s0.4,0.2,0.5,0.3c0.2,0.1,0.3,0.3,0.4,0.5c0.1,0.2,0.1,0.4,0.1,0.6
		C219.7,49.4,219.6,49.6,219.5,49.8L219.5,49.8z M218.8,48.4c-0.3-0.2-0.6-0.3-0.9-0.2h-1.2v2h1.1c0.2,0,0.3,0,0.5-0.1
		c0.1,0,0.3-0.1,0.4-0.2c0.1-0.1,0.2-0.2,0.3-0.3s0.1-0.3,0.1-0.4C219.1,48.9,219,48.6,218.8,48.4L218.8,48.4z"/>
	<path id="Trazado_71" class="st1" d="M223.8,52.2l-1.3-1.8h-1.3v1.8h-0.5v-4.5h1.9c0.2,0,0.5,0,0.7,0.1s0.4,0.2,0.5,0.3
		s0.3,0.3,0.3,0.4c0.1,0.2,0.1,0.4,0.1,0.6c0,0.2,0,0.3-0.1,0.5c-0.1,0.1-0.1,0.3-0.3,0.4c-0.1,0.1-0.2,0.2-0.4,0.3
		s-0.3,0.1-0.5,0.2l1.4,1.8L223.8,52.2z M223.5,48.4c-0.3-0.2-0.6-0.3-0.9-0.2h-1.4V50h1.4c0.2,0,0.3,0,0.5-0.1
		c0.1,0,0.3-0.1,0.4-0.2c0.1-0.1,0.2-0.2,0.2-0.3c0.1-0.1,0.1-0.3,0.1-0.4C223.8,48.8,223.7,48.6,223.5,48.4L223.5,48.4z"/>
	<path id="Trazado_72" class="st1" d="M229.8,50.9c-0.1,0.3-0.3,0.5-0.5,0.7s-0.5,0.4-0.7,0.5c-0.3,0.1-0.6,0.2-0.9,0.2
		c-0.9,0-1.8-0.6-2.1-1.4c-0.1-0.3-0.2-0.6-0.2-0.9c0-0.3,0.1-0.6,0.2-0.9c0.1-0.3,0.3-0.5,0.5-0.7c0.9-0.9,2.3-1,3.3-0.1
		c0.2,0.2,0.4,0.5,0.6,0.8C230,49.6,230,50.3,229.8,50.9L229.8,50.9z M229.3,49.2c-0.2-0.4-0.5-0.8-0.9-1c-0.2-0.1-0.5-0.2-0.7-0.1
		c-0.2,0-0.5,0-0.7,0.1s-0.4,0.2-0.6,0.4c-0.2,0.2-0.3,0.4-0.4,0.6c-0.2,0.5-0.2,1,0,1.5c0.2,0.4,0.5,0.8,0.9,1
		c0.2,0.1,0.5,0.2,0.7,0.1c0.2,0,0.5,0,0.7-0.1s0.4-0.2,0.6-0.4c0.2-0.2,0.3-0.4,0.4-0.6c0.1-0.2,0.1-0.5,0.1-0.7
		C229.4,49.7,229.4,49.5,229.3,49.2L229.3,49.2z"/>
	<path id="Trazado_73" class="st1" d="M232.7,52.2h-0.5v-4.1h-1.5v-0.5h3.5v0.5h-1.5V52.2z"/>
	<path id="Trazado_74" class="st1" d="M238.5,48.2h-2.8v1.5h2.5v0.5h-2.5v1.6h2.8v0.5h-3.3v-4.5h3.3V48.2z"/>
	<path id="Trazado_75" class="st1" d="M242.8,52.1c-0.3,0.1-0.7,0.2-1,0.2s-0.7-0.1-1-0.2c-0.3-0.1-0.5-0.3-0.7-0.5
		s-0.4-0.5-0.5-0.7c-0.1-0.3-0.2-0.6-0.2-0.9c0-0.3,0.1-0.6,0.2-0.9c0.1-0.3,0.3-0.5,0.5-0.7c0.4-0.5,1-0.7,1.6-0.7
		c0.2,0,0.3,0,0.5,0c0.1,0,0.3,0.1,0.4,0.1c0.1,0.1,0.3,0.1,0.4,0.2c0.1,0.1,0.2,0.2,0.4,0.3l-0.3,0.4c-0.1-0.1-0.2-0.1-0.3-0.2
		c-0.1-0.1-0.2-0.1-0.3-0.2c-0.1,0-0.2-0.1-0.4-0.1c-0.1,0-0.3,0-0.4,0c-0.2,0-0.5,0-0.7,0.1s-0.4,0.2-0.5,0.4
		c-0.2,0.2-0.3,0.4-0.4,0.6c-0.1,0.2-0.1,0.5-0.1,0.7c0,0.3,0,0.5,0.1,0.8c0.1,0.2,0.2,0.4,0.4,0.6c0.2,0.2,0.4,0.3,0.6,0.4
		c0.2,0.1,0.5,0.1,0.7,0.1s0.5,0,0.7-0.1s0.4-0.2,0.6-0.3v-1.1h-1.4v-0.5h1.9v1.8C243.3,51.8,243.1,52,242.8,52.1z"/>
	<path id="Trazado_76" class="st1" d="M245.5,47.7v4.5H245v-4.5H245.5z"/>
	<path id="Trazado_77" class="st1" d="M250.8,50.9c-0.1,0.3-0.3,0.5-0.5,0.7s-0.5,0.4-0.8,0.5s-0.6,0.2-1,0.2H247v-4.5h1.6
		c0.3,0,0.7,0.1,1,0.2c0.3,0.1,0.5,0.3,0.8,0.5c0.2,0.2,0.4,0.4,0.5,0.7C251.1,49.6,251.1,50.3,250.8,50.9L250.8,50.9z M250.3,49.3
		c-0.1-0.2-0.2-0.4-0.4-0.6c-0.2-0.2-0.4-0.3-0.6-0.4c-0.2-0.1-0.5-0.1-0.8-0.1h-1.1v3.6h1.1c0.3,0,0.5,0,0.8-0.1
		c0.2-0.1,0.4-0.2,0.6-0.4c0.2-0.2,0.3-0.4,0.4-0.6c0.1-0.2,0.1-0.5,0.1-0.7C250.5,49.7,250.4,49.5,250.3,49.3L250.3,49.3z"/>
	<path id="Trazado_78" class="st1" d="M256.2,52.2h-0.5l-0.5-1.2h-2.5l-0.5,1.2h-0.5l2.1-4.6h0.5L256.2,52.2z M253.9,48.3l-1,2.3
		h2.1L253.9,48.3z"/>
	<path id="Trazado_79" class="st1" d="M257.7,49.1c0,0.1,0.1,0.2,0.2,0.2c0.1,0.1,0.2,0.1,0.4,0.2c0.2,0.1,0.4,0.1,0.6,0.2
		c0.4,0.1,0.8,0.2,1.1,0.5c0.2,0.2,0.4,0.5,0.4,0.8c0,0.2,0,0.4-0.1,0.5c-0.1,0.2-0.2,0.3-0.3,0.4c-0.1,0.1-0.3,0.2-0.5,0.3
		s-0.4,0.1-0.6,0.1c-0.3,0-0.7-0.1-1-0.2c-0.3-0.1-0.6-0.3-0.9-0.5l0.3-0.4c0.2,0.2,0.4,0.4,0.7,0.5c0.3,0.1,0.5,0.2,0.8,0.2
		s0.5-0.1,0.7-0.2c0.2-0.1,0.3-0.3,0.3-0.6c0-0.1,0-0.2-0.1-0.3c0-0.1-0.1-0.2-0.2-0.2c-0.1-0.1-0.2-0.1-0.4-0.2
		c-0.2-0.1-0.4-0.1-0.6-0.2c-0.2,0-0.5-0.1-0.7-0.2c-0.2-0.1-0.3-0.2-0.5-0.3c-0.1-0.1-0.2-0.2-0.3-0.4c-0.1-0.2-0.1-0.3-0.1-0.5
		s0-0.3,0.1-0.5s0.2-0.3,0.3-0.4c0.1-0.1,0.3-0.2,0.5-0.3s0.4-0.1,0.6-0.1c0.3,0,0.6,0,0.9,0.1s0.5,0.2,0.7,0.4l-0.3,0.4
		c-0.2-0.2-0.4-0.3-0.6-0.4c-0.2-0.1-0.4-0.1-0.7-0.1c-0.1,0-0.3,0-0.4,0.1c-0.1,0-0.2,0.1-0.3,0.2c-0.1,0.1-0.1,0.1-0.2,0.2
		c0,0.1-0.1,0.2-0.1,0.3C257.7,48.9,257.7,49,257.7,49.1z"/>
	<path id="Trazado_80" class="st1" d="M135.8,60h-0.5v-1.8l-1.9-2.7h0.6l1.5,2.3l1.5-2.3h0.6l-1.9,2.7L135.8,60z"/>
	<path id="Trazado_81" class="st1" d="M144.7,60h-0.5l-0.5-1.2h-2.5l-0.5,1.2h-0.5l2.1-4.6h0.5L144.7,60z M142.4,56l-1,2.3h2.1
		L142.4,56z M142.2,55.1l0.6-0.9l0.5,0.2l-0.7,0.7H142.2z"/>
	<path id="Trazado_82" class="st1" d="M148.9,60l-1.3-1.8h-1.3V60h-0.5v-4.5h2c0.2,0,0.5,0,0.7,0.1s0.4,0.2,0.5,0.3s0.3,0.3,0.3,0.4
		c0.1,0.2,0.1,0.4,0.1,0.6c0,0.2,0,0.3-0.1,0.5c-0.1,0.1-0.1,0.3-0.3,0.4c-0.1,0.1-0.2,0.2-0.4,0.3s-0.3,0.1-0.5,0.2l1.4,1.8
		L148.9,60z M148.5,56.2c-0.3-0.2-0.6-0.3-0.9-0.2h-1.4v1.8h1.4c0.2,0,0.3,0,0.5-0.1c0.1,0,0.2-0.1,0.4-0.2c0.1-0.1,0.2-0.2,0.2-0.3
		c0.1-0.1,0.1-0.3,0.1-0.4C148.8,56.6,148.7,56.3,148.5,56.2L148.5,56.2z"/>
	<path id="Trazado_83" class="st1" d="M153.9,55.9h-2.8v1.5h2.5v0.5h-2.5v1.6h2.8V60h-3.3v-4.5h3.3V55.9z"/>
	<path id="Trazado_84" class="st1" d="M159.5,60H159l-0.5-1.2H156l-0.5,1.2H155l2.1-4.6h0.5L159.5,60z M157.2,56l-1,2.3h2.1
		L157.2,56z"/>
	<path id="Trazado_85" class="st1" d="M161,56.9c0,0.1,0.1,0.2,0.2,0.2c0.1,0.1,0.2,0.2,0.4,0.2c0.2,0.1,0.4,0.1,0.6,0.2
		c0.4,0.1,0.8,0.2,1.1,0.5c0.2,0.2,0.4,0.5,0.4,0.8c0,0.4-0.2,0.7-0.4,0.9c-0.1,0.1-0.3,0.2-0.5,0.3s-0.4,0.1-0.6,0.1
		c-0.3,0-0.7-0.1-1-0.2c-0.3-0.1-0.6-0.3-0.9-0.5l0.3-0.4c0.2,0.2,0.4,0.4,0.7,0.5s0.5,0.2,0.8,0.2s0.5-0.1,0.7-0.2
		c0.2-0.1,0.3-0.3,0.3-0.6c0-0.1,0-0.2-0.1-0.3c0-0.1-0.1-0.2-0.2-0.2c-0.1-0.1-0.2-0.1-0.4-0.2c-0.2-0.1-0.4-0.1-0.6-0.2
		c-0.2,0-0.5-0.1-0.7-0.2c-0.2-0.1-0.3-0.2-0.5-0.3c-0.1-0.1-0.2-0.2-0.3-0.4s-0.1-0.3-0.1-0.5s0-0.3,0.1-0.5s0.2-0.3,0.3-0.4
		c0.1-0.1,0.3-0.2,0.5-0.3s0.4-0.1,0.6-0.1c0.3,0,0.6,0,0.9,0.1c0.3,0.1,0.5,0.2,0.7,0.4l-0.3,0.4c-0.2-0.2-0.4-0.3-0.6-0.4
		c-0.2-0.1-0.4-0.1-0.7-0.1c-0.1,0-0.3,0-0.4,0.1c-0.1,0-0.2,0.1-0.3,0.2c-0.1,0.1-0.1,0.1-0.2,0.2c0,0.1-0.1,0.2-0.1,0.3
		C161,56.7,161,56.8,161,56.9z"/>
	<path id="Trazado_86" class="st1" d="M170.5,58.6c-0.1,0.3-0.3,0.5-0.5,0.7s-0.5,0.4-0.8,0.5s-0.6,0.2-1,0.2h-1.6v-4.5h1.6
		c0.3,0,0.7,0.1,1,0.2c0.3,0.1,0.5,0.3,0.8,0.5c0.2,0.2,0.4,0.4,0.5,0.7s0.2,0.6,0.2,0.9C170.7,58,170.6,58.3,170.5,58.6z M170,57
		c-0.1-0.2-0.2-0.4-0.4-0.6c-0.2-0.2-0.4-0.3-0.6-0.4c-0.2-0.1-0.5-0.1-0.8-0.1h-1.1v3.6h1.1c0.3,0,0.5,0,0.8-0.1
		c0.2-0.1,0.4-0.2,0.6-0.4c0.2-0.2,0.3-0.4,0.4-0.6c0.1-0.2,0.1-0.5,0.1-0.7S170.1,57.3,170,57L170,57z"/>
	<path id="Trazado_87" class="st1" d="M175.2,55.9h-2.8v1.5h2.5v0.5h-2.5v1.6h2.8V60h-3.3v-4.5h3.3V55.9z"/>
	<path id="Trazado_88" class="st1" d="M181.7,55.5h0.5l-1.9,4.6h-0.5l-1.9-4.6h0.6l1.6,3.9L181.7,55.5z"/>
	<path id="Trazado_89" class="st1" d="M187.1,60h-0.5l-0.5-1.2h-2.5L183,60h-0.5l2.1-4.6h0.5L187.1,60z M184.8,56l-1,2.3h2.1
		L184.8,56z"/>
	<path id="Trazado_90" class="st1" d="M188.1,55.5h0.5v4h2.6V60h-3.1V55.5z"/>
	<path id="Trazado_91" class="st1" d="M196.3,58.6c-0.1,0.3-0.3,0.5-0.5,0.7s-0.5,0.4-0.7,0.5c-0.3,0.1-0.6,0.2-0.9,0.2
		c-0.3,0-0.6-0.1-0.9-0.2c-0.6-0.2-1-0.7-1.2-1.3c-0.1-0.3-0.2-0.6-0.2-0.9c0-0.3,0.1-0.6,0.2-0.9c0.1-0.3,0.3-0.5,0.5-0.7
		s0.5-0.4,0.7-0.5c0.3-0.1,0.6-0.2,0.9-0.2c0.3,0,0.6,0.1,0.9,0.2c0.3,0.1,0.5,0.3,0.7,0.5s0.4,0.5,0.5,0.7
		C196.5,57.4,196.5,58,196.3,58.6L196.3,58.6z M195.8,57c-0.1-0.2-0.2-0.4-0.4-0.6c-0.2-0.2-0.4-0.3-0.6-0.4c-0.5-0.2-1-0.2-1.4,0
		c-0.2,0.1-0.4,0.2-0.6,0.4c-0.2,0.2-0.3,0.4-0.4,0.6c-0.2,0.5-0.2,1,0,1.5c0.2,0.4,0.5,0.8,0.9,1c0.2,0.1,0.5,0.2,0.7,0.1
		c0.2,0,0.5,0,0.7-0.1s0.4-0.2,0.6-0.4c0.2-0.2,0.3-0.4,0.4-0.6c0.1-0.2,0.1-0.5,0.1-0.7C196,57.5,195.9,57.2,195.8,57L195.8,57z"/>
	<path id="Trazado_92" class="st1" d="M200.9,60l-1.3-1.8h-1.3V60h-0.5v-4.5h1.9c0.2,0,0.5,0,0.7,0.1s0.4,0.1,0.5,0.3
		c0.1,0.1,0.3,0.3,0.3,0.4c0.1,0.3,0.2,0.7,0,1.1c-0.1,0.1-0.1,0.3-0.3,0.4c-0.1,0.1-0.2,0.2-0.4,0.3s-0.3,0.1-0.5,0.2l1.4,1.8
		L200.9,60z M200.5,56.2c-0.3-0.2-0.6-0.3-0.9-0.2h-1.4v1.8h1.4c0.2,0,0.3,0,0.5-0.1c0.1,0,0.2-0.1,0.4-0.2c0.2-0.2,0.3-0.4,0.3-0.7
		C200.8,56.6,200.7,56.3,200.5,56.2L200.5,56.2z"/>
	<path id="Trazado_93" class="st1" d="M208.7,60h-0.5l-0.5-1.2h-2.5l-0.5,1.2H204l2.1-4.6h0.5L208.7,60z M206.3,56l-1,2.3h2.1
		L206.3,56z"/>
	<path id="Trazado_94" class="st1" d="M211.9,58.8L211.9,58.8l-1.7-2.4V60h-0.5v-4.5h0.5l1.7,2.5l1.7-2.5h0.5V60h-0.5v-3.7
		L211.9,58.8z"/>
	<path id="Trazado_95" class="st1" d="M218.1,55.5c0.2,0,0.3,0.1,0.5,0.2c0.1,0.1,0.2,0.2,0.3,0.4c0.1,0.1,0.1,0.3,0.1,0.5
		c0,0.1,0,0.3-0.1,0.4c0,0.1-0.1,0.2-0.2,0.3c-0.1,0.1-0.1,0.2-0.2,0.2c-0.1,0.1-0.2,0.1-0.3,0.1c0.1,0,0.3,0.1,0.4,0.2
		c0.1,0.1,0.2,0.1,0.3,0.2c0.1,0.1,0.2,0.2,0.2,0.3c0.1,0.1,0.1,0.3,0.1,0.4c0,0.2,0,0.4-0.1,0.5c-0.1,0.2-0.2,0.3-0.3,0.4
		c-0.2,0.1-0.3,0.2-0.5,0.2c-0.2,0.1-0.4,0.1-0.7,0.1h-2v-4.5h1.9C217.7,55.5,217.9,55.5,218.1,55.5z M218.2,57.3
		c0.2-0.1,0.3-0.4,0.3-0.6c0-0.2-0.1-0.4-0.3-0.5s-0.5-0.2-0.7-0.2h-1.4v1.6h1.3C217.7,57.5,217.9,57.4,218.2,57.3L218.2,57.3z
		 M218.4,59.3c0.2-0.1,0.3-0.4,0.3-0.6c0-0.2-0.1-0.5-0.3-0.6c-0.3-0.2-0.6-0.2-0.9-0.2h-1.4v1.6h1.5
		C217.9,59.6,218.2,59.5,218.4,59.3L218.4,59.3z"/>
	<path id="Trazado_96" class="st1" d="M221,55.5V60h-0.5v-4.5H221z"/>
	<path id="Trazado_97" class="st1" d="M225.8,55.9H223v1.5h2.5v0.5H223v1.6h2.8V60h-3.3v-4.5h3.3V55.9z"/>
	<path id="Trazado_98" class="st1" d="M230.3,55.5h0.5V60h-0.4l-2.9-3.7V60H227v-4.5h0.5l2.9,3.6L230.3,55.5L230.3,55.5z"/>
	<path id="Trazado_99" class="st1" d="M234,60h-0.5v-4.1H232v-0.5h3.5v0.5H234V60z"/>
	<path id="Trazado_100" class="st1" d="M240.3,60h-0.5l-0.5-1.2h-2.5l-0.5,1.2h-0.5l2.1-4.6h0.5L240.3,60z M237.9,56l-1,2.3h2.1
		L237.9,56z"/>
	<path id="Trazado_101" class="st1" d="M241.3,55.5h0.5v4h2.6V60h-3.1V55.5z"/>
</g>
</svg>
