<svg id="Capa_1" data-name="Capa 1" xmlns="http://www.w3.org/2000/svg" width="280.592" height="90" viewBox="0 0 280.592 90">
  <rect id="Rect치ngulo_2" data-name="Rect치ngulo 2" width="280.592" height="90" fill="none"/>
  <rect id="Rect치ngulo_3" data-name="Rect치ngulo 3" width="0.549" height="37.072" transform="translate(124.224 26.515)" fill="#fff"/>
  <path id="Trazado_1" data-name="Trazado 1" d="M241.439,96.071a1.279,1.279,0,0,0,1.137.6A1.492,1.492,0,0,0,243.72,96l11.566-14.818a1.35,1.35,0,0,1,1.9-.191,1.378,1.378,0,0,1,.23,1.831l-2.586,3.309h0a1.268,1.268,0,0,0-.053,1.707h0l2.6,3.3,8.194-10.4L262.3,76.559l-.606-.786a2.863,2.863,0,0,0-1.718-.942h-4.91a2.675,2.675,0,0,0-2.009.9L239.31,93.371Z" transform="translate(-154.535 -48.322)" fill="#fff"/>
  <path id="Trazado_2" data-name="Trazado 2" d="M222.825,87.019,219.538,82.8a1.339,1.339,0,1,1,2.246-1.46l2.721,3.5,3.22-4.148L224,75.91a2.48,2.48,0,0,0-2.235-1.091h-4.428a2.48,2.48,0,0,0-2.03.882l-3.922,4.977,8.2,10.468Z" transform="translate(-136.506 -48.31)" fill="#fff"/>
  <path id="Trazado_3" data-name="Trazado 3" d="M235.451,118.363a1.357,1.357,0,0,0-1.105-.574,1.268,1.268,0,0,0-1.063.517l-11.69,15a1.417,1.417,0,0,1-1.966.205,1.35,1.35,0,0,1-.166-1.842l2.621-3.365h0a1.261,1.261,0,0,0,.053-1.711h0l-2.6-3.3L211.32,133.8l4.584,5.8,7.205.018L237.6,121.094Z" transform="translate(-136.461 -76.062)" fill="#fff"/>
  <path id="Trazado_4" data-name="Trazado 4" d="M272.161,137.381l3.316,4.251a1.321,1.321,0,0,1-.2,1.842,1.407,1.407,0,0,1-2.055-.425l-2.774-3.518-3.22,4.148,4.644,5.944,7.149-.018,4.605-5.877-8.215-10.489Z" transform="translate(-172.565 -86.04)" fill="#fff"/>
  <path id="Trazado_5" data-name="Trazado 5" d="M307.381,118a3.284,3.284,0,1,0,3.326,3.28,3.284,3.284,0,0,0-3.326-3.28m0,5.044a1.771,1.771,0,1,1,1.75-1.771,1.771,1.771,0,0,1-1.75,1.771" transform="translate(-196.399 -76.199)" fill="#fff"/>
  <path id="Trazado_6" data-name="Trazado 6" d="M256.316,62.878a3.319,3.319,0,1,1,.007,0m0-5.048a1.771,1.771,0,1,1-1.75,1.771,1.771,1.771,0,0,1,1.75-1.771" transform="translate(-163.376 -36.363)" fill="#fff"/>
  <path id="Trazado_7" data-name="Trazado 7" d="M208.553,121.032a3.326,3.326,0,1,0-3.326,3.28,3.326,3.326,0,0,0,3.326-3.28m-5.073,0a1.75,1.75,0,1,1,1.746,1.771,1.771,1.771,0,0,1-1.746-1.771" transform="translate(-130.378 -75.979)" fill="#fff"/>
  <path id="Trazado_8" data-name="Trazado 8" d="M256.474,179.53a3.28,3.28,0,1,0,3.326,3.28,3.28,3.28,0,0,0-3.326-3.28m0,5.044a1.771,1.771,0,1,1,1.75-1.771,1.771,1.771,0,0,1-1.75,1.771" transform="translate(-163.531 -115.932)" fill="#fff"/>
  <path id="Trazado_9" data-name="Trazado 9" d="M93.847,66.458V91a13.288,13.288,0,0,1-2.777,8.148A21.3,21.3,0,0,1,84.8,104.5a36.572,36.572,0,0,1-9.122,3.727,36.487,36.487,0,0,1-9.083-3.7,21.414,21.414,0,0,1-6.291-5.36,13.281,13.281,0,0,1-2.791-8.18V66.458H93.847m.932-.928H56.58V91c0,13.982,19.09,18.194,19.09,18.194h0S94.761,104.982,94.761,91Z" transform="translate(-36.537 -42.316)" fill="#fff"/>
  <path id="Trazado_10" data-name="Trazado 10" d="M106.767,84.282V81.94h-2.405v2.186h-.939V81.94h-2.48v2.186H100V81.94H97.56v2.342l1.194,2.051a.5.5,0,0,1,.064.237V97.279h1.158V93.432a2.221,2.221,0,0,1,4.332,0v3.847h1.2v-4.06a.327.327,0,0,1,0-.057v-6.6a.482.482,0,0,1,.064-.241Z" transform="translate(-63 -52.913)" fill="#fff"/>
  <path id="Trazado_11" data-name="Trazado 11" d="M95.516,119.362v-3.542l-.425.255a.475.475,0,0,1-.51,0l-.514-.354v1.413a.468.468,0,0,1-.177.354.439.439,0,0,1,.149.081,1.707,1.707,0,0,1,.514,1.792Z" transform="translate(-60.63 -74.727)" fill="#fff"/>
  <path id="Trazado_12" data-name="Trazado 12" d="M108.246,112.14c-.708,0-1.226.514-1.226.794v3.847h2.473v-3.847c0-.28-.507-.794-1.226-.794" transform="translate(-69.108 -72.415)" fill="#fff"/>
  <path id="Trazado_13" data-name="Trazado 13" d="M66.96,92.879a4.229,4.229,0,0,1-.3-1.063,8.527,8.527,0,0,1-.092-1.452.471.471,0,0,1,.329-.432l1.027-.315-1.158-.822a.471.471,0,0,1-.2-.383v-1.3a.468.468,0,0,1,.252-.418l.453-.237v-.439l-.414-.17a.461.461,0,0,1-.29-.432V83.85a.471.471,0,0,1,.468-.471h1.449a4.96,4.96,0,0,1,.06-1.343,5.922,5.922,0,0,1,.613-1.555l-.074-.542a.471.471,0,0,1,.464-.521h.779a.468.468,0,0,1,.255.074L72.49,80.7h.879a.475.475,0,0,1,.354.145.457.457,0,0,1,.128.354l-.064,1.506a.468.468,0,0,1-.156.326h.57a.478.478,0,0,1,.354.142l.266.276.2-.152.354-.708a.478.478,0,0,1,.425-.269h1.247v-.266l-1.194-2.051a.489.489,0,0,1-.06-.234V76.8a.468.468,0,0,1,.468-.471H86.412a.468.468,0,0,1,.468.471V79.74a.468.468,0,0,1-.064.237L85.6,82.029v.262h1.236a.475.475,0,0,1,.425.269l.354.708.2.152.266-.276A.464.464,0,0,1,88.442,83h.585a.464.464,0,0,1-.152-.326l-.131-1.488a.471.471,0,0,1,.471-.489h.879L92,79.489a.453.453,0,0,1,.252-.074h.783a.471.471,0,0,1,.354.163.482.482,0,0,1,.11.375l-.078.528a5.913,5.913,0,0,1,.62,1.509,5.264,5.264,0,0,1,.06,1.343h1.449a.471.471,0,0,1,.468.471v1.566a.464.464,0,0,1-.294.432l-.411.17v.439l.453.237a.468.468,0,0,1,.251.418v1.3a.471.471,0,0,1-.2.383l-1.158.822,1.024.315a.475.475,0,0,1,.333.432,8.528,8.528,0,0,1-.092,1.452,4.372,4.372,0,0,1-.3,1.063h1.732V74.71H65.26V92.879Z" transform="translate(-42.142 -48.244)" fill="#fff"/>
  <path id="Trazado_14" data-name="Trazado 14" d="M124.119,117.489a.51.51,0,0,1,.149-.081.482.482,0,0,1-.181-.354v-1.367a.223.223,0,0,1,0-.046l-.517.354a.468.468,0,0,1-.507,0l-.4-.241V119.3h.935a1.707,1.707,0,0,1,.535-1.8" transform="translate(-79.208 -74.675)" fill="#fff"/>
  <path id="Trazado_15" data-name="Trazado 15" d="M128.233,144.9a.468.468,0,0,1-.468-.468v-3.071a1.105,1.105,0,0,0-.354-.708,1.3,1.3,0,0,0-.967-.379,1.236,1.236,0,0,0-1.212,1.123v3.025a.471.471,0,0,1-.471.468H121.97a.468.468,0,0,1-.464-.468v-3.071a1.105,1.105,0,0,0-.354-.708,1.3,1.3,0,0,0-.967-.379,1.215,1.215,0,0,0-.815.326l2.3,11.69c3.231-1.417,7.057-3.766,9.122-7.393Z" transform="translate(-77.084 -90.572)" fill="#fff"/>
  <path id="Trazado_16" data-name="Trazado 16" d="M106.789,145.055,103.562,128.6h-2.618L97.72,145.062a.427.427,0,0,1,0,.064,42.3,42.3,0,0,0,4.566,1.545,42.732,42.732,0,0,0,4.545-1.534.7.7,0,0,1-.025-.081" transform="translate(-63.103 -83.044)" fill="#fff"/>
  <path id="Trazado_17" data-name="Trazado 17" d="M80.9,140.555a1.212,1.212,0,0,0-.8-.3h-.025a1.3,1.3,0,0,0-.939.376,1.105,1.105,0,0,0-.354.708v3.071a.471.471,0,0,1-.471.471H75.525a.471.471,0,0,1-.333-.138.489.489,0,0,1-.138-.333v-3.047a1.226,1.226,0,0,0-1.212-1.119h-.025a1.3,1.3,0,0,0-.946.386,1.105,1.105,0,0,0-.354.708v3.071a.471.471,0,0,1-.471.471H69.51c2.062,3.613,5.873,5.948,9.1,7.379Z" transform="translate(-44.886 -90.56)" fill="#fff"/>
  <path id="Trazado_18" data-name="Trazado 18" d="M130.69,128.594H116.92l.673,3.45a2.2,2.2,0,0,1,1-.259,2.278,2.278,0,0,1,1.64.645,2.037,2.037,0,0,1,.631,1.392v2.6h1.853V133.78a2.189,2.189,0,0,1,2.125-1.994,2.267,2.267,0,0,1,1.64.645,2.037,2.037,0,0,1,.631,1.392v2.6h2.59a11.361,11.361,0,0,0,1.024-4.779V128.59H130.7" transform="translate(-75.501 -83.037)" fill="#fff"/>
  <path id="Trazado_19" data-name="Trazado 19" d="M68.838,136.429v-2.6a2.012,2.012,0,0,1,.631-1.389,2.267,2.267,0,0,1,1.637-.648,2.189,2.189,0,0,1,2.125,1.994v2.643h1.853v-2.6a2.012,2.012,0,0,1,.631-1.389,2.267,2.267,0,0,1,1.637-.648,2.232,2.232,0,0,1,.978.248L79,128.6H65.25v3.05a11.4,11.4,0,0,0,1.027,4.779Z" transform="translate(-42.135 -83.044)" fill="#fff"/>
  <path id="Trazado_20" data-name="Trazado 20" d="M74.034,102.181H74.8a.818.818,0,0,1,.11.315v.191a2.223,2.223,0,0,1-.064.461H72.185c-.386-.262-.577-1.307-.6-2.168l1.169-.354a.475.475,0,0,0,.329-.45v-.45a.478.478,0,0,0-.2-.386l-1.3-.921v-.772l.453-.237A.464.464,0,0,0,72.3,97V95.932A.471.471,0,0,0,72,95.5l-.411-.167v-.783h1.233l.585.96v1.336l-.4,1.268a.471.471,0,0,0,.45.613h.354a.471.471,0,0,0,.464-.393,7.465,7.465,0,0,1,.248-1.08,5.023,5.023,0,0,1,.627-.91.471.471,0,0,0,0-.613l-1.615-1.853a5.083,5.083,0,0,1,0-1.417,5.353,5.353,0,0,1,.6-1.336.478.478,0,0,0,.067-.312l-.025-.17h.1l1.909,1.19a.464.464,0,0,0,.252.074h.524l-.028.708-.616.223a.471.471,0,0,0-.312.443v.485a.475.475,0,0,0,.471.468h1.6l.425.432a.471.471,0,0,0,.623.046,6.353,6.353,0,0,0,.751-.641l.259-.549h.939v1.707s-1.715.588-1.856.659-.174.588-.156.708,0,.177.2.315a5.184,5.184,0,0,0,.652.446l.5-.475.659.043v1.584l-.631.379-1.97-1.35a.475.475,0,0,0-.638.1l-.308.4a.468.468,0,0,0,.05.631l1.127,1.063v.861l-1.13.5a.464.464,0,0,0-.28.429v.191a.471.471,0,0,0,.46.471h1.36a1,1,0,0,1,.057.985H76.039a.921.921,0,0,1-.184-.531,1.538,1.538,0,0,0,0-.181,3.392,3.392,0,0,1,.071-.783l.73-.935a.489.489,0,0,0,.1-.266l.021-.45a.468.468,0,0,0-.2-.4.475.475,0,0,0-.45-.053l-1.176.482a.461.461,0,0,0-.287.354l-.1.464-.684.205a.471.471,0,0,0-.333.453v.188a.471.471,0,0,0,.468.471" transform="translate(-46.229 -58.531)" fill="#fff"/>
  <path id="Trazado_21" data-name="Trazado 21" d="M129.667,102.181H128.9a.812.812,0,0,0-.106.315v.191a1.833,1.833,0,0,0,.064.461h2.667c.386-.262.577-1.307.592-2.168l-1.165-.354a.475.475,0,0,1-.333-.45v-.45a.471.471,0,0,1,.2-.386l1.3-.918v-.772l-.453-.237a.464.464,0,0,1-.251-.414V95.936a.468.468,0,0,1,.29-.436l.414-.167v-.783h-1.233l-.585.96v1.336l.4,1.268a.471.471,0,0,1-.45.613H129.9a.471.471,0,0,1-.464-.393,7.513,7.513,0,0,0-.252-1.08,4.852,4.852,0,0,0-.627-.91.471.471,0,0,1,0-.613l1.626-1.849a5.084,5.084,0,0,0,0-1.417,5.342,5.342,0,0,0-.62-1.343.475.475,0,0,1-.064-.312l.025-.17h-.1l-1.913,1.19a.454.454,0,0,1-.251.074h-.521l.028.708.616.223a.46.46,0,0,1,.308.443v.485a.478.478,0,0,1-.471.468h-1.608l-.418.432a.471.471,0,0,1-.623.046s-.733-.581-.765-.648l-.262-.549h-.935V95.22s1.715.588,1.856.659.174.588.152.708,0,.177-.195.315a5.178,5.178,0,0,1-.652.446l-.5-.475-.659.043V98.5l.631.379,1.97-1.35a.471.471,0,0,1,.634.1l.312.4a.468.468,0,0,1-.05.631l-1.13,1.063v.861l1.13.5a.464.464,0,0,1,.28.429v.191a.475.475,0,0,1-.471.471h-1.36a1,1,0,0,0-.039.992h3.135a.921.921,0,0,0,.184-.531,1.538,1.538,0,0,1,0-.181,3.6,3.6,0,0,0-.071-.783l-.73-.935a.464.464,0,0,1-.1-.266l-.021-.45a.468.468,0,0,1,.2-.4.475.475,0,0,1,.45-.053l1.176.482a.475.475,0,0,1,.287.354l.071.471.684.205a.471.471,0,0,1,.333.453v.188a.475.475,0,0,1-.471.471" transform="translate(-79.176 -58.531)" fill="#fff"/>
  <path id="Trazado_22" data-name="Trazado 22" d="M382.038,90.5a1.771,1.771,0,0,1-.492.634,2.186,2.186,0,0,1-.755.393,3.238,3.238,0,0,1-.974.138,4.368,4.368,0,0,1-1.467-.259,3.875,3.875,0,0,1-1.311-.79l.85-1.02a4.337,4.337,0,0,0,.921.581,2.5,2.5,0,0,0,1.034.213,1.254,1.254,0,0,0,.708-.163.51.51,0,0,0,.248-.453h0a.6.6,0,0,0-.05-.248.51.51,0,0,0-.2-.2,1.992,1.992,0,0,0-.4-.188c-.174-.06-.4-.128-.67-.195a8.377,8.377,0,0,1-.9-.273,2.459,2.459,0,0,1-.684-.354,1.46,1.46,0,0,1-.436-.546,1.856,1.856,0,0,1-.156-.815h0a1.931,1.931,0,0,1,.166-.811,1.838,1.838,0,0,1,.471-.62,2.053,2.053,0,0,1,.708-.4,2.944,2.944,0,0,1,.925-.142,3.981,3.981,0,0,1,1.325.216,3.9,3.9,0,0,1,1.109.62l-.73,1.031a4.74,4.74,0,0,0-.861-.471,2.164,2.164,0,0,0-.843-.174,1.017,1.017,0,0,0-.631.163.492.492,0,0,0-.209.407h0a.567.567,0,0,0,.06.276.552.552,0,0,0,.22.213,2.237,2.237,0,0,0,.436.177c.184.057.418.12.709.195a7.409,7.409,0,0,1,.886.294,2.479,2.479,0,0,1,.655.393,1.476,1.476,0,0,1,.379.563,1.806,1.806,0,0,1,.138.74v.018a2.054,2.054,0,0,1-.177.861Z" transform="translate(-243.475 -54.876)" fill="#fff"/>
  <path id="Trazado_23" data-name="Trazado 23" d="M395.56,91.65V85.1h4.931v1.282H396.98v1.328h3.089v1.282H396.98v1.385h3.543v1.282Z" transform="translate(-255.434 -54.954)" fill="#fff"/>
  <path id="Trazado_24" data-name="Trazado 24" d="M419.625,89.669a3.043,3.043,0,0,1-.709,1.038,3.425,3.425,0,0,1-1.105.708,3.854,3.854,0,0,1-1.417.252H413.84V85.1h2.554a3.855,3.855,0,0,1,1.417.248,3.294,3.294,0,0,1,1.105.687,3.1,3.1,0,0,1,.709,1.034,3.292,3.292,0,0,1,.252,1.286v.021A3.319,3.319,0,0,1,419.625,89.669Zm-1.254-1.289a2.17,2.17,0,0,0-.145-.8,1.91,1.91,0,0,0-.4-.627,1.772,1.772,0,0,0-.62-.407,2.2,2.2,0,0,0-.808-.145h-1.112v3.946h1.112a2.2,2.2,0,0,0,.808-.142,1.718,1.718,0,0,0,.62-.4,2,2,0,0,0,.4-.62,2.082,2.082,0,0,0,.145-.794Z" transform="translate(-267.238 -54.953)" fill="#fff"/>
  <path id="Trazado_25" data-name="Trazado 25" d="M434.79,91.65V85.1h4.935v1.282h-3.511v1.328H439.3v1.282h-3.089v1.385h3.542v1.282Z" transform="translate(-280.767 -54.954)" fill="#fff"/>
  <path id="Trazado_26" data-name="Trazado 26" d="M458.212,91.65V87.374l-1.842,2.8h-.039l-1.824-2.77v4.251H453.09V85.1h1.555l1.722,2.77,1.722-2.77h1.555v6.55Z" transform="translate(-292.584 -54.954)" fill="#fff"/>
  <path id="Trazado_27" data-name="Trazado 27" d="M479.988,91.585l-.6-1.47h-2.77l-.6,1.47h-1.47L477.359,85h1.328l2.809,6.6ZM478,86.718l-.868,2.125h1.739Z" transform="translate(-306.442 -54.889)" fill="#fff"/>
  <path id="Trazado_28" data-name="Trazado 28" d="M381.675,115.883a2.059,2.059,0,0,1-.5.708,2.36,2.36,0,0,1-.762.478,2.632,2.632,0,0,1-.974.177H377.87V112.73h1.573a2.706,2.706,0,0,1,.974.17,2.292,2.292,0,0,1,.762.475,2.125,2.125,0,0,1,.5.708,2.391,2.391,0,0,1,0,1.771Zm-.489-1.587a1.7,1.7,0,0,0-.376-.574,1.771,1.771,0,0,0-.592-.383,2.1,2.1,0,0,0-.776-.138H378.38v3.585h1.063a2.1,2.1,0,0,0,.776-.135,1.676,1.676,0,0,0,.967-.946,1.84,1.84,0,0,0,.135-.708A1.865,1.865,0,0,0,381.186,114.3Z" transform="translate(-244.011 -72.795)" fill="#fff"/>
  <path id="Trazado_29" data-name="Trazado 29" d="M393.27,112.73v4.531h-.51V112.73Z" transform="translate(-253.626 -72.796)" fill="#fff"/>
  <path id="Trazado_30" data-name="Trazado 30" d="M401.664,117.26l-1.314-1.771h-1.286v1.771h-.514V112.73h1.931a2.213,2.213,0,0,1,.677.1,1.516,1.516,0,0,1,.514.276,1.191,1.191,0,0,1,.333.429,1.328,1.328,0,0,1,.113.553,1.346,1.346,0,0,1-.089.507,1.163,1.163,0,0,1-.255.39,1.448,1.448,0,0,1-.393.276,2,2,0,0,1-.492.156l1.392,1.849Zm-.354-3.822a1.357,1.357,0,0,0-.857-.237h-1.389v1.846h1.392a1.5,1.5,0,0,0,.468-.067,1.109,1.109,0,0,0,.354-.184.811.811,0,0,0,.241-.294.85.85,0,0,0,.089-.4.8.8,0,0,0-.294-.666Z" transform="translate(-257.365 -72.795)" fill="#fff"/>
  <path id="Trazado_31" data-name="Trazado 31" d="M415.6,113.18H412.84v1.548h2.48v.464h-2.48v1.587h2.8v.468H412.33V112.73H415.6Z" transform="translate(-266.263 -72.796)" fill="#fff"/>
  <path id="Trazado_32" data-name="Trazado 32" d="M427.835,116.706a2.2,2.2,0,0,1-.411.252,2.457,2.457,0,0,1-.471.159,2.517,2.517,0,0,1-.563.06,2.185,2.185,0,0,1-.907-.184,2.221,2.221,0,0,1-.708-.492,2.248,2.248,0,0,1-.475-.744,2.55,2.55,0,0,1,0-1.831,2.377,2.377,0,0,1,.475-.747,2.189,2.189,0,0,1,.726-.514,2.235,2.235,0,0,1,.917-.184,2.962,2.962,0,0,1,.56.05,2.539,2.539,0,0,1,.464.145,2.374,2.374,0,0,1,.393.227,3.054,3.054,0,0,1,.354.3l-.354.375a2.7,2.7,0,0,0-.623-.45,1.74,1.74,0,0,0-.8-.174,1.676,1.676,0,0,0-1.254.538,1.771,1.771,0,0,0-.354.592,2,2,0,0,0-.135.733,2.037,2.037,0,0,0,.135.74,1.826,1.826,0,0,0,.354.6,1.735,1.735,0,0,0,.556.4,1.633,1.633,0,0,0,.708.145,1.771,1.771,0,0,0,.8-.17,2.831,2.831,0,0,0,.659-.482l.337.329a2.867,2.867,0,0,1-.386.337Z" transform="translate(-273.883 -72.634)" fill="#fff"/>
  <path id="Trazado_33" data-name="Trazado 33" d="M441.519,116.725a2.322,2.322,0,0,1-.411.252,2.458,2.458,0,0,1-1.038.22,2.179,2.179,0,0,1-.9-.184,2.221,2.221,0,0,1-.708-.492,2.256,2.256,0,0,1-.478-.744,2.551,2.551,0,0,1,0-1.831,2.389,2.389,0,0,1,.478-.747,2.176,2.176,0,0,1,.708-.5,2.264,2.264,0,0,1,.921-.184,2.988,2.988,0,0,1,.56.05,2.506,2.506,0,0,1,.461.145,2.264,2.264,0,0,1,.4.227,3.391,3.391,0,0,1,.354.3l-.354.376a2.861,2.861,0,0,0-.624-.45,1.746,1.746,0,0,0-.8-.174,1.668,1.668,0,0,0-.708.142,1.647,1.647,0,0,0-.556.4,1.771,1.771,0,0,0-.372.592,2,2,0,0,0-.131.733,2.034,2.034,0,0,0,.131.74,1.84,1.84,0,0,0,.372.6,1.7,1.7,0,0,0,.556.4,1.615,1.615,0,0,0,.708.145,1.771,1.771,0,0,0,.8-.17,2.834,2.834,0,0,0,.659-.482l.337.329a3.116,3.116,0,0,1-.361.326Z" transform="translate(-282.717 -72.653)" fill="#fff"/>
  <path id="Trazado_34" data-name="Trazado 34" d="M452.944,112.73v4.531h-.514V112.73Z" transform="translate(-292.158 -72.796)" fill="#fff"/>
  <path id="Trazado_35" data-name="Trazado 35" d="M462.04,113.442a2.37,2.37,0,0,1-.471.747,2.26,2.26,0,0,1-1.679.709,2.331,2.331,0,0,1-.942-.188,2.26,2.26,0,0,1-1.2-1.254,2.522,2.522,0,0,1,0-1.792,2.317,2.317,0,0,1,.475-.747,2.245,2.245,0,0,1,.73-.514,2.448,2.448,0,0,1,1.888,0,2.239,2.239,0,0,1,1.2,1.251,2.452,2.452,0,0,1,.163.9A2.37,2.37,0,0,1,462.04,113.442Zm-.5-1.615a1.8,1.8,0,0,0-.939-1,1.7,1.7,0,0,0-.708-.149,1.772,1.772,0,0,0-.709.145,1.722,1.722,0,0,0-.56.4,1.891,1.891,0,0,0-.354.592,1.974,1.974,0,0,0-.131.708,2.025,2.025,0,0,0,.131.733,1.771,1.771,0,0,0,.939,1,1.75,1.75,0,0,0,1.991-.393,1.9,1.9,0,0,0,.354-.592,1.994,1.994,0,0,0,.135-.73A2.025,2.025,0,0,0,461.544,111.826Zm-1.814-1.941.613-.935.517.237-.73.708Z" transform="translate(-295.487 -70.355)" fill="#fff"/>
  <path id="Trazado_36" data-name="Trazado 36" d="M477.543,112.73h.489v4.531h-.407l-2.915-3.727v3.716h-.5v-4.52h.482l2.852,3.638Z" transform="translate(-306.223 -72.796)" fill="#fff"/>
  <path id="Trazado_37" data-name="Trazado 37" d="M497.1,116.984a2.561,2.561,0,0,1-1.038.205,2.367,2.367,0,0,1-.96-.184,2.125,2.125,0,0,1-.708-.5,2.163,2.163,0,0,1-.457-.744,2.612,2.612,0,0,1-.159-.914,2.447,2.447,0,0,1,.163-.893,2.326,2.326,0,0,1,.464-.751,2.2,2.2,0,0,1,1.644-.708,3.321,3.321,0,0,1,.521.039,2.044,2.044,0,0,1,.439.117,1.77,1.77,0,0,1,.383.191,2.9,2.9,0,0,1,.354.255l-.347.39a2.538,2.538,0,0,0-.273-.209,1.817,1.817,0,0,0-.308-.163,1.794,1.794,0,0,0-.354-.106,2.345,2.345,0,0,0-.436-.039,1.62,1.62,0,0,0-.709.149,1.659,1.659,0,0,0-.542.4,1.876,1.876,0,0,0-.354.592,2.042,2.042,0,0,0-.128.708,2.2,2.2,0,0,0,.124.758,1.791,1.791,0,0,0,.354.6,1.6,1.6,0,0,0,.563.393,1.845,1.845,0,0,0,.744.145,2,2,0,0,0,.73-.135,2.083,2.083,0,0,0,.577-.322v-1.109h-1.378v-.46h1.87v1.8A2.915,2.915,0,0,1,497.1,116.984Z" transform="translate(-318.86 -72.647)" fill="#fff"/>
  <path id="Trazado_38" data-name="Trazado 38" d="M512.567,113.18H509.8v1.548h2.48v.464H509.8v1.587H512.6v.468H509.29V112.73h3.277Z" transform="translate(-328.876 -72.796)" fill="#fff"/>
  <path id="Trazado_39" data-name="Trazado 39" d="M525.234,112.73h.5v4.531h-.407l-2.926-3.727v3.716h-.5v-4.52h.478l2.855,3.638Z" transform="translate(-337.019 -72.796)" fill="#fff"/>
  <path id="Trazado_40" data-name="Trazado 40" d="M540.273,113.18H537.51v1.548h2.48v.464h-2.48v1.587h2.795v.468H537V112.73h3.273Z" transform="translate(-346.769 -72.796)" fill="#fff"/>
  <path id="Trazado_41" data-name="Trazado 41" d="M552.688,117.26l-1.314-1.771h-1.3v1.771h-.51V112.73h1.948a2.207,2.207,0,0,1,.673.1,1.533,1.533,0,0,1,.517.276,1.223,1.223,0,0,1,.33.429,1.276,1.276,0,0,1,.117.553,1.347,1.347,0,0,1-.092.507,1.164,1.164,0,0,1-.255.39,1.45,1.45,0,0,1-.393.276,1.926,1.926,0,0,1-.489.156l1.389,1.849Zm-.354-3.822a1.353,1.353,0,0,0-.854-.237h-1.417v1.846h1.424a1.537,1.537,0,0,0,.468-.067,1.09,1.09,0,0,0,.354-.184.858.858,0,0,0,.244-.294.892.892,0,0,0,.085-.4.79.79,0,0,0-.3-.666Z" transform="translate(-354.88 -72.795)" fill="#fff"/>
  <path id="Trazado_42" data-name="Trazado 42" d="M567.193,117.2h-.549l-.531-1.2h-2.48l-.538,1.2h-.524l2.065-4.563h.478Zm-2.31-3.964-1.034,2.313h2.062Z" transform="translate(-363.281 -72.738)" fill="#fff"/>
  <path id="Trazado_43" data-name="Trazado 43" d="M578.561,112.73h.5v4.056h2.551v.475H578.55Z" transform="translate(-373.6 -72.796)" fill="#fff"/>
  <path id="Trazado_44" data-name="Trazado 44" d="M599.365,115.883a2.058,2.058,0,0,1-.5.709,2.359,2.359,0,0,1-.762.478,2.632,2.632,0,0,1-.974.177H595.56V112.73h1.573a2.706,2.706,0,0,1,.974.17,2.291,2.291,0,0,1,.762.475,2.125,2.125,0,0,1,.5.708,2.391,2.391,0,0,1,0,1.771Zm-.489-1.587a1.7,1.7,0,0,0-.375-.574,1.772,1.772,0,0,0-.592-.383,2.1,2.1,0,0,0-.776-.138H596.07v3.585h1.063a2.1,2.1,0,0,0,.776-.135,1.676,1.676,0,0,0,.967-.946,1.837,1.837,0,0,0,.135-.708,1.862,1.862,0,0,0-.135-.7Z" transform="translate(-384.585 -72.795)" fill="#fff"/>
  <path id="Trazado_45" data-name="Trazado 45" d="M613.667,113.18H610.9v1.548h2.48v.464H610.9v1.587H613.7v.468H610.39V112.73h3.277Z" transform="translate(-394.161 -72.796)" fill="#fff"/>
  <path id="Trazado_46" data-name="Trazado 46" d="M623,112.73h.514v4.056h2.551v.475H623Z" transform="translate(-402.304 -72.796)" fill="#fff"/>
  <path id="Trazado_47" data-name="Trazado 47" d="M639.87,114.042a.56.56,0,0,0,.188.237,1.365,1.365,0,0,0,.376.195,5,5,0,0,0,.613.166,2.657,2.657,0,0,1,1.119.464,1.024,1.024,0,0,1,.354.825,1.2,1.2,0,0,1-.117.531,1.149,1.149,0,0,1-.315.407,1.418,1.418,0,0,1-.485.259,1.964,1.964,0,0,1-.623.092,2.7,2.7,0,0,1-.992-.177,2.767,2.767,0,0,1-.857-.542l.315-.376a2.687,2.687,0,0,0,.708.482,2.058,2.058,0,0,0,.836.159,1.173,1.173,0,0,0,.733-.213.687.687,0,0,0,.276-.567.74.74,0,0,0-.053-.287.606.606,0,0,0-.181-.23,1.359,1.359,0,0,0-.354-.188,4.708,4.708,0,0,0-.588-.163,4.623,4.623,0,0,1-.677-.195,1.621,1.621,0,0,1-.478-.266,1.018,1.018,0,0,1-.28-.354,1.286,1.286,0,0,1-.088-.492,1.112,1.112,0,0,1,.11-.5,1.154,1.154,0,0,1,.312-.393,1.507,1.507,0,0,1,.471-.259,1.77,1.77,0,0,1,.6-.092,2.5,2.5,0,0,1,.871.135,2.674,2.674,0,0,1,.708.414l-.3.393a2.224,2.224,0,0,0-.638-.376,1.963,1.963,0,0,0-.673-.117,1.276,1.276,0,0,0-.4.06.986.986,0,0,0-.3.156.64.64,0,0,0-.191.234.626.626,0,0,0-.071.29A.757.757,0,0,0,639.87,114.042Z" transform="translate(-412.72 -72.691)" fill="#fff"/>
  <path id="Trazado_48" data-name="Trazado 48" d="M652.8,112.73v4.531h-.514V112.73Z" transform="translate(-421.218 -72.796)" fill="#fff"/>
  <path id="Trazado_49" data-name="Trazado 49" d="M657.894,114.043a.587.587,0,0,0,.188.237,1.362,1.362,0,0,0,.376.195,4.907,4.907,0,0,0,.616.167,2.661,2.661,0,0,1,1.116.464,1.016,1.016,0,0,1,.354.825,1.193,1.193,0,0,1-.117.531,1.234,1.234,0,0,1-.315.407,1.416,1.416,0,0,1-.489.259,1.944,1.944,0,0,1-.62.092,2.72,2.72,0,0,1-1-.177,2.851,2.851,0,0,1-.857-.542l.319-.375a2.674,2.674,0,0,0,.709.482,2.068,2.068,0,0,0,.836.159,1.176,1.176,0,0,0,.737-.213.708.708,0,0,0,.273-.567.81.81,0,0,0-.049-.287.584.584,0,0,0-.184-.23,1.333,1.333,0,0,0-.354-.188,4.89,4.89,0,0,0-.588-.163,4.815,4.815,0,0,1-.68-.195,1.555,1.555,0,0,1-.475-.266.942.942,0,0,1-.28-.354,1.22,1.22,0,0,1-.089-.492,1.113,1.113,0,0,1,.11-.5,1.145,1.145,0,0,1,.308-.393,1.568,1.568,0,0,1,.475-.259,1.772,1.772,0,0,1,.6-.092,2.529,2.529,0,0,1,.871.135,2.654,2.654,0,0,1,.709.414l-.3.393a2.179,2.179,0,0,0-.638-.375,1.931,1.931,0,0,0-.67-.117,1.261,1.261,0,0,0-.4.06.949.949,0,0,0-.3.156.651.651,0,0,0-.195.234.626.626,0,0,0-.067.291A.83.83,0,0,0,657.894,114.043Z" transform="translate(-424.357 -72.691)" fill="#fff"/>
  <path id="Trazado_50" data-name="Trazado 50" d="M671.3,117.261h-.51V113.2h-1.52v-.471h3.542v.471H671.3Z" transform="translate(-432.183 -72.796)" fill="#fff"/>
  <path id="Trazado_51" data-name="Trazado 51" d="M685.643,113.18H682.88v1.548h2.48v.464h-2.48v1.587h2.795v.468H682.37V112.73h3.273Z" transform="translate(-440.642 -72.796)" fill="#fff"/>
  <path id="Trazado_52" data-name="Trazado 52" d="M697.168,116.014h-.042l-1.651-2.423v3.666H695V112.73h.517l1.651,2.48,1.647-2.48h.521v4.531h-.514v-3.67Z" transform="translate(-448.798 -72.796)" fill="#fff"/>
  <path id="Trazado_53" data-name="Trazado 53" d="M714.773,117.2h-.549l-.531-1.2h-2.48l-.538,1.2h-.524l2.072-4.563h.482Zm-2.31-3.964-1.035,2.313h2.065Z" transform="translate(-458.581 -72.738)" fill="#fff"/>
  <path id="Trazado_54" data-name="Trazado 54" d="M381.675,137.806a2.058,2.058,0,0,1-.5.708,2.36,2.36,0,0,1-.762.478,2.632,2.632,0,0,1-.974.174H377.87V134.65h1.573a2.707,2.707,0,0,1,.974.174,2.292,2.292,0,0,1,.762.475,2.075,2.075,0,0,1,.5.708,2.391,2.391,0,0,1,0,1.789Zm-.489-1.587a1.679,1.679,0,0,0-.967-.956,2.1,2.1,0,0,0-.776-.138H378.38v3.585h1.063a2.175,2.175,0,0,0,.776-.135,1.676,1.676,0,0,0,.967-.946,1.84,1.84,0,0,0,.135-.708A1.865,1.865,0,0,0,381.186,136.219Z" transform="translate(-244.011 -86.951)" fill="#fff"/>
  <path id="Trazado_55" data-name="Trazado 55" d="M395.995,135.128h-2.763v1.548h2.48v.464h-2.48v1.587h2.763v.464H392.7V134.65h3.294Z" transform="translate(-253.587 -86.951)" fill="#fff"/>
  <path id="Trazado_56" data-name="Trazado 56" d="M414.118,136.74h-.531l-.531-1.2h-2.48l-.531,1.2h-.524l2.065-4.563h.478Zm-2.3-3.96-1.034,2.31h2.062Zm-.188-.971.616-.939.517.241-.733.708Z" transform="translate(-264.449 -84.51)" fill="#fff"/>
  <path id="Trazado_57" data-name="Trazado 57" d="M428.581,139.181l-1.314-1.771h-1.293v1.771h-.514V134.65h1.963a2.212,2.212,0,0,1,.677.1,1.509,1.509,0,0,1,.517.276,1.208,1.208,0,0,1,.329.425,1.293,1.293,0,0,1,.117.556,1.347,1.347,0,0,1-.092.507,1.2,1.2,0,0,1-.255.39,1.369,1.369,0,0,1-.393.273,1.683,1.683,0,0,1-.489.156l1.389,1.849Zm-.354-3.819a1.357,1.357,0,0,0-.857-.237h-1.4v1.842h1.4a1.615,1.615,0,0,0,.464-.064,1.14,1.14,0,0,0,.354-.184.892.892,0,0,0,.244-.294.906.906,0,0,0,.085-.4.786.786,0,0,0-.283-.666Z" transform="translate(-274.742 -86.95)" fill="#fff"/>
  <path id="Trazado_58" data-name="Trazado 58" d="M442.533,135.128H439.77v1.548h2.48v.464h-2.48v1.587h2.8v.464H439.26V134.65h3.273Z" transform="translate(-283.654 -86.951)" fill="#fff"/>
  <path id="Trazado_59" data-name="Trazado 59" d="M455.753,139.123H455.2l-.531-1.2h-2.48l-.538,1.2h-.524l2.079-4.563h.478Zm-2.31-3.96-1.034,2.31h2.062Z" transform="translate(-291.319 -86.893)" fill="#fff"/>
  <path id="Trazado_60" data-name="Trazado 60" d="M467.118,135.966a.58.58,0,0,0,.188.237,1.416,1.416,0,0,0,.375.195,4.489,4.489,0,0,0,.613.163,2.66,2.66,0,0,1,1.116.468,1.009,1.009,0,0,1,.354.822,1.208,1.208,0,0,1-.117.535,1.18,1.18,0,0,1-.315.407,1.416,1.416,0,0,1-.485.259,2.072,2.072,0,0,1-.623.092,2.7,2.7,0,0,1-.992-.177,2.834,2.834,0,0,1-.861-.542l.319-.376a2.687,2.687,0,0,0,.708.482,2.058,2.058,0,0,0,.836.159,1.151,1.151,0,0,0,.733-.216.677.677,0,0,0,.276-.563.741.741,0,0,0-.053-.287.583.583,0,0,0-.181-.23,1.312,1.312,0,0,0-.354-.188,4.7,4.7,0,0,0-.588-.163,4.62,4.62,0,0,1-.677-.195,1.74,1.74,0,0,1-.478-.266,1.018,1.018,0,0,1-.28-.354,1.253,1.253,0,0,1-.089-.5,1.094,1.094,0,0,1,.11-.5,1.155,1.155,0,0,1,.312-.393,1.443,1.443,0,0,1,.471-.259,1.772,1.772,0,0,1,.6-.1,2.5,2.5,0,0,1,.871.138,2.662,2.662,0,0,1,.709.411l-.3.4a2.126,2.126,0,0,0-.638-.376,1.93,1.93,0,0,0-.67-.117,1.275,1.275,0,0,0-.4.06.947.947,0,0,0-.3.152.709.709,0,0,0-.195.234.687.687,0,0,0-.067.294A.756.756,0,0,0,467.118,135.966Z" transform="translate(-301.16 -86.846)" fill="#fff"/>
  <path id="Trazado_61" data-name="Trazado 61" d="M487.923,134.65h.5v4.531h-.407l-2.926-3.7v3.713h-.5V134.65h.482l2.852,3.631Z" transform="translate(-312.925 -86.951)" fill="#fff"/>
  <path id="Trazado_62" data-name="Trazado 62" d="M502.933,139.123h-.549l-.531-1.2h-2.48l-.539,1.2h-.524l2.065-4.563h.478Zm-2.31-3.96-1.038,2.31h2.065Z" transform="translate(-321.785 -86.893)" fill="#fff"/>
  <path id="Trazado_63" data-name="Trazado 63" d="M513.883,139.187h-.51v-4.053H511.85v-.475h3.543v.475h-1.52Z" transform="translate(-330.529 -86.957)" fill="#fff"/>
  <path id="Trazado_64" data-name="Trazado 64" d="M528.616,137.254a2.535,2.535,0,0,1-.138.875,1.7,1.7,0,0,1-.386.627,1.573,1.573,0,0,1-.6.379,2.222,2.222,0,0,1-.772.124,2.2,2.2,0,0,1-.765-.124,1.608,1.608,0,0,1-.6-.375,1.688,1.688,0,0,1-.383-.62,2.4,2.4,0,0,1-.138-.847v-2.636h.514v2.6a1.609,1.609,0,0,0,.354,1.134,1.513,1.513,0,0,0,2.016.018,1.529,1.529,0,0,0,.354-1.119V134.65h.514Z" transform="translate(-338.916 -86.951)" fill="#fff"/>
  <path id="Trazado_65" data-name="Trazado 65" d="M542.727,139.181l-1.311-1.771h-1.3v1.771h-.51V134.65h1.948a2.243,2.243,0,0,1,.677.1,1.491,1.491,0,0,1,.514.276,1.211,1.211,0,0,1,.33.425,1.3,1.3,0,0,1,.117.556,1.35,1.35,0,0,1-.092.507,1.2,1.2,0,0,1-.255.39,1.413,1.413,0,0,1-.39.273,1.739,1.739,0,0,1-.492.156l1.392,1.849Zm-.354-3.819a1.346,1.346,0,0,0-.854-.234H540.1v1.842h1.417a1.658,1.658,0,0,0,.468-.064,1.157,1.157,0,0,0,.354-.184.851.851,0,0,0,.245-.294.908.908,0,0,0,.089-.4.786.786,0,0,0-.3-.669Z" transform="translate(-348.455 -86.951)" fill="#fff"/>
  <path id="Trazado_66" data-name="Trazado 66" d="M557.213,139.123h-.549l-.531-1.2h-2.48l-.535,1.2h-.528l2.065-4.563h.482Zm-2.31-3.96-1.034,2.31h2.055Z" transform="translate(-356.837 -86.893)" fill="#fff"/>
  <path id="Trazado_67" data-name="Trazado 67" d="M568.61,134.65h.51v4.06h2.551v.471H568.61Z" transform="translate(-367.182 -86.951)" fill="#fff"/>
  <path id="Trazado_68" data-name="Trazado 68" d="M583.557,135.128H580.79v1.548h2.48v.464h-2.48v1.587h2.8v.464H580.28V134.65h3.277Z" transform="translate(-374.718 -86.951)" fill="#fff"/>
  <path id="Trazado_69" data-name="Trazado 69" d="M592.98,135.966a.613.613,0,0,0,.188.237,1.468,1.468,0,0,0,.376.195,4.409,4.409,0,0,0,.616.163,2.7,2.7,0,0,1,1.116.468,1.017,1.017,0,0,1,.354.822,1.257,1.257,0,0,1-.113.535,1.234,1.234,0,0,1-.319.407,1.418,1.418,0,0,1-.485.259,2.056,2.056,0,0,1-.624.092,2.713,2.713,0,0,1-.992-.177,2.81,2.81,0,0,1-.857-.542l.315-.375a2.69,2.69,0,0,0,.708.482,2.058,2.058,0,0,0,.836.159,1.144,1.144,0,0,0,.733-.216.676.676,0,0,0,.276-.563.74.74,0,0,0-.053-.287.523.523,0,0,0-.181-.23,1.221,1.221,0,0,0-.354-.188,4.638,4.638,0,0,0-.585-.163,4.683,4.683,0,0,1-.68-.195,1.722,1.722,0,0,1-.475-.266.941.941,0,0,1-.28-.354,1.248,1.248,0,0,1-.092-.5,1.126,1.126,0,0,1,.421-.889,1.481,1.481,0,0,1,.471-.259,1.8,1.8,0,0,1,.6-.1,2.48,2.48,0,0,1,.868.138,2.663,2.663,0,0,1,.709.411l-.3.4a2.223,2.223,0,0,0-.638-.376,1.931,1.931,0,0,0-.669-.117,1.262,1.262,0,0,0-.4.06.964.964,0,0,0-.308.152.75.75,0,0,0-.191.234.641.641,0,0,0-.067.294.758.758,0,0,0,.071.283Z" transform="translate(-382.441 -86.846)" fill="#fff"/>
  <path id="Trazado_70" data-name="Trazado 70" d="M613.678,136.743a1.4,1.4,0,0,1-.383.464,1.74,1.74,0,0,1-.567.283,2.556,2.556,0,0,1-.687.092h-1.1v1.6h-.51v-4.531h1.7a2.249,2.249,0,0,1,.708.1,1.592,1.592,0,0,1,.539.283,1.278,1.278,0,0,1,.354.453,1.516,1.516,0,0,1,.121.606,1.419,1.419,0,0,1-.17.648Zm-.709-1.371a1.442,1.442,0,0,0-.886-.248h-1.151v1.994h1.116a1.769,1.769,0,0,0,.51-.071,1.235,1.235,0,0,0,.4-.205.876.876,0,0,0,.252-.319.912.912,0,0,0,.089-.411.865.865,0,0,0-.319-.74Z" transform="translate(-394.187 -86.95)" fill="#fff"/>
  <path id="Trazado_71" data-name="Trazado 71" d="M626.191,139.181l-1.314-1.771h-1.293v1.771h-.514V134.65h1.948a2.212,2.212,0,0,1,.677.1,1.506,1.506,0,0,1,.517.276,1.205,1.205,0,0,1,.33.425,1.294,1.294,0,0,1,.117.556,1.348,1.348,0,0,1-.092.507,1.2,1.2,0,0,1-.255.39,1.37,1.37,0,0,1-.393.273,1.682,1.682,0,0,1-.489.156l1.389,1.849Zm-.354-3.819a1.357,1.357,0,0,0-.857-.237h-1.417v1.842h1.4a1.614,1.614,0,0,0,.464-.064,1.142,1.142,0,0,0,.372-.184.9.9,0,0,0,.244-.294.907.907,0,0,0,.085-.4.786.786,0,0,0-.283-.666Z" transform="translate(-402.349 -86.95)" fill="#fff"/>
  <path id="Trazado_72" data-name="Trazado 72" d="M640.513,137.664a2.309,2.309,0,0,1-.471.747,2.2,2.2,0,0,1-.73.514,2.3,2.3,0,0,1-.946.191,2.249,2.249,0,0,1-2.14-1.438,2.457,2.457,0,0,1-.166-.9,2.375,2.375,0,0,1,.17-.9,2.331,2.331,0,0,1,.471-.747,2.3,2.3,0,0,1,3.815.744,2.48,2.48,0,0,1,0,1.793Zm-.493-1.615a1.771,1.771,0,0,0-.939-1,1.715,1.715,0,0,0-.709-.149,1.771,1.771,0,0,0-.708.145,1.675,1.675,0,0,0-.563.4,1.883,1.883,0,0,0-.354.6,2.037,2.037,0,0,0,0,1.456,1.771,1.771,0,0,0,.939,1,1.689,1.689,0,0,0,.708.149,1.74,1.74,0,0,0,.709-.145,1.7,1.7,0,0,0,.563-.4,1.892,1.892,0,0,0,.354-.592,1.974,1.974,0,0,0,.131-.726A2.025,2.025,0,0,0,640.02,136.048Z" transform="translate(-410.738 -86.808)" fill="#fff"/>
  <path id="Trazado_73" data-name="Trazado 73" d="M653.037,139.187h-.51v-4.053H651v-.475h3.543v.475h-1.52Z" transform="translate(-420.385 -86.957)" fill="#fff"/>
  <path id="Trazado_74" data-name="Trazado 74" d="M667.387,135.128H664.62v1.548h2.48v.464h-2.48v1.587h2.8v.464H664.11V134.65h3.277Z" transform="translate(-428.851 -86.951)" fill="#fff"/>
  <path id="Trazado_75" data-name="Trazado 75" d="M679.253,138.914a2.571,2.571,0,0,1-1.038.2,2.431,2.431,0,0,1-.96-.181,2.143,2.143,0,0,1-.708-.5,2.049,2.049,0,0,1-.457-.744,2.578,2.578,0,0,1-.159-.91,2.482,2.482,0,0,1,.163-.9,2.315,2.315,0,0,1,.464-.747,2.182,2.182,0,0,1,1.644-.708,3.315,3.315,0,0,1,.521.039,2.649,2.649,0,0,1,.439.117,2.143,2.143,0,0,1,.383.191,3.948,3.948,0,0,1,.354.255l-.329.39a2.154,2.154,0,0,0-.273-.209,1.823,1.823,0,0,0-.308-.163,1.8,1.8,0,0,0-.354-.106,2.346,2.346,0,0,0-.436-.039,1.619,1.619,0,0,0-.708.149,1.715,1.715,0,0,0-.546.4,1.923,1.923,0,0,0-.354.6,2.036,2.036,0,0,0-.128.708,2.159,2.159,0,0,0,.124.755,1.863,1.863,0,0,0,.354.6,1.663,1.663,0,0,0,.567.393,1.845,1.845,0,0,0,.744.142,2,2,0,0,0,.73-.131,2.176,2.176,0,0,0,.578-.322v-1.13h-1.378v-.453h1.867v1.8A2.765,2.765,0,0,1,679.253,138.914Z" transform="translate(-436.483 -86.808)" fill="#fff"/>
  <path id="Trazado_76" data-name="Trazado 76" d="M692.07,134.65v4.531h-.51V134.65Z" transform="translate(-446.577 -86.951)" fill="#fff"/>
  <path id="Trazado_77" data-name="Trazado 77" d="M701.115,137.806a2.1,2.1,0,0,1-.492.708,2.373,2.373,0,0,1-.765.51,2.619,2.619,0,0,1-.974.174H697.31V134.65h1.573a2.692,2.692,0,0,1,.974.174,2.306,2.306,0,0,1,.765.475,2.125,2.125,0,0,1,.492.708,2.349,2.349,0,0,1,0,1.789Zm-.489-1.587a1.7,1.7,0,0,0-.375-.574,1.674,1.674,0,0,0-.592-.383,2.086,2.086,0,0,0-.776-.138H697.82v3.585h1.063a2.162,2.162,0,0,0,.776-.135,1.666,1.666,0,0,0,.592-.379,1.7,1.7,0,0,0,.375-.567,1.84,1.84,0,0,0,.135-.708,1.863,1.863,0,0,0-.135-.7Z" transform="translate(-450.29 -86.95)" fill="#fff"/>
  <path id="Trazado_78" data-name="Trazado 78" d="M714.843,139.123h-.549l-.531-1.2h-2.48l-.535,1.2h-.528l2.069-4.563h.478Zm-2.31-3.96-1.034,2.31h2.065Z" transform="translate(-458.627 -86.893)" fill="#fff"/>
  <path id="Trazado_79" data-name="Trazado 79" d="M726.214,135.966a.582.582,0,0,0,.188.237,1.468,1.468,0,0,0,.375.195,4.5,4.5,0,0,0,.613.163,2.7,2.7,0,0,1,1.12.468,1.017,1.017,0,0,1,.354.822,1.211,1.211,0,0,1-.117.535,1.179,1.179,0,0,1-.315.407,1.417,1.417,0,0,1-.485.259,2.071,2.071,0,0,1-.623.092,2.7,2.7,0,0,1-.992-.177,2.835,2.835,0,0,1-.861-.542l.319-.375a2.689,2.689,0,0,0,.708.482,2.058,2.058,0,0,0,.836.159,1.151,1.151,0,0,0,.733-.216.677.677,0,0,0,.276-.563.738.738,0,0,0-.053-.287.58.58,0,0,0-.181-.23,1.315,1.315,0,0,0-.354-.188,4.711,4.711,0,0,0-.588-.163,4.615,4.615,0,0,1-.677-.195,1.738,1.738,0,0,1-.478-.266,1.016,1.016,0,0,1-.28-.354,1.254,1.254,0,0,1-.074-.5,1.1,1.1,0,0,1,.11-.5,1.155,1.155,0,0,1,.312-.393,1.442,1.442,0,0,1,.471-.259,1.771,1.771,0,0,1,.6-.1,2.5,2.5,0,0,1,.871.138,2.658,2.658,0,0,1,.708.411l-.3.4a2.225,2.225,0,0,0-.638-.376,1.964,1.964,0,0,0-.673-.117,1.277,1.277,0,0,0-.4.06.985.985,0,0,0-.3.152.766.766,0,0,0-.195.234.687.687,0,0,0-.067.294A.759.759,0,0,0,726.214,135.966Z" transform="translate(-468.474 -86.846)" fill="#fff"/>
  <path id="Trazado_80" data-name="Trazado 80" d="M378.945,161.111h-.51v-1.793l-1.885-2.738h.624l1.523,2.267,1.537-2.267h.6l-1.885,2.731Z" transform="translate(-243.158 -101.112)" fill="#fff"/>
  <path id="Trazado_81" data-name="Trazado 81" d="M400.119,158.67h-.538l-.531-1.2h-2.48l-.531,1.2h-.528l2.069-4.563h.478Zm-2.31-3.96-1.034,2.31h2.065Zm-.188-.971.616-.939.517.237-.73.708Z" transform="translate(-255.402 -98.671)" fill="#fff"/>
  <path id="Trazado_82" data-name="Trazado 82" d="M414.607,161.11l-1.311-1.771H412v1.771h-.51V156.58h1.952a2.125,2.125,0,0,1,.677.1,1.544,1.544,0,0,1,.514.273,1.253,1.253,0,0,1,.329.429,1.285,1.285,0,0,1,.117.553,1.349,1.349,0,0,1-.092.51,1.149,1.149,0,0,1-.255.386,1.489,1.489,0,0,1-.39.276,1.859,1.859,0,0,1-.492.156l1.392,1.849Zm-.354-3.822a1.367,1.367,0,0,0-.854-.234h-1.417V158.9h1.4a1.656,1.656,0,0,0,.468-.064,1.158,1.158,0,0,0,.354-.184.861.861,0,0,0,.244-.3.9.9,0,0,0,.089-.4.8.8,0,0,0-.276-.666Z" transform="translate(-265.721 -101.112)" fill="#fff"/>
  <path id="Trazado_83" data-name="Trazado 83" d="M428.557,157.048H425.79v1.545h2.48v.468h-2.48v1.584h2.8v.468H425.28V156.58h3.277Z" transform="translate(-274.626 -101.112)" fill="#fff"/>
  <path id="Trazado_84" data-name="Trazado 84" d="M441.773,161.053h-.549l-.531-1.2h-2.48l-.535,1.2h-.528l2.072-4.563h.482Zm-2.31-3.96-1.034,2.31h2.065Z" transform="translate(-282.291 -101.054)" fill="#fff"/>
  <path id="Trazado_85" data-name="Trazado 85" d="M453.138,157.9a.573.573,0,0,0,.188.234,1.233,1.233,0,0,0,.375.195,4.437,4.437,0,0,0,.613.166,2.66,2.66,0,0,1,1.116.468,1.006,1.006,0,0,1,.354.822,1.222,1.222,0,0,1-.432.942,1.477,1.477,0,0,1-.485.259,2.073,2.073,0,0,1-.623.089,2.7,2.7,0,0,1-.992-.174,2.834,2.834,0,0,1-.861-.542l.319-.379a2.627,2.627,0,0,0,.708.485,2.059,2.059,0,0,0,.836.156,1.173,1.173,0,0,0,.733-.213.676.676,0,0,0,.276-.563.743.743,0,0,0-.053-.291.6.6,0,0,0-.181-.227,1.312,1.312,0,0,0-.354-.191,4.774,4.774,0,0,0-.588-.159,5.113,5.113,0,0,1-.677-.195,1.739,1.739,0,0,1-.478-.266,1.03,1.03,0,0,1-.28-.354,1.222,1.222,0,0,1-.089-.492,1.124,1.124,0,0,1,.11-.5,1.176,1.176,0,0,1,.312-.39,1.449,1.449,0,0,1,.471-.262,1.871,1.871,0,0,1,.6-.092,2.589,2.589,0,0,1,.871.135,2.675,2.675,0,0,1,.709.414l-.3.4a2.126,2.126,0,0,0-.6-.39,1.931,1.931,0,0,0-.67-.117,1.28,1.28,0,0,0-.4.057,1.029,1.029,0,0,0-.3.156.651.651,0,0,0-.195.234.637.637,0,0,0-.067.29A.775.775,0,0,0,453.138,157.9Z" transform="translate(-292.132 -101.014)" fill="#fff"/>
  <path id="Trazado_86" data-name="Trazado 86" d="M474.385,159.736a2.125,2.125,0,0,1-.5.708,2.36,2.36,0,0,1-.762.478,2.647,2.647,0,0,1-.974.174H470.58V156.58h1.566a2.647,2.647,0,0,1,.974.174,2.292,2.292,0,0,1,.762.475,2.077,2.077,0,0,1,.5.708,2.267,2.267,0,0,1,.174.893A2.3,2.3,0,0,1,474.385,159.736Zm-.489-1.591a1.649,1.649,0,0,0-.375-.57,1.708,1.708,0,0,0-.591-.383,2.031,2.031,0,0,0-.776-.138H471.09v3.571h1.063a2.1,2.1,0,0,0,.776-.138,1.691,1.691,0,0,0,.591-.375,1.74,1.74,0,0,0,.375-.567,1.853,1.853,0,0,0,.131-.709,1.874,1.874,0,0,0-.131-.691Z" transform="translate(-303.878 -101.112)" fill="#fff"/>
  <path id="Trazado_87" data-name="Trazado 87" d="M488.667,157.048H485.9v1.545h2.48v.468H485.9v1.584H488.7v.468H485.39V156.58h3.277Z" transform="translate(-313.442 -101.112)" fill="#fff"/>
  <path id="Trazado_88" data-name="Trazado 88" d="M506,156.58h.549l-1.941,4.563h-.461L502.2,156.58h.57l1.612,3.9Z" transform="translate(-324.297 -101.112)" fill="#fff"/>
  <path id="Trazado_89" data-name="Trazado 89" d="M519.709,161.053h-.549l-.531-1.2h-2.48l-.538,1.2h-.51l2.065-4.563h.478Zm-2.31-3.96-1.034,2.31h2.062Z" transform="translate(-332.627 -101.054)" fill="#fff"/>
  <path id="Trazado_90" data-name="Trazado 90" d="M531.07,156.58h.51v4.046h2.551v.471H531.07Z" transform="translate(-342.94 -101.112)" fill="#fff"/>
  <path id="Trazado_91" data-name="Trazado 91" d="M546.053,159.594a2.317,2.317,0,0,1-.475.747,2.244,2.244,0,0,1-.73.514,2.3,2.3,0,0,1-.946.191,2.331,2.331,0,0,1-.942-.188,2.239,2.239,0,0,1-1.2-1.251,2.479,2.479,0,0,1-.163-.9,2.388,2.388,0,0,1,.167-.9,2.357,2.357,0,0,1,.475-.747,2.243,2.243,0,0,1,.73-.514,2.278,2.278,0,0,1,.946-.191,2.331,2.331,0,0,1,.942.188,2.207,2.207,0,0,1,.726.51,2.255,2.255,0,0,1,.471.744,2.522,2.522,0,0,1,0,1.792Zm-.5-1.615a1.771,1.771,0,0,0-.354-.6,1.79,1.79,0,0,0-.567-.4,1.771,1.771,0,0,0-1.417,0,1.659,1.659,0,0,0-.56.4,1.827,1.827,0,0,0-.354.592,2.1,2.1,0,0,0,0,1.459,1.789,1.789,0,0,0,.939,1,1.7,1.7,0,0,0,.708.149,1.771,1.771,0,0,0,.708-.145,1.721,1.721,0,0,0,.56-.4,1.826,1.826,0,0,0,.354-.592,1.976,1.976,0,0,0,.131-.73A2.006,2.006,0,0,0,545.557,157.979Z" transform="translate(-349.74 -100.97)" fill="#fff"/>
  <path id="Trazado_92" data-name="Trazado 92" d="M561.361,161.11l-1.314-1.771h-1.3v1.771h-.51V156.58h1.948a2.125,2.125,0,0,1,.677.1,1.512,1.512,0,0,1,.514.273,1.263,1.263,0,0,1,.333.429,1.453,1.453,0,0,1,.025,1.063,1.149,1.149,0,0,1-.255.386,1.449,1.449,0,0,1-.393.276,1.86,1.86,0,0,1-.492.156l1.392,1.849Zm-.354-3.822a1.378,1.378,0,0,0-.857-.234h-1.417V158.9h1.4a1.621,1.621,0,0,0,.468-.064,1.181,1.181,0,0,0,.354-.184.864.864,0,0,0,.329-.709.8.8,0,0,0-.269-.652Z" transform="translate(-360.485 -101.112)" fill="#fff"/>
  <path id="Trazado_93" data-name="Trazado 93" d="M580.605,161.059h-.549l-.514-1.194h-2.48l-.539,1.2H576l2.065-4.563h.478Zm-2.31-3.96-1.038,2.31h2.065Z" transform="translate(-371.954 -101.06)" fill="#fff"/>
  <path id="Trazado_94" data-name="Trazado 94" d="M594.179,159.867h-.028l-1.651-2.43V161.1H592v-4.52h.517l1.651,2.48,1.651-2.48h.517v4.531h-.51v-3.674Z" transform="translate(-382.286 -101.112)" fill="#fff"/>
  <path id="Trazado_95" data-name="Trazado 95" d="M611.059,156.661a1.514,1.514,0,0,1,.468.227,1.019,1.019,0,0,1,.3.354,1.08,1.08,0,0,1,.1.471,1.1,1.1,0,0,1-.064.393,1.006,1.006,0,0,1-.163.3,1.038,1.038,0,0,1-.23.22,1.548,1.548,0,0,1-.259.145,1.939,1.939,0,0,1,.376.152,1.167,1.167,0,0,1,.308.223.939.939,0,0,1,.205.308,1.03,1.03,0,0,1,.078.415,1.153,1.153,0,0,1-.117.524,1.063,1.063,0,0,1-.333.393,1.484,1.484,0,0,1-.517.241,2.519,2.519,0,0,1-.673.085H608.53V156.58h1.938A2.126,2.126,0,0,1,611.059,156.661Zm.064,1.729a.708.708,0,0,0,.294-.609.659.659,0,0,0-.259-.546,1.194,1.194,0,0,0-.744-.2h-1.364V158.6h1.336A1.229,1.229,0,0,0,611.123,158.39Zm.248,2.055a.708.708,0,0,0,.3-.606.659.659,0,0,0-.3-.581,1.6,1.6,0,0,0-.9-.205h-1.417v1.6h1.516A1.381,1.381,0,0,0,611.371,160.445Z" transform="translate(-392.96 -101.112)" fill="#fff"/>
  <path id="Trazado_96" data-name="Trazado 96" d="M622.98,156.58v4.531h-.51V156.58Z" transform="translate(-401.962 -101.112)" fill="#fff"/>
  <path id="Trazado_97" data-name="Trazado 97" d="M631.517,157.048H628.75v1.545h2.48v.468h-2.48v1.584h2.8v.468H628.24V156.58h3.277Z" transform="translate(-405.688 -101.112)" fill="#fff"/>
  <path id="Trazado_98" data-name="Trazado 98" d="M644.164,156.58h.5v4.531h-.407l-2.926-3.716v3.716h-.5V156.58h.478l2.855,3.631Z" transform="translate(-413.818 -101.112)" fill="#fff"/>
  <path id="Trazado_99" data-name="Trazado 99" d="M656.733,161.111h-.51v-4.056H654.7v-.475h3.542v.475h-1.52Z" transform="translate(-422.775 -101.112)" fill="#fff"/>
  <path id="Trazado_100" data-name="Trazado 100" d="M669.8,161.053h-.549l-.531-1.2h-2.48l-.538,1.2h-.524l2.065-4.563h.478Zm-2.31-3.96-1.034,2.31h2.062Z" transform="translate(-429.542 -101.054)" fill="#fff"/>
  <path id="Trazado_101" data-name="Trazado 101" d="M681.21,156.58h.51v4.046h2.551v.471H681.21Z" transform="translate(-439.893 -101.112)" fill="#fff"/>
</svg>
