<?xml version="1.0" encoding="utf-8"?>
<!-- Generator: Adobe Illustrator 25.0.0, SVG Export Plug-In . SVG Version: 6.00 Build 0)  -->
<svg version="1.1" id="Capa_1" xmlns="http://www.w3.org/2000/svg" xmlns:xlink="http://www.w3.org/1999/xlink" x="0px" y="0px"
	 viewBox="0 0 52.9 63.7" style="enable-background:new 0 0 52.9 63.7;" xml:space="preserve">
<style type="text/css">
	.st0{opacity:5.000000e-02;}
	.st1{clip-path:url(#SVGID_2_);}
	.st2{fill-rule:evenodd;clip-rule:evenodd;fill:#FFFFFF;}
</style>
<g id="Capa_1-2" class="st0">
	<g id="Grupo_846">
		<g>
			<defs>
				<rect id="SVGID_1_" width="52.9" height="63.7"/>
			</defs>
			<clipPath id="SVGID_2_">
				<use xlink:href="#SVGID_1_"  style="overflow:visible;"/>
			</clipPath>
			<g class="st1">
				<g id="Grupo_845">
					<g id="Grupo_844">
						<path id="Trazado_2066" class="st2" d="M17.6,35.6c0.4,0.5,1,0.9,1.6,0.8c0.7,0,1.3-0.4,1.6-0.9L37.8,14
							c0.7-0.9,1.9-1,2.8-0.3c0,0,0,0,0,0c0.8,0.7,0.9,1.8,0.3,2.7l-3.8,4.8l0,0c-0.6,0.7-0.7,1.7-0.1,2.5l0,0l3.8,4.8l12.2-15.1
							l-4.8-6.1l-0.9-1.1c-0.6-0.7-1.5-1.2-2.5-1.3h-7.2c-1.1,0-2.2,0.5-3,1.3l-20,25.5L17.6,35.6z M16.7,22.6l-4.8-6.2
							c-0.6-0.9-0.4-2.1,0.5-2.7c0.9-0.6,2.1-0.4,2.7,0.5v0.1l4,5l4.7-6.1l-5.5-6.9c-0.7-1.1-2-1.7-3.3-1.5H8.8
							c-1.1-0.1-2.3,0.3-3,1.2L0,13.3l11.9,15.2C11.9,28.5,16.7,22.6,16.7,22.6z"/>
						<path id="Trazado_2067" class="st2" d="M35.2,27.7c-0.7-0.9-2-1.1-2.9-0.4c-0.1,0.1-0.2,0.2-0.3,0.3L15,49.4
							c-0.7,0.9-2,1-2.9,0.3c-0.8-0.6-0.9-1.8-0.3-2.6c0,0,0-0.1,0.1-0.1l3.8-4.9l0,0c0.6-0.7,0.7-1.7,0.1-2.5l0,0l-3.8-4.8L0,50.3
							l6.7,8.4h10.5l21.2-27L35.2,27.7z"/>
						<path id="Trazado_2068" class="st2" d="M36.2,40.9l4.8,6.2c0.6,0.8,0.5,2-0.3,2.7c-0.9,0.7-2.2,0.5-2.9-0.4
							c0-0.1-0.1-0.1-0.1-0.2l-4-5.1l-4.7,6.1l6.8,8.7h10.5l6.7-8.5L40.9,34.9L36.2,40.9z"/>
						<path id="Trazado_2069" class="st2" d="M52.8,27c-2.6,0.1-4.7,2.2-4.6,4.8c0,0,0,0,0,0c0.1,2.6,2.2,4.7,4.8,4.6
							c2.6-0.1,4.7-2.2,4.6-4.8C57.6,29,55.5,26.9,52.8,27z M52.8,34.3c-1.4,0-2.6-1.2-2.6-2.6c0-1.4,1.2-2.6,2.6-2.6
							s2.6,1.2,2.6,2.6l0,0C55.4,33.1,54.3,34.3,52.8,34.3C52.9,34.3,52.9,34.3,52.8,34.3z"/>
						<path id="Trazado_2070" class="st2" d="M26.5-4.7c-2.6-0.1-4.8,2-4.8,4.7c0,0,0,0.1,0,0.1c-0.1,2.6,2,4.8,4.7,4.8
							c0,0,0.1,0,0.1,0h0.1c2.6,0.1,4.8-2,4.8-4.7c0,0,0-0.1,0-0.1c0.1-2.6-2-4.8-4.7-4.8c0,0-0.1,0-0.1,0H26.5z M26.5,2.6
							c-1.4,0-2.6-1.1-2.6-2.5c0,0,0,0,0,0c0-1.4,1.1-2.6,2.5-2.6c0,0,0,0,0,0l0,0c1.4,0,2.5,1.1,2.5,2.4c0,0,0,0.1,0,0.1
							C29,1.4,27.9,2.5,26.5,2.6z"/>
						<path id="Trazado_2071" class="st2" d="M26.5,58.9c-2.6,0-4.8,2.1-4.8,4.7c0,2.6,2.1,4.8,4.7,4.8l0,0h0.1
							c2.6,0,4.8-2.1,4.8-4.7c0-2.6-2.1-4.8-4.7-4.8H26.5z M26.5,66.2c-1.4,0-2.6-1.2-2.6-2.6s1.2-2.6,2.6-2.6l0,0
							c1.4,0,2.5,1.1,2.5,2.4c0,0,0,0.1,0,0.1C29,65,27.9,66.2,26.5,66.2z"/>
						<path id="Trazado_2072" class="st2" d="M-0.1,27c-2.6,0-4.8,2.2-4.7,4.8c0.1,2.6,2.2,4.7,4.8,4.7c2.6,0,4.7-2.1,4.7-4.7
							C4.8,29.2,2.7,27,0,27C0,27-0.1,27-0.1,27z M-0.1,34.3c-1.4,0-2.6-1.1-2.6-2.5c0,0,0,0,0,0l0,0c0-1.4,1.1-2.6,2.5-2.6
							c0,0,0,0,0,0c1.4,0,2.6,1.1,2.6,2.5c0,0,0,0,0,0C2.5,33.1,1.3,34.3-0.1,34.3C-0.1,34.3-0.1,34.3-0.1,34.3z"/>
					</g>
				</g>
			</g>
		</g>
	</g>
</g>
</svg>
