<?xml version="1.0" encoding="utf-8"?>
<!-- Generator: Adobe Illustrator 25.0.0, SVG Export Plug-In . SVG Version: 6.00 Build 0)  -->
<svg version="1.1" id="Capa_1" xmlns="http://www.w3.org/2000/svg" xmlns:xlink="http://www.w3.org/1999/xlink" x="0px" y="0px"
	 viewBox="0 0 513.7 92.7" style="enable-background:new 0 0 513.7 92.7;" xml:space="preserve">
<style type="text/css">
	.st0{clip-path:url(#SVGID_2_);}
	.st1{clip-path:url(#SVGID_4_);}
	.st2{fill-rule:evenodd;clip-rule:evenodd;fill:#174A80;}
	.st3{clip-path:url(#SVGID_6_);}
	.st4{fill-rule:evenodd;clip-rule:evenodd;fill:#D44787;}
	.st5{clip-path:url(#SVGID_8_);}
	.st6{clip-path:url(#SVGID_10_);}
	.st7{clip-path:url(#SVGID_12_);}
	.st8{clip-path:url(#SVGID_14_);}
	.st9{clip-path:url(#SVGID_16_);}
	.st10{clip-path:url(#SVGID_18_);}
	.st11{clip-path:url(#SVGID_20_);}
	.st12{clip-path:url(#SVGID_22_);}
	.st13{clip-path:url(#SVGID_24_);}
	.st14{clip-path:url(#SVGID_26_);}
	.st15{clip-path:url(#SVGID_28_);}
	.st16{clip-path:url(#SVGID_30_);}
	.st17{clip-path:url(#SVGID_32_);}
	.st18{clip-path:url(#SVGID_34_);}
	.st19{clip-path:url(#SVGID_36_);}
	.st20{clip-path:url(#SVGID_38_);}
	.st21{clip-path:url(#SVGID_40_);}
	.st22{clip-path:url(#SVGID_42_);}
</style>
<g>
	<defs>
		<rect id="SVGID_1_" y="0" width="513.7" height="92.7"/>
	</defs>
	<clipPath id="SVGID_2_">
		<use xlink:href="#SVGID_1_"  style="overflow:visible;"/>
	</clipPath>
	<g class="st0">
		<g id="Grupo_846">
			<g>
				<defs>
					<rect id="SVGID_3_" y="0" width="51.4" height="61.8"/>
				</defs>
				<clipPath id="SVGID_4_">
					<use xlink:href="#SVGID_3_"  style="overflow:visible;"/>
				</clipPath>
				<g id="Grupo_845" class="st1">
					<g id="Grupo_844">
						<path id="Trazado_2066" class="st2" d="M17.1,34.6c0.4,0.5,1,0.9,1.6,0.8c0.7,0,1.3-0.4,1.6-0.9l16.4-20.9
							c0.7-0.8,1.9-1,2.7-0.3c0.8,0.6,0.9,1.8,0.3,2.6l-3.7,4.7v0c-0.6,0.7-0.7,1.7-0.1,2.4v0l3.7,4.7L51.4,13l-4.7-5.9L45.8,6
							c-0.6-0.7-1.5-1.2-2.4-1.3h-7c-1.1,0-2.1,0.5-2.9,1.3L14.1,30.8L17.1,34.6L17.1,34.6z M16.2,21.9l-4.7-6
							c-0.6-0.9-0.4-2,0.5-2.6c0.9-0.6,2-0.4,2.6,0.5c0,0,0,0,0,0.1l3.9,4.9l4.6-5.9l-5.3-6.7c-0.7-1-1.9-1.6-3.2-1.5H8.5
							C7.3,4.6,6.3,5,5.6,5.9l-5.6,7l11.6,14.8L16.2,21.9L16.2,21.9z"/>
						<path id="Trazado_2067" class="st2" d="M34.2,26.9c-0.4-0.5-0.9-0.8-1.6-0.8c-0.6,0-1.2,0.3-1.5,0.7L14.6,48
							c-0.7,0.8-1.9,1-2.8,0.3c-0.8-0.7-0.9-1.8-0.2-2.6l3.7-4.8v0c0.6-0.7,0.7-1.7,0.1-2.4v0l-3.7-4.7L0,48.8l6.5,8.2l10.2,0
							l20.6-26.2L34.2,26.9L34.2,26.9z"/>
						<path id="Trazado_2068" class="st2" d="M35.1,39.7l4.7,6c0.6,0.8,0.5,2-0.3,2.6c-0.9,0.7-2.1,0.5-2.8-0.4
							c0-0.1-0.1-0.1-0.1-0.2l-3.9-5l-4.6,5.9l6.6,8.4l10.2,0l6.5-8.3L39.7,33.9L35.1,39.7z"/>
						<path id="Trazado_2069" class="st2" d="M51.3,26.2c-2.6,0.1-4.6,2.2-4.5,4.7s2.2,4.6,4.7,4.5c2.5,0,4.5-2.1,4.5-4.6
							C56,28.2,53.9,26.2,51.3,26.2z M51.3,33.3c-1.4,0-2.5-1.1-2.5-2.5c0-1.4,1.1-2.5,2.5-2.5s2.5,1.1,2.5,2.5c0,0,0,0,0,0
							C53.8,32.2,52.7,33.3,51.3,33.3L51.3,33.3z"/>
						<path id="Trazado_2070" class="st2" d="M25.7-4.6c-2.6,0-4.7,2-4.7,4.6s2,4.7,4.6,4.7c0,0,0.1,0,0.1,0l0,0
							c2.6,0,4.7-2,4.7-4.6c0-2.6-2-4.7-4.6-4.7C25.7-4.6,25.7-4.6,25.7-4.6L25.7-4.6z M25.7,2.5c-1.4,0-2.5-1.1-2.5-2.5
							c0-1.4,1.1-2.5,2.5-2.5l0,0l0,0c1.4,0,2.5,1.2,2.4,2.5C28.1,1.4,27,2.5,25.7,2.5L25.7,2.5z"/>
						<path id="Trazado_2071" class="st2" d="M25.7,57.2c-2.6,0-4.7,2-4.7,4.6c0,2.6,2,4.7,4.6,4.7c0,0,0.1,0,0.1,0l0,0
							c2.6,0,4.7-2,4.7-4.6s-2-4.7-4.6-4.7C25.7,57.2,25.7,57.2,25.7,57.2L25.7,57.2z M25.7,64.3c-1.4,0-2.5-1.1-2.5-2.5
							s1.1-2.5,2.5-2.5l0,0l0,0c1.4,0,2.5,1.2,2.4,2.5C28.1,63.2,27,64.3,25.7,64.3L25.7,64.3z"/>
						<path id="Trazado_2072" class="st2" d="M-0.1,26.2c-2.6,0-4.6,2.2-4.6,4.7s2.2,4.6,4.7,4.6c2.5,0,4.6-2.1,4.6-4.6
							C4.6,28.2,2.5,26.2-0.1,26.2z M-0.1,33.3c-1.4,0-2.5-1.1-2.5-2.5l0,0c0-1.4,1.1-2.5,2.5-2.5c1.4,0,2.5,1.1,2.5,2.5
							C2.4,32.2,1.3,33.3-0.1,33.3L-0.1,33.3L-0.1,33.3z"/>
					</g>
				</g>
			</g>
		</g>
		<g id="Grupo_849">
			<g>
				<defs>
					<rect id="SVGID_5_" y="61.8" width="51.4" height="61.8"/>
				</defs>
				<clipPath id="SVGID_6_">
					<use xlink:href="#SVGID_5_"  style="overflow:visible;"/>
				</clipPath>
				<g id="Grupo_848" class="st3">
					<g id="Grupo_847">
						<path id="Trazado_2073" class="st4" d="M17.1,96.5c0.4,0.5,1,0.9,1.6,0.8c0.7,0,1.3-0.4,1.6-0.9l16.4-20.9
							c0.7-0.8,1.9-1,2.7-0.3c0.8,0.6,0.9,1.8,0.3,2.6l-3.7,4.7v0c-0.6,0.7-0.7,1.7-0.1,2.4v0l3.7,4.7l11.6-14.7l-4.7-5.9l-0.9-1.1
							c-0.6-0.7-1.5-1.2-2.4-1.3h-7c-1.1,0-2.1,0.5-2.9,1.3L14.1,92.6L17.1,96.5L17.1,96.5z M16.2,83.7l-4.7-6
							c-0.6-0.9-0.4-2,0.5-2.6c0.9-0.6,2-0.4,2.6,0.5c0,0,0,0,0,0.1l3.9,4.9l4.6-5.9L17.9,68c-0.7-1-1.9-1.6-3.2-1.5H8.5
							c-1.1-0.1-2.2,0.4-2.9,1.2l-5.6,7l11.6,14.8L16.2,83.7L16.2,83.7z"/>
						<path id="Trazado_2074" class="st4" d="M34.2,88.8c-0.4-0.5-0.9-0.8-1.6-0.8c-0.6,0-1.2,0.3-1.5,0.7l-16.6,21.2
							c-0.7,0.8-1.9,1-2.8,0.3c-0.8-0.7-0.9-1.8-0.2-2.6l3.7-4.8v0c0.6-0.7,0.7-1.7,0.1-2.4v0l-3.7-4.7L0,110.6l6.5,8.2l10.2,0
							l20.6-26.2L34.2,88.8L34.2,88.8z"/>
						<path id="Trazado_2075" class="st4" d="M35.1,101.5l4.7,6c0.6,0.8,0.5,2-0.3,2.6c-0.9,0.7-2.1,0.5-2.8-0.4
							c0-0.1-0.1-0.1-0.1-0.2l-3.9-5l-4.6,5.9l6.6,8.4l10.2,0l6.5-8.3L39.7,95.7L35.1,101.5z"/>
						<path id="Trazado_2076" class="st4" d="M51.3,88c-2.6,0.1-4.6,2.2-4.5,4.7s2.2,4.6,4.7,4.5c2.5,0,4.5-2.1,4.5-4.6
							C56,90.1,53.9,88,51.3,88z M51.3,95.2c-1.4,0-2.5-1.1-2.5-2.5c0-1.4,1.1-2.5,2.5-2.5s2.5,1.1,2.5,2.5c0,0,0,0,0,0
							C53.8,94,52.7,95.1,51.3,95.2L51.3,95.2z"/>
						<path id="Trazado_2077" class="st4" d="M25.7,57.2c-2.6,0-4.7,2-4.7,4.6s2,4.7,4.6,4.7c0,0,0.1,0,0.1,0l0,0
							c2.6,0,4.7-2,4.7-4.6c0-2.6-2-4.7-4.6-4.7C25.7,57.2,25.7,57.2,25.7,57.2L25.7,57.2z M25.7,64.3c-1.4,0-2.5-1.1-2.5-2.5
							c0-1.4,1.1-2.5,2.5-2.5l0,0c1.4,0,2.5,1.2,2.4,2.5C28.1,63.2,27,64.3,25.7,64.3L25.7,64.3z"/>
						<path id="Trazado_2078" class="st4" d="M25.7,119c-2.6,0-4.7,2-4.7,4.6c0,2.6,2,4.7,4.6,4.7c0,0,0.1,0,0.1,0l0,0
							c2.6,0,4.7-2,4.7-4.6s-2-4.7-4.6-4.7C25.7,119,25.7,119,25.7,119L25.7,119z M25.7,126.2c-1.4,0-2.5-1.1-2.5-2.5
							c0-1.4,1.1-2.5,2.5-2.5l0,0c1.4,0,2.5,1.2,2.4,2.5C28.1,125,27,126.1,25.7,126.2L25.7,126.2z"/>
						<path id="Trazado_2079" class="st4" d="M-0.1,88c-2.6,0-4.6,2.2-4.6,4.7s2.2,4.6,4.7,4.6c2.5,0,4.6-2.1,4.6-4.6
							C4.6,90.1,2.5,88-0.1,88z M-0.1,95.1c-1.4,0-2.5-1.1-2.5-2.5l0,0c0-1.4,1.1-2.5,2.5-2.5c1.4,0,2.5,1.1,2.5,2.5
							C2.4,94,1.3,95.1-0.1,95.1L-0.1,95.1L-0.1,95.1z"/>
					</g>
				</g>
			</g>
		</g>
		<g id="Grupo_846_1_">
			<g>
				<defs>
					<rect id="SVGID_7_" x="51.4" y="61.8" width="51.4" height="61.8"/>
				</defs>
				<clipPath id="SVGID_8_">
					<use xlink:href="#SVGID_7_"  style="overflow:visible;"/>
				</clipPath>
				<g id="Grupo_845_1_" class="st5">
					<g id="Grupo_844_1_">
						<path id="Trazado_2066_1_" class="st2" d="M68.4,96.5c0.4,0.5,1,0.9,1.6,0.8c0.7,0,1.3-0.4,1.6-0.9l16.4-20.9
							c0.7-0.8,1.9-1,2.7-0.3c0.8,0.6,0.9,1.8,0.3,2.6l-3.7,4.7v0c-0.6,0.7-0.7,1.7-0.1,2.4v0l3.7,4.7l11.6-14.7l-4.7-5.9l-0.9-1.1
							c-0.6-0.7-1.5-1.2-2.4-1.3h-7c-1.1,0-2.1,0.5-2.9,1.3L65.4,92.6L68.4,96.5L68.4,96.5z M67.6,83.7l-4.7-6
							c-0.6-0.9-0.4-2,0.5-2.6c0.9-0.6,2-0.4,2.6,0.5c0,0,0,0,0,0.1l3.9,4.9l4.6-5.9L69.3,68c-0.7-1-1.9-1.6-3.2-1.5h-6.3
							c-1.1-0.1-2.2,0.4-2.9,1.2l-5.6,7L63,89.5L67.6,83.7L67.6,83.7z"/>
						<path id="Trazado_2067_1_" class="st2" d="M85.6,88.8c-0.4-0.5-0.9-0.8-1.6-0.8c-0.6,0-1.2,0.3-1.5,0.7l-16.6,21.2
							c-0.7,0.8-1.9,1-2.8,0.3c-0.8-0.7-0.9-1.8-0.2-2.6l3.7-4.8v0c0.6-0.7,0.7-1.7,0.1-2.4v0L63,95.7l-11.7,14.9l6.5,8.2l10.2,0
							l20.6-26.2L85.6,88.8L85.6,88.8z"/>
						<path id="Trazado_2068_1_" class="st2" d="M86.5,101.5l4.7,6c0.6,0.8,0.5,2-0.3,2.6c-0.9,0.7-2.1,0.5-2.8-0.4
							c0-0.1-0.1-0.1-0.1-0.2l-3.9-5l-4.6,5.9l6.6,8.4l10.2,0l6.5-8.3L91.1,95.7L86.5,101.5z"/>
						<path id="Trazado_2069_1_" class="st2" d="M102.7,88c-2.6,0.1-4.6,2.2-4.5,4.7s2.2,4.6,4.7,4.5c2.5,0,4.5-2.1,4.5-4.6
							C107.4,90.1,105.2,88,102.7,88z M102.7,95.2c-1.4,0-2.5-1.1-2.5-2.5c0-1.4,1.1-2.5,2.5-2.5s2.5,1.1,2.5,2.5c0,0,0,0,0,0
							C105.1,94,104,95.2,102.7,95.2L102.7,95.2z"/>
						<path id="Trazado_2070_1_" class="st2" d="M77,57.2c-2.6,0-4.7,2-4.7,4.6s2,4.7,4.6,4.7c0,0,0.1,0,0.1,0l0,0
							c2.6,0,4.7-2,4.7-4.6c0-2.6-2-4.7-4.6-4.7C77.1,57.2,77.1,57.2,77,57.2L77,57.2z M77,64.3c-1.4,0-2.5-1.1-2.5-2.5
							c0-1.4,1.1-2.5,2.5-2.5l0,0l0,0c1.4,0,2.5,1.2,2.4,2.5C79.4,63.2,78.4,64.3,77,64.3L77,64.3z"/>
						<path id="Trazado_2071_1_" class="st2" d="M77,119c-2.6,0-4.7,2-4.7,4.6c0,2.6,2,4.7,4.6,4.7c0,0,0.1,0,0.1,0l0,0
							c2.6,0,4.7-2,4.7-4.6s-2-4.7-4.6-4.7C77.1,119,77.1,119,77,119L77,119z M77,126.1c-1.4,0-2.5-1.1-2.5-2.5s1.1-2.5,2.5-2.5l0,0
							l0,0c1.4,0,2.5,1.2,2.4,2.5C79.4,125,78.4,126.1,77,126.1L77,126.1z"/>
						<path id="Trazado_2072_1_" class="st2" d="M51.3,88c-2.6,0-4.6,2.2-4.6,4.7s2.2,4.6,4.7,4.6c2.5,0,4.6-2.1,4.6-4.6
							C56,90.1,53.9,88,51.3,88z M51.3,95.1c-1.4,0-2.5-1.1-2.5-2.5l0,0c0-1.4,1.1-2.5,2.5-2.5c1.4,0,2.5,1.1,2.5,2.5
							C53.8,94,52.7,95.1,51.3,95.1L51.3,95.1L51.3,95.1z"/>
					</g>
				</g>
			</g>
		</g>
		<g id="Grupo_849_1_">
			<g>
				<defs>
					<rect id="SVGID_9_" x="51.4" y="0" width="51.4" height="61.8"/>
				</defs>
				<clipPath id="SVGID_10_">
					<use xlink:href="#SVGID_9_"  style="overflow:visible;"/>
				</clipPath>
				<g id="Grupo_848_1_" class="st6">
					<g id="Grupo_847_1_">
						<path id="Trazado_2073_1_" class="st4" d="M68.4,34.6c0.4,0.5,1,0.9,1.6,0.8c0.7,0,1.3-0.4,1.6-0.9l16.4-20.9
							c0.7-0.8,1.9-1,2.7-0.3c0.8,0.6,0.9,1.8,0.3,2.6l-3.7,4.7v0c-0.6,0.7-0.7,1.7-0.1,2.4v0l3.7,4.7L102.7,13l-4.7-5.9L97.2,6
							c-0.6-0.7-1.5-1.2-2.4-1.3h-7c-1.1,0-2.1,0.5-2.9,1.3L65.4,30.8L68.4,34.6L68.4,34.6z M67.6,21.9l-4.7-6
							c-0.6-0.9-0.4-2,0.5-2.6c0.9-0.6,2-0.4,2.6,0.5c0,0,0,0,0,0.1l3.9,4.9l4.6-5.9l-5.3-6.7c-0.7-1-1.9-1.6-3.2-1.5h-6.3
							c-1.1-0.1-2.2,0.4-2.9,1.2l-5.6,7L63,27.7L67.6,21.9L67.6,21.9z"/>
						<path id="Trazado_2074_1_" class="st4" d="M85.6,26.9c-0.4-0.5-0.9-0.8-1.6-0.8c-0.6,0-1.2,0.3-1.5,0.7L65.9,48
							c-0.7,0.8-1.9,1-2.8,0.3c-0.8-0.7-0.9-1.8-0.2-2.6l3.7-4.8v0c0.6-0.7,0.7-1.7,0.1-2.4v0L63,33.9L51.3,48.8l6.5,8.2l10.2,0
							l20.6-26.2L85.6,26.9L85.6,26.9z"/>
						<path id="Trazado_2075_1_" class="st4" d="M86.5,39.7l4.7,6c0.6,0.8,0.5,2-0.3,2.6c-0.9,0.7-2.1,0.5-2.8-0.4
							c0-0.1-0.1-0.1-0.1-0.2l-3.9-5l-4.6,5.9l6.6,8.4l10.2,0l6.5-8.3L91.1,33.9L86.5,39.7z"/>
						<path id="Trazado_2076_1_" class="st4" d="M102.7,26.2c-2.6,0.1-4.6,2.2-4.5,4.7s2.2,4.6,4.7,4.5c2.5,0,4.5-2.1,4.5-4.6
							C107.4,28.2,105.2,26.2,102.7,26.2z M102.7,33.3c-1.4,0-2.5-1.1-2.5-2.5c0-1.4,1.1-2.5,2.5-2.5s2.5,1.1,2.5,2.5c0,0,0,0,0,0
							C105.1,32.2,104,33.3,102.7,33.3L102.7,33.3z"/>
						<path id="Trazado_2077_1_" class="st4" d="M77-4.6c-2.6,0-4.7,2-4.7,4.6s2,4.7,4.6,4.7c0,0,0.1,0,0.1,0l0,0
							c2.6,0,4.7-2,4.7-4.6c0-2.6-2-4.7-4.6-4.7C77.1-4.6,77.1-4.6,77-4.6L77-4.6z M77,2.5c-1.4,0-2.5-1.1-2.5-2.5
							c0-1.4,1.1-2.5,2.5-2.5l0,0c1.4,0,2.5,1.2,2.4,2.5C79.4,1.4,78.4,2.5,77,2.5L77,2.5z"/>
						<path id="Trazado_2078_1_" class="st4" d="M77,57.2c-2.6,0-4.7,2-4.7,4.6c0,2.6,2,4.7,4.6,4.7c0,0,0.1,0,0.1,0l0,0
							c2.6,0,4.7-2,4.7-4.6s-2-4.7-4.6-4.7C77.1,57.2,77.1,57.2,77,57.2L77,57.2z M77,64.3c-1.4,0-2.5-1.1-2.5-2.5
							c0-1.4,1.1-2.5,2.5-2.5l0,0c1.4,0,2.5,1.2,2.4,2.5C79.4,63.2,78.4,64.3,77,64.3L77,64.3z"/>
						<path id="Trazado_2079_1_" class="st4" d="M51.3,26.2c-2.6,0-4.6,2.2-4.6,4.7s2.2,4.6,4.7,4.6c2.5,0,4.6-2.1,4.6-4.6
							C56,28.2,53.9,26.2,51.3,26.2z M51.3,33.3c-1.4,0-2.5-1.1-2.5-2.5l0,0c0-1.4,1.1-2.5,2.5-2.5c1.4,0,2.5,1.1,2.5,2.5
							C53.8,32.2,52.7,33.3,51.3,33.3L51.3,33.3L51.3,33.3z"/>
					</g>
				</g>
			</g>
		</g>
		<g id="Grupo_846_3_">
			<g>
				<defs>
					<rect id="SVGID_11_" x="102.7" y="0" width="51.4" height="61.8"/>
				</defs>
				<clipPath id="SVGID_12_">
					<use xlink:href="#SVGID_11_"  style="overflow:visible;"/>
				</clipPath>
				<g id="Grupo_845_3_" class="st7">
					<g id="Grupo_844_3_">
						<path id="Trazado_2066_3_" class="st2" d="M119.8,34.6c0.4,0.5,1,0.9,1.6,0.8c0.7,0,1.3-0.4,1.6-0.9l16.4-20.9
							c0.7-0.8,1.9-1,2.7-0.3c0.8,0.6,0.9,1.8,0.3,2.6l-3.7,4.7v0c-0.6,0.7-0.7,1.7-0.1,2.4v0l3.7,4.7L154.1,13l-4.7-5.9L148.6,6
							c-0.6-0.7-1.5-1.2-2.4-1.3h-7c-1.1,0-2.1,0.5-2.9,1.3l-19.5,24.9L119.8,34.6L119.8,34.6z M119,21.9l-4.7-6
							c-0.6-0.9-0.4-2,0.5-2.6c0.9-0.6,2-0.4,2.6,0.5c0,0,0,0,0,0.1l3.9,4.9l4.6-5.9l-5.3-6.7c-0.7-1-1.9-1.6-3.2-1.5h-6.3
							c-1.1-0.1-2.2,0.4-2.9,1.2l-5.6,7l11.6,14.8L119,21.9L119,21.9z"/>
						<path id="Trazado_2067_3_" class="st2" d="M137,26.9c-0.4-0.5-0.9-0.8-1.6-0.8c-0.6,0-1.2,0.3-1.5,0.7L117.3,48
							c-0.7,0.8-1.9,1-2.8,0.3c-0.8-0.7-0.9-1.8-0.2-2.6L118,41v0c0.6-0.7,0.7-1.7,0.1-2.4v0l-3.7-4.7l-11.7,14.9l6.5,8.2l10.2,0
							L140,30.8L137,26.9L137,26.9z"/>
						<path id="Trazado_2068_3_" class="st2" d="M137.8,39.7l4.7,6c0.6,0.8,0.5,2-0.3,2.6c-0.9,0.7-2.1,0.5-2.8-0.4
							c0-0.1-0.1-0.1-0.1-0.2l-3.9-5l-4.6,5.9l6.6,8.4l10.2,0l6.5-8.3l-11.7-14.8L137.8,39.7z"/>
						<path id="Trazado_2069_3_" class="st2" d="M154,26.2c-2.6,0.1-4.6,2.2-4.5,4.7s2.2,4.6,4.7,4.5c2.5,0,4.5-2.1,4.5-4.6
							C158.7,28.2,156.6,26.2,154,26.2z M154,33.3c-1.4,0-2.5-1.1-2.5-2.5c0-1.4,1.1-2.5,2.5-2.5s2.5,1.1,2.5,2.5c0,0,0,0,0,0
							C156.5,32.2,155.4,33.3,154,33.3L154,33.3z"/>
						<path id="Trazado_2070_3_" class="st2" d="M128.4-4.6c-2.6,0-4.7,2-4.7,4.6s2,4.7,4.6,4.7c0,0,0.1,0,0.1,0l0,0
							c2.6,0,4.7-2,4.7-4.6c0-2.6-2-4.7-4.6-4.7C128.5-4.6,128.4-4.6,128.4-4.6L128.4-4.6z M128.4,2.5c-1.4,0-2.5-1.1-2.5-2.5
							c0-1.4,1.1-2.5,2.5-2.5l0,0l0,0c1.4,0,2.5,1.2,2.4,2.5C130.8,1.4,129.7,2.5,128.4,2.5L128.4,2.5z"/>
						<path id="Trazado_2071_3_" class="st2" d="M128.4,57.2c-2.6,0-4.7,2-4.7,4.6c0,2.6,2,4.7,4.6,4.7c0,0,0.1,0,0.1,0l0,0
							c2.6,0,4.7-2,4.7-4.6s-2-4.7-4.6-4.7C128.5,57.2,128.4,57.2,128.4,57.2L128.4,57.2z M128.4,64.3c-1.4,0-2.5-1.1-2.5-2.5
							s1.1-2.5,2.5-2.5l0,0l0,0c1.4,0,2.5,1.2,2.4,2.5C130.8,63.2,129.7,64.3,128.4,64.3L128.4,64.3z"/>
						<path id="Trazado_2072_3_" class="st2" d="M102.7,26.2c-2.6,0-4.6,2.2-4.6,4.7s2.2,4.6,4.7,4.6c2.5,0,4.6-2.1,4.6-4.6
							C107.4,28.2,105.3,26.2,102.7,26.2z M102.7,33.3c-1.4,0-2.5-1.1-2.5-2.5l0,0c0-1.4,1.1-2.5,2.5-2.5c1.4,0,2.5,1.1,2.5,2.5
							C105.2,32.2,104.1,33.3,102.7,33.3L102.7,33.3L102.7,33.3z"/>
					</g>
				</g>
			</g>
		</g>
		<g id="Grupo_849_3_">
			<g>
				<defs>
					<rect id="SVGID_13_" x="102.7" y="61.8" width="51.4" height="61.8"/>
				</defs>
				<clipPath id="SVGID_14_">
					<use xlink:href="#SVGID_13_"  style="overflow:visible;"/>
				</clipPath>
				<g id="Grupo_848_3_" class="st8">
					<g id="Grupo_847_3_">
						<path id="Trazado_2073_3_" class="st4" d="M119.8,96.5c0.4,0.5,1,0.9,1.6,0.8c0.7,0,1.3-0.4,1.6-0.9l16.4-20.9
							c0.7-0.8,1.9-1,2.7-0.3c0.8,0.6,0.9,1.8,0.3,2.6l-3.7,4.7v0c-0.6,0.7-0.7,1.7-0.1,2.4v0l3.7,4.7l11.6-14.7l-4.7-5.9l-0.9-1.1
							c-0.6-0.7-1.5-1.2-2.4-1.3h-7c-1.1,0-2.1,0.5-2.9,1.3l-19.5,24.9L119.8,96.5L119.8,96.5z M119,83.7l-4.7-6
							c-0.6-0.9-0.4-2,0.5-2.6c0.9-0.6,2-0.4,2.6,0.5c0,0,0,0,0,0.1l3.9,4.9l4.6-5.9l-5.3-6.7c-0.7-1-1.9-1.6-3.2-1.5h-6.3
							c-1.1-0.1-2.2,0.4-2.9,1.2l-5.6,7l11.6,14.8L119,83.7L119,83.7z"/>
						<path id="Trazado_2074_3_" class="st4" d="M137,88.8c-0.4-0.5-0.9-0.8-1.6-0.8c-0.6,0-1.2,0.3-1.5,0.7l-16.6,21.2
							c-0.7,0.8-1.9,1-2.8,0.3c-0.8-0.7-0.9-1.8-0.2-2.6l3.7-4.8v0c0.6-0.7,0.7-1.7,0.1-2.4v0l-3.7-4.7l-11.7,14.9l6.5,8.2l10.2,0
							L140,92.6L137,88.8L137,88.8z"/>
						<path id="Trazado_2075_3_" class="st4" d="M137.8,101.5l4.7,6c0.6,0.8,0.5,2-0.3,2.6c-0.9,0.7-2.1,0.5-2.8-0.4
							c0-0.1-0.1-0.1-0.1-0.2l-3.9-5l-4.6,5.9l6.6,8.4l10.2,0l6.5-8.3l-11.7-14.8L137.8,101.5z"/>
						<path id="Trazado_2076_3_" class="st4" d="M154,88c-2.6,0.1-4.6,2.2-4.5,4.7s2.2,4.6,4.7,4.5c2.5,0,4.5-2.1,4.5-4.6
							C158.7,90.1,156.6,88,154,88z M154,95.2c-1.4,0-2.5-1.1-2.5-2.5c0-1.4,1.1-2.5,2.5-2.5s2.5,1.1,2.5,2.5c0,0,0,0,0,0
							C156.5,94,155.4,95.1,154,95.2L154,95.2z"/>
						<path id="Trazado_2077_3_" class="st4" d="M128.4,57.2c-2.6,0-4.7,2-4.7,4.6s2,4.7,4.6,4.7c0,0,0.1,0,0.1,0l0,0
							c2.6,0,4.7-2,4.7-4.6c0-2.6-2-4.7-4.6-4.7C128.5,57.2,128.4,57.2,128.4,57.2L128.4,57.2z M128.4,64.3c-1.4,0-2.5-1.1-2.5-2.5
							c0-1.4,1.1-2.5,2.5-2.5l0,0c1.4,0,2.5,1.2,2.4,2.5C130.8,63.2,129.7,64.3,128.4,64.3L128.4,64.3z"/>
						<path id="Trazado_2078_3_" class="st4" d="M128.4,119c-2.6,0-4.7,2-4.7,4.6c0,2.6,2,4.7,4.6,4.7c0,0,0.1,0,0.1,0l0,0
							c2.6,0,4.7-2,4.7-4.6s-2-4.7-4.6-4.7C128.5,119,128.4,119,128.4,119L128.4,119z M128.4,126.2c-1.4,0-2.5-1.1-2.5-2.5
							c0-1.4,1.1-2.5,2.5-2.5l0,0c1.4,0,2.5,1.2,2.4,2.5C130.8,125,129.7,126.1,128.4,126.2L128.4,126.2z"/>
						<path id="Trazado_2079_3_" class="st4" d="M102.7,88c-2.6,0-4.6,2.2-4.6,4.7s2.2,4.6,4.7,4.6c2.5,0,4.6-2.1,4.6-4.6
							C107.4,90.1,105.3,88,102.7,88z M102.7,95.1c-1.4,0-2.5-1.1-2.5-2.5l0,0c0-1.4,1.1-2.5,2.5-2.5c1.4,0,2.5,1.1,2.5,2.5
							C105.2,94,104.1,95.1,102.7,95.1L102.7,95.1L102.7,95.1z"/>
					</g>
				</g>
			</g>
		</g>
		<g id="Grupo_846_2_">
			<g>
				<defs>
					<rect id="SVGID_15_" x="154.1" y="61.8" width="51.4" height="61.8"/>
				</defs>
				<clipPath id="SVGID_16_">
					<use xlink:href="#SVGID_15_"  style="overflow:visible;"/>
				</clipPath>
				<g id="Grupo_845_2_" class="st9">
					<g id="Grupo_844_2_">
						<path id="Trazado_2066_2_" class="st2" d="M171.2,96.5c0.4,0.5,1,0.9,1.6,0.8c0.7,0,1.3-0.4,1.6-0.9l16.4-20.9
							c0.7-0.8,1.9-1,2.7-0.3c0.8,0.6,0.9,1.8,0.3,2.6l-3.7,4.7v0c-0.6,0.7-0.7,1.7-0.1,2.4v0l3.7,4.7l11.6-14.7l-4.7-5.9l-0.9-1.1
							c-0.6-0.7-1.5-1.2-2.4-1.3h-7c-1.1,0-2.1,0.5-2.9,1.3l-19.5,24.9L171.2,96.5L171.2,96.5z M170.4,83.7l-4.7-6
							c-0.6-0.9-0.4-2,0.5-2.6c0.9-0.6,2-0.4,2.6,0.5c0,0,0,0,0,0.1l3.9,4.9l4.6-5.9L172,68c-0.7-1-1.9-1.6-3.2-1.5h-6.3
							c-1.1-0.1-2.2,0.4-2.9,1.2l-5.6,7l11.6,14.8L170.4,83.7L170.4,83.7z"/>
						<path id="Trazado_2067_2_" class="st2" d="M188.4,88.8c-0.4-0.5-0.9-0.8-1.6-0.8c-0.6,0-1.2,0.3-1.5,0.7l-16.6,21.2
							c-0.7,0.8-1.9,1-2.8,0.3c-0.8-0.7-0.9-1.8-0.2-2.6l3.7-4.8v0c0.6-0.7,0.7-1.7,0.1-2.4v0l-3.7-4.7l-11.7,14.9l6.5,8.2l10.2,0
							l20.6-26.2L188.4,88.8L188.4,88.8z"/>
						<path id="Trazado_2068_2_" class="st2" d="M189.2,101.5l4.7,6c0.6,0.8,0.5,2-0.3,2.6c-0.9,0.7-2.1,0.5-2.8-0.4
							c0-0.1-0.1-0.1-0.1-0.2l-3.9-5l-4.6,5.9l6.6,8.4l10.2,0l6.5-8.3l-11.7-14.8L189.2,101.5z"/>
						<path id="Trazado_2069_2_" class="st2" d="M205.4,88c-2.6,0.1-4.6,2.2-4.5,4.7s2.2,4.6,4.7,4.5c2.5,0,4.5-2.1,4.5-4.6
							C210.1,90.1,208,88,205.4,88z M205.4,95.2c-1.4,0-2.5-1.1-2.5-2.5c0-1.4,1.1-2.5,2.5-2.5s2.5,1.1,2.5,2.5c0,0,0,0,0,0
							C207.9,94,206.8,95.2,205.4,95.2L205.4,95.2z"/>
						<path id="Trazado_2070_2_" class="st2" d="M179.8,57.2c-2.6,0-4.7,2-4.7,4.6s2,4.7,4.6,4.7c0,0,0.1,0,0.1,0l0,0
							c2.6,0,4.7-2,4.7-4.6c0-2.6-2-4.7-4.6-4.7C179.8,57.2,179.8,57.2,179.8,57.2L179.8,57.2z M179.8,64.3c-1.4,0-2.5-1.1-2.5-2.5
							c0-1.4,1.1-2.5,2.5-2.5l0,0l0,0c1.4,0,2.5,1.2,2.4,2.5C182.2,63.2,181.1,64.3,179.8,64.3L179.8,64.3z"/>
						<path id="Trazado_2071_2_" class="st2" d="M179.8,119c-2.6,0-4.7,2-4.7,4.6c0,2.6,2,4.7,4.6,4.7c0,0,0.1,0,0.1,0l0,0
							c2.6,0,4.7-2,4.7-4.6s-2-4.7-4.6-4.7C179.9,119,179.8,119,179.8,119L179.8,119z M179.8,126.1c-1.4,0-2.5-1.1-2.5-2.5
							s1.1-2.5,2.5-2.5l0,0l0,0c1.4,0,2.5,1.2,2.4,2.5C182.2,125,181.1,126.1,179.8,126.1L179.8,126.1z"/>
						<path id="Trazado_2072_2_" class="st2" d="M154.1,88c-2.6,0-4.6,2.2-4.6,4.7s2.2,4.6,4.7,4.6c2.5,0,4.6-2.1,4.6-4.6
							C158.8,90.1,156.6,88,154.1,88z M154.1,95.1c-1.4,0-2.5-1.1-2.5-2.5l0,0c0-1.4,1.1-2.5,2.5-2.5c1.4,0,2.5,1.1,2.5,2.5
							C156.5,94,155.4,95.1,154.1,95.1L154.1,95.1L154.1,95.1z"/>
					</g>
				</g>
			</g>
		</g>
		<g id="Grupo_849_2_">
			<g>
				<defs>
					<rect id="SVGID_17_" x="154.1" y="0" width="51.4" height="61.8"/>
				</defs>
				<clipPath id="SVGID_18_">
					<use xlink:href="#SVGID_17_"  style="overflow:visible;"/>
				</clipPath>
				<g id="Grupo_848_2_" class="st10">
					<g id="Grupo_847_2_">
						<path id="Trazado_2073_2_" class="st4" d="M171.2,34.6c0.4,0.5,1,0.9,1.6,0.8c0.7,0,1.3-0.4,1.6-0.9l16.4-20.9
							c0.7-0.8,1.9-1,2.7-0.3c0.8,0.6,0.9,1.8,0.3,2.6l-3.7,4.7v0c-0.6,0.7-0.7,1.7-0.1,2.4v0l3.7,4.7L205.5,13l-4.7-5.9L200,6
							c-0.6-0.7-1.5-1.2-2.4-1.3h-7c-1.1,0-2.1,0.5-2.9,1.3l-19.5,24.9L171.2,34.6L171.2,34.6z M170.4,21.9l-4.7-6
							c-0.6-0.9-0.4-2,0.5-2.6c0.9-0.6,2-0.4,2.6,0.5c0,0,0,0,0,0.1l3.9,4.9l4.6-5.9L172,6.2c-0.7-1-1.9-1.6-3.2-1.5h-6.3
							c-1.1-0.1-2.2,0.4-2.9,1.2l-5.6,7l11.6,14.8L170.4,21.9L170.4,21.9z"/>
						<path id="Trazado_2074_2_" class="st4" d="M188.4,26.9c-0.4-0.5-0.9-0.8-1.6-0.8c-0.6,0-1.2,0.3-1.5,0.7L168.7,48
							c-0.7,0.8-1.9,1-2.8,0.3c-0.8-0.7-0.9-1.8-0.2-2.6l3.7-4.8v0c0.6-0.7,0.7-1.7,0.1-2.4v0l-3.7-4.7l-11.7,14.9l6.5,8.2l10.2,0
							l20.6-26.2L188.4,26.9L188.4,26.9z"/>
						<path id="Trazado_2075_2_" class="st4" d="M189.2,39.7l4.7,6c0.6,0.8,0.5,2-0.3,2.6c-0.9,0.7-2.1,0.5-2.8-0.4
							c0-0.1-0.1-0.1-0.1-0.2l-3.9-5l-4.6,5.9l6.6,8.4l10.2,0l6.5-8.3l-11.7-14.8L189.2,39.7z"/>
						<path id="Trazado_2076_2_" class="st4" d="M205.4,26.2c-2.6,0.1-4.6,2.2-4.5,4.7s2.2,4.6,4.7,4.5c2.5,0,4.5-2.1,4.5-4.6
							C210.1,28.2,208,26.2,205.4,26.2z M205.4,33.3c-1.4,0-2.5-1.1-2.5-2.5c0-1.4,1.1-2.5,2.5-2.5s2.5,1.1,2.5,2.5c0,0,0,0,0,0
							C207.9,32.2,206.8,33.3,205.4,33.3L205.4,33.3z"/>
						<path id="Trazado_2077_2_" class="st4" d="M179.8-4.6c-2.6,0-4.7,2-4.7,4.6s2,4.7,4.6,4.7c0,0,0.1,0,0.1,0l0,0
							c2.6,0,4.7-2,4.7-4.6c0-2.6-2-4.7-4.6-4.7C179.8-4.6,179.8-4.6,179.8-4.6L179.8-4.6z M179.8,2.5c-1.4,0-2.5-1.1-2.5-2.5
							c0-1.4,1.1-2.5,2.5-2.5l0,0c1.4,0,2.5,1.2,2.4,2.5C182.2,1.4,181.1,2.5,179.8,2.5L179.8,2.5z"/>
						<path id="Trazado_2078_2_" class="st4" d="M179.8,57.2c-2.6,0-4.7,2-4.7,4.6c0,2.6,2,4.7,4.6,4.7c0,0,0.1,0,0.1,0l0,0
							c2.6,0,4.7-2,4.7-4.6s-2-4.7-4.6-4.7C179.9,57.2,179.8,57.2,179.8,57.2L179.8,57.2z M179.8,64.3c-1.4,0-2.5-1.1-2.5-2.5
							c0-1.4,1.1-2.5,2.5-2.5l0,0c1.4,0,2.5,1.2,2.4,2.5C182.2,63.2,181.1,64.3,179.8,64.3L179.8,64.3z"/>
						<path id="Trazado_2079_2_" class="st4" d="M154.1,26.2c-2.6,0-4.6,2.2-4.6,4.7s2.2,4.6,4.7,4.6c2.5,0,4.6-2.1,4.6-4.6
							C158.8,28.2,156.6,26.2,154.1,26.2z M154.1,33.3c-1.4,0-2.5-1.1-2.5-2.5l0,0c0-1.4,1.1-2.5,2.5-2.5c1.4,0,2.5,1.1,2.5,2.5
							C156.5,32.2,155.4,33.3,154.1,33.3L154.1,33.3L154.1,33.3z"/>
					</g>
				</g>
			</g>
		</g>
		<g id="Grupo_846_7_">
			<g>
				<defs>
					<rect id="SVGID_19_" x="205.5" y="0" width="51.4" height="61.8"/>
				</defs>
				<clipPath id="SVGID_20_">
					<use xlink:href="#SVGID_19_"  style="overflow:visible;"/>
				</clipPath>
				<g id="Grupo_845_7_" class="st11">
					<g id="Grupo_844_7_">
						<path id="Trazado_2066_7_" class="st2" d="M222.6,34.6c0.4,0.5,1,0.9,1.6,0.8c0.7,0,1.3-0.4,1.6-0.9l16.4-20.9
							c0.7-0.8,1.9-1,2.7-0.3c0.8,0.6,0.9,1.8,0.3,2.6l-3.7,4.7v0c-0.6,0.7-0.7,1.7-0.1,2.4v0l3.7,4.7L256.8,13l-4.7-5.9L251.3,6
							c-0.6-0.7-1.5-1.2-2.4-1.3h-7c-1.1,0-2.1,0.5-2.9,1.3l-19.5,24.9L222.6,34.6L222.6,34.6z M221.7,21.9l-4.7-6
							c-0.6-0.9-0.4-2,0.5-2.6c0.9-0.6,2-0.4,2.6,0.5c0,0,0,0,0,0.1l3.9,4.9l4.6-5.9l-5.3-6.7c-0.7-1-1.9-1.6-3.2-1.5h-6.3
							c-1.1-0.1-2.2,0.4-2.9,1.2l-5.6,7l11.6,14.8L221.7,21.9L221.7,21.9z"/>
						<path id="Trazado_2067_7_" class="st2" d="M239.7,26.9c-0.4-0.5-0.9-0.8-1.6-0.8c-0.6,0-1.2,0.3-1.5,0.7L220,48
							c-0.7,0.8-1.9,1-2.8,0.3c-0.8-0.7-0.9-1.8-0.2-2.6l3.7-4.8v0c0.6-0.7,0.7-1.7,0.1-2.4v0l-3.7-4.7l-11.7,14.9l6.5,8.2l10.2,0
							l20.6-26.2L239.7,26.9L239.7,26.9z"/>
						<path id="Trazado_2068_7_" class="st2" d="M240.6,39.7l4.7,6c0.6,0.8,0.5,2-0.3,2.6c-0.9,0.7-2.1,0.5-2.8-0.4
							c0-0.1-0.1-0.1-0.1-0.2l-3.9-5l-4.6,5.9l6.6,8.4l10.2,0l6.5-8.3l-11.7-14.8L240.6,39.7z"/>
						<path id="Trazado_2069_7_" class="st2" d="M256.8,26.2c-2.6,0.1-4.6,2.2-4.5,4.7s2.2,4.6,4.7,4.5c2.5,0,4.5-2.1,4.5-4.6
							C261.5,28.2,259.3,26.2,256.8,26.2z M256.8,33.3c-1.4,0-2.5-1.1-2.5-2.5c0-1.4,1.1-2.5,2.5-2.5c1.4,0,2.5,1.1,2.5,2.5
							c0,0,0,0,0,0C259.2,32.2,258.1,33.3,256.8,33.3L256.8,33.3z"/>
						<path id="Trazado_2070_7_" class="st2" d="M231.1-4.6c-2.6,0-4.7,2-4.7,4.6s2,4.7,4.6,4.7c0,0,0.1,0,0.1,0l0,0
							c2.6,0,4.7-2,4.7-4.6c0-2.6-2-4.7-4.6-4.7C231.2-4.6,231.2-4.6,231.1-4.6L231.1-4.6z M231.1,2.5c-1.4,0-2.5-1.1-2.5-2.5
							c0-1.4,1.1-2.5,2.5-2.5l0,0l0,0c1.4,0,2.5,1.2,2.4,2.5C233.5,1.4,232.5,2.5,231.1,2.5L231.1,2.5z"/>
						<path id="Trazado_2071_7_" class="st2" d="M231.1,57.2c-2.6,0-4.7,2-4.7,4.6c0,2.6,2,4.7,4.6,4.7c0,0,0.1,0,0.1,0l0,0
							c2.6,0,4.7-2,4.7-4.6s-2-4.7-4.6-4.7C231.2,57.2,231.2,57.2,231.1,57.2L231.1,57.2z M231.1,64.3c-1.4,0-2.5-1.1-2.5-2.5
							s1.1-2.5,2.5-2.5l0,0l0,0c1.4,0,2.5,1.2,2.4,2.5C233.5,63.2,232.5,64.3,231.1,64.3L231.1,64.3z"/>
						<path id="Trazado_2072_7_" class="st2" d="M205.4,26.2c-2.6,0-4.6,2.2-4.6,4.7s2.2,4.6,4.7,4.6c2.5,0,4.6-2.1,4.6-4.6
							C210.1,28.2,208,26.2,205.4,26.2z M205.4,33.3c-1.4,0-2.5-1.1-2.5-2.5l0,0c0-1.4,1.1-2.5,2.5-2.5c1.4,0,2.5,1.1,2.5,2.5
							C207.9,32.2,206.8,33.3,205.4,33.3L205.4,33.3L205.4,33.3z"/>
					</g>
				</g>
			</g>
		</g>
		<g id="Grupo_849_7_">
			<g>
				<defs>
					<rect id="SVGID_21_" x="205.5" y="61.8" width="51.4" height="61.8"/>
				</defs>
				<clipPath id="SVGID_22_">
					<use xlink:href="#SVGID_21_"  style="overflow:visible;"/>
				</clipPath>
				<g id="Grupo_848_7_" class="st12">
					<g id="Grupo_847_7_">
						<path id="Trazado_2073_7_" class="st4" d="M222.6,96.5c0.4,0.5,1,0.9,1.6,0.8c0.7,0,1.3-0.4,1.6-0.9l16.4-20.9
							c0.7-0.8,1.9-1,2.7-0.3c0.8,0.6,0.9,1.8,0.3,2.6l-3.7,4.7v0c-0.6,0.7-0.7,1.7-0.1,2.4v0l3.7,4.7l11.6-14.7l-4.7-5.9l-0.9-1.1
							c-0.6-0.7-1.5-1.2-2.4-1.3h-7c-1.1,0-2.1,0.5-2.9,1.3l-19.5,24.9L222.6,96.5L222.6,96.5z M221.7,83.7l-4.7-6
							c-0.6-0.9-0.4-2,0.5-2.6c0.9-0.6,2-0.4,2.6,0.5c0,0,0,0,0,0.1l3.9,4.9l4.6-5.9l-5.3-6.7c-0.7-1-1.9-1.6-3.2-1.5h-6.3
							c-1.1-0.1-2.2,0.4-2.9,1.2l-5.6,7l11.6,14.8L221.7,83.7L221.7,83.7z"/>
						<path id="Trazado_2074_7_" class="st4" d="M239.7,88.8c-0.4-0.5-0.9-0.8-1.6-0.8c-0.6,0-1.2,0.3-1.5,0.7L220,109.9
							c-0.7,0.8-1.9,1-2.8,0.3c-0.8-0.7-0.9-1.8-0.2-2.6l3.7-4.8v0c0.6-0.7,0.7-1.7,0.1-2.4v0l-3.7-4.7l-11.7,14.9l6.5,8.2l10.2,0
							l20.6-26.2L239.7,88.8L239.7,88.8z"/>
						<path id="Trazado_2075_7_" class="st4" d="M240.6,101.5l4.7,6c0.6,0.8,0.5,2-0.3,2.6c-0.9,0.7-2.1,0.5-2.8-0.4
							c0-0.1-0.1-0.1-0.1-0.2l-3.9-5l-4.6,5.9l6.6,8.4l10.2,0l6.5-8.3l-11.7-14.8L240.6,101.5z"/>
						<path id="Trazado_2076_7_" class="st4" d="M256.8,88c-2.6,0.1-4.6,2.2-4.5,4.7s2.2,4.6,4.7,4.5c2.5,0,4.5-2.1,4.5-4.6
							C261.5,90.1,259.3,88,256.8,88z M256.8,95.2c-1.4,0-2.5-1.1-2.5-2.5c0-1.4,1.1-2.5,2.5-2.5c1.4,0,2.5,1.1,2.5,2.5c0,0,0,0,0,0
							C259.2,94,258.1,95.1,256.8,95.2L256.8,95.2z"/>
						<path id="Trazado_2077_7_" class="st4" d="M231.1,57.2c-2.6,0-4.7,2-4.7,4.6s2,4.7,4.6,4.7c0,0,0.1,0,0.1,0l0,0
							c2.6,0,4.7-2,4.7-4.6c0-2.6-2-4.7-4.6-4.7C231.2,57.2,231.2,57.2,231.1,57.2L231.1,57.2z M231.1,64.3c-1.4,0-2.5-1.1-2.5-2.5
							c0-1.4,1.1-2.5,2.5-2.5l0,0c1.4,0,2.5,1.2,2.4,2.5C233.5,63.2,232.5,64.3,231.1,64.3L231.1,64.3z"/>
						<path id="Trazado_2078_7_" class="st4" d="M231.1,119c-2.6,0-4.7,2-4.7,4.6c0,2.6,2,4.7,4.6,4.7c0,0,0.1,0,0.1,0l0,0
							c2.6,0,4.7-2,4.7-4.6s-2-4.7-4.6-4.7C231.2,119,231.2,119,231.1,119L231.1,119z M231.1,126.2c-1.4,0-2.5-1.1-2.5-2.5
							c0-1.4,1.1-2.5,2.5-2.5l0,0c1.4,0,2.5,1.2,2.4,2.5C233.5,125,232.5,126.1,231.1,126.2L231.1,126.2z"/>
						<path id="Trazado_2079_7_" class="st4" d="M205.4,88c-2.6,0-4.6,2.2-4.6,4.7s2.2,4.6,4.7,4.6c2.5,0,4.6-2.1,4.6-4.6
							C210.1,90.1,208,88,205.4,88z M205.4,95.1c-1.4,0-2.5-1.1-2.5-2.5l0,0c0-1.4,1.1-2.5,2.5-2.5c1.4,0,2.5,1.1,2.5,2.5
							C207.9,94,206.8,95.1,205.4,95.1L205.4,95.1L205.4,95.1z"/>
					</g>
				</g>
			</g>
		</g>
		<g id="Grupo_846_6_">
			<g>
				<defs>
					<rect id="SVGID_23_" x="256.9" y="61.8" width="51.4" height="61.8"/>
				</defs>
				<clipPath id="SVGID_24_">
					<use xlink:href="#SVGID_23_"  style="overflow:visible;"/>
				</clipPath>
				<g id="Grupo_845_6_" class="st13">
					<g id="Grupo_844_6_">
						<path id="Trazado_2066_6_" class="st2" d="M273.9,96.5c0.4,0.5,1,0.9,1.6,0.8c0.7,0,1.3-0.4,1.6-0.9l16.4-20.9
							c0.7-0.8,1.9-1,2.7-0.3c0.8,0.6,0.9,1.8,0.3,2.6l-3.7,4.7v0c-0.6,0.7-0.7,1.7-0.1,2.4v0l3.7,4.7l11.6-14.7l-4.7-5.9l-0.9-1.1
							c-0.6-0.7-1.5-1.2-2.4-1.3h-7c-1.1,0-2.1,0.5-2.9,1.3l-19.5,24.9L273.9,96.5L273.9,96.5z M273.1,83.7l-4.7-6
							c-0.6-0.9-0.4-2,0.5-2.6c0.9-0.6,2-0.4,2.6,0.5c0,0,0,0,0,0.1l3.9,4.9l4.6-5.9l-5.3-6.7c-0.7-1-1.9-1.6-3.2-1.5h-6.3
							c-1.1-0.1-2.2,0.4-2.9,1.2l-5.6,7l11.6,14.8L273.1,83.7L273.1,83.7z"/>
						<path id="Trazado_2067_6_" class="st2" d="M291.1,88.8c-0.4-0.5-0.9-0.8-1.6-0.8c-0.6,0-1.2,0.3-1.5,0.7l-16.6,21.2
							c-0.7,0.8-1.9,1-2.8,0.3c-0.8-0.7-0.9-1.8-0.2-2.6l3.7-4.8v0c0.6-0.7,0.7-1.7,0.1-2.4v0l-3.7-4.7l-11.7,14.9l6.5,8.2l10.2,0
							l20.6-26.2L291.1,88.8L291.1,88.8z"/>
						<path id="Trazado_2068_6_" class="st2" d="M292,101.5l4.7,6c0.6,0.8,0.5,2-0.3,2.6c-0.9,0.7-2.1,0.5-2.8-0.4
							c0-0.1-0.1-0.1-0.1-0.2l-3.9-5l-4.6,5.9l6.6,8.4l10.2,0l6.5-8.3l-11.7-14.8L292,101.5z"/>
						<path id="Trazado_2069_6_" class="st2" d="M308.1,88c-2.6,0.1-4.6,2.2-4.5,4.7s2.2,4.6,4.7,4.5c2.5,0,4.5-2.1,4.5-4.6
							C312.8,90.1,310.7,88,308.1,88z M308.1,95.2c-1.4,0-2.5-1.1-2.5-2.5c0-1.4,1.1-2.5,2.5-2.5s2.5,1.1,2.5,2.5c0,0,0,0,0,0
							C310.6,94,309.5,95.2,308.1,95.2L308.1,95.2z"/>
						<path id="Trazado_2070_6_" class="st2" d="M282.5,57.2c-2.6,0-4.7,2-4.7,4.6s2,4.7,4.6,4.7c0,0,0.1,0,0.1,0l0,0
							c2.6,0,4.7-2,4.7-4.6c0-2.6-2-4.7-4.6-4.7C282.6,57.2,282.5,57.2,282.5,57.2L282.5,57.2z M282.5,64.3c-1.4,0-2.5-1.1-2.5-2.5
							c0-1.4,1.1-2.5,2.5-2.5l0,0l0,0c1.4,0,2.5,1.2,2.4,2.5C284.9,63.2,283.8,64.3,282.5,64.3L282.5,64.3z"/>
						<path id="Trazado_2071_6_" class="st2" d="M282.5,119c-2.6,0-4.7,2-4.7,4.6c0,2.6,2,4.7,4.6,4.7c0,0,0.1,0,0.1,0l0,0
							c2.6,0,4.7-2,4.7-4.6s-2-4.7-4.6-4.7C282.6,119,282.5,119,282.5,119L282.5,119z M282.5,126.1c-1.4,0-2.5-1.1-2.5-2.5
							s1.1-2.5,2.5-2.5l0,0l0,0c1.4,0,2.5,1.2,2.4,2.5C284.9,125,283.8,126.1,282.5,126.1L282.5,126.1z"/>
						<path id="Trazado_2072_6_" class="st2" d="M256.8,88c-2.6,0-4.6,2.2-4.6,4.7s2.2,4.6,4.7,4.6c2.5,0,4.6-2.1,4.6-4.6
							C261.5,90.1,259.4,88,256.8,88z M256.8,95.1c-1.4,0-2.5-1.1-2.5-2.5l0,0c0-1.4,1.1-2.5,2.5-2.5c1.4,0,2.5,1.1,2.5,2.5
							C259.3,94,258.2,95.1,256.8,95.1L256.8,95.1L256.8,95.1z"/>
					</g>
				</g>
			</g>
		</g>
		<g id="Grupo_849_6_">
			<g>
				<defs>
					<rect id="SVGID_25_" x="256.9" y="0" width="51.4" height="61.8"/>
				</defs>
				<clipPath id="SVGID_26_">
					<use xlink:href="#SVGID_25_"  style="overflow:visible;"/>
				</clipPath>
				<g id="Grupo_848_6_" class="st14">
					<g id="Grupo_847_6_">
						<path id="Trazado_2073_6_" class="st4" d="M273.9,34.6c0.4,0.5,1,0.9,1.6,0.8c0.7,0,1.3-0.4,1.6-0.9l16.4-20.9
							c0.7-0.8,1.9-1,2.7-0.3c0.8,0.6,0.9,1.8,0.3,2.6l-3.7,4.7v0c-0.6,0.7-0.7,1.7-0.1,2.4v0l3.7,4.7L308.2,13l-4.7-5.9L302.7,6
							c-0.6-0.7-1.5-1.2-2.4-1.3h-7c-1.1,0-2.1,0.5-2.9,1.3l-19.5,24.9L273.9,34.6L273.9,34.6z M273.1,21.9l-4.7-6
							c-0.6-0.9-0.4-2,0.5-2.6c0.9-0.6,2-0.4,2.6,0.5c0,0,0,0,0,0.1l3.9,4.9l4.6-5.9l-5.3-6.7c-0.7-1-1.9-1.6-3.2-1.5h-6.3
							c-1.1-0.1-2.2,0.4-2.9,1.2l-5.6,7l11.6,14.8L273.1,21.9L273.1,21.9z"/>
						<path id="Trazado_2074_6_" class="st4" d="M291.1,26.9c-0.4-0.5-0.9-0.8-1.6-0.8c-0.6,0-1.2,0.3-1.5,0.7L271.4,48
							c-0.7,0.8-1.9,1-2.8,0.3c-0.8-0.7-0.9-1.8-0.2-2.6l3.7-4.8v0c0.6-0.7,0.7-1.7,0.1-2.4v0l-3.7-4.7l-11.7,14.9l6.5,8.2l10.2,0
							l20.6-26.2L291.1,26.9L291.1,26.9z"/>
						<path id="Trazado_2075_6_" class="st4" d="M292,39.7l4.7,6c0.6,0.8,0.5,2-0.3,2.6c-0.9,0.7-2.1,0.5-2.8-0.4
							c0-0.1-0.1-0.1-0.1-0.2l-3.9-5l-4.6,5.9l6.6,8.4l10.2,0l6.5-8.3l-11.7-14.8L292,39.7z"/>
						<path id="Trazado_2076_6_" class="st4" d="M308.1,26.2c-2.6,0.1-4.6,2.2-4.5,4.7s2.2,4.6,4.7,4.5c2.5,0,4.5-2.1,4.5-4.6
							C312.8,28.2,310.7,26.2,308.1,26.2z M308.1,33.3c-1.4,0-2.5-1.1-2.5-2.5c0-1.4,1.1-2.5,2.5-2.5s2.5,1.1,2.5,2.5c0,0,0,0,0,0
							C310.6,32.2,309.5,33.3,308.1,33.3L308.1,33.3z"/>
						<path id="Trazado_2077_6_" class="st4" d="M282.5-4.6c-2.6,0-4.7,2-4.7,4.6s2,4.7,4.6,4.7c0,0,0.1,0,0.1,0l0,0
							c2.6,0,4.7-2,4.7-4.6c0-2.6-2-4.7-4.6-4.7C282.6-4.6,282.5-4.6,282.5-4.6L282.5-4.6z M282.5,2.5c-1.4,0-2.5-1.1-2.5-2.5
							c0-1.4,1.1-2.5,2.5-2.5l0,0c1.4,0,2.5,1.2,2.4,2.5C284.9,1.4,283.8,2.5,282.5,2.5L282.5,2.5z"/>
						<path id="Trazado_2078_6_" class="st4" d="M282.5,57.2c-2.6,0-4.7,2-4.7,4.6c0,2.6,2,4.7,4.6,4.7c0,0,0.1,0,0.1,0l0,0
							c2.6,0,4.7-2,4.7-4.6s-2-4.7-4.6-4.7C282.6,57.2,282.5,57.2,282.5,57.2L282.5,57.2z M282.5,64.3c-1.4,0-2.5-1.1-2.5-2.5
							c0-1.4,1.1-2.5,2.5-2.5l0,0c1.4,0,2.5,1.2,2.4,2.5C284.9,63.2,283.8,64.3,282.5,64.3L282.5,64.3z"/>
						<path id="Trazado_2079_6_" class="st4" d="M256.8,26.2c-2.6,0-4.6,2.2-4.6,4.7s2.2,4.6,4.7,4.6c2.5,0,4.6-2.1,4.6-4.6
							C261.5,28.2,259.4,26.2,256.8,26.2z M256.8,33.3c-1.4,0-2.5-1.1-2.5-2.5l0,0c0-1.4,1.1-2.5,2.5-2.5c1.4,0,2.5,1.1,2.5,2.5
							C259.3,32.2,258.2,33.3,256.8,33.3L256.8,33.3L256.8,33.3z"/>
					</g>
				</g>
			</g>
		</g>
		<g id="Grupo_846_5_">
			<g>
				<defs>
					<rect id="SVGID_27_" x="308.2" y="0" width="51.4" height="61.8"/>
				</defs>
				<clipPath id="SVGID_28_">
					<use xlink:href="#SVGID_27_"  style="overflow:visible;"/>
				</clipPath>
				<g id="Grupo_845_5_" class="st15">
					<g id="Grupo_844_5_">
						<path id="Trazado_2066_5_" class="st2" d="M325.3,34.6c0.4,0.5,1,0.9,1.6,0.8c0.7,0,1.3-0.4,1.6-0.9L345,13.6
							c0.7-0.8,1.9-1,2.7-0.3c0.8,0.6,0.9,1.8,0.3,2.6l-3.7,4.7v0c-0.6,0.7-0.7,1.7-0.1,2.4v0l3.7,4.7L359.6,13l-4.7-5.9L354.1,6
							c-0.6-0.7-1.5-1.2-2.4-1.3h-7c-1.1,0-2.1,0.5-2.9,1.3l-19.5,24.9L325.3,34.6L325.3,34.6z M324.5,21.9l-4.7-6
							c-0.6-0.9-0.4-2,0.5-2.6c0.9-0.6,2-0.4,2.6,0.5c0,0,0,0,0,0.1l3.9,4.9l4.6-5.9l-5.3-6.7c-0.7-1-1.9-1.6-3.2-1.5h-6.3
							c-1.1-0.1-2.2,0.4-2.9,1.2l-5.6,7l11.6,14.8L324.5,21.9L324.5,21.9z"/>
						<path id="Trazado_2067_5_" class="st2" d="M342.5,26.9c-0.4-0.5-0.9-0.8-1.6-0.8c-0.6,0-1.2,0.3-1.5,0.7L322.8,48
							c-0.7,0.8-1.9,1-2.8,0.3c-0.8-0.7-0.9-1.8-0.2-2.6l3.7-4.8v0c0.6-0.7,0.7-1.7,0.1-2.4v0l-3.7-4.7l-11.7,14.9l6.5,8.2l10.2,0
							l20.6-26.2L342.5,26.9L342.5,26.9z"/>
						<path id="Trazado_2068_5_" class="st2" d="M343.3,39.7l4.7,6c0.6,0.8,0.5,2-0.3,2.6c-0.9,0.7-2.1,0.5-2.8-0.4
							c0-0.1-0.1-0.1-0.1-0.2l-3.9-5l-4.6,5.9l6.6,8.4l10.2,0l6.5-8.3l-11.7-14.8L343.3,39.7z"/>
						<path id="Trazado_2069_5_" class="st2" d="M359.5,26.2c-2.6,0.1-4.6,2.2-4.5,4.7s2.2,4.6,4.7,4.5c2.5,0,4.5-2.1,4.5-4.6
							C364.2,28.2,362.1,26.2,359.5,26.2z M359.5,33.3c-1.4,0-2.5-1.1-2.5-2.5c0-1.4,1.1-2.5,2.5-2.5s2.5,1.1,2.5,2.5c0,0,0,0,0,0
							C362,32.2,360.9,33.3,359.5,33.3L359.5,33.3z"/>
						<path id="Trazado_2070_5_" class="st2" d="M333.9-4.6c-2.6,0-4.7,2-4.7,4.6s2,4.7,4.6,4.7c0,0,0.1,0,0.1,0l0,0
							c2.6,0,4.7-2,4.7-4.6c0-2.6-2-4.7-4.6-4.7C334-4.6,333.9-4.6,333.9-4.6L333.9-4.6z M333.9,2.5c-1.4,0-2.5-1.1-2.5-2.5
							c0-1.4,1.1-2.5,2.5-2.5l0,0l0,0c1.4,0,2.5,1.2,2.4,2.5C336.3,1.4,335.2,2.5,333.9,2.5L333.9,2.5z"/>
						<path id="Trazado_2071_5_" class="st2" d="M333.9,57.2c-2.6,0-4.7,2-4.7,4.6c0,2.6,2,4.7,4.6,4.7c0,0,0.1,0,0.1,0l0,0
							c2.6,0,4.7-2,4.7-4.6s-2-4.7-4.6-4.7C334,57.2,333.9,57.2,333.9,57.2L333.9,57.2z M333.9,64.3c-1.4,0-2.5-1.1-2.5-2.5
							s1.1-2.5,2.5-2.5l0,0l0,0c1.4,0,2.5,1.2,2.4,2.5C336.3,63.2,335.2,64.3,333.9,64.3L333.9,64.3z"/>
						<path id="Trazado_2072_5_" class="st2" d="M308.2,26.2c-2.6,0-4.6,2.2-4.6,4.7s2.2,4.6,4.7,4.6c2.5,0,4.6-2.1,4.6-4.6
							C312.9,28.2,310.8,26.2,308.2,26.2z M308.2,33.3c-1.4,0-2.5-1.1-2.5-2.5l0,0c0-1.4,1.1-2.5,2.5-2.5c1.4,0,2.5,1.1,2.5,2.5
							C310.7,32.2,309.5,33.3,308.2,33.3L308.2,33.3L308.2,33.3z"/>
					</g>
				</g>
			</g>
		</g>
		<g id="Grupo_849_5_">
			<g>
				<defs>
					<rect id="SVGID_29_" x="308.2" y="61.8" width="51.4" height="61.8"/>
				</defs>
				<clipPath id="SVGID_30_">
					<use xlink:href="#SVGID_29_"  style="overflow:visible;"/>
				</clipPath>
				<g id="Grupo_848_5_" class="st16">
					<g id="Grupo_847_5_">
						<path id="Trazado_2073_5_" class="st4" d="M325.3,96.5c0.4,0.5,1,0.9,1.6,0.8c0.7,0,1.3-0.4,1.6-0.9L345,75.4
							c0.7-0.8,1.9-1,2.7-0.3c0.8,0.6,0.9,1.8,0.3,2.6l-3.7,4.7v0c-0.6,0.7-0.7,1.7-0.1,2.4v0l3.7,4.7l11.6-14.7l-4.7-5.9l-0.9-1.1
							c-0.6-0.7-1.5-1.2-2.4-1.3h-7c-1.1,0-2.1,0.5-2.9,1.3l-19.5,24.9L325.3,96.5L325.3,96.5z M324.5,83.7l-4.7-6
							c-0.6-0.9-0.4-2,0.5-2.6c0.9-0.6,2-0.4,2.6,0.5c0,0,0,0,0,0.1l3.9,4.9l4.6-5.9l-5.3-6.7c-0.7-1-1.9-1.6-3.2-1.5h-6.3
							c-1.1-0.1-2.2,0.4-2.9,1.2l-5.6,7l11.6,14.8L324.5,83.7L324.5,83.7z"/>
						<path id="Trazado_2074_5_" class="st4" d="M342.5,88.8c-0.4-0.5-0.9-0.8-1.6-0.8c-0.6,0-1.2,0.3-1.5,0.7l-16.6,21.2
							c-0.7,0.8-1.9,1-2.8,0.3c-0.8-0.7-0.9-1.8-0.2-2.6l3.7-4.8v0c0.6-0.7,0.7-1.7,0.1-2.4v0l-3.7-4.7l-11.7,14.9l6.5,8.2l10.2,0
							l20.6-26.2L342.5,88.8L342.5,88.8z"/>
						<path id="Trazado_2075_5_" class="st4" d="M343.3,101.5l4.7,6c0.6,0.8,0.5,2-0.3,2.6c-0.9,0.7-2.1,0.5-2.8-0.4
							c0-0.1-0.1-0.1-0.1-0.2l-3.9-5l-4.6,5.9l6.6,8.4l10.2,0l6.5-8.3l-11.7-14.8L343.3,101.5z"/>
						<path id="Trazado_2076_5_" class="st4" d="M359.5,88c-2.6,0.1-4.6,2.2-4.5,4.7s2.2,4.6,4.7,4.5c2.5,0,4.5-2.1,4.5-4.6
							C364.2,90.1,362.1,88,359.5,88z M359.5,95.2c-1.4,0-2.5-1.1-2.5-2.5c0-1.4,1.1-2.5,2.5-2.5s2.5,1.1,2.5,2.5c0,0,0,0,0,0
							C362,94,360.9,95.1,359.5,95.2L359.5,95.2z"/>
						<path id="Trazado_2077_5_" class="st4" d="M333.9,57.2c-2.6,0-4.7,2-4.7,4.6s2,4.7,4.6,4.7c0,0,0.1,0,0.1,0l0,0
							c2.6,0,4.7-2,4.7-4.6c0-2.6-2-4.7-4.6-4.7C334,57.2,333.9,57.2,333.9,57.2L333.9,57.2z M333.9,64.3c-1.4,0-2.5-1.1-2.5-2.5
							c0-1.4,1.1-2.5,2.5-2.5l0,0c1.4,0,2.5,1.2,2.4,2.5C336.3,63.2,335.2,64.3,333.9,64.3L333.9,64.3z"/>
						<path id="Trazado_2078_5_" class="st4" d="M333.9,119c-2.6,0-4.7,2-4.7,4.6c0,2.6,2,4.7,4.6,4.7c0,0,0.1,0,0.1,0l0,0
							c2.6,0,4.7-2,4.7-4.6s-2-4.7-4.6-4.7C334,119,333.9,119,333.9,119L333.9,119z M333.9,126.2c-1.4,0-2.5-1.1-2.5-2.5
							c0-1.4,1.1-2.5,2.5-2.5l0,0c1.4,0,2.5,1.2,2.4,2.5C336.3,125,335.2,126.1,333.9,126.2L333.9,126.2z"/>
						<path id="Trazado_2079_5_" class="st4" d="M308.2,88c-2.6,0-4.6,2.2-4.6,4.7s2.2,4.6,4.7,4.6c2.5,0,4.6-2.1,4.6-4.6
							C312.9,90.1,310.8,88,308.2,88z M308.2,95.1c-1.4,0-2.5-1.1-2.5-2.5l0,0c0-1.4,1.1-2.5,2.5-2.5c1.4,0,2.5,1.1,2.5,2.5
							C310.7,94,309.5,95.1,308.2,95.1L308.2,95.1L308.2,95.1z"/>
					</g>
				</g>
			</g>
		</g>
		<g id="Grupo_846_4_">
			<g>
				<defs>
					<rect id="SVGID_31_" x="359.6" y="61.8" width="51.4" height="61.8"/>
				</defs>
				<clipPath id="SVGID_32_">
					<use xlink:href="#SVGID_31_"  style="overflow:visible;"/>
				</clipPath>
				<g id="Grupo_845_4_" class="st17">
					<g id="Grupo_844_4_">
						<path id="Trazado_2066_4_" class="st2" d="M376.7,96.5c0.4,0.5,1,0.9,1.6,0.8c0.7,0,1.3-0.4,1.6-0.9l16.4-20.9
							c0.7-0.8,1.9-1,2.7-0.3c0.8,0.6,0.9,1.8,0.3,2.6l-3.7,4.7v0c-0.6,0.7-0.7,1.7-0.1,2.4v0l3.7,4.7L411,74.8l-4.7-5.9l-0.9-1.1
							c-0.6-0.7-1.5-1.2-2.4-1.3h-7c-1.1,0-2.1,0.5-2.9,1.3l-19.5,24.9L376.7,96.5L376.7,96.5z M375.8,83.7l-4.7-6
							c-0.6-0.9-0.4-2,0.5-2.6c0.9-0.6,2-0.4,2.6,0.5c0,0,0,0,0,0.1l3.9,4.9l4.6-5.9l-5.3-6.7c-0.7-1-1.9-1.6-3.2-1.5H368
							c-1.1-0.1-2.2,0.4-2.9,1.2l-5.6,7l11.6,14.8L375.8,83.7L375.8,83.7z"/>
						<path id="Trazado_2067_4_" class="st2" d="M393.8,88.8c-0.4-0.5-0.9-0.8-1.6-0.8c-0.6,0-1.2,0.3-1.5,0.7l-16.6,21.2
							c-0.7,0.8-1.9,1-2.8,0.3c-0.8-0.7-0.9-1.8-0.2-2.6l3.7-4.8v0c0.6-0.7,0.7-1.7,0.1-2.4v0l-3.7-4.7l-11.7,14.9l6.5,8.2l10.2,0
							l20.6-26.2L393.8,88.8L393.8,88.8z"/>
						<path id="Trazado_2068_4_" class="st2" d="M394.7,101.5l4.7,6c0.6,0.8,0.5,2-0.3,2.6c-0.9,0.7-2.1,0.5-2.8-0.4
							c0-0.1-0.1-0.1-0.1-0.2l-3.9-5l-4.6,5.9l6.6,8.4l10.2,0l6.5-8.3l-11.7-14.8L394.7,101.5z"/>
						<path id="Trazado_2069_4_" class="st2" d="M410.9,88c-2.6,0.1-4.6,2.2-4.5,4.7s2.2,4.6,4.7,4.5c2.5,0,4.5-2.1,4.5-4.6
							C415.6,90.1,413.5,88,410.9,88z M410.9,95.2c-1.4,0-2.5-1.1-2.5-2.5c0-1.4,1.1-2.5,2.5-2.5s2.5,1.1,2.5,2.5c0,0,0,0,0,0
							C413.4,94,412.2,95.2,410.9,95.2L410.9,95.2z"/>
						<path id="Trazado_2070_4_" class="st2" d="M385.2,57.2c-2.6,0-4.7,2-4.7,4.6s2,4.7,4.6,4.7c0,0,0.1,0,0.1,0l0,0
							c2.6,0,4.7-2,4.7-4.6c0-2.6-2-4.7-4.6-4.7C385.3,57.2,385.3,57.2,385.2,57.2L385.2,57.2z M385.2,64.3c-1.4,0-2.5-1.1-2.5-2.5
							c0-1.4,1.1-2.5,2.5-2.5l0,0l0,0c1.4,0,2.5,1.2,2.4,2.5C387.7,63.2,386.6,64.3,385.2,64.3L385.2,64.3z"/>
						<path id="Trazado_2071_4_" class="st2" d="M385.2,119c-2.6,0-4.7,2-4.7,4.6c0,2.6,2,4.7,4.6,4.7c0,0,0.1,0,0.1,0l0,0
							c2.6,0,4.7-2,4.7-4.6s-2-4.7-4.6-4.7C385.3,119,385.3,119,385.2,119L385.2,119z M385.2,126.1c-1.4,0-2.5-1.1-2.5-2.5
							s1.1-2.5,2.5-2.5l0,0l0,0c1.4,0,2.5,1.2,2.4,2.5C387.7,125,386.6,126.1,385.2,126.1L385.2,126.1z"/>
						<path id="Trazado_2072_4_" class="st2" d="M359.5,88c-2.6,0-4.6,2.2-4.6,4.7s2.2,4.6,4.7,4.6c2.5,0,4.6-2.1,4.6-4.6
							C364.2,90.1,362.1,88,359.5,88z M359.5,95.1c-1.4,0-2.5-1.1-2.5-2.5l0,0c0-1.4,1.1-2.5,2.5-2.5c1.4,0,2.5,1.1,2.5,2.5
							C362,94,360.9,95.1,359.5,95.1L359.5,95.1L359.5,95.1z"/>
					</g>
				</g>
			</g>
		</g>
		<g id="Grupo_849_4_">
			<g>
				<defs>
					<rect id="SVGID_33_" x="359.6" y="0" width="51.4" height="61.8"/>
				</defs>
				<clipPath id="SVGID_34_">
					<use xlink:href="#SVGID_33_"  style="overflow:visible;"/>
				</clipPath>
				<g id="Grupo_848_4_" class="st18">
					<g id="Grupo_847_4_">
						<path id="Trazado_2073_4_" class="st4" d="M376.7,34.6c0.4,0.5,1,0.9,1.6,0.8c0.7,0,1.3-0.4,1.6-0.9l16.4-20.9
							c0.7-0.8,1.9-1,2.7-0.3c0.8,0.6,0.9,1.8,0.3,2.6l-3.7,4.7v0c-0.6,0.7-0.7,1.7-0.1,2.4v0l3.7,4.7L411,13l-4.7-5.9L405.4,6
							c-0.6-0.7-1.5-1.2-2.4-1.3h-7c-1.1,0-2.1,0.5-2.9,1.3l-19.5,24.9L376.7,34.6L376.7,34.6z M375.8,21.9l-4.7-6
							c-0.6-0.9-0.4-2,0.5-2.6c0.9-0.6,2-0.4,2.6,0.5c0,0,0,0,0,0.1l3.9,4.9l4.6-5.9l-5.3-6.7c-0.7-1-1.9-1.6-3.2-1.5H368
							c-1.1-0.1-2.2,0.4-2.9,1.2l-5.6,7l11.6,14.8L375.8,21.9L375.8,21.9z"/>
						<path id="Trazado_2074_4_" class="st4" d="M393.8,26.9c-0.4-0.5-0.9-0.8-1.6-0.8c-0.6,0-1.2,0.3-1.5,0.7L374.2,48
							c-0.7,0.8-1.9,1-2.8,0.3c-0.8-0.7-0.9-1.8-0.2-2.6l3.7-4.8v0c0.6-0.7,0.7-1.7,0.1-2.4v0l-3.7-4.7l-11.7,14.9l6.5,8.2l10.2,0
							l20.6-26.2L393.8,26.9L393.8,26.9z"/>
						<path id="Trazado_2075_4_" class="st4" d="M394.7,39.7l4.7,6c0.6,0.8,0.5,2-0.3,2.6c-0.9,0.7-2.1,0.5-2.8-0.4
							c0-0.1-0.1-0.1-0.1-0.2l-3.9-5l-4.6,5.9l6.6,8.4l10.2,0l6.5-8.3l-11.7-14.8L394.7,39.7z"/>
						<path id="Trazado_2076_4_" class="st4" d="M410.9,26.2c-2.6,0.1-4.6,2.2-4.5,4.7s2.2,4.6,4.7,4.5c2.5,0,4.5-2.1,4.5-4.6
							C415.6,28.2,413.5,26.2,410.9,26.2z M410.9,33.3c-1.4,0-2.5-1.1-2.5-2.5c0-1.4,1.1-2.5,2.5-2.5s2.5,1.1,2.5,2.5c0,0,0,0,0,0
							C413.4,32.2,412.2,33.3,410.9,33.3L410.9,33.3z"/>
						<path id="Trazado_2077_4_" class="st4" d="M385.2-4.6c-2.6,0-4.7,2-4.7,4.6s2,4.7,4.6,4.7c0,0,0.1,0,0.1,0l0,0
							c2.6,0,4.7-2,4.7-4.6c0-2.6-2-4.7-4.6-4.7C385.3-4.6,385.3-4.6,385.2-4.6L385.2-4.6z M385.2,2.5c-1.4,0-2.5-1.1-2.5-2.5
							c0-1.4,1.1-2.5,2.5-2.5l0,0c1.4,0,2.5,1.2,2.4,2.5C387.7,1.4,386.6,2.5,385.2,2.5L385.2,2.5z"/>
						<path id="Trazado_2078_4_" class="st4" d="M385.2,57.2c-2.6,0-4.7,2-4.7,4.6c0,2.6,2,4.7,4.6,4.7c0,0,0.1,0,0.1,0l0,0
							c2.6,0,4.7-2,4.7-4.6s-2-4.7-4.6-4.7C385.3,57.2,385.3,57.2,385.2,57.2L385.2,57.2z M385.2,64.3c-1.4,0-2.5-1.1-2.5-2.5
							c0-1.4,1.1-2.5,2.5-2.5l0,0c1.4,0,2.5,1.2,2.4,2.5C387.7,63.2,386.6,64.3,385.2,64.3L385.2,64.3z"/>
						<path id="Trazado_2079_4_" class="st4" d="M359.5,26.2c-2.6,0-4.6,2.2-4.6,4.7s2.2,4.6,4.7,4.6c2.5,0,4.6-2.1,4.6-4.6
							C364.2,28.2,362.1,26.2,359.5,26.2z M359.5,33.3c-1.4,0-2.5-1.1-2.5-2.5l0,0c0-1.4,1.1-2.5,2.5-2.5c1.4,0,2.5,1.1,2.5,2.5
							C362,32.2,360.9,33.3,359.5,33.3L359.5,33.3L359.5,33.3z"/>
					</g>
				</g>
			</g>
		</g>
		<g id="Grupo_846_11_">
			<g>
				<defs>
					<rect id="SVGID_35_" x="411" y="0" width="51.4" height="61.8"/>
				</defs>
				<clipPath id="SVGID_36_">
					<use xlink:href="#SVGID_35_"  style="overflow:visible;"/>
				</clipPath>
				<g id="Grupo_845_11_" class="st19">
					<g id="Grupo_844_11_">
						<path id="Trazado_2066_11_" class="st2" d="M428,34.6c0.4,0.5,1,0.9,1.6,0.8c0.7,0,1.3-0.4,1.6-0.9l16.4-20.9
							c0.7-0.8,1.9-1,2.7-0.3c0.8,0.6,0.9,1.8,0.3,2.6l-3.7,4.7v0c-0.6,0.7-0.7,1.7-0.1,2.4v0l3.7,4.7L462.3,13l-4.7-5.9L456.8,6
							c-0.6-0.7-1.5-1.2-2.4-1.3h-7c-1.1,0-2.1,0.5-2.9,1.3L425,30.8L428,34.6L428,34.6z M427.2,21.9l-4.7-6c-0.6-0.9-0.4-2,0.5-2.6
							c0.9-0.6,2-0.4,2.6,0.5c0,0,0,0,0,0.1l3.9,4.9l4.6-5.9l-5.3-6.7c-0.7-1-1.9-1.6-3.2-1.5h-6.3c-1.1-0.1-2.2,0.4-2.9,1.2l-5.6,7
							l11.6,14.8L427.2,21.9L427.2,21.9z"/>
						<path id="Trazado_2067_11_" class="st2" d="M445.2,26.9c-0.4-0.5-0.9-0.8-1.6-0.8c-0.6,0-1.2,0.3-1.5,0.7L425.5,48
							c-0.7,0.8-1.9,1-2.8,0.3c-0.8-0.7-0.9-1.8-0.2-2.6l3.7-4.8v0c0.6-0.7,0.7-1.7,0.1-2.4v0l-3.7-4.7l-11.7,14.9l6.5,8.2l10.2,0
							l20.6-26.2L445.2,26.9L445.2,26.9z"/>
						<path id="Trazado_2068_11_" class="st2" d="M446.1,39.7l4.7,6c0.6,0.8,0.5,2-0.3,2.6c-0.9,0.7-2.1,0.5-2.8-0.4
							c0-0.1-0.1-0.1-0.1-0.2l-3.9-5l-4.6,5.9l6.6,8.4l10.2,0l6.5-8.3l-11.7-14.8L446.1,39.7z"/>
						<path id="Trazado_2069_11_" class="st2" d="M462.2,26.2c-2.6,0.1-4.6,2.2-4.5,4.7s2.2,4.6,4.7,4.5c2.5,0,4.5-2.1,4.5-4.6
							C466.9,28.2,464.8,26.2,462.2,26.2z M462.2,33.3c-1.4,0-2.5-1.1-2.5-2.5c0-1.4,1.1-2.5,2.5-2.5s2.5,1.1,2.5,2.5c0,0,0,0,0,0
							C464.7,32.2,463.6,33.3,462.2,33.3L462.2,33.3z"/>
						<path id="Trazado_2070_11_" class="st2" d="M436.6-4.6c-2.6,0-4.7,2-4.7,4.6s2,4.7,4.6,4.7c0,0,0.1,0,0.1,0l0,0
							c2.6,0,4.7-2,4.7-4.6c0-2.6-2-4.7-4.6-4.7C436.7-4.6,436.7-4.6,436.6-4.6L436.6-4.6z M436.6,2.5c-1.4,0-2.5-1.1-2.5-2.5
							c0-1.4,1.1-2.5,2.5-2.5l0,0l0,0c1.4,0,2.5,1.2,2.4,2.5C439,1.4,438,2.5,436.6,2.5L436.6,2.5z"/>
						<path id="Trazado_2071_11_" class="st2" d="M436.6,57.2c-2.6,0-4.7,2-4.7,4.6c0,2.6,2,4.7,4.6,4.7c0,0,0.1,0,0.1,0l0,0
							c2.6,0,4.7-2,4.7-4.6s-2-4.7-4.6-4.7C436.7,57.2,436.7,57.2,436.6,57.2L436.6,57.2z M436.6,64.3c-1.4,0-2.5-1.1-2.5-2.5
							s1.1-2.5,2.5-2.5l0,0l0,0c1.4,0,2.5,1.2,2.4,2.5C439,63.2,438,64.3,436.6,64.3L436.6,64.3z"/>
						<path id="Trazado_2072_11_" class="st2" d="M410.9,26.2c-2.6,0-4.6,2.2-4.6,4.7s2.2,4.6,4.7,4.6c2.5,0,4.6-2.1,4.6-4.6
							C415.6,28.2,413.5,26.2,410.9,26.2z M410.9,33.3c-1.4,0-2.5-1.1-2.5-2.5l0,0c0-1.4,1.1-2.5,2.5-2.5c1.4,0,2.5,1.1,2.5,2.5
							C413.4,32.2,412.3,33.3,410.9,33.3L410.9,33.3L410.9,33.3z"/>
					</g>
				</g>
			</g>
		</g>
		<g id="Grupo_849_11_">
			<g>
				<defs>
					<rect id="SVGID_37_" x="411" y="61.8" width="51.4" height="61.8"/>
				</defs>
				<clipPath id="SVGID_38_">
					<use xlink:href="#SVGID_37_"  style="overflow:visible;"/>
				</clipPath>
				<g id="Grupo_848_11_" class="st20">
					<g id="Grupo_847_11_">
						<path id="Trazado_2073_11_" class="st4" d="M428,96.5c0.4,0.5,1,0.9,1.6,0.8c0.7,0,1.3-0.4,1.6-0.9l16.4-20.9
							c0.7-0.8,1.9-1,2.7-0.3c0.8,0.6,0.9,1.8,0.3,2.6l-3.7,4.7v0c-0.6,0.7-0.7,1.7-0.1,2.4v0l3.7,4.7l11.6-14.7l-4.7-5.9l-0.9-1.1
							c-0.6-0.7-1.5-1.2-2.4-1.3h-7c-1.1,0-2.1,0.5-2.9,1.3L425,92.6L428,96.5L428,96.5z M427.2,83.7l-4.7-6c-0.6-0.9-0.4-2,0.5-2.6
							c0.9-0.6,2-0.4,2.6,0.5c0,0,0,0,0,0.1l3.9,4.9l4.6-5.9l-5.3-6.7c-0.7-1-1.9-1.6-3.2-1.5h-6.3c-1.1-0.1-2.2,0.4-2.9,1.2l-5.6,7
							l11.6,14.8L427.2,83.7L427.2,83.7z"/>
						<path id="Trazado_2074_11_" class="st4" d="M445.2,88.8c-0.4-0.5-0.9-0.8-1.6-0.8c-0.6,0-1.2,0.3-1.5,0.7l-16.6,21.2
							c-0.7,0.8-1.9,1-2.8,0.3c-0.8-0.7-0.9-1.8-0.2-2.6l3.7-4.8v0c0.6-0.7,0.7-1.7,0.1-2.4v0l-3.7-4.7l-11.7,14.9l6.5,8.2l10.2,0
							l20.6-26.2L445.2,88.8L445.2,88.8z"/>
						<path id="Trazado_2075_11_" class="st4" d="M446.1,101.5l4.7,6c0.6,0.8,0.5,2-0.3,2.6c-0.9,0.7-2.1,0.5-2.8-0.4
							c0-0.1-0.1-0.1-0.1-0.2l-3.9-5l-4.6,5.9l6.6,8.4l10.2,0l6.5-8.3l-11.7-14.8L446.1,101.5z"/>
						<path id="Trazado_2076_11_" class="st4" d="M462.2,88c-2.6,0.1-4.6,2.2-4.5,4.7s2.2,4.6,4.7,4.5c2.5,0,4.5-2.1,4.5-4.6
							C466.9,90.1,464.8,88,462.2,88z M462.2,95.2c-1.4,0-2.5-1.1-2.5-2.5c0-1.4,1.1-2.5,2.5-2.5s2.5,1.1,2.5,2.5c0,0,0,0,0,0
							C464.7,94,463.6,95.1,462.2,95.2L462.2,95.2z"/>
						<path id="Trazado_2077_11_" class="st4" d="M436.6,57.2c-2.6,0-4.7,2-4.7,4.6s2,4.7,4.6,4.7c0,0,0.1,0,0.1,0l0,0
							c2.6,0,4.7-2,4.7-4.6c0-2.6-2-4.7-4.6-4.7C436.7,57.2,436.7,57.2,436.6,57.2L436.6,57.2z M436.6,64.3c-1.4,0-2.5-1.1-2.5-2.5
							c0-1.4,1.1-2.5,2.5-2.5l0,0c1.4,0,2.5,1.2,2.4,2.5C439,63.2,438,64.3,436.6,64.3L436.6,64.3z"/>
						<path id="Trazado_2078_11_" class="st4" d="M436.6,119c-2.6,0-4.7,2-4.7,4.6c0,2.6,2,4.7,4.6,4.7c0,0,0.1,0,0.1,0l0,0
							c2.6,0,4.7-2,4.7-4.6s-2-4.7-4.6-4.7C436.7,119,436.7,119,436.6,119L436.6,119z M436.6,126.2c-1.4,0-2.5-1.1-2.5-2.5
							c0-1.4,1.1-2.5,2.5-2.5l0,0c1.4,0,2.5,1.2,2.4,2.5C439,125,438,126.1,436.6,126.2L436.6,126.2z"/>
						<path id="Trazado_2079_11_" class="st4" d="M410.9,88c-2.6,0-4.6,2.2-4.6,4.7s2.2,4.6,4.7,4.6c2.5,0,4.6-2.1,4.6-4.6
							C415.6,90.1,413.5,88,410.9,88z M410.9,95.1c-1.4,0-2.5-1.1-2.5-2.5l0,0c0-1.4,1.1-2.5,2.5-2.5c1.4,0,2.5,1.1,2.5,2.5
							C413.4,94,412.3,95.1,410.9,95.1L410.9,95.1L410.9,95.1z"/>
					</g>
				</g>
			</g>
		</g>
		<g id="Grupo_846_10_">
			<g>
				<defs>
					<rect id="SVGID_39_" x="462.3" y="61.8" width="51.4" height="61.8"/>
				</defs>
				<clipPath id="SVGID_40_">
					<use xlink:href="#SVGID_39_"  style="overflow:visible;"/>
				</clipPath>
				<g id="Grupo_845_10_" class="st21">
					<g id="Grupo_844_10_">
						<path id="Trazado_2066_10_" class="st2" d="M479.4,96.5c0.4,0.5,1,0.9,1.6,0.8c0.7,0,1.3-0.4,1.6-0.9l16.4-20.9
							c0.7-0.8,1.9-1,2.7-0.3c0.8,0.6,0.9,1.8,0.3,2.6l-3.7,4.7v0c-0.6,0.7-0.7,1.7-0.1,2.4v0l3.7,4.7l11.6-14.7l-4.7-5.9l-0.9-1.1
							c-0.6-0.7-1.5-1.2-2.4-1.3h-7c-1.1,0-2.1,0.5-2.9,1.3l-19.5,24.9L479.4,96.5L479.4,96.5z M478.6,83.7l-4.7-6
							c-0.6-0.9-0.4-2,0.5-2.6c0.9-0.6,2-0.4,2.6,0.5c0,0,0,0,0,0.1l3.9,4.9l4.6-5.9l-5.3-6.7c-0.7-1-1.9-1.6-3.2-1.5h-6.3
							c-1.1-0.1-2.2,0.4-2.9,1.2l-5.6,7L474,89.5L478.6,83.7L478.6,83.7z"/>
						<path id="Trazado_2067_10_" class="st2" d="M496.6,88.8c-0.4-0.5-0.9-0.8-1.6-0.8c-0.6,0-1.2,0.3-1.5,0.7l-16.6,21.2
							c-0.7,0.8-1.9,1-2.8,0.3c-0.8-0.7-0.9-1.8-0.2-2.6l3.7-4.8v0c0.6-0.7,0.7-1.7,0.1-2.4v0l-3.7-4.7l-11.7,14.9l6.5,8.2l10.2,0
							l20.6-26.2L496.6,88.8L496.6,88.8z"/>
						<path id="Trazado_2068_10_" class="st2" d="M497.4,101.5l4.7,6c0.6,0.8,0.5,2-0.3,2.6c-0.9,0.7-2.1,0.5-2.8-0.4
							c0-0.1-0.1-0.1-0.1-0.2l-3.9-5l-4.6,5.9l6.6,8.4l10.2,0l6.5-8.3L502,95.7L497.4,101.5z"/>
						<path id="Trazado_2069_10_" class="st2" d="M513.6,88c-2.6,0.1-4.6,2.2-4.5,4.7s2.2,4.6,4.7,4.5c2.5,0,4.5-2.1,4.5-4.6
							C518.3,90.1,516.2,88,513.6,88z M513.6,95.2c-1.4,0-2.5-1.1-2.5-2.5c0-1.4,1.1-2.5,2.5-2.5s2.5,1.1,2.5,2.5c0,0,0,0,0,0
							C516.1,94,515,95.2,513.6,95.2L513.6,95.2z"/>
						<path id="Trazado_2070_10_" class="st2" d="M488,57.2c-2.6,0-4.7,2-4.7,4.6s2,4.7,4.6,4.7c0,0,0.1,0,0.1,0l0,0
							c2.6,0,4.7-2,4.7-4.6c0-2.6-2-4.7-4.6-4.7C488.1,57.2,488,57.2,488,57.2L488,57.2z M488,64.3c-1.4,0-2.5-1.1-2.5-2.5
							c0-1.4,1.1-2.5,2.5-2.5l0,0l0,0c1.4,0,2.5,1.2,2.4,2.5C490.4,63.2,489.3,64.3,488,64.3L488,64.3z"/>
						<path id="Trazado_2071_10_" class="st2" d="M488,119c-2.6,0-4.7,2-4.7,4.6c0,2.6,2,4.7,4.6,4.7c0,0,0.1,0,0.1,0l0,0
							c2.6,0,4.7-2,4.7-4.6s-2-4.7-4.6-4.7C488.1,119,488,119,488,119L488,119z M488,126.1c-1.4,0-2.5-1.1-2.5-2.5s1.1-2.5,2.5-2.5
							l0,0l0,0c1.4,0,2.5,1.2,2.4,2.5C490.4,125,489.3,126.1,488,126.1L488,126.1z"/>
						<path id="Trazado_2072_10_" class="st2" d="M462.3,88c-2.6,0-4.6,2.2-4.6,4.7s2.2,4.6,4.7,4.6c2.5,0,4.6-2.1,4.6-4.6
							C467,90.1,464.9,88,462.3,88z M462.3,95.1c-1.4,0-2.5-1.1-2.5-2.5l0,0c0-1.4,1.1-2.5,2.5-2.5c1.4,0,2.5,1.1,2.5,2.5
							C464.8,94,463.7,95.1,462.3,95.1L462.3,95.1L462.3,95.1z"/>
					</g>
				</g>
			</g>
		</g>
		<g id="Grupo_849_10_">
			<g>
				<defs>
					<rect id="SVGID_41_" x="462.3" y="0" width="51.4" height="61.8"/>
				</defs>
				<clipPath id="SVGID_42_">
					<use xlink:href="#SVGID_41_"  style="overflow:visible;"/>
				</clipPath>
				<g id="Grupo_848_10_" class="st22">
					<g id="Grupo_847_10_">
						<path id="Trazado_2073_10_" class="st4" d="M479.4,34.6c0.4,0.5,1,0.9,1.6,0.8c0.7,0,1.3-0.4,1.6-0.9l16.4-20.9
							c0.7-0.8,1.9-1,2.7-0.3c0.8,0.6,0.9,1.8,0.3,2.6l-3.7,4.7v0c-0.6,0.7-0.7,1.7-0.1,2.4v0l3.7,4.7L513.7,13L509,7.1L508.2,6
							c-0.6-0.7-1.5-1.2-2.4-1.3h-7c-1.1,0-2.1,0.5-2.9,1.3l-19.5,24.9L479.4,34.6L479.4,34.6z M478.6,21.9l-4.7-6
							c-0.6-0.9-0.4-2,0.5-2.6c0.9-0.6,2-0.4,2.6,0.5c0,0,0,0,0,0.1l3.9,4.9l4.6-5.9l-5.3-6.7c-0.7-1-1.9-1.6-3.2-1.5h-6.3
							c-1.1-0.1-2.2,0.4-2.9,1.2l-5.6,7L474,27.7L478.6,21.9L478.6,21.9z"/>
						<path id="Trazado_2074_10_" class="st4" d="M496.6,26.9c-0.4-0.5-0.9-0.8-1.6-0.8c-0.6,0-1.2,0.3-1.5,0.7L476.9,48
							c-0.7,0.8-1.9,1-2.8,0.3c-0.8-0.7-0.9-1.8-0.2-2.6l3.7-4.8v0c0.6-0.7,0.7-1.7,0.1-2.4v0l-3.7-4.7l-11.7,14.9l6.5,8.2l10.2,0
							l20.6-26.2L496.6,26.9L496.6,26.9z"/>
						<path id="Trazado_2075_10_" class="st4" d="M497.4,39.7l4.7,6c0.6,0.8,0.5,2-0.3,2.6c-0.9,0.7-2.1,0.5-2.8-0.4
							c0-0.1-0.1-0.1-0.1-0.2l-3.9-5l-4.6,5.9L497,57l10.2,0l6.5-8.3L502,33.9L497.4,39.7z"/>
						<path id="Trazado_2076_10_" class="st4" d="M513.6,26.2c-2.6,0.1-4.6,2.2-4.5,4.7s2.2,4.6,4.7,4.5c2.5,0,4.5-2.1,4.5-4.6
							C518.3,28.2,516.2,26.2,513.6,26.2z M513.6,33.3c-1.4,0-2.5-1.1-2.5-2.5c0-1.4,1.1-2.5,2.5-2.5s2.5,1.1,2.5,2.5c0,0,0,0,0,0
							C516.1,32.2,515,33.3,513.6,33.3L513.6,33.3z"/>
						<path id="Trazado_2077_10_" class="st4" d="M488-4.6c-2.6,0-4.7,2-4.7,4.6s2,4.7,4.6,4.7c0,0,0.1,0,0.1,0l0,0
							c2.6,0,4.7-2,4.7-4.6c0-2.6-2-4.7-4.6-4.7C488.1-4.6,488-4.6,488-4.6L488-4.6z M488,2.5c-1.4,0-2.5-1.1-2.5-2.5
							c0-1.4,1.1-2.5,2.5-2.5l0,0c1.4,0,2.5,1.2,2.4,2.5C490.4,1.4,489.3,2.5,488,2.5L488,2.5z"/>
						<path id="Trazado_2078_10_" class="st4" d="M488,57.2c-2.6,0-4.7,2-4.7,4.6c0,2.6,2,4.7,4.6,4.7c0,0,0.1,0,0.1,0l0,0
							c2.6,0,4.7-2,4.7-4.6s-2-4.7-4.6-4.7C488.1,57.2,488,57.2,488,57.2L488,57.2z M488,64.3c-1.4,0-2.5-1.1-2.5-2.5
							c0-1.4,1.1-2.5,2.5-2.5l0,0c1.4,0,2.5,1.2,2.4,2.5C490.4,63.2,489.3,64.3,488,64.3L488,64.3z"/>
						<path id="Trazado_2079_10_" class="st4" d="M462.3,26.2c-2.6,0-4.6,2.2-4.6,4.7s2.2,4.6,4.7,4.6c2.5,0,4.6-2.1,4.6-4.6
							C467,28.2,464.9,26.2,462.3,26.2z M462.3,33.3c-1.4,0-2.5-1.1-2.5-2.5l0,0c0-1.4,1.1-2.5,2.5-2.5c1.4,0,2.5,1.1,2.5,2.5
							C464.8,32.2,463.7,33.3,462.3,33.3L462.3,33.3L462.3,33.3z"/>
					</g>
				</g>
			</g>
		</g>
	</g>
</g>
</svg>
