<?xml version="1.0" encoding="utf-8"?>
<!-- Generator: Adobe Illustrator 25.0.0, SVG Export Plug-In . SVG Version: 6.00 Build 0)  -->
<svg version="1.1" id="Capa_1" xmlns="http://www.w3.org/2000/svg" xmlns:xlink="http://www.w3.org/1999/xlink" x="0px" y="0px"
	 viewBox="0 0 512 512" style="enable-background:new 0 0 512 512;" xml:space="preserve">
<style type="text/css">
	.st0{fill:#FFFFFF;}
</style>
<g>
	<g>
		<path class="st0" d="M495,466.1L385.5,356.7c31.2-37.8,48.2-84.7,48.2-134.3c0-56.5-22-109.5-61.9-149.5
			C331.9,33,278.8,11,222.3,11S112.8,33,72.8,72.9c-82.4,82.4-82.4,216.5,0,298.9c39.9,39.9,93,61.9,149.5,61.9
			c49.6,0,96.6-17,134.3-48.2L466.1,495c11.5,10.5,23.8,5.1,28.9,0C502.9,487,502.9,474.1,495,466.1L495,466.1z M342.9,343
			c-32.2,32.2-75,50-120.6,50s-88.4-17.7-120.6-50c-66.5-66.5-66.5-174.7,0-241.2c32.2-32.2,75-49.9,120.6-49.9
			s88.4,17.7,120.6,49.9s50,75,50,120.6C392.9,267.9,375.1,310.8,342.9,343z"/>
		<path class="st0" d="M319.6,202h-76.9v-77c0-11.3-9.1-20.4-20.4-20.4c-11.3,0-20.4,9.1-20.4,20.4v77H125
			c-11.3,0-20.4,9.1-20.4,20.4c0,11.3,9.1,20.4,20.4,20.4h76.9v76.9c0,11.3,9.1,20.4,20.4,20.4c11.3,0,20.4-9.1,20.4-20.4v-76.9
			h76.9c11.3,0,20.4-9.1,20.4-20.4C340.1,211.1,330.9,202,319.6,202z"/>
	</g>
</g>
</svg>
