<svg xmlns="http://www.w3.org/2000/svg" viewBox="0 0 250.05 249.65"><defs><style>.cls-1{fill:#0f4c42;}</style></defs><g id="Capa_2" data-name="Capa 2"><g id="Capa_1-2" data-name="Capa 1"><path class="cls-1" d="M141.34,249.4c-45.09,2.07-76-8.83-101.73-32.92C13.35,191.9,0,161.18,0,125.17-.09,56.17,53.22,6.26,111.38.69,150.6-3.07,184.72,8.54,213,36.08c21.26,20.74,33.41,46.26,36.34,75.82,3.51,35.46-6,67.26-29.17,94.4S167.09,247.61,141.34,249.4Zm99-125.21C239.7,92.53,228.26,64.66,205,42.05S153.24,8.37,120.83,9.39c-31.2,1-58.12,13-79.72,35.76C17,70.51,6.39,101,9.44,135.81c2.44,27.92,14,52.05,34.15,71.63,25.88,25.13,57.14,36.11,92.93,32.67,27.65-2.66,51.47-14.4,70.84-34.43,21.71-22.44,32.52-49.49,32.95-81.49Z"/><path class="cls-1" d="M84,104.63c-4.26,0-8.52,0-12.77,0-2.39,0-3,1-1.89,3,.12.24.23.5.34.75,4.29,10.19,4.29,10.19,15.31,10.19,8.1,0,16.2,0,24.3,0a9,9,0,0,1,8.31,12.32c-1.34,3.3-2.72,6.6-4.07,9.9-.7,1.69-1.39,3.17-3.7,3.23s-3.31-1.21-4.28-3.07c-7.54-14.41-24.9-18-36.82-7.48-7.38,6.52-9.64,15-6.86,24.31,2.9,9.75,9.82,15.47,19.94,16.59,9.75,1.08,17.75-2.71,22.51-11.27,2.33-4.19,4.91-5.71,9.32-5.13,1.35.18,2.76-.09,4.12.05,2.72.26,4.32-.83,5.29-3.44,1.57-4.24,3.46-8.37,5.12-12.58,1-2.47,2-3.11,3.92-.74,4,5.07,8.51,9.54,9.85,16.61,1.47,7.69,7.19,12.81,14.69,15.39a12.7,12.7,0,0,1,5.94,4.11c6.65,8,13.34,16,20.21,23.9,2.22,2.55,1.87,3.86-.78,5.77C122.61,249.82,36.85,214,25.83,141.58c-5-33,4.38-61.6,27.26-85.81,3.59-3.79,3.66-3.74,7,.27q18.72,22.18,37.4,44.4c.82,1,2.52,1.89,1.75,3.38s-2.49.74-3.8.76c-3.84.08-7.69,0-11.53,0Z"/><path class="cls-1" d="M124.94,104.61c-7.75,2.6-13.2-2.48-18.67-9.29-12.54-15.63-25.67-30.78-38.7-46-2.29-2.68-2.45-3.92.72-6.2C100.07,20.3,148.07,20.36,180,43,204.82,60.53,219.83,84,223.3,114.18c3.56,31-5.94,58-27.27,80.77-2.24,2.4-3.66,2.46-5.76-.17-5-6.21-10.17-12.25-15.38-18.27-1.76-2-2.35-3.18.62-4.85,8.35-4.72,12.61-12,12.16-21.75-.43-9.17-5-15.8-13.13-19.9a7.83,7.83,0,0,1-4-4.37q-3.57-9-7.41-17.88c-.91-2.11-.92-3.35,1.61-4.37,3.24-1.3,5-4,4.2-7.61s-3.41-6-7.13-5.45c-5.34.79-6.91-2.18-8.62-6.34-3.51-8.56-1.23-7.16-10.77-7.29-.13,0-.27,0-.41,0-11.69,0-11.64,0-16.12,10.69-1,2.3-.68,3.33,2,3.29,3.3-.06,6.6.09,9.89,0,2.25-.08,3.48.83,4.33,2.91q6.52,16,13.26,32c.9,2.14.82,3.47-1.54,4.55a20.42,20.42,0,0,0-8.48,7c-1.15,1.68-2.27,1.72-3.54.1s-2.46-3-3.71-4.4c-4.13-4.77-4.24-7.49-.81-12.64,1.18-1.77,2.78-1.51,4.37-1.51,2.37,0,2.95-1,2-3.11-.11-.25-.22-.51-.31-.76C139.58,104.61,139.58,104.61,124.94,104.61Z"/><path class="cls-1" d="M93.73,151.14a9.27,9.27,0,0,1-9.4,9.38,9.47,9.47,0,1,1,9.4-9.38Z"/><path class="cls-1" d="M164.3,141.58a9.54,9.54,0,0,1,9.43,9.4,9.44,9.44,0,0,1-9.64,9.55c-3.43-.1-9.46-6.62-9.33-10.1A9.52,9.52,0,0,1,164.3,141.58Z"/></g></g></svg>