<svg xmlns="http://www.w3.org/2000/svg" viewBox="0 0 250 250"><defs><style>.cls-1{fill:#0f4c42;}</style></defs><g id="Capa_2" data-name="Capa 2"><g id="Capa_1-2" data-name="Capa 1"><path class="cls-1" d="M141.31,249.75c-45.08,2.07-76-8.84-101.71-33C13.35,192.17,0,161.41,0,125.35-.09,56.25,53.21,6.27,111.36.69,150.57-3.08,184.68,8.55,213,36.13c21.25,20.77,33.4,46.33,36.33,75.93,3.51,35.51-6,67.35-29.16,94.53S167.06,248,141.31,249.75Zm99-125.39c-.64-31.7-12.07-59.61-35.33-82.25S153.21,8.38,120.81,9.4c-31.2,1-58.11,13-79.71,35.81C17,70.61,6.39,101.14,9.44,136c2.44,28,14,52.12,34.14,71.73,25.88,25.17,57.13,36.16,92.91,32.72C164.14,237.79,188,226,207.32,206c21.71-22.47,32.51-49.56,32.94-81.61Z"/><path class="cls-1" d="M125,78c-27.18,0-46.81,22.3-46.92,46.79-.11,26,21.45,47.46,46.88,47.13,25.36.39,46.93-20.87,47-46.78C172,100.24,152.12,78,125,78Zm27,59.53c0,1-.31,1.23-1.25,1.23q-15.85,0-31.71,0c-1.07,0-1.25-.42-1.25-1.35,0-7.52,0-15,0-22.56s0-14.8,0-22.19c0-1.6,0-1.61,1.6-1.61H130c1.69,0,1.7,0,1.7,1.76,0,10.17,0,20.35,0,30.52,0,1.23.33,1.56,1.55,1.54,5.74-.06,11.49,0,17.24,0,1.12,0,1.55.29,1.53,1.48C151.94,130,152,133.77,152,137.51Z"/><path class="cls-1" d="M125.47,25.38A100,100,0,0,0,25,125c.11,58.39,45.48,99.2,99.74,100.41,54-.88,99.63-41.17,100.26-99.47A100,100,0,0,0,125.47,25.38Zm-1.2,160.43a60.81,60.81,0,1,1,61.48-60.07A60.82,60.82,0,0,1,124.27,185.81Z"/></g></g></svg>