<svg xmlns="http://www.w3.org/2000/svg" viewBox="0 0 250 250"><defs><style>.cls-1{fill:#0f4c42;}</style></defs><g id="Capa_2" data-name="Capa 2"><g id="Capa_1-2" data-name="Capa 1"><path class="cls-1" d="M141.31,249.75c-45.08,2.07-76-8.84-101.71-33C13.35,192.17,0,161.41,0,125.35-.09,56.25,53.21,6.27,111.36.69,150.57-3.08,184.68,8.55,213,36.13c21.25,20.77,33.4,46.33,36.33,75.93,3.51,35.51-6,67.35-29.16,94.53S167.06,248,141.31,249.75Zm99-125.39c-.64-31.7-12.07-59.61-35.33-82.25S153.21,8.38,120.81,9.4c-31.2,1-58.11,13-79.71,35.81C17,70.61,6.39,101.14,9.44,136c2.44,28,14,52.12,34.14,71.73,25.88,25.17,57.13,36.16,92.91,32.72C164.14,237.79,188,226,207.32,206c21.71-22.47,32.51-49.56,32.94-81.61Z"/><path class="cls-1" d="M188.62,167.6V151.23A25.84,25.84,0,0,0,166.23,126a25.43,25.43,0,0,0-21,6.61c-.84.75-1.27.85-2-.09q-5.16-6.27-10.46-12.42a1.51,1.51,0,0,1-.11-2.15c4-6.41,8-12.85,12-19.28,1.87-3,1.67-4.75-.82-7.25L102.37,50.06c-2.74-2.74-5.1-2.74-7.84,0-3.49,3.49-7,7-10.45,10.48-.65.66-1,.68-1.61,0q-6.93-8.33-14-16.57c-.58-.68-.53-1,.22-1.49a99.82,99.82,0,0,1,37.32-15.57,99.35,99.35,0,0,1,70.38,12.45q35.15,21.57,45.61,61.54a89.13,89.13,0,0,1,2.61,16.08q2.81,38.59-20.67,69.35a108.09,108.09,0,0,1-7.07,8.19c-.66.7-1,.65-1.63-.08-1.91-2.35-3.88-4.67-5.86-7a3.21,3.21,0,0,1-.83-2.26C188.64,179.31,188.62,173.45,188.62,167.6Z"/><path class="cls-1" d="M145.81,160.79c5.16,6.12,10.07,11.93,15,17.75l21.95,26.05c1.07,1.28,1.08,1.27-.27,2.22a100,100,0,0,1-39.94,16.65,95,95,0,0,1-23.91,1.29c-26.7-2-49.26-12.8-67.4-32.49a98.07,98.07,0,0,1-24.43-48.9,93.33,93.33,0,0,1-1.62-22.56c1.31-24.73,10.32-46.25,27.27-64.38.92-1,1.74-2.66,2.93-2.61s1.78,1.78,2.63,2.77C62.34,61.72,66.66,66.89,71,72c.64.75.46,1.13-.14,1.72Q62,82.57,53.14,91.45c-2.43,2.43-2.63,4.21-.81,7.16q20.37,32.86,40.75,65.71a6.1,6.1,0,0,1,.87,3.49c0,9.42,3.6,17.05,11.4,22.39a25.85,25.85,0,0,0,40-16.7c.69-3.63.36-7.28.46-10.92C145.82,162.11,145.81,161.63,145.81,160.79Z"/><path class="cls-1" d="M136.91,160.44c-.13,2.94.09,6.5-.19,10.06-.57,7.18-6.72,13.77-13.86,15a17,17,0,0,1-19.71-14.27,11.29,11.29,0,0,1,1.49-8.28c6-9.26,11.71-18.7,17.47-28.11.69-1.12,1-1,1.77-.1q6.06,7.32,12.24,14.53a3.22,3.22,0,0,1,.81,2.26C136.88,154.29,136.91,157.06,136.91,160.44Z"/><path class="cls-1" d="M63.7,99.54h1.23q13.78,0,27.58,0c.92,0,1.45.1,1.45,1.25q0,23.3,0,46.59c0,.17,0,.34-.11.92C83.71,131.93,73.79,115.86,63.7,99.54Z"/><path class="cls-1" d="M179.71,175.82c-1.49-1.75-2.79-3.27-4.08-4.8q-12.4-14.72-24.83-29.44c-.69-.82-.71-1.29.08-2,5-4.55,10.74-6.14,17.17-3.94s10.36,7,11.45,13.83a21.34,21.34,0,0,1,.21,3.28v23.08Z"/><path class="cls-1" d="M103,63.48l27.11,27.11a2.3,2.3,0,0,1-.38,0c-7,0-14,0-21,0a1.66,1.66,0,0,1-1.46-.68,42.52,42.52,0,0,0-3.07-3.62A4.43,4.43,0,0,1,103,82.79c0-6,0-12.05,0-18.07Z"/></g></g></svg>