<svg xmlns="http://www.w3.org/2000/svg" viewBox="0 0 250 250"><defs><style>.cls-1{fill:#0f4c42;}</style></defs><g id="Capa_2" data-name="Capa 2"><g id="Capa_1-2" data-name="Capa 1"><path class="cls-1" d="M141.31,249.75c-45.08,2.07-76-8.84-101.71-33C13.35,192.17,0,161.41,0,125.35-.09,56.25,53.21,6.27,111.36.69,150.57-3.08,184.68,8.55,213,36.13c21.25,20.77,33.4,46.33,36.33,75.93,3.51,35.51-6,67.35-29.16,94.53S167.06,248,141.31,249.75Zm99-125.39c-.64-31.7-12.07-59.61-35.33-82.25S153.21,8.38,120.81,9.4c-31.2,1-58.11,13-79.71,35.81C17,70.61,6.39,101.14,9.44,136c2.44,28,14,52.12,34.14,71.73,25.88,25.17,57.13,36.16,92.91,32.72C164.14,237.79,188,226,207.32,206c21.71-22.47,32.51-49.56,32.94-81.61Z"/><path class="cls-1" d="M108.58,116.9,119,129.26c2.08,2.47,4.1,5,6.26,7.38.84.94.68,1.47-.08,2.3A23.38,23.38,0,0,0,119,155.63a24.26,24.26,0,0,0,20.38,23.56,23.92,23.92,0,0,0,17.2-3.54c.74-.48,1.17-.48,1.77.23q12.23,14.58,24.51,29.09c.7.83.53,1.17-.27,1.74a99.37,99.37,0,0,1-40.18,16.7,95.25,95.25,0,0,1-20.56,1.52c-23.13-1-43.71-8.72-61.4-23.73a98.78,98.78,0,0,1-33-54.36,94.77,94.77,0,0,1-2.3-18.32A98.78,98.78,0,0,1,43,67.84,96.94,96.94,0,0,1,54.3,54.36c.66-.66,1-.72,1.64,0Q71.59,73,87.29,91.62c1.32,1.57,2.64,3.16,4,4.71a2.84,2.84,0,0,1,.72,2q0,20.37,0,40.73c0,1-.18,1.32-1.28,1a24.36,24.36,0,1,0,17.4,29,17.61,17.61,0,0,0,.48-7.71,3.25,3.25,0,0,1,0-.54Z"/><path class="cls-1" d="M224.92,125q-.4,40-27.85,69.23c-.74.79-1.09.79-1.82-.08q-13.38-16-26.88-31.84a4,4,0,0,1-.88-3.89,12.61,12.61,0,0,0,.24-2.94V57.36c0-1.81,0-1.82-1.77-1.31Q131.85,66,97.75,75.88c-1,.27-1.72.58-2.59-.46Q82,59.69,68.76,44.06c-.74-.87-.71-1.25.25-1.9A100.36,100.36,0,0,1,108.44,26.4a99.63,99.63,0,0,1,75.47,17.9A99,99,0,0,1,222.29,102,90.76,90.76,0,0,1,224.92,125Z"/><path class="cls-1" d="M151.15,104.75c0,8.59,0,17.19,0,25.79,0,1.13-.17,1.56-1.42,1.14a17.4,17.4,0,0,0-6.61-.83,2.18,2.18,0,0,1-2-.85q-15.9-18.93-31.84-37.81c-1.32-1.58-1.13-2.16.86-2.74Q130,83.69,149.8,77.92c1.09-.32,1.38-.13,1.37,1C151.13,87.55,151.15,96.15,151.15,104.75Z"/><path class="cls-1" d="M92,163.57c.58,4.55-3.87,7.92-7.65,7.88a7.88,7.88,0,0,1,0-15.76C88,155.58,92.59,159,92,163.57Z"/><path class="cls-1" d="M135.45,155.17a8.51,8.51,0,0,1,1-3.84c.32-.6.59-.65,1.05-.09q4.29,5.14,8.64,10.26c.57.67.39.88-.37,1.15A7.94,7.94,0,0,1,135.45,155.17Z"/></g></g></svg>