<svg xmlns="http://www.w3.org/2000/svg" viewBox="0 0 250 250"><defs><style>.cls-1{fill:#0f4c42;}</style></defs><g id="Capa_2" data-name="Capa 2"><g id="Capa_1-2" data-name="Capa 1"><path class="cls-1" d="M141.31,249.75c-45.08,2.07-76-8.84-101.71-33C13.35,192.17,0,161.41,0,125.35-.09,56.25,53.21,6.27,111.36.69,150.57-3.08,184.68,8.55,213,36.13c21.25,20.77,33.4,46.33,36.33,75.93,3.51,35.51-6,67.35-29.16,94.53S167.06,248,141.31,249.75Zm99-125.39c-.64-31.7-12.07-59.61-35.33-82.25S153.21,8.38,120.81,9.4c-31.2,1-58.11,13-79.71,35.81C17,70.61,6.39,101.14,9.44,136c2.44,28,14,52.12,34.14,71.73,25.88,25.17,57.13,36.16,92.91,32.72C164.14,237.79,188,226,207.32,206c21.71-22.47,32.51-49.56,32.94-81.61Z"/><path class="cls-1" d="M85.16,77.22c-2.34.21-4.59,0-6.83.21A22.28,22.28,0,0,0,59,93.17a19.4,19.4,0,0,0-.88,5.72q0,26.61,0,53.22c0,10.7,8.82,20.35,19.46,21.45a44.64,44.64,0,0,0,4.62.21q42.56,0,85.12,0A3.41,3.41,0,0,1,170.3,175q10.26,12,20.63,23.8c.52.59.47.86-.1,1.35a99.64,99.64,0,0,1-44.34,22.44,99.42,99.42,0,0,1-74.68-13q-33-21.17-43.48-59.09a94.11,94.11,0,0,1-3.12-20C24,105.7,31,83.52,46,63.83A96.64,96.64,0,0,1,59.78,49.26c.5-.44.81-.66,1.37,0Q73.07,63.07,85.06,76.85C85.11,76.91,85.1,77,85.16,77.22Z"/><path class="cls-1" d="M145.86,63.19c-2.78.17-6.18-.26-9.56.25A14.63,14.63,0,0,0,124.38,75.8c-.12,1.08-.48,1.52-1.63,1.5-4.86,0-9.71,0-14.57,0a2.4,2.4,0,0,1-2-.91q-15.45-17.88-31-35.7c-1.35-1.56-1.35-1.57.46-2.6a98.81,98.81,0,0,1,33.85-11.83,95.9,95.9,0,0,1,16-1.24c23.51.36,44.54,7.76,62.74,22.7A98.6,98.6,0,0,1,222.51,103a97.39,97.39,0,0,1,2.27,16.85,98.57,98.57,0,0,1-8.16,45.05,99.73,99.73,0,0,1-13.06,21.85c-.55.7-.87.92-1.57.11q-8.27-9.65-16.64-19.21c-.57-.66-.63-1.06,0-1.75a22.53,22.53,0,0,0,5.39-15.22c0-17,.09-34,0-51-.08-9.19-4.47-15.94-12.62-20.17a17.89,17.89,0,0,0-7.58-2.07c-1.26,0-1.8-.57-2-1.88A14.71,14.71,0,0,0,154.42,63.2C151.77,63.17,149.12,63.19,145.86,63.19Z"/><path class="cls-1" d="M156,158.76H81.35c-4.24,0-7.16-2.12-8-5.85a8.59,8.59,0,0,1-.15-1.83q0-25.54,0-51.08c0-4.54,3-7.54,7.53-7.56,5.56,0,11.12,0,16.67,0a2.29,2.29,0,0,1,1.95.84c3.15,3.69,6.31,7.37,9.54,11,.74.84.55,1.21-.19,1.85a24.43,24.43,0,0,0-8.94,19.76c.14,11,8.67,21.19,19.53,23.3A24.26,24.26,0,0,0,141,143.24c.58-.51,1-.9,1.67-.07,4.28,5,8.6,9.94,12.9,14.91A5.62,5.62,0,0,1,156,158.76ZM80.7,108.15a7.59,7.59,0,1,0,7.59-7.6A7.69,7.69,0,0,0,80.7,108.15Z"/><path class="cls-1" d="M120.26,92.62a2.86,2.86,0,0,1,1.56-.19q22,0,43.94,0c1.31,0,2.62.08,3.91.16,2.77.16,5.52,3.11,5.8,5.89a16.38,16.38,0,0,1,.07,1.72v50.69a9.18,9.18,0,0,1-.45,3.24c-.45,1.19-.84.75-1.39.1q-6-6.92-12-13.79c-4-4.57-7.91-9.14-11.9-13.68a3.5,3.5,0,0,1-.93-2.49c0-11.24-9-21.71-20.07-23.44a4.14,4.14,0,0,1-2.79-1.49C124.2,97.07,122.25,94.91,120.26,92.62Z"/><path class="cls-1" d="M114.78,125a9.83,9.83,0,0,1,3.94-7.71c.63-.49,1.07-.52,1.64.15q5.37,6.27,10.82,12.48c.72.8.58,1.29-.14,1.94a9.57,9.57,0,0,1-16-5c-.08-.39-.16-.78-.22-1.17A4.85,4.85,0,0,1,114.78,125Z"/></g></g></svg>