<svg xmlns="http://www.w3.org/2000/svg" viewBox="0 0 250 250"><defs><style>.cls-1{fill:#0f4c42;}</style></defs><g id="Capa_2" data-name="Capa 2"><g id="Capa_1-2" data-name="Capa 1"><path class="cls-1" d="M141.31,249.75c-45.08,2.07-76-8.84-101.71-33C13.35,192.17,0,161.41,0,125.35-.09,56.25,53.21,6.27,111.36.69,150.57-3.08,184.68,8.55,213,36.13c21.25,20.77,33.4,46.33,36.33,75.93,3.51,35.51-6,67.35-29.16,94.53S167.06,248,141.31,249.75Zm99-125.39c-.64-31.7-12.07-59.61-35.33-82.25S153.21,8.38,120.81,9.4c-31.2,1-58.11,13-79.71,35.81C17,70.61,6.39,101.14,9.44,136c2.44,28,14,52.12,34.14,71.73,25.88,25.17,57.13,36.16,92.91,32.72C164.14,237.79,188,226,207.32,206c21.71-22.47,32.51-49.56,32.94-81.61Z"/><path class="cls-1" d="M95.18,88.05H92.82c-14.24,0-25.52,9.09-28.57,23a35.23,35.23,0,0,0-.51,4.91c0,.64.19.92.8.92H65c10.08,0,20.16.06,30.24-.08a39,39,0,0,0,18.62-5.05c.85-.48,1.34-.47,2,.33,2.91,3.55,5.89,7,8.87,10.56-.48.48-1,.28-1.45.28q-12,0-24.08,0c-2,0-2,0-2,2v25c0,1.76,0,1.77,1.79,1.77q24.42,0,48.85,0a2.74,2.74,0,0,1,2.37,1.11q19.53,23.25,39.12,46.46c1.16,1.38,1.18,1.39-.21,2.55a99.43,99.43,0,0,1-41.35,20.63,95.85,95.85,0,0,1-19.82,2.5q-42.12.86-72.5-28.31C40,181.83,30.55,163.74,26.61,142.81a93.28,93.28,0,0,1-1.33-24.5c2.18-27.9,13.94-51,35.06-69.44.95-.82,1.44-1,2.36.14Q78.53,68,94.47,86.81C94.74,87.13,95.17,87.37,95.18,88.05ZM77.84,122.6c-4.5,0-9,0-13.5,0-1.2,0-1.62.32-1.61,1.58q.08,12.83,0,25.67c0,1.23.36,1.6,1.59,1.59q13.56-.06,27.14,0c1.17,0,1.52-.32,1.51-1.51q-.07-12.9,0-25.8c0-1.16-.3-1.55-1.49-1.53C86.93,122.64,82.39,122.6,77.84,122.6Z"/><path class="cls-1" d="M170.64,151.69h1.57c7,0,14,0,21,0,1.29,0,1.75-.24,1.74-1.66q-.11-12.72,0-25.43c0-1.39-.42-1.72-1.74-1.72-15,0-30,0-45,0a3.57,3.57,0,0,1-3.06-1.41q-8.64-10.38-17.41-20.67a1.1,1.1,0,0,1-.06-1.61,40.31,40.31,0,0,0,7.16-18.49c.58-4.52.25-9.08.31-13.62,0-1-.61-1-1.33-1H120.62c-4.24,0-8.47,0-12.71,0-1.19,0-1.55.39-1.52,1.55.07,2.48,0,5,0,7.8-2.25-2.66-4.28-5-6.3-7.45L76.23,39.65c-1-1.24-1-1.24.38-2a98.71,98.71,0,0,1,34.5-11.52,95.55,95.55,0,0,1,16.64-1c23,.87,43.45,8.44,61.15,23.17a98.71,98.71,0,0,1,31.59,47.24,96.73,96.73,0,0,1,4,20.1,94.83,94.83,0,0,1,.45,12.94A99.48,99.48,0,0,1,207.09,182c-1.35,1.94-2.85,3.76-4.23,5.68-.65.91-1.06,1-1.85.07q-10.35-12.37-20.77-24.67Z"/></g></g></svg>