<svg xmlns="http://www.w3.org/2000/svg" viewBox="0 0 250 250"><defs><style>.cls-1{fill:#0f4c42;}</style></defs><g id="Capa_2" data-name="Capa 2"><g id="Capa_1-2" data-name="Capa 1"><path class="cls-1" d="M141.31,249.75c-45.08,2.07-76-8.84-101.71-33C13.35,192.17,0,161.41,0,125.35-.09,56.25,53.21,6.27,111.36.69,150.57-3.08,184.68,8.55,213,36.13c21.25,20.77,33.4,46.33,36.33,75.93,3.51,35.51-6,67.35-29.16,94.53S167.06,248,141.31,249.75Zm99-125.39c-.64-31.7-12.07-59.61-35.33-82.25S153.21,8.38,120.81,9.4c-31.2,1-58.11,13-79.71,35.81C17,70.61,6.39,101.14,9.44,136c2.44,28,14,52.12,34.14,71.73,25.88,25.17,57.13,36.16,92.91,32.72C164.14,237.79,188,226,207.32,206c21.71-22.47,32.51-49.56,32.94-81.61Z"/><path class="cls-1" d="M225,124.94c.43,54.17-44.25,100.74-101.27,100.05A100,100,0,0,1,25,123.86C25.58,68.79,71.14,24.33,126.37,25,180.43,25.68,225.24,70.26,225,124.94Zm-98.16-8a2.77,2.77,0,0,1,1.49.83L143.07,129c1.25.95,1.34.92,2.15-.48a12.83,12.83,0,0,0-3.36-16.83c-3.74-2.87-7.38-5.9-11.31-8.5-2.87-1.91-4.51-4.06-3.76-7.59a1.13,1.13,0,0,0,0-.26A6.65,6.65,0,0,0,122.62,89a6.32,6.32,0,0,0-7.24,1.49c-6.62,6.59-13.2,13.24-19.81,19.84a2.5,2.5,0,0,0-.78,2c0,3.16,0,6.32,0,9.48A8.79,8.79,0,0,0,95,123.7c1.24,5.68,5.29,9.36,11.21,10.24,1.48.21,1.61.11,1.61-1.39,0-4.9,0-9.79,0-14.69,0-.48-.18-1,.2-1.42,1.87-1.85,3.77-3.68,5.76-5.62,0,6.25,0,12.34,0,18.44a3.11,3.11,0,0,0,1.44,2.86c7.49,5.58,14.93,11.22,22.42,16.82a2.32,2.32,0,0,1,1.06,2.1c0,4.67-.09,9.35,0,14a6.56,6.56,0,0,0,11.12,4.8c1.73-1.58,2-3.69,2-5.86,0-6.15,0-12.29,0-18.43a3.94,3.94,0,0,0-1.79-3.65c-7.41-5.47-14.75-11-22.09-16.59-.48-.35-1.17-.58-1.18-1.34C126.79,121.65,126.8,119.31,126.8,116.93Zm-2.38,55.44c-14.46,0-28.93,0-43.4,0-1.2,0-1.49.34-1.47,1.5.07,4.49.06,9,0,13.49,0,1.1.39,1.3,1.38,1.3q43.54,0,87.08,0c1.15,0,1.54-.3,1.52-1.49-.06-4.37-.07-8.73,0-13.09,0-1.34-.35-1.73-1.71-1.72C153.36,172.39,138.89,172.37,124.42,172.37ZM107.63,70.07a12.66,12.66,0,1,0,12.72-12.81A12.64,12.64,0,0,0,107.63,70.07ZM98.16,171.39a6.56,6.56,0,0,0,5.24-2.49c6-7.74,11.95-15.51,17.95-23.24.55-.72.59-1.13-.19-1.7q-4.35-3.19-8.64-6.5c-.71-.55-1.12-.41-1.61.27-.85,1.19-1.78,2.33-2.67,3.49-5,6.56-10.12,13.1-15.14,19.68a6.22,6.22,0,0,0-.62,6.91A6.33,6.33,0,0,0,98.16,171.39Z"/></g></g></svg>