<svg xmlns="http://www.w3.org/2000/svg" viewBox="0 0 250.05 249.65"><defs><style>.cls-1{fill:#0f4c42;}</style></defs><g id="Capa_2" data-name="Capa 2"><g id="Capa_1-2" data-name="Capa 1"><path class="cls-1" d="M141.34,249.4c-45.09,2.07-76-8.83-101.73-32.92C13.35,191.9,0,161.18,0,125.17-.09,56.17,53.22,6.26,111.38.69,150.6-3.07,184.72,8.54,213,36.08c21.26,20.74,33.41,46.26,36.34,75.82,3.51,35.46-6,67.26-29.17,94.4S167.09,247.61,141.34,249.4Zm99-125.21C239.7,92.53,228.26,64.66,205,42.05S153.24,8.37,120.83,9.39c-31.2,1-58.12,13-79.72,35.76C17,70.51,6.39,101,9.44,135.81c2.44,27.92,14,52.05,34.15,71.63,25.88,25.13,57.14,36.11,92.93,32.67,27.65-2.66,51.47-14.4,70.84-34.43,21.71-22.44,32.52-49.49,32.95-81.49Z"/><path class="cls-1" d="M123,225.46c-29.62-1.1-55.66-13.05-76-37.3-11.74-14-18.27-30.11-21.09-47.76-2.16-13.47-.74-27,2.61-40.23,4.47-17.7,14-32.43,26.6-45.41,1.81-1.87,2.82-1.77,4.46.21,8.3,10,16.72,19.92,25.13,29.84,1.41,1.66,1.88,3.92,3.69,5.36,1.26,1,.47,2.2-.2,3.29q-2.36,3.84-4.67,7.71c-3.57,6-3,14.14,1.21,18.34,1.74,1.74,2.94,2,4.46-.33q4.15-6.33,8.76-12.37c.76-1,1.16-4.12,3.29-2,1.56,1.53,4.9,3,2.71,6.34-3,4.43-5.87,8.91-9.12,13.12-2.16,2.79-2,4.93-.35,8,5.85,10.86,12.49,21.22,18.77,31.81,2.23,3.76,4.1,7.73,6.37,11.46,2.5,4.1,6.52,5.22,10.18,3.14a7.8,7.8,0,0,0,2.63-10.76c-5.21-9-10.64-17.88-15.9-26.85-2-3.42-3.8-7-5.65-10.47-.94-1.79,1.72-8.25,3.58-8.7,1.39-.33,1.82,1,2.47,1.77,5.71,6.81,11.36,13.67,17,20.51,10.75,12.93,21.29,26.06,32.36,38.71,5.57,6.38,11,12.89,16.69,19.17,1.86,2,1.67,3.06-.57,4.67C165.17,219.16,145.84,225,123,225.46ZM70.28,164.54c3.84,0,7.67-.12,11.5,0a5.38,5.38,0,0,0,5.43-2.76c2.35-3.86,4.89-7.6,7.44-11.32.95-1.39,1.24-2.63.3-4.15-1.93-3.14-3.78-6.35-5.64-9.54-1.08-1.84-2-1.88-3.26,0-2,3.09-4.4,6-6.2,9.18s-3.95,4.05-7.34,3.82c-4.23-.28-8.49-.08-12.73-.06-6,0-9.55,2.76-9.57,7.25S54,164.49,60,164.53C63.44,164.55,66.86,164.54,70.28,164.54Z"/><path class="cls-1" d="M130.61,26c35.39,1.88,65.93,20.3,84.21,57.1a88.93,88.93,0,0,1,9.25,48.11c-2.23,24.1-10.55,45.73-27.72,63.43-2.24,2.31-3.41,2.53-5.63-.13-15.78-18.89-31.75-37.63-47.63-56.44-6-7.11-11.94-14.28-17.87-21.44-1-1.16-1.69-2.49-2.62-3.67-1.08-1.36-.92-2.68.39-3.54,1.46-1,1.79.79,2.33,1.51,3.5,4.73,7,9.47,10.3,14.33,1.68,2.46,3,2.86,5.51.82,5.16-4.28,10.59-8.24,15.88-12.35a13.93,13.93,0,0,0,3.89-16.4c-1.72-3.5-2.89-3.68-5.77-1.23-3.75,3.2-7.69,6.16-11.38,9.42-2.17,1.91-3.31,1.28-4.81-.83-3.25-4.56-6.77-8.93-10.18-13.38A10.22,10.22,0,0,0,120,86.94c-5.48.1-11-.1-16.44,0a5.73,5.73,0,0,1-4.9-2.33Q83.41,66.31,68,48.14c-1.56-1.83-1.86-2.9.43-4.46C85.14,32.21,105,26,130.61,26Zm67.62,128.46a15.92,15.92,0,1,0-31.83-.07,16.38,16.38,0,0,0,16.07,15.94C191.38,170.4,198.18,163.55,198.23,154.47ZM152.14,72.88a14.29,14.29,0,0,0-14.27-14.37A14.07,14.07,0,0,0,123.76,73c0,7.73,6.23,14.21,13.55,14.19C145.71,87.12,152.11,81,152.14,72.88Z"/><path class="cls-1" d="M182.39,147.69a6.67,6.67,0,0,1,.35,13.33,6.91,6.91,0,0,1-7-6.54A6.51,6.51,0,0,1,182.39,147.69Z"/></g></g></svg>