<svg xmlns="http://www.w3.org/2000/svg" viewBox="0 0 250 250"><defs><style>.cls-1{fill:#0f4c42;}</style></defs><g id="Capa_2" data-name="Capa 2"><g id="Capa_1-2" data-name="Capa 1"><path class="cls-1" d="M141.31,249.75c-45.08,2.07-76-8.84-101.71-33C13.35,192.17,0,161.41,0,125.35-.09,56.25,53.21,6.27,111.36.69,150.57-3.08,184.68,8.55,213,36.13c21.25,20.77,33.4,46.33,36.33,75.93,3.51,35.51-6,67.35-29.16,94.53S167.06,248,141.31,249.75Zm99-125.39c-.64-31.7-12.07-59.61-35.33-82.25S153.21,8.38,120.81,9.4c-31.2,1-58.11,13-79.71,35.81C17,70.61,6.39,101.14,9.44,136c2.44,28,14,52.12,34.14,71.73,25.88,25.17,57.13,36.16,92.91,32.72C164.14,237.79,188,226,207.32,206c21.71-22.47,32.51-49.56,32.94-81.61Z"/><path class="cls-1" d="M125.52,225c-26.63-.43-49.49-9.22-68.68-27.06a98.23,98.23,0,0,1-29-49.65,96.82,96.82,0,0,1-2.5-17A98.6,98.6,0,0,1,35.32,81,100.24,100.24,0,0,1,54.52,54.2c.86-.86,1.21-.45,1.78.22q15.11,18,30.23,35.89l44.11,52.34q7.81,9.27,15.62,18.55a4,4,0,0,1,.9,1.41,7.5,7.5,0,0,0,3.52,4.18c1.6,1,2.55,2.7,3.75,4.12,9.51,11.24,19,22.54,28.5,33.77.85,1,.57,1.32-.29,1.93a99.83,99.83,0,0,1-41.43,17,80.61,80.61,0,0,1-12,1.17C127.8,224.79,126.42,225.08,125.52,225ZM75.73,165.15c-.51.17-.71.27-.92.31-2.14.41-3.36,1.51-3.66,3.32a4,4,0,0,0,2.45,4.31c4.75,2.43,9.52,4.83,14.29,7.24a4.82,4.82,0,0,0,2.62.62A3.75,3.75,0,0,0,94,178a3.81,3.81,0,0,0-1.92-4.42,30.37,30.37,0,0,1-3.74-2.08l2.25-.32a4.87,4.87,0,0,0,4.33-3c1.21-2.83,2.67-5.56,3.8-8.42.93-2.38,2.2-4,4.89-4.58,2.16-.47,3.06-2.81,2.36-4.91a4,4,0,0,0-4.81-2.52c-.75.2-1.5.41-2.25.64a1.48,1.48,0,0,1-1.11-.05q-9.35-4-18.71-7.87a4.27,4.27,0,0,0-2.25-.5c-.66.09-.8-.23-.92-.78-.45-2.16-1-4.3-1.41-6.47-.92-5.27-2.41-10.5-1.65-15.95a6.53,6.53,0,0,0,0-1.17,3.31,3.31,0,0,0-4.75-3.1,5.31,5.31,0,0,0-3.17,3.25c-.4,1.1-.75,2.22-1.12,3.33-.15.45-.26,1-.82,1.07-3,.4-5.42,2.22-8,3.59a9.28,9.28,0,0,1-4.6,1.16A21.08,21.08,0,0,0,42.71,126a3.53,3.53,0,0,0-2.63,2.94,7.56,7.56,0,0,0,3.65,7.78,14.09,14.09,0,0,0,8.43,2.13c.66,0,1.39-.11,1.7.64.65,1.59,1.46,3.08,1.44,4.94-.08,8.6,0,17.21,0,25.81,0,1.56,0,3.13,0,4.69a5.32,5.32,0,0,0,.85,3.22,4,4,0,0,0,4.41,1.38,3.76,3.76,0,0,0,2.67-3.62c0-5,0-9.91,0-14.86,0-.48-.18-1.19.76-.8Z"/><path class="cls-1" d="M126.14,112.47h15.29c3.31,0,6.61,0,9.91,0a2,2,0,0,0,1.83-.94c3.38-4.69,6.76-9.38,10.21-14a1.58,1.58,0,0,0-.11-2.35c-2.45-2.86-5.71-4.28-9.21-5.35a2.15,2.15,0,0,0-2.83,1c-1.58,2.34-3.37,4.54-5,6.84a2.27,2.27,0,0,1-2.14,1.11c-3.26-.07-6.52-.06-9.78,0a13.35,13.35,0,0,0-12.16,7.15c-.57,1-.84.91-1.49.14q-15-17.82-30-35.61-11-13.06-22-26.11c-.8-1-.69-1.33.3-2a99.94,99.94,0,0,1,39.44-15.84A93.66,93.66,0,0,1,129,25.11c25.19,1.3,47.07,10.47,65.3,28A98,98,0,0,1,223,105.35,94,94,0,0,1,224.84,122c.64,27.45-8.53,51.18-27,71.38-1.82,2-1.85,2-3.57-.07q-16.37-19.45-32.76-38.89a3,3,0,0,1-.79-2.11c0-3.18.06-6.35,0-9.52A3.49,3.49,0,0,1,161.8,140Q172.43,129.45,183,118.8c1.38-1.38,3.21-2.61,3.91-4.29s.19-3.76.23-5.67c.11-5.26,0-10.51-1.83-15.54q-6-16.36-22.73-21.34a6.92,6.92,0,1,0-3.72,13.33,19.52,19.52,0,0,1,9,5.32c3.63,3.77,5.2,8.34,5.61,13.52.27,3.42-.86,5.76-3.33,8.12-7.62,7.32-15,14.91-22.43,22.38a3.28,3.28,0,0,0-1.13,2C139.79,128.67,133.06,120.69,126.14,112.47ZM211.36,160a8.09,8.09,0,0,0-.94-3.13q-9.71-17.78-19.38-35.56c-.46-.85-.8-.94-1.5-.23-2.73,2.8-5.48,5.59-8.27,8.32a1.63,1.63,0,0,0-.36,2.33c3.5,6.3,6.93,12.64,10.38,19,2.35,4.31,4.67,8.63,7.06,12.91a6.86,6.86,0,0,0,8,3.34A7.12,7.12,0,0,0,211.36,160ZM124.58,64.82A13.32,13.32,0,0,0,138,78.51,13.6,13.6,0,0,0,138,51.32,13.31,13.31,0,0,0,124.58,64.82Z"/></g></g></svg>