<svg xmlns="http://www.w3.org/2000/svg" viewBox="0 0 250.05 249.65"><defs><style>.cls-1{fill:#0f4c42;}</style></defs><g id="Capa_2" data-name="Capa 2"><g id="Capa_1-2" data-name="Capa 1"><path class="cls-1" d="M141.34,249.4c-45.09,2.07-76-8.83-101.73-32.92C13.35,191.9,0,161.18,0,125.17-.09,56.17,53.22,6.26,111.38.69,150.6-3.07,184.72,8.54,213,36.08c21.26,20.74,33.41,46.26,36.34,75.82,3.51,35.46-6,67.26-29.17,94.4S167.09,247.61,141.34,249.4Zm99-125.21C239.7,92.53,228.26,64.66,205,42.05S153.24,8.37,120.83,9.39c-31.2,1-58.12,13-79.72,35.76C17,70.51,6.39,101,9.44,135.81c2.44,27.92,14,52.05,34.15,71.63,25.88,25.13,57.14,36.11,92.93,32.67,27.65-2.66,51.47-14.4,70.84-34.43,21.71-22.44,32.52-49.49,32.95-81.49Z"/><path class="cls-1" d="M177.37,176.37c2.83,0,5.26-.06,7.69,0,3.84.13,3.53-2.81,3-4.83-.81-3.05,3.16-8.23-2.93-8.95-5.67-.66-11.48-.16-17.24-.15-5.16,0-7.17-3.09-4.6-7.38,5.55-9.28,5.65-19.55,5.58-29.86,0-.14,0-.31,0-.41-2.86-4-7-1.21-10.43-1.88-2-.39-2.95.78-3,2.86a44.69,44.69,0,0,1-.5,6.54c-.63,3.86-3.31,5.74-6.88,6.75s-4.77-1.67-6.7-3.57c-5.08-5-4.7-10.36-1.31-16,1.92-3.16,4-6.21,6-9.36C156.61,93,153.5,76.1,137.51,63.76A57.08,57.08,0,0,0,118.4,54.5c-3-.87-4.14-.37-3.12,3a85.16,85.16,0,0,1,3,12.34c1.32,9-.76,17.1-7.23,23.85-1.71,1.79-2.77,1.94-4.48-.12Q87,70.11,67.18,46.81c-1.84-2.16-1.19-3.1.83-4.33C102.6,21.34,137.93,19,174,38.42c53.77,29,69.48,105.29,23.58,154.71-3.74,4-3.77,4-7.16-.08q-6.33-7.56-12.64-15.13C177.66,177.74,177.66,177.43,177.37,176.37Z"/><path class="cls-1" d="M124.61,224.92c-50.11,0-93.4-37.86-99.2-87.63-3.73-32.08,6-60,28.69-83.26,1.92-2,3-2.4,5,0Q78.12,77,97.47,99.6c1.82,2.14,1.76,3.44-.27,5.4-14.58,14.06-17.08,40.45-2.41,56.67s38.07,19.42,56.53,6.73c1.39-1,2.51-2.17,4-.09,1.17,1.61,2.61,2.93.36,4.79-.75.63-2.05,1.4-1.32,2.65.63,1.09,2,.74,3,.59,3.56-.54,5.79,1.12,8,3.79,5.84,7.24,11.89,14.33,18,21.37,1.8,2.06,1.62,3.17-.62,4.78A101.44,101.44,0,0,1,124.61,224.92ZM83.26,176.39c3.7,0,7.4.08,11.09,0,1.84-.06,4.54,1,5.34-.67.92-1.89-2-2.82-3-4.34-5-7.65-12.11-9.78-21.08-9-11.3.93-9.49-2.08-9.71,10.74,0,2.48.94,3.43,3.4,3.37C74,176.3,78.61,176.38,83.26,176.39Z"/><path class="cls-1" d="M125.82,162.83C115,162.42,106.13,156.92,101,146a28,28,0,0,1,4.79-30.62c1.91-2.09,3.11-2.42,5,0,3.61,4.63,7.51,9,11.34,13.5a8.42,8.42,0,0,1,2.1,4.35c1.26,8.34,6.38,13.61,13.73,17.06.62.29,1.29.45,1.92.72a7.11,7.11,0,0,1,4.31,4.66c.47,2.24-2.29,2.73-3.82,3.62C136.29,161.72,131.78,162.75,125.82,162.83Z"/><path class="cls-1" d="M132.18,77.48c6.66,6,8.43,13.23,4.74,20.88-2.78,5.75-6.44,11.06-9.69,16.59-.62,1-1.29,1.36-2.22.4-.19-.2-.37-.41-.54-.62-2-2.41-4.87-4.54-5.8-7.31-1.22-3.63,3.28-4.68,5.15-6.86C129.42,94,132.07,86.57,132.18,77.48Z"/></g></g></svg>