<svg xmlns="http://www.w3.org/2000/svg" viewBox="0 0 250.05 249.65"><defs><style>.cls-1{fill:#0f4c42;}</style></defs><g id="Capa_2" data-name="Capa 2"><g id="Capa_1-2" data-name="Capa 1"><path class="cls-1" d="M141.34,249.4c-45.09,2.07-76-8.83-101.73-32.92C13.35,191.9,0,161.18,0,125.17-.09,56.17,53.22,6.26,111.38.69,150.6-3.07,184.72,8.54,213,36.08c21.26,20.74,33.41,46.26,36.34,75.82,3.51,35.46-6,67.26-29.17,94.4S167.09,247.61,141.34,249.4Zm99-125.21C239.7,92.53,228.26,64.66,205,42.05S153.24,8.37,120.83,9.39c-31.2,1-58.12,13-79.72,35.76C17,70.51,6.39,101,9.44,135.81c2.44,27.92,14,52.05,34.15,71.63,25.88,25.13,57.14,36.11,92.93,32.67,27.65-2.66,51.47-14.4,70.84-34.43,21.71-22.44,32.52-49.49,32.95-81.49Z"/><path class="cls-1" d="M143.66,155.74c-3.72,0-6.85.08-10,0-2.27-.08-3.19.78-3.17,3.12.09,8.54,0,17.08.09,25.61a7.19,7.19,0,0,0,7.33,7.34c4,0,7.1-3.06,7.21-7.48.16-7.15.06-14.32.07-21.47v-4.38c1.67-.54,2,.65,2.54,1.28,11.75,13.66,23.41,27.41,35.26,41,2.19,2.5,1.71,3.57-.75,5.32-24.15,17.25-50.92,22.38-79.59,16.07-26.12-5.75-46.45-20.64-61.43-42.73-16.44-24.25-20.16-50.88-13.41-78.94A96.08,96.08,0,0,1,54,53.89c2.23-2.2,3.43-2.33,5.41.2,6.59,8.44,13.77,16.4,20.4,24.84a237.15,237.15,0,0,0,19.89,23c2.45,2.41,2.86,4.88,2.51,8.42-.72,7.37-.31,14.85-.35,22.28,0,4.27.19,8.54-.06,12.8-.19,3.38,1.23,4.23,4.34,4.18,9.36-.14,18.73.2,28.08-.15C138.78,149.28,141.44,151.12,143.66,155.74Zm-20.2,15.63v-4.94c0-11.93,0-11.88-12-10.72-2.14.2-2.85,1.08-2.84,3.09.05,8.37-.08,16.74.07,25.11.09,4.7,3.16,7.81,7.27,7.87,4.27.07,7.37-3.18,7.49-8.06C123.53,179.61,123.45,175.49,123.46,171.37ZM84.19,132.68c1.65,0,3.3.08,4.94,0,4.33-.25,6.71-3.17,6.74-8.14,0-4.77-2.18-7.31-6.77-7.52-3.15-.14-6.32-.15-9.46,0-4,.21-6.25,2.53-6.54,6.51C72.6,130.16,75.68,132.7,84.19,132.68Zm-6.55-29.47a30.44,30.44,0,0,1,0,3.7c-.44,3.55,1.26,4.47,4.55,4.39C94.4,111,92.41,113,92.62,100.8c0-.41,0-.83,0-1.24.34-3.14-.89-4.69-4.2-4.27a27.84,27.84,0,0,1-2.89,0C76.64,95.42,77.74,94.11,77.64,103.21ZM77.52,92a5.62,5.62,0,0,0,5.08-2.9c1.14-2-.09-3.36-1.3-4.71-3.65-4.07-8.62-4.24-13.52-4.49-1.18-.06-1.44.88-1.34,2C66.81,86.35,72.91,91.94,77.52,92Z"/><path class="cls-1" d="M152.37,128.46c0-5.36.1-10.73,0-16.1-.18-8.52-6.15-14.52-14.72-14.52-8.38,0-16.78-.59-25.14.41-2.12.25-3.25-1.28-4.42-2.55-2-2.11-3.66-4.47-5.63-6.59-2.41-2.6-4-5-3.07-9.1,1-4.39,0-5-4.13-3.57-1.81.61-2.71.19-3.82-1.14-7.92-9.51-15.86-19-23.93-28.4-1.84-2.14-1.7-3.28.65-4.71C81.41,34.11,95.55,28.33,111,26.24,132.23,23.37,152.07,27.4,171.3,37,195.25,49,210.44,68,219,92.7c9.51,27.63,7,54.53-6.75,80.21A98.18,98.18,0,0,1,196.37,194c-2,2.06-3.11,2.32-5.12-.05q-17.82-21.14-35.95-42a10.94,10.94,0,0,1-3-8.18c.22-5.08.06-10.18.06-15.27Zm-10.49-52a14.74,14.74,0,0,0-29.47-.51c-.21,8.71,6.16,15.65,14.48,15.79S141.8,85.19,141.88,76.43Zm26.37,56.18a52.48,52.48,0,0,0,5.75,0c3.72-.42,5.82-3.48,5.81-8.16,0-4.3-1.86-7-5.63-7.29a71.22,71.22,0,0,0-11.5,0c-3.76.31-5.6,3-5.61,7.32,0,4.68,2.11,7.71,5.84,8.13A45.28,45.28,0,0,0,168.25,132.61Zm8.28-29.25c-.11-9.29,1.09-7.93-8.15-8.06-1.24,0-2.47.06-3.71,0-2.06-.11-3.08.81-3.07,2.88,0,3.43,0,6.87,0,10.3a2.47,2.47,0,0,0,2.82,2.75c1.37,0,2.75,0,4.12,0C177.59,111.19,176.44,112.11,176.53,103.36ZM154.05,79.89c-3.32-.18-3.69,0-3.58,1.87.29,4.65,6.75,10.43,11.42,10.19a5.54,5.54,0,0,0,4.94-3.16c.91-1.81-.36-3.08-1.4-4.37C162.33,80.6,157.79,80.61,154.05,79.89Zm29.81-2.4c.24-1.76-1.17-2.54-4.23-1.25-2.8,1.19-5.64,2.28-7.71,4.63-1.73,2-3.16,4.23-1.13,6.61s4.76,3.17,7.79,1.46C182.41,86.77,183.33,83.12,183.86,77.49ZM163,74.89c-.39,3.31.69,5.2,3.52,5.53,2,.22,3-1.25,3.15-3s-3.59-6.12-5-5.9C162.23,71.91,163.27,74,163,74.89Z"/><path class="cls-1" d="M136.82,129.06c-4.19-4.94-8-9.44-11.83-13.93-1.56-1.82-1.08-2.62,1.22-2.62h.41c13.46.2,10.63-1.77,10.92,10.27C137.58,124.63,138,126.57,136.82,129.06Z"/><path class="cls-1" d="M117.35,123.44a40.8,40.8,0,0,1,8.31,10.63C115.74,135.8,116.09,135.59,117.35,123.44Z"/></g></g></svg>