<svg xmlns="http://www.w3.org/2000/svg" viewBox="0 0 250 250"><defs><style>.cls-1{fill:#0f4c42;}</style></defs><g id="Capa_2" data-name="Capa 2"><g id="Capa_1-2" data-name="Capa 1"><path class="cls-1" d="M141.31,249.75c-45.08,2.07-76-8.84-101.71-33C13.35,192.17,0,161.41,0,125.35-.09,56.25,53.21,6.27,111.36.69,150.57-3.08,184.68,8.55,213,36.13c21.25,20.77,33.4,46.33,36.33,75.93,3.51,35.51-6,67.35-29.16,94.53S167.06,248,141.31,249.75Zm99-125.39c-.64-31.7-12.07-59.61-35.33-82.25S153.21,8.38,120.81,9.4c-31.2,1-58.11,13-79.71,35.81C17,70.61,6.39,101.14,9.44,136c2.44,28,14,52.12,34.14,71.73,25.88,25.17,57.13,36.16,92.91,32.72C164.14,237.79,188,226,207.32,206c21.71-22.47,32.51-49.56,32.94-81.61Z"/><path class="cls-1" d="M145.44,160.7c.47.08.64.48.88.77q18.28,21.67,36.57,43.36c.73.87.69,1.24-.24,1.89a100.28,100.28,0,0,1-40.84,16.85,96.66,96.66,0,0,1-23.27,1.19,98.22,98.22,0,0,1-62-27,98.83,98.83,0,0,1-29.46-52.52,95.08,95.08,0,0,1-1.86-26.38C27,94.1,36.55,72.8,53.76,54.93a7.4,7.4,0,0,0,.55-.57c.64-.83,1.11-.8,1.82,0Q68,68.62,80,82.77c3.48,4.12,7,8.25,10.32,12.55-2.16-1.24-4.35-2.42-6.46-3.75-1.11-.7-1.65-.59-2.33.6Q72.34,108.25,63,124.25c-.53.93-.51,1.4.49,2q5.32,3,10.57,6.12c1.05.63,1.56.49,2.17-.57,5.83-10.18,11.71-20.32,17.54-30.5.56-1,.8-1.15,1.7-.22a6.83,6.83,0,0,1,1.89,5.24c-.09,11.34,0,22.68,0,34,0,1.77,0,1.77,1.75,1.77,9.75,0,19.49,0,29.24,0a3.15,3.15,0,0,1,2.8,1.32c1.44,1.88,3,3.66,4.76,5.73-2,0-3.66.07-5.31,0-1.32-.08-1.64.44-1.64,1.69,0,10.1,0,20.2,0,30.29,0,4.87,3.48,8.56,8.06,8.6s8.22-3.62,8.24-8.54c0-6.34,0-12.67,0-19C145.28,161.64,145.13,161.14,145.44,160.7Zm-24.3,5.49c0-5.14,0-10.28,0-15.42,0-1.37-.44-1.72-1.76-1.7-4.29.07-8.59.08-12.88,0-1.37,0-1.74.42-1.73,1.74,0,10,0,20,0,30a11.2,11.2,0,0,0,.36,2.88,8.11,8.11,0,0,0,15.93-2.12C121.17,176.46,121.14,171.32,121.14,166.19ZM77.51,176.38c1.59,0,2-.21,2.71-2.36.47-1.37.94-2.75,1.42-4.13a2.29,2.29,0,0,0-.09-2c-1.73-2.82-3.44-5.66-5.22-8.46a1.93,1.93,0,0,0-2.88-.58,7.44,7.44,0,0,0-1.3.92,3.7,3.7,0,0,1-3.65.86c-1.93-.47-2.39-.15-3.41,1.64-.83,1.46-1.61,2.94-2.45,4.39a2.52,2.52,0,0,0,.11,3c1.21,1.69,2.37,3.41,3.55,5.11a2.3,2.3,0,0,0,1.84,1.15Zm-20.57-31.3c-.13,1.64.62,2.19,1.7,2.29,1.47.14,2.72.48,3.45,2a1.58,1.58,0,0,0,2,.76c1.48-.43,3-.83,4.46-1.25a1.72,1.72,0,0,0,1.32-1.48c.3-1.69.64-3.38,1-5.07a1.26,1.26,0,0,0-.28-1.25c-1.88-1.49-3.54-3.36-6-3.86-1.3-.25-2.62-.39-3.93-.55a1.57,1.57,0,0,0-1.88,1.12C58.06,140.31,57.47,142.89,56.94,145.08Z"/><path class="cls-1" d="M151.44,142.07c1.39.18,1.65-.37,1.65-1.43,0-13.24,0-26.48,0-39.73,0-7.4-6.64-14.58-14-15.08-7.65-.52-15.31-.08-23-.21-3.44-.06-6.81.16-9.92,1.82-.79.42-1-.2-1.37-.6q-5.72-6.75-11.4-13.51l-24.47-29c-1.06-1.25-1.06-1.27.34-2.21A99.91,99.91,0,0,1,108.46,26.4a98,98,0,0,1,22.74-1.2A100.09,100.09,0,0,1,220,93.51a94.52,94.52,0,0,1,4.7,23.3q3,41.74-24.07,73.63c-1.17,1.39-2.46,2.67-3.66,4-.55.62-.88.75-1.51,0Q177.5,173.1,159.5,151.78L152,142.85C151.83,142.69,151.72,142.5,151.44,142.07Zm-26.21-64a16,16,0,0,0,16.28-16.21,16.25,16.25,0,0,0-32.5.07C109.08,72,117.67,78.44,125.23,78.05ZM187,125.18c-.1-.19-.2-.43-.33-.66q-9.45-16.38-18.9-32.77c-.42-.72-.82-.9-1.58-.45q-5.55,3.26-11.15,6.44c-.73.42-.89.8-.44,1.57q9.49,16.36,18.92,32.76c.43.75.84.89,1.58.45,3.74-2.18,7.51-4.34,11.26-6.52C186.68,125.83,187,125.68,187,125.18Z"/><path class="cls-1" d="M117.49,101.94c6.36,0,12.37,0,18.39,0,.72,0,1,.22,1,1,0,7.21,0,14.42,0,22.06Z"/><path class="cls-1" d="M116.09,125.59c-2.45.39-2.57.25-2.29-2.7Z"/></g></g></svg>