<svg xmlns="http://www.w3.org/2000/svg" viewBox="0 0 250.05 249.65"><defs><style>.cls-1{fill:#0f4c42;}</style></defs><g id="Capa_2" data-name="Capa 2"><g id="Capa_1-2" data-name="Capa 1"><path class="cls-1" d="M141.34,249.4c-45.09,2.07-76-8.83-101.73-32.92C13.35,191.9,0,161.18,0,125.17-.09,56.17,53.22,6.26,111.38.69,150.6-3.07,184.72,8.54,213,36.08c21.26,20.74,33.41,46.26,36.34,75.82,3.51,35.46-6,67.26-29.17,94.4S167.09,247.61,141.34,249.4Zm99-125.21C239.7,92.53,228.26,64.66,205,42.05S153.24,8.37,120.83,9.39c-31.2,1-58.12,13-79.72,35.76C17,70.51,6.39,101,9.44,135.81c2.44,27.92,14,52.05,34.15,71.63,25.88,25.13,57.14,36.11,92.93,32.67,27.65-2.66,51.47-14.4,70.84-34.43,21.71-22.44,32.52-49.49,32.95-81.49Z"/><path class="cls-1" d="M124.65,225c-34.83-.7-62.52-15.6-82.05-44.06-21.24-31-23.27-64.37-8.08-98.58C39.18,71.84,46.24,62.73,54.33,54.5c2-2.06,3.2-2.17,5.14.14q28.77,34.13,57.7,68.11c8.64,10.2,17.19,20.47,25.85,30.65a8.64,8.64,0,0,1,2.46,5.88c0,4,2.2,6.51,6.24,6.85a5.6,5.6,0,0,1,4.05,2.41C164.88,179.39,174,190.28,183.2,201c2,2.27,1.75,3.32-.66,5C165.15,218.16,146.17,225.3,124.65,225ZM88.44,182.12c-.81-1.84-2.38-1.44-3.52-1.81-1.49-.48-3.07-1-3.2-2.8-.28-4.11-.5-8.25.47-12.33a3.68,3.68,0,0,1,2.33-2.65c15.59-6.8,16.22-7.91,14.23-24.72-.82-6.94,1.48-9.87,8.45-11,1.25-.21,2.77.47,4-1-2.14-2.39-5.52-1.93-8-3.75-7.06-5.21-12.75-3-15.2,5.47a16.74,16.74,0,0,0-.88,4c-.1,3.51-2,6.06-5,6.88-11.77,3.17-22,10.11-33.55,13.65-2.69.82-5.45,1.4-8.18,2.09,3.61,1.38,6.93,3.25,10.82,3.18a23.24,23.24,0,0,1,9.34,1.29,81.57,81.57,0,0,0,15.72,5c1,.19,2.79.33,2.16,1.75-2.09,4.69,2,9.13.3,13.72-.39,1,.12,1.61,1,1.83C82.48,181.52,85.18,182.61,88.44,182.12Z"/><path class="cls-1" d="M144.4,138.23l-22.26-26.35c5.72,0,10.41-.57,14.91.12,10.22,1.56,17.53-1.82,21.92-11.24.92-2,3.82-3.2,2.6-6-.92-2.12-7.53-5.65-9.87-5.5-1.83.11-2.62,1.55-3.29,2.81-2.55,4.8-6.21,6.74-11.75,6.09-7.1-.82-13.11,1.23-16.47,8.28-1.16,2.44-2.14.61-2.94-.34-4.91-5.78-9.75-11.61-14.66-17.39C91.17,75.25,79.82,61.76,68.22,48.49c-2.62-3-2-4.24,1-6.19,32-21.12,65.48-23.08,99.64-6.83a93.8,93.8,0,0,1,39.25,35.1c20.79,32.92,21.64,66.78,4.45,101.37-4.2,8.44-10.13,15.68-16.55,22.55-1.76,1.89-2.84,1.83-4.5-.18-10-12.06-20.09-24.1-30.33-36-2.18-2.53-1.75-5.26-2.15-8.07-1.05-7.22,1.49-12.49,7-17.22,6.06-5.17,11.33-11.26,17-16.87a7,7,0,0,0,2.3-5.47c-.11-5.37.11-10.73-1.33-16C180.84,83,173,76,161.78,72.3c-4.44-1.46-8.19.35-9.42,4.19-1.13,3.51.95,6.9,5.22,8.51,9.6,3.63,13.93,10,13.91,20.14a7.1,7.1,0,0,1-2.31,5.44c-6.67,6.58-13.26,13.24-19.86,19.89-2.08,2.1-4.8,3.84-3.8,7.82Zm64.7,22a10,10,0,0,0-1.54-6c-4.61-8.46-9.16-16.94-13.82-25.37-5.33-9.65-5.31-9.57-13.05-1.75-1.77,1.8-2,3.17-.79,5.35,3.56,6.2,6.91,12.53,10.35,18.79,2.12,3.86,4.13,7.79,6.44,11.53a6.21,6.21,0,0,0,7.51,2.87C207.28,164.75,208.92,162.5,209.1,160.26ZM136,78c8.06.17,13.65-4.89,13.83-12.52a13.31,13.31,0,1,0-26.62-.59C123.12,72.5,128.27,77.78,136,78Z"/></g></g></svg>