<svg xmlns="http://www.w3.org/2000/svg" viewBox="0 0 250 250"><defs><style>.cls-1{fill:#0f4c42;}</style></defs><g id="Capa_2" data-name="Capa 2"><g id="Capa_1-2" data-name="Capa 1"><path class="cls-1" d="M141.31,249.75c-45.08,2.07-76-8.84-101.71-33C13.35,192.17,0,161.41,0,125.35-.09,56.25,53.21,6.27,111.36.69,150.57-3.08,184.68,8.55,213,36.13c21.25,20.77,33.4,46.33,36.33,75.93,3.51,35.51-6,67.35-29.16,94.53S167.06,248,141.31,249.75Zm99-125.39c-.64-31.7-12.07-59.61-35.33-82.25S153.21,8.38,120.81,9.4c-31.2,1-58.11,13-79.71,35.81C17,70.61,6.39,101.14,9.44,136c2.44,28,14,52.12,34.14,71.73,25.88,25.17,57.13,36.16,92.91,32.72C164.14,237.79,188,226,207.32,206c21.71-22.47,32.51-49.56,32.94-81.61Z"/><path class="cls-1" d="M80.08,82.9c-3.6-1.78-7.48-2.16-11.35-2.59-2.38-.26-2.48-.09-1.74,2.18a13.59,13.59,0,0,0,8.28,8.65c3.86,1.58,7.07.14,8.53-3.83l6.62,7.88h-3q-4.06,0-8.14,0c-.67,0-1.24,0-1.24.94,0,4.84,0,9.69,0,14.54,0,.74.36,1,1.07,1,4.23,0,8.45,0,12.68,0,.92,0,1.11-.45,1.1-1.25,0-3.55,0-7.11,0-10.67V98.18c2.6,3.07,4.93,6,7.43,8.73a7.66,7.66,0,0,1,2.11,5.87c-.24,11.64-.09,23.29-.13,34.94,0,1.26.43,1.58,1.62,1.58,10.18,0,20.36,0,30.54-.05a2.83,2.83,0,0,1,2.49,1.16c1.3,1.67,2.71,3.26,4.26,5.11H132.9c-2,0-2,0-2,2,0,9.07,0,18.14,0,27.21a7.37,7.37,0,0,0,12,5.81,7.51,7.51,0,0,0,2.72-6.25V161a26.13,26.13,0,0,1,3.09,3.44q16.86,20,33.68,40c1.27,1.5,1.28,1.49-.38,2.65a99.52,99.52,0,0,1-39.92,16.45,94.17,94.17,0,0,1-22.29,1.32c-25.7-1.59-47.77-11.42-65.94-29.72a98.45,98.45,0,0,1-26.8-50A94.06,94.06,0,0,1,25.21,120c1.46-24.35,10.44-45.55,27.1-63.43.73-.78,1.51-1.51,2.22-2.3.53-.6.88-.65,1.45,0q9.45,11.31,19,22.56Zm43.79,88h0c0-4.62,0-9.25,0-13.87,0-1.27-.42-1.59-1.6-1.57-3.83.06-7.65,0-11.47,0-1.74,0-1.75,0-1.75,1.81q0,13.2,0,26.41a11.78,11.78,0,0,0,.36,3,7.32,7.32,0,0,0,14.4-1.69C123.93,180.36,123.87,175.65,123.87,170.94ZM84.94,132.47c3.29,0,6.58,0,9.87,0,1,0,1.54-.3,1.53-1.43q0-6.14,0-12.27c0-1.12-.48-1.43-1.54-1.43q-9.85.06-19.74,0c-1.13,0-1.48.45-1.47,1.5,0,4.05,0,8.09,0,12.14,0,1.18.49,1.52,1.61,1.5C78.44,132.43,81.69,132.47,84.94,132.47Z"/><path class="cls-1" d="M152.71,127.11c0-4.94,0-9.87,0-14.81a14.34,14.34,0,0,0-12.66-13.88c-5.76-.5-11.55-.13-17.32-.19a45.88,45.88,0,0,0-7.32.16A1.4,1.4,0,0,1,114,97.8q-6.78-8.07-13.58-16.11a1.77,1.77,0,0,1-.43-1.46,17.1,17.1,0,0,0-.14-3.71c-.07-.69-.43-.9-1-.6-2.17,1.17-3.34,0-4.69-1.59C85.77,64.17,77.24,54.1,68.71,44c-.67-.78-.63-1.15.23-1.73A99.73,99.73,0,0,1,108,26.51,91.9,91.9,0,0,1,125.74,25c26.93.54,50.23,10,69.52,28.94a98.06,98.06,0,0,1,27,47.72,94.22,94.22,0,0,1,2.62,18.93c1,28-8.17,52.25-27.06,72.88-1.64,1.78-1.65,1.76-3.18-.05q-20.32-24.1-40.67-48.21a5.06,5.06,0,0,1-1.29-3.58C152.76,136.8,152.71,132,152.71,127.11Zm-25.13-35.7c6.87.39,14.65-5.46,14.71-14.54a14.69,14.69,0,1,0-29.38,0A14.37,14.37,0,0,0,127.58,91.41Zm41.23,41.06c3.34,0,6.67,0,10,0,1,0,1.4-.35,1.39-1.4q-.07-6.14,0-12.26c0-1.12-.37-1.47-1.46-1.47q-9.87.06-19.73,0c-1.1,0-1.47.37-1.46,1.47,0,4.05.06,8.09,0,12.14,0,1.17.37,1.55,1.53,1.53C162.32,132.43,165.57,132.47,168.81,132.47Zm-6.7-29.09c0,2.36,0,4.71,0,7.07,0,.93.32,1.25,1.24,1.24q6.21,0,12.4,0c.92,0,1.26-.32,1.25-1.25q0-7.06,0-14.13c0-.89-.34-1.13-1.18-1.13-4.18,0-8.36,0-12.53,0-1,0-1.2.4-1.18,1.27C162.13,98.76,162.11,101.07,162.11,103.38Zm-9.77-23.1c-1.86-.06-2,0-1.61,1.35a13.71,13.71,0,0,0,9.71,9.9,5.51,5.51,0,0,0,6.12-1.84c1.41-1.6,1.39-3.06-.05-4.61a11,11,0,0,0-3-2.21C160,81,156,80.7,152.34,80.28Zm31.74-1.44c0-.48-.13-1.27-.16-2.07s-.27-1.08-1.14-.83a28.53,28.53,0,0,0-7.35,3,12.54,12.54,0,0,0-4.58,4.54,3.23,3.23,0,0,0,.23,3.83,6.19,6.19,0,0,0,8.48,1.11C182.76,86.16,184.08,83,184.08,78.84ZM170.34,78a9.11,9.11,0,0,0-.32-.87,34.2,34.2,0,0,0-3.59-5,.83.83,0,0,0-.94-.33c-2,.54-2-.08-2,2.28,0,.8,0,1.6,0,2.4,0,3.12.12,3.22,3,4.35,1,.38,1.72.58,2.41-.42C169.37,79.65,170.24,79.12,170.34,78Z"/><path class="cls-1" d="M126.85,113h10.49c.81,0,.75.57.75,1.11v12.22C134.28,121.8,130.66,117.51,126.85,113Z"/><path class="cls-1" d="M123.49,134.43h-5.61c-.59,0-.73-.38-.73-.88v-6.63Z"/></g></g></svg>