<svg xmlns="http://www.w3.org/2000/svg" viewBox="0 0 250 250"><defs><style>.cls-1{fill:#0f4c42;}</style></defs><g id="Capa_2" data-name="Capa 2"><g id="Capa_1-2" data-name="Capa 1"><path class="cls-1" d="M141.31,249.75c-45.08,2.07-76-8.84-101.71-33C13.35,192.17,0,161.41,0,125.35-.09,56.25,53.21,6.27,111.36.69,150.57-3.08,184.68,8.55,213,36.13c21.25,20.77,33.4,46.33,36.33,75.93,3.51,35.51-6,67.35-29.16,94.53S167.06,248,141.31,249.75Zm99-125.39c-.64-31.7-12.07-59.61-35.33-82.25S153.21,8.38,120.81,9.4c-31.2,1-58.11,13-79.71,35.81C17,70.61,6.39,101.14,9.44,136c2.44,28,14,52.12,34.14,71.73,25.88,25.17,57.13,36.16,92.91,32.72C164.14,237.79,188,226,207.32,206c21.71-22.47,32.51-49.56,32.94-81.61Z"/><path class="cls-1" d="M125.51,225c-26.76-.41-49.69-9.27-68.92-27.23A98.54,98.54,0,0,1,27,144.87a95.07,95.07,0,0,1-1.85-25.51A99.12,99.12,0,0,1,48.51,60.51c1.9-2.27,3.92-4.42,6-6.52.58-.58.91-.68,1.5,0q28.75,34.19,57.54,68.34,15.63,18.54,31.27,37.08a5.1,5.1,0,0,1,1.1,2,6.45,6.45,0,0,0,3.66,4.33,4.89,4.89,0,0,1,1.72,1.34q15.7,18.66,31.43,37.29c1.13,1.34,1.13,1.32-.35,2.36a99.25,99.25,0,0,1-38.27,16.32,88.72,88.72,0,0,1-16,1.72C127.07,224.85,126,225,125.51,225ZM90.56,136a10.61,10.61,0,0,1,0-1.77c.32-2.16.6-4.41,2.82-5.55A16.4,16.4,0,0,1,98.58,127a22,22,0,0,1,3.63-.16c.53,0,1.25,0,1.39-.68s-.54-.82-1-1a7.84,7.84,0,0,0-2.86-.83,6.72,6.72,0,0,1-4.17-1.84A11.75,11.75,0,0,0,91.35,120a7.86,7.86,0,0,0-4.47-.5,8,8,0,0,0-5.95,5.15A33.26,33.26,0,0,0,78.82,133c-.37,3.31-2.93,5-5.78,6.1-1.37.54-2.82.88-4.21,1.35a110.28,110.28,0,0,0-13.36,5.15c-1.49.72-2.66,2-4.14,2.64a107.1,107.1,0,0,1-14.36,5c-1.7.44-3.45.39-5.14.75-.41.09-1,.08-1,.63s.52.51.89.58c.81.17,1.62.3,2.42.46,3.61.73,7.08,2,10.91,1.76a15.77,15.77,0,0,1,7.73,1.42c2.08,1,4.27,1.7,6.44,2.46a41.06,41.06,0,0,0,9.94,2.5c1.48.14,1.71.23,1.16,1.61a10.45,10.45,0,0,0,.12,7.83,11.44,11.44,0,0,1,.43,2c.28,1.6.53,3.19-.82,4.51-.47.45-.36.85.33,1,2.7.59,5.41,1.21,8.12,1.77a2.53,2.53,0,0,0,2.44-.49c.23-.22.81-.17.69-.63s-.64-.29-1-.31a23.38,23.38,0,0,1-4.86-.8A3.06,3.06,0,0,1,73.34,177c0-2.44,0-4.87,0-7.31a17.82,17.82,0,0,1,.84-5.37,2.16,2.16,0,0,1,1.86-1.56,23.51,23.51,0,0,0,8.55-3.37c5.88-3.78,8.37-10.07,6.89-17.21C91.08,140.24,90.22,138.32,90.56,136Z"/><path class="cls-1" d="M145.6,135.52,126,112.21c.49-.42,1-.24,1.43-.24,7.48,0,15,0,22.44,0A2.3,2.3,0,0,0,152,110.9q5-7,10.13-13.91a1.42,1.42,0,0,0,0-2c-2.74-3.35-6.52-4.78-10.53-5.79-.62-.16-.84.34-1.12.7-1.79,2.41-3.61,4.79-5.35,7.23a2.43,2.43,0,0,1-2.25,1.17q-4.89-.1-9.78,0a13.24,13.24,0,0,0-11.6,6.56c-.66,1.06-1,1-1.7.11q-18.49-22-37-44Q75.59,52.43,68.43,44c-.66-.77-.59-1.13.23-1.68a99.4,99.4,0,0,1,39.53-16A84.51,84.51,0,0,1,122.56,25c41,.15,71.35,18.38,91.25,54.07A90.77,90.77,0,0,1,224,111a95.7,95.7,0,0,1,.95,17.65,99.32,99.32,0,0,1-23.34,60.46c-1.53,1.83-3.22,3.54-4.77,5.35-.66.77-1,.72-1.69,0q-14.33-17.09-28.72-34.12c-2.05-2.43-4.07-4.87-6.15-7.27a3.37,3.37,0,0,1-.9-2.46c.05-2.92.06-5.83,0-8.74a3.15,3.15,0,0,1,1.05-2.51c8-8,15.95-16,23.95-24a3.56,3.56,0,0,0,1.17-2.85c-.08-3.09,0-6.18,0-9.26A33.06,33.06,0,0,0,161,71.62a6.86,6.86,0,0,0-3.71,13.2,19.85,19.85,0,0,1,11.11,7.72,20.91,20.91,0,0,1,3.56,11,9.7,9.7,0,0,1-3.41,8.38c-7.45,7.11-14.62,14.52-21.89,21.82A2.43,2.43,0,0,0,145.6,135.52Zm64,23.66a6,6,0,0,0-.93-3.45q-9.52-17.49-19.06-35c-.56-1-1-.92-1.68-.19-2.71,2.76-5.43,5.51-8.21,8.2a1.46,1.46,0,0,0-.3,2.1c4.11,7.44,8.16,14.92,12.24,22.39,1.73,3.16,3.42,6.34,5.21,9.46a6.8,6.8,0,0,0,12.73-3.53Zm-59.5-94.44a13.18,13.18,0,0,0-13.26-13.5,13.49,13.49,0,1,0,13.26,13.5Z"/><path class="cls-1" d="M71.81,173a8.6,8.6,0,0,1,0-6.82Z"/></g></g></svg>