<svg xmlns="http://www.w3.org/2000/svg" viewBox="0 0 250.05 249.65"><defs><style>.cls-1{fill:#0f4c42;}</style></defs><g id="Capa_2" data-name="Capa 2"><g id="Capa_1-2" data-name="Capa 1"><path class="cls-1" d="M141.34,249.4c-45.09,2.07-76-8.83-101.73-32.92C13.35,191.9,0,161.18,0,125.17-.09,56.17,53.22,6.26,111.38.69,150.6-3.07,184.72,8.54,213,36.08c21.26,20.74,33.41,46.26,36.34,75.82,3.51,35.46-6,67.26-29.17,94.4S167.09,247.61,141.34,249.4Zm99-125.21C239.7,92.53,228.26,64.66,205,42.05S153.24,8.37,120.83,9.39c-31.2,1-58.12,13-79.72,35.76C17,70.51,6.39,101,9.44,135.81c2.44,27.92,14,52.05,34.15,71.63,25.88,25.13,57.14,36.11,92.93,32.67,27.65-2.66,51.47-14.4,70.84-34.43,21.71-22.44,32.52-49.49,32.95-81.49Z"/><path class="cls-1" d="M125.22,225.19C69.41,225.91,20.86,178,25.28,117.76c1.78-24.24,11.79-45,28.75-62.5,2.59-2.67,4-2.11,6.06.43C70.68,68.53,81.13,81.51,92.17,94c16.63,18.75,32.24,38.36,48.74,57.22,2.42,2.76,3.78,5.55,3.45,9.27a81.5,81.5,0,0,0,0,8.27,7.11,7.11,0,0,0,4.43,6.86,6.42,6.42,0,0,0,7.62-1.36c1.77-1.79,2.67-1.45,4.14.32,7.47,9,15,18,22.66,26.84,2.17,2.5,2.09,3.79-.68,5.69C165.26,218.94,146.29,225.36,125.22,225.19Zm-22.66-48.08c3.47-.55,4.8-3,6.18-5.72,2.34-4.61,3.14-10.34,9.22-12.37,1.59-.53,1.66-2.76.85-4.41-.89-1.81-2.56-2.81-4.43-2.18-2.65.89-4.81,0-7.11-1-4.56-2-9.18-3.77-13.71-5.76a13.09,13.09,0,0,0-7.25-.9c-4.64.63-9.28,1.32-14,1.68-3.35.27-4.82,1.46-4.67,5.1.29,6.74.09,13.5.09,20.25,0,2.62,0,5.23,0,7.85s1,5,4.21,5c3-.06,3.88-2.18,4-4.79,0-1.38,0-2.75,0-4.13,0-11.33,0-11.33,10.3-6.3.22.1.35.38.51.58-3.66,3.34-4,6-.73,7.92,4.89,2.8,10,5.25,15.08,7.69,2.1,1,4.21.55,5.32-1.63a3.87,3.87,0,0,0-1.52-5.39C104.21,178.06,103.37,177.6,102.56,177.11ZM85.46,119.6c-.33-2.53,1.35-6.1-2.43-7s-5.2,2.23-6.12,5.26a4.52,4.52,0,0,1-2.7,2.79,42.61,42.61,0,0,1-16.75,5.07c-4.61.36-6.21,3.5-4.59,7.64,1.7,4.34,5.55,5.36,9.66,5.84,1.32.15,3.21-.44,3.71,1.1,1.34,4.21,4.35,3.27,7.35,2.83,3.82-.55,7.63-1.13,11.46-1.49,3-.28,4-1.39,3.18-4.53A77.79,77.79,0,0,1,85.46,119.6Z"/><path class="cls-1" d="M127.39,118.12c6.63,0,12.23-.24,17.8.08,3.78.22,6.16-1.1,8.13-4.25,2.25-3.61,5-6.94,7.47-10.41.64-.88,1.8-1.9,1.22-2.89-2-3.32-5.65-4.11-8.89-5.5a3.5,3.5,0,0,0-4.93,1.58c-.2.36-.54.63-.75,1-2.95,5-7.32,6.34-12.87,5.73-4.9-.54-9.67.25-13.51,3.82-2,1.91-2.93-.05-3.89-1.2-6.67-8-13.89-15.58-20.33-23.84C88.05,70.93,78.33,60.36,69,49.47c-3.57-4.18-3.57-4.25,1-7.25,33.14-21.59,67.78-22.91,102.21-4.77C195.5,49.69,212.1,69.1,219.94,94.78c11.45,37.49,3.3,70.67-22.75,99.7-2.15,2.4-3.51,2.61-5.73-.08-10.09-12.22-20.39-24.26-30.59-36.39a8.87,8.87,0,0,1,.65-12.19c7.57-7.62,15.11-15.28,22.79-22.79a9.18,9.18,0,0,0,2.76-6.53c.93-12.33-2.4-23.07-10.77-32.32C171.58,79,165.49,76.7,159,75.36c-3.19-.66-6.68,2.27-7.41,5.35a7.42,7.42,0,0,0,4.82,8.94A27,27,0,0,1,168,97.26c4.11,4.67,4.41,10.19,4.15,15.92a4.34,4.34,0,0,1-1.65,2.78c-7.16,7.26-14.36,14.48-21.46,21.8-2.05,2.12-3.52,2.39-5.53-.15C138.47,131.29,133.23,125.15,127.39,118.12ZM212.58,168a19.93,19.93,0,0,0-1.21-3.48c-6.48-12-13.06-23.88-19.53-35.84-1.18-2.18-2.24-2-3.69-.37-2,2.12-3.86,4.31-6,6.23-2,1.75-2.26,3.3-.85,5.64,2.61,4.35,4.91,8.9,7.35,13.36,3.36,6.15,6.65,12.34,10.14,18.42,1.82,3.18,4.7,4.58,8.39,3.51C210.64,174.49,212.22,172,212.58,168ZM149.13,68.16a14.24,14.24,0,1,0-28.47.17A13.82,13.82,0,0,0,134.77,82C142.92,82.07,149.14,76.06,149.13,68.16Z"/></g></g></svg>