<svg xmlns="http://www.w3.org/2000/svg" viewBox="0 0 250.05 249.65"><defs><style>.cls-1{fill:#0f4c42;}</style></defs><g id="Capa_2" data-name="Capa 2"><g id="Capa_1-2" data-name="Capa 1"><path class="cls-1" d="M141.34,249.4c-45.09,2.07-76-8.83-101.73-32.92C13.35,191.9,0,161.18,0,125.17-.09,56.17,53.22,6.26,111.38.69,150.6-3.07,184.72,8.54,213,36.08c21.26,20.74,33.41,46.26,36.34,75.82,3.51,35.46-6,67.26-29.17,94.4S167.09,247.61,141.34,249.4Zm99-125.21C239.7,92.53,228.26,64.66,205,42.05S153.24,8.37,120.83,9.39c-31.2,1-58.12,13-79.72,35.76C17,70.51,6.39,101,9.44,135.81c2.44,27.92,14,52.05,34.15,71.63,25.88,25.13,57.14,36.11,92.93,32.67,27.65-2.66,51.47-14.4,70.84-34.43,21.71-22.44,32.52-49.49,32.95-81.49Z"/><path class="cls-1" d="M90.31,164.7c0-3,.11-6.08,0-9.12s.51-4,3.61-2.25a66,66,0,0,0,25,8.13,48.26,48.26,0,0,0,23.61-2.77c2.39-.93,3.76-.47,5.26,1.44,3,3.79,6.5,7.21,9.2,11.19a49.5,49.5,0,0,0,7.31,8.6c7.09,6.67,12.86,14.74,19.25,22.18,2.26,2.63.09,3.6-1.56,4.76-16.64,11.65-35.11,18-55.42,18C88.39,225,59,208.45,39,176.13,15.23,137.79,21.64,87.15,53.34,55c2.8-2.85,4.31-2.71,6.65.32,4.06,5.23,8.37,10.29,12.8,15.21,2.35,2.62,2.43,3.74-1.06,5.49-12.27,6.14-18.58,16.41-18.11,30.08.45,13.19,6.93,23,18.88,29a8.9,8.9,0,0,0,3.46,1.3c5.46.06,5.74,3.39,5.63,7.7-.24,9.8,0,19.61-.13,29.42-.06,3.4,1.08,4.55,4.52,4.57s4.6-1.4,4.37-4.69C90.16,170.51,90.31,167.6,90.31,164.7Z"/><path class="cls-1" d="M167.88,152.28a20.42,20.42,0,0,0,0-2.07c-.8-7.56,0-12.43,9.31-15.8,17.31-6.29,23.7-28.4,14.84-44.71a32.49,32.49,0,0,0-46.09-12c-15.58,9.85-19.61,31-9,46.22,4.82,6.89,11,11.63,19.34,13.09,3.1.54,2.73,2.58,2.69,4.6s.6,4.08-2.52,4.76-5.56.5-7.89-2.4c-9.17-11.41-18.6-22.6-28-33.82a9.31,9.31,0,0,1-2.24-6c-.67-15.45-10.81-27.53-25.92-30.85a9.78,9.78,0,0,1-5.83-3.48C80.53,62.48,74.46,55.13,68.17,48c-2.35-2.66-2.15-4,.85-6,29.42-18.71,60.64-22.68,93-9.57,56.86,23.07,77.58,87.78,51.56,138.64a100.76,100.76,0,0,1-17,23.41c-2.06,2.16-3.29,2.06-5.18-.22-6.62-8-13.31-15.86-20.22-23.56a11.57,11.57,0,0,1-3.33-9.31C168.07,158.38,167.88,155.32,167.88,152.28Z"/><path class="cls-1" d="M167.87,108.89c0-5.52-.13-11,0-16.56.11-3.51-1.92-3.61-4.52-3.66s-4.45.42-4.41,3.78c.13,10.76.07,21.53,0,32.3,0,4.11-.53,4.4-4.21,2.64-10-4.79-15.52-13.57-14.94-23.69a23.62,23.62,0,1,1,38.37,19.79c-2.79,2.19-6.22,5.75-9.24,4.47-2.72-1.15-.86-6-1.07-9.13S167.88,112.2,167.87,108.89Z"/><path class="cls-1" d="M115.49,151a200.81,200.81,0,0,1-21.09-1.46c-3-.37-4.53-1.47-4.12-4.7a32.83,32.83,0,0,0,0-5c0-1.68.71-2.47,2.38-2.75,8.68-1.51,15.24-6.27,19.89-13.59,1.76-2.78,2.74-2.52,4.63-.17,6.13,7.65,12.46,15.13,18.68,22.7.6.73,1.53,1.71,1.39,2.38-.27,1.33-1.79,1-2.82,1.09C128.15,150.05,121.82,150.51,115.49,151Z"/><path class="cls-1" d="M62.21,106.2c0-11.35,7.16-21,16.85-23.7,2.54-.72,7.17,2.25,7.49,4.78.16,1.23-.71,1.43-1.53,1.38-3.54-.23-3.53,2.09-3.52,4.61q.06,15.49,0,31c0,4.77-.54,5-4.89,2.79C67.68,122.45,62.64,115.3,62.21,106.2Z"/><path class="cls-1" d="M91.4,92.78l15.93,18.91c1,1.15.57,2.33,0,3.48-3,6.31-8.2,10.26-14.46,13-1.81.79-2.57,0-2.56-1.82q0-16.53,0-33Z"/></g></g></svg>