<svg xmlns="http://www.w3.org/2000/svg" viewBox="0 0 250 250"><defs><style>.cls-1{fill:#0f4c42;}</style></defs><g id="Capa_2" data-name="Capa 2"><g id="Capa_1-2" data-name="Capa 1"><path class="cls-1" d="M141.31,249.75c-45.08,2.07-76-8.84-101.71-33C13.35,192.17,0,161.41,0,125.35-.09,56.25,53.21,6.27,111.36.69,150.57-3.08,184.68,8.55,213,36.13c21.25,20.77,33.4,46.33,36.33,75.93,3.51,35.51-6,67.35-29.16,94.53S167.06,248,141.31,249.75Zm99-125.39c-.64-31.7-12.07-59.61-35.33-82.25S153.21,8.38,120.81,9.4c-31.2,1-58.11,13-79.71,35.81C17,70.61,6.39,101.14,9.44,136c2.44,28,14,52.12,34.14,71.73,25.88,25.17,57.13,36.16,92.91,32.72C164.14,237.79,188,226,207.32,206c21.71-22.47,32.51-49.56,32.94-81.61Z"/><path class="cls-1" d="M90.58,164c0-4,0-8.08,0-12.12,0-1.16.2-1.3,1.22-.68a68.23,68.23,0,0,0,25.06,9.22,49.05,49.05,0,0,0,24.9-2.07,1.91,1.91,0,0,1,2.47.82q13.2,15.72,26.45,31.41c4.05,4.8,8.08,9.62,12.15,14.4.62.73.75,1.1-.15,1.74A100.29,100.29,0,0,1,142,223.59a95,95,0,0,1-21.69,1.34c-21.94-1.18-41.56-8.56-58.57-22.51a98.94,98.94,0,0,1-34.34-55.3A96.77,96.77,0,0,1,25.14,130a99.75,99.75,0,0,1,29-75.54c.73-.74,1.13-.83,1.86,0q8.31,10,16.74,19.87c.86,1,.49,1.24-.47,1.73-9.89,5-16,13-17.83,24-2.84,16.49,8.26,32.83,24.59,36.48,3.07.68,3.07.68,3.07,3.85v35.28c0,2,0,2,2.08,2,1.66,0,3.33,0,5,0,1,0,1.42-.4,1.41-1.44C90.56,172.18,90.58,168.1,90.58,164Z"/><path class="cls-1" d="M225,125.09q-.44,39.87-27.71,69c-1.09,1.16-1.09,1.14-2.16-.14q-13.14-15.6-26.31-31.18a3.51,3.51,0,0,1-.88-2.43c0-7.27,0-14.54,0-21.82,0-1.17.44-1.53,1.48-1.71a32.26,32.26,0,1,0-11.24,0c.84.14,1.35.43,1.3,1.47-.08,2-.06,3.95,0,5.92,0,.89-.34,1.14-1.17,1.42-2.31.77-3.79.26-5.43-1.73-11.14-13.45-22.43-26.76-33.73-40.08-.92-1.08-.71-2.27-.92-3.41C115.74,86.78,107.79,78.05,94.64,74A2.86,2.86,0,0,1,93.22,73Q81,58.47,68.65,43.92c-.68-.81-.55-1.18.28-1.74a99.79,99.79,0,0,1,39.76-15.86,95.11,95.11,0,0,1,21-1.25c25,1.41,46.71,10.69,64.78,28.09A98.2,98.2,0,0,1,222.57,103,93.56,93.56,0,0,1,225,125.09Z"/><path class="cls-1" d="M168,108.7c0-6.06,0-12.12,0-18.18,0-1.2-.31-1.68-1.59-1.61a48.28,48.28,0,0,1-5.38,0c-1.29-.08-1.59.42-1.58,1.62q0,15.82,0,31.64V127c0,1.59,0,1.62-1.59,1.19a23.82,23.82,0,1,1,11.81,0c-1.71.45-1.71.45-1.71-1.29Z"/><path class="cls-1" d="M135.64,149.07c-1.43.17-2.61.36-3.8.46a200.66,200.66,0,0,1-23.64.78,121.67,121.67,0,0,1-16.15-1.6c-1-.17-1.54-.52-1.5-1.72.1-2.87.08-5.74,0-8.61,0-1.07.44-1.4,1.37-1.56a31.82,31.82,0,0,0,20.54-12.88c1-1.29.94-1.29,2,0L135,148.21C135.12,148.41,135.28,148.62,135.64,149.07Z"/><path class="cls-1" d="M84.92,88.84c-2.81.24-2.81.24-2.81,2.89v35.11c0,1.81,0,1.79-1.78,1.33a23.84,23.84,0,0,1-2-45.51,1.34,1.34,0,0,1,1.76.38C81.6,85,83.21,86.81,84.92,88.84Z"/><path class="cls-1" d="M90.84,95.88l7.51,8.89c2.75,3.26,5.46,6.54,8.26,9.75a1.89,1.89,0,0,1,.29,2.59A24.29,24.29,0,0,1,92,128.25c-.94.25-1.45.24-1.44-1,0-10.18,0-20.36,0-30.54C90.59,96.44,90.49,96.15,90.84,95.88Z"/><path class="cls-1" d="M159.35,147.75v3.44C157.05,149.2,157.19,149.16,159.35,147.75Z"/></g></g></svg>