<svg xmlns="http://www.w3.org/2000/svg" viewBox="0 0 250 250"><defs><style>.cls-1{fill:#0f4c42;}</style></defs><g id="Capa_2" data-name="Capa 2"><g id="Capa_1-2" data-name="Capa 1"><path class="cls-1" d="M141.31,249.75c-45.08,2.07-76-8.84-101.71-33C13.35,192.17,0,161.41,0,125.35-.09,56.25,53.21,6.27,111.36.69,150.57-3.08,184.68,8.55,213,36.13c21.25,20.77,33.4,46.33,36.33,75.93,3.51,35.51-6,67.35-29.16,94.53S167.06,248,141.31,249.75Zm99-125.39c-.64-31.7-12.07-59.61-35.33-82.25S153.21,8.38,120.81,9.4c-31.2,1-58.11,13-79.71,35.81C17,70.61,6.39,101.14,9.44,136c2.44,28,14,52.12,34.14,71.73,25.88,25.17,57.13,36.16,92.91,32.72C164.14,237.79,188,226,207.32,206c21.71-22.47,32.51-49.56,32.94-81.61Z"/><path class="cls-1" d="M125.91,225a100.4,100.4,0,0,1-97.14-72.39,93.45,93.45,0,0,1-3.52-19.79c-2-30.52,7.8-56.67,29-78.61.92-1,1.28-.47,1.87.24Q72,73.29,87.87,92.07a1.37,1.37,0,0,1,.09,2c-1.56,2.22-3.06,4.48-4.54,6.75a14.35,14.35,0,0,0,2.82,19c1.37,1.16,1.39,1.16,2.35-.28,3-4.59,6.13-9.16,9.15-13.77.62-1,1-.93,1.65-.07,1.13,1.45,2.31,2.87,3.55,4.22a1.29,1.29,0,0,1,.1,1.91c-3.31,4.94-6.56,9.92-9.87,14.86a1.7,1.7,0,0,0,0,2.11q13.7,23,27.35,46c2.85,4.78,9.2,5.15,12.23.72a7,7,0,0,0,.18-8q-8.52-14.53-17-29.07c-1.83-3.13-3.64-6.28-5.52-9.38a1.45,1.45,0,0,1,.05-1.87c.87-1.21,1.69-2.45,2.44-3.73.51-.86.82-.84,1.45-.08,3.58,4.3,7.2,8.57,10.81,12.85l47.27,56.09c3.55,4.21,7.08,8.44,10.65,12.63.6.7.63,1-.16,1.59a99.57,99.57,0,0,1-38.33,16.54c-3.25.66-6.53,1.12-9.82,1.47A82.32,82.32,0,0,1,125.91,225ZM71.32,163.88c4.33,0,8.66,0,13,0a2,2,0,0,0,1.89-.9Q91,155.82,96,148.7a1.6,1.6,0,0,0,0-2c-2.33-3.86-4.61-7.74-6.91-11.61-.73-1.23-.81-1.23-1.62-.06-3,4.4-6,8.79-9,13.21a2.1,2.1,0,0,1-2,1.09c-6.21,0-12.42,0-18.63,0a7.17,7.17,0,0,0-6.78,9.1c1,3.42,3.72,5.43,7.57,5.45C62.83,163.9,67.08,163.88,71.32,163.88Z"/><path class="cls-1" d="M125,25c26.62.35,49.76,9.46,69.06,27.87a98.16,98.16,0,0,1,29,53.07,94.31,94.31,0,0,1,1.72,24.1A99.07,99.07,0,0,1,198,193.24c-2.05,2.21-2,2.17-4-.1q-19.35-23-38.73-45.95-7.91-9.39-15.83-18.75c-.62-.74-.62-1.09.17-1.71q8.64-6.74,17.2-13.58a14.43,14.43,0,0,0,3-19c-.63-1-1.08-1.09-2-.34-5.21,4.19-10.5,8.3-15.72,12.49-.81.64-1.18.6-1.78-.26-3.83-5.44-7.71-10.83-11.58-16.23A8,8,0,0,0,122,86.32q-8.34,0-16.67,0a2.47,2.47,0,0,1-2.12-1Q85.82,64.67,68.38,44c-.82-1-.33-1.27.4-1.76a98.93,98.93,0,0,1,39.94-15.94A95.75,95.75,0,0,1,125,25ZM199.1,153.76a16,16,0,1,0-15.92,16A15.95,15.95,0,0,0,199.1,153.76Zm-47-81.71a14.31,14.31,0,0,0-14.2-14.32A14.34,14.34,0,0,0,138,86.41,14.27,14.27,0,0,0,152.11,72.05Z"/><path class="cls-1" d="M133.52,121.28q-5.16-6.11-10.31-12.21c-.38-.44-.54-.86,0-1.21s.65.26.84.52q4.83,6.38,9.63,12.77Z"/><path class="cls-1" d="M190,153.7a6.86,6.86,0,0,1-6.76,6.91,6.86,6.86,0,1,1-.09-13.72A6.85,6.85,0,0,1,190,153.7Z"/></g></g></svg>