<svg xmlns="http://www.w3.org/2000/svg" viewBox="0 0 250.05 249.65"><defs><style>.cls-1{fill:#0f4c42;}</style></defs><g id="Capa_2" data-name="Capa 2"><g id="Capa_1-2" data-name="Capa 1"><path class="cls-1" d="M141.34,249.4c-45.09,2.07-76-8.83-101.73-32.92C13.35,191.9,0,161.18,0,125.17-.09,56.17,53.22,6.26,111.38.69,150.6-3.07,184.72,8.54,213,36.08c21.26,20.74,33.41,46.26,36.34,75.82,3.51,35.46-6,67.26-29.17,94.4S167.09,247.61,141.34,249.4Zm99-125.21C239.7,92.53,228.26,64.66,205,42.05S153.24,8.37,120.83,9.39c-31.2,1-58.12,13-79.72,35.76C17,70.51,6.39,101,9.44,135.81c2.44,27.92,14,52.05,34.15,71.63,25.88,25.13,57.14,36.11,92.93,32.67,27.65-2.66,51.47-14.4,70.84-34.43,21.71-22.44,32.52-49.49,32.95-81.49Z"/><path class="cls-1" d="M124.37,225.15c-54.26-1.21-99.63-42-99.74-100.36a100,100,0,1,1,200,.94C224,184,178.32,224.27,124.37,225.15ZM113.26,111.44c0,5.75.14,10.66-.06,15.55-.12,3.13.64,5.39,3.44,7.2,5.13,3.31,9.86,7.23,15.06,10.42s7.77,7.18,6.67,13.4a34,34,0,0,0-.05,6.54c.09,5,2.37,7.67,6.51,7.7s6.61-2.69,6.68-7.58c.08-6-.1-12,.08-18a5.86,5.86,0,0,0-3-5.77c-6.56-3.89-12.39-8.81-18.63-13.16-2.7-1.88-3.89-4-3.43-7.16.14-.91-.4-2.14.53-2.66,1.19-.67,2,.61,2.74,1.23q5.91,4.71,11.7,9.57c2.14,1.8,3.29,1.05,4.23-1.23a13.67,13.67,0,0,0-4.09-15.9c-4-3.15-8-6.24-12.07-9.17-2.22-1.57-3.4-3.37-3.07-6.14.38-3.14-1.31-5.27-3.92-6.55s-4.9-.74-7.24,1c-7.43,5.63-13.27,12.91-20,19.23a3.71,3.71,0,0,0-1.09,3c0,3.14-.13,6.29.1,9.41.43,5.72,3.35,9.66,8.85,11.61,2.8,1,4.47.7,4.29-2.88-.17-3.4.24-6.85-.1-10.23C106.9,116.51,109.18,114.09,113.26,111.44Zm6.44-28.78a12.85,12.85,0,1,0-12.57-13A12.72,12.72,0,0,0,119.7,82.66ZM97.8,172c2.74,0,4.55-1.52,6.08-3.57q8.06-10.78,16.11-21.58c.54-.73,1.37-1.39,1-2.5s-8.52-6.91-9.53-6.72a3,3,0,0,0-1.71.91c-5.9,7.65-12,15.15-17.53,23.09C89.18,166.09,92.68,172,97.8,172Zm26.34,10.51c13.51,0,27,0,40.54,0,1.44,0,4,.89,4-1.33s-2.61-1.24-4-1.24q-40.53-.1-81.08,0c-1,0-1.91,0-2.86.1-.73.05-1.36.39-1.34,1.21a1.28,1.28,0,0,0,1.36,1.23q1.64.12,3.27.12Z"/></g></g></svg>