<svg xmlns="http://www.w3.org/2000/svg" viewBox="0 0 250 250"><defs><style>.cls-1{fill:#0f4c42;}</style></defs><g id="Capa_2" data-name="Capa 2"><g id="Capa_1-2" data-name="Capa 1"><path class="cls-1" d="M141.31,249.75c-45.08,2.07-76-8.84-101.71-33C13.35,192.17,0,161.41,0,125.35-.09,56.25,53.21,6.27,111.36.69,150.57-3.08,184.68,8.55,213,36.13c21.25,20.77,33.4,46.33,36.33,75.93,3.51,35.51-6,67.35-29.16,94.53S167.06,248,141.31,249.75Zm99-125.39c-.64-31.7-12.07-59.61-35.33-82.25S153.21,8.38,120.81,9.4c-31.2,1-58.11,13-79.71,35.81C17,70.61,6.39,101.14,9.44,136c2.44,28,14,52.12,34.14,71.73,25.88,25.17,57.13,36.16,92.91,32.72C164.14,237.79,188,226,207.32,206c21.71-22.47,32.51-49.56,32.94-81.61Z"/><path class="cls-1" d="M97.34,103.51H95.72q-13.08,0-26.14,0c-1.56,0-1.6,0-1,1.43,1.82,4,3.69,7.93,5.45,11.93a2.07,2.07,0,0,0,2.23,1.38c10.7,0,21.41,0,32.11,0a2.85,2.85,0,0,1,2.48,1.15c2.32,2.84,4.71,5.63,7.09,8.43a1.47,1.47,0,0,1,.39,1.75c-1.77,4.14-3.49,8.31-5.18,12.48a1.59,1.59,0,0,1-1.54,1.1c-2.66.36-4.07-.47-5.32-3.14a23.52,23.52,0,0,0-23.61-13.35,24,24,0,1,0,24.61,32.47,1.69,1.69,0,0,1,1.92-1.29c4,.06,8,0,11.94.05a1.72,1.72,0,0,0,1.88-1.25c1.9-4.7,3.88-9.38,5.79-14.08.35-.87.53-1.22,1.3-.29,3.64,4.38,7.34,8.73,11,13.09a5.21,5.21,0,0,1,1,1.85,23.78,23.78,0,0,0,12.49,14.89,5.71,5.71,0,0,1,1.86,1.44Q169.74,189.25,183,205c.71.84.5,1.15-.27,1.7a100.43,100.43,0,0,1-40.11,16.8,100,100,0,0,1-78.35-19.16,98.85,98.85,0,0,1-37.31-60,93.74,93.74,0,0,1-1.74-24.77c1.58-25.21,11.27-46.88,28.91-65,.89-.91,1.31-1,2.18.06q20.13,24,40.33,47.9C96.86,102.76,97,103.05,97.34,103.51Z"/><path class="cls-1" d="M129.43,103.51c-3.1,0-6.19-.05-9.29,0a2.59,2.59,0,0,1-2.25-1.07Q102.67,84.34,87.38,66.23,78,55.11,68.65,44c-.64-.75-.69-1.1.18-1.69A100.09,100.09,0,0,1,108.46,26.4a99.6,99.6,0,0,1,75.3,17.75c20.82,15.35,34,35.73,39.28,61.1a92.38,92.38,0,0,1,1.9,17.07c.55,27.32-8.61,50.94-27,71.06-1.78,1.94-1.79,1.94-3.49-.08-5.7-6.76-11.38-13.55-17.12-20.27-.88-1-.72-1.39.37-2.09,7.69-4.92,11.74-12.05,11.4-21.13-.38-10-5.52-17.2-14.71-21.34a3.5,3.5,0,0,1-2-2.06q-4.35-10.68-8.84-21.29c-.46-1.1-.38-1.48.87-1.7a7.21,7.21,0,0,0,5.93-7.89,7.41,7.41,0,0,0-7.26-6.6c-1.6,0-3.2-.09-4.78,0-1.15.08-1.62-.4-2-1.4-1.43-3.61-3-7.17-4.41-10.78a1.81,1.81,0,0,0-2-1.35q-8.29.06-16.59,0a1.85,1.85,0,0,0-2,1.17c-2,4.06-4,8.07-6,12.1-.72,1.44-.69,1.46,1,1.46,4.64,0,9.29,0,13.93,0A1.62,1.62,0,0,1,142,91.32q7.3,17.78,14.68,35.5c.34.81.34,1.21-.59,1.57a22.54,22.54,0,0,0-9.24,6.72c-.59.72-.9.69-1.47,0q-4.14-5-8.37-9.94a1.42,1.42,0,0,1-.3-1.76c.64-1.36,1.22-2.75,1.73-4.16a1.39,1.39,0,0,1,1.59-1c1.68,0,3.36,0,5,0,.89,0,1.08-.36.75-1.15-1.77-4.24-3.54-8.48-5.27-12.73a1.31,1.31,0,0,0-1.45-.85C135.89,103.52,132.66,103.51,129.43,103.51Z"/><path class="cls-1" d="M84.94,159.8a9.25,9.25,0,0,1-9.32-9.33,9.32,9.32,0,0,1,18.63.13A9.27,9.27,0,0,1,84.94,159.8Z"/><path class="cls-1" d="M174.44,150.52a9.29,9.29,0,0,1-7.37,9.14,1.18,1.18,0,0,1-1.36-.47c-3-3.52-5.91-7.05-8.89-10.54a1.38,1.38,0,0,1-.25-1.66,9.28,9.28,0,0,1,17.87,3.53Z"/></g></g></svg>