<?xml version="1.0" encoding="utf-8"?>
<!-- Generator: Adobe Illustrator 25.2.3, SVG Export Plug-In . SVG Version: 6.00 Build 0)  -->
<svg version="1.1" id="Capa_1" xmlns="http://www.w3.org/2000/svg" xmlns:xlink="http://www.w3.org/1999/xlink" x="0px" y="0px"
	 viewBox="0 0 1366 768.3" style="enable-background:new 0 0 1366 768.3;" xml:space="preserve">
<style type="text/css">
	.st0{fill:#185145;}
	.st1{fill:#3AA750;}
	.st2{fill:#2DA946;}
	.st3{fill:none;}
	.st4{enable-background:new    ;}
</style>
<g>
	<path class="st0" d="M181.3,583.7c-0.6-1.3-2.9-1.7-2.4-3.2s2.1,0.2,3.2-0.2c10.2,5.5,20.6,3.1,30.9,0.4c8.9-2.3,17.1-6.2,26-10.9
		C232.1,583.7,200.9,590.6,181.3,583.7z"/>
	<path class="st0" d="M245,558.8c-5.4-2.2-7.8-7.2-10.6-11.7c-6.6-10.4-9-22.3-10.8-34.2c-3.6-23.1-2.2-45.8,6.1-67.9
		c0.9-2.8,2.5-5.3,4.5-7.5c-1.2,4.9-2.4,9.7-3.7,14.5c-5.9,22.9-5.5,45.7-1.4,68.9C231.6,534.9,237.2,547.2,245,558.8L245,558.8z"/>
	<path class="st0" d="M307.3,525.5c-5.8,2.9-10.9,1.5-15.9,0c-11.7-3.4-22.3-9.5-31-18c-8-7.8-16.2-15.3-23.1-24.2
		c-0.6-0.8-1.6-1.5-1.5-2.8c1.5-1.1,2.3,0.4,3,1.2c8.5,8.3,17.4,16.2,26.2,24.1C277.1,516.4,290.6,523.5,307.3,525.5z"/>
	<path class="st0" d="M222.8,425c-22.3,18.2-28.5,45.2-38.1,71.9C185.1,474.3,201.3,431.7,222.8,425z"/>
	<path class="st0" d="M191.5,392.9c6.6,0.8,11.6,4.4,15.8,9.4c1.1,1.3,0.4,2.3-0.5,3.3c-3.9,4.2-7.8,8.5-11.7,12.7
		c-1.6,1.8-3.1,1.7-5.2,0.4c-3.5-2.3-6.4-5.3-8.5-8.9c-2.2-3.2-2.3-7.4-0.2-10.8C183.4,395.4,187.3,393,191.5,392.9z M184.3,402.6
		c-0.1,6.5,2.8,10.2,6.3,12.3c3,1.8,3.7-3.4,6.1-4.7c0.4-0.3,0.8-0.7,1.1-1.1c6.9-7,6.5-8.2-3.2-11.1c-1-0.4-2.1-0.6-3.1-0.7
		C187.3,397.2,184.4,400.1,184.3,402.6z"/>
	<path class="st0" d="M255.9,477.5c6.1,11.9,16.3,19.4,27.5,25.9c1.4,0.8,3.2,0.7,4.2,2.9c-6.5-0.3-11.6-3.2-16.7-6.4
		c-2.6-1.6-5-3.4-7.5-5.2l0.1,0.1c-0.2-1-1-1-1.8-1.1c-2.3-4.5-6.4-7.5-9.4-11.5c-4.6-6.4-8.3-13.3-11-20.8
		c-0.7-1.2-0.7-2.7-0.1-3.9c3.1,2.4,3.2,6.7,6,9.1c0,1.4,0.8,2.7,2.1,3.3l0,0C251.3,472.6,251.9,476.5,255.9,477.5z"/>
	<path class="st0" d="M238.6,500.2c7.3,2.8,12,9.1,17.5,14.1c11.9,10.8,24.1,21.1,38.9,27.8c0.4,0.2,0.8,0.7,1.6,1.5
		c-7.3-0.2-13.1-3.1-18.6-6.3c-15.5-9.1-27-22.6-39-35.4C238.7,501.4,238.7,500.7,238.6,500.2L238.6,500.2z"/>
	<path class="st0" d="M194.2,438.5c-1.6,4.9-6.2,7.2-9.1,11.2c-6.3,8.7-10.4,18.5-15.8,27.7c-1.8,3.3-4,6.4-6.6,9.2
		c0.8-6.3,3.5-10.6,5.5-15.1c4.9-11.3,10-22.4,20.2-30.1C190.2,440,191.8,438.6,194.2,438.5L194.2,438.5z"/>
	<path class="st0" d="M277.4,564.8c-16.9-2.2-25.6-14.9-34.1-27.8C255.6,545.1,263.6,558.5,277.4,564.8z"/>
	<path class="st0" d="M153.9,466.6c-2.7-11.7,11.1-32.1,22.6-33.6c-5.6,4.1-9.5,9.6-13,15.2S157.3,460,153.9,466.6z"/>
	<path class="st1" d="M255.9,477.5c-4-1-4.6-4.9-6.5-7.6c2,0.1,3.3-0.6,3.5-2.8C254.3,470.4,256,473.7,255.9,477.5z"/>
	<path class="st1" d="M249.4,469.9c-1.3-0.6-2.1-1.9-2.1-3.3C249.4,466.8,249.4,468.3,249.4,469.9z"/>
	<path class="st1" d="M251.7,463c1.1,1,1.1,2.3,1,3.6C251.3,465.7,251.6,464.3,251.7,463z"/>
	<path class="st1" d="M250.8,459.4c0.8,0.7,1.1,1.9,0.8,2.9C250.7,461.6,250.4,460.4,250.8,459.4z"/>
	<path class="st0" d="M245.1,558.7l0.4,0.3L245.1,558.7L245.1,558.7z"/>
	<path class="st0" d="M238.6,500.2l-0.4-0.3L238.6,500.2L238.6,500.2z"/>
	<path class="st0" d="M194.1,438.4l0.3-0.4L194.1,438.4L194.1,438.4z"/>
	<path class="st2" d="M369.7,183.8c-4.7,17.3-12.2,33.6-17.1,50.8c-10.4-1.3-20.1-4.9-29.6-9.1c7.2,9.2,17.3,12,28.4,12.6
		c-4,15.1-2.8,30.9-6.5,45.9c-6,24.1-7.9,49.1-15.3,72.8c-4.6,14.7-11.6,28.6-17.5,42.9c-5-0.2-6.8-4.7-9-7.9
		c-1.5-2.1,2.1-3.7,3.5-5.4c11.1-13.2,16.6-28.8,19.5-45.5c-4.3,4.7-5.6,10.9-8,16.5c-4.1,9.8-9.2,19.1-15.3,27.9
		c-2.1,2.9-3.4,4-6.6,1.1c-3.8-3.6-8-6.8-12.5-9.4c-11.3-6.3-18-16.9-25.3-26.8c-10.7-14.7-25.4-23.7-42.2-29.6
		c-5.3-1.9-7.6-9.4-3.7-13.4c2-2.1,2.3-4,1.6-6.8c-11.9-43.6-23.6-87.2-35.3-130.9c-6-22.3-12-44.5-17.5-66.9
		c-2.2-9.1-0.2-17.9,7-24.2c6.5-5.7,14.6-7.8,23.2-5c6.2,2.1,10.1,6.9,12.2,12.9c5.7,15.4,10.6,31.1,14.5,47
		c5.1,21.4,12.9,42,18.5,63.2c4.1,15.5,5.6,31.6,10.6,46.8c3,9.2,6.4,18.4,9.9,27.4c2.9,7.5,9.1,11,16.8,11.7
		c8.3,0.7,15.6-1,20.8-8.7c6.3-9.5,8.9-20.4,13-30.8c10-25.1,19.5-50.4,29-75.7c5.8-15.4,8.9-31.5,13.4-47.3c1.4-5.1,3.1-10,6.8-14
		c7.8-8.3,19.4-8,26.9,0.7c1.6,25.3-4.8,49.2-13.1,72.8c-9.2-1.8-17.2-7.5-26.6-9.6c-0.1,1.2,0.4,2.4,1.5,3
		C352.6,178.6,361.3,180.8,369.7,183.8z M299.9,283c12.9,7.3,24.9,16.2,37.8,23.5C327.7,294.4,315.6,285.8,299.9,283z M255.4,281.7
		l-0.5-1.8l-34.2,9.4l0.5,1.7C233.6,291.6,244.8,287.8,255.4,281.7L255.4,281.7z M199.8,220.1c7.7,6.2,28.7,0.9,33.5-8
		c-5.6,1.8-10.9,3.7-16.4,5.4S205.8,219.2,199.8,220.1L199.8,220.1z M186.2,155.5l0.5,1.3c7.6-1.6,15.3-3.2,22.9-5
		c0.7-0.2,1.2-0.8,1.3-1.4c0.1-0.7-0.6-1.2-1.4-1.2C200.9,148.5,192.9,149.6,186.2,155.5L186.2,155.5z"/>
	<path class="st2" d="M243,400.4c-5.7,1.8-11.1,4.6-17.3,4.6c-1.5-1.3-3.1-2.5-4.4-4c-8.6-9.2-17.4-18.1-27.5-25.7
		c-15.5-11.7-15.8-29.9-7.8-41.2c6.1-8.5,17-13.2,27.1-10.1c19,5.7,34.7,16.5,46,33.2c0.1,0.3,0.2,0.7,0.2,1l-0.1,0.1
		c-4.7-1.9-7.6-6.3-11.9-8.8l-1.1-0.8l-0.3,0.4l1.3,0.4c1.2,6.2,6.7,8.8,10.6,12.7c1.6,1.6,3.7,2.8,4.8,4.9c-0.1,1.7,0.2,3.6-1.1,5
		c-2.2,1.6-2.8,4.1-3.5,6.5C255.5,387.3,250.2,395,243,400.4z M211.6,375.6c9.5-1.3,15.2-7.1,19.8-14.3c3.5-5.4,3.5-10.8-0.1-16.2
		c-4.2-6.4-10.1-11.2-15.9-16.1c-1.7-1.7-4.2-2.1-6.3-1c-11.8,5-18.8,13.7-20.3,26.5c-0.3,2.6-1.2,5.9,0.7,7.9
		C195.6,368.7,203.2,373.3,211.6,375.6z"/>
	<path class="st2" d="M165.9,306.5c7.2-10.6,21.6-12.2,32.2-3.4c4.1,3.4,7.5,7.3,9.4,12.4c0.6,1.7,1.2,3.6-1.4,3.5
		c-10-0.6-16.8,5.4-23.8,11C174.9,323.7,169.3,315.6,165.9,306.5z"/>
	<path class="st2" d="M259.2,358.1l0.4,0.5L259.2,358.1L259.2,358.1z"/>
	<path class="st0" d="M250.1,448c15,14.6,30,29,51.4,34.5C289.5,487.5,262.9,469.8,250.1,448z"/>
	<path class="st0" d="M247.9,414.2c11.9-7.8,18.9-18,25.3-29.9C274.4,396.7,260.7,413.2,247.9,414.2z"/>
	<path class="st0" d="M351.3,238c-11.1-0.6-21.1-3.4-28.4-12.6c9.5,4.2,19.2,7.8,29.6,9.1c1.7,0.5,3.6,0.2,5.2,2.1L351.3,238z"/>
	<path class="st0" d="M369.7,183.8c-8.4-2.9-17.1-5.1-24.1-11.1c-1-0.6-1.6-1.8-1.5-3c9.4,2.1,17.3,7.9,26.6,9.6l5.8,3.6
		C374.1,184.5,371.8,183.1,369.7,183.8z"/>
	<path class="st0" d="M243,400.4c7.3-5.4,12.6-13,15.1-21.8c0.7-2.4,1.4-4.9,3.5-6.5c0.5,10.5-2.5,19.5-11,26.2
		C247.3,401,245.8,401.3,243,400.4z"/>
	<path class="st0" d="M264.7,451.3c-1.2,0.7-1.8-0.1-2.2-1l-0.1,0.1c1.4-1.1,1.9-0.1,2.3,1L264.7,451.3z"/>
	<path class="st0" d="M262.4,450.3l-1.1-1c0.2-0.2,0.5-0.5,0.7-0.8c0.4,0.6,1.5,1,0.4,1.9L262.4,450.3z"/>
	<path class="st0" d="M264.6,451.4l0.8,0.7c-0.1,0.1-0.3,0.2-0.4,0.2c-0.5-0.2-0.6-0.5-0.3-1L264.6,451.4z"/>
	<path class="st0" d="M261.3,449.3l-1.1-1.1c0.2-0.2,0.5-0.5,0.8-0.7l1,1C261.8,448.8,261.6,449.1,261.3,449.3z"/>
	<path class="st2" d="M184.3,402.6c0-2.5,3-5.4,7.2-5.4c1.1,0.1,2.1,0.3,3.1,0.7c9.7,2.9,10,4.1,3.2,11.1c-0.3,0.4-0.7,0.8-1.1,1.1
		c-2.4,1.3-3.2,6.5-6.1,4.7C187.1,412.9,184.2,409.1,184.3,402.6z"/>
	<path class="st0" d="M299.9,283c15.7,2.8,27.8,11.5,37.8,23.5C324.8,299.2,312.8,290.3,299.9,283z"/>
	<path class="st0" d="M255.4,281.7c-10.6,6.1-21.8,9.9-34.3,9.2l-0.5-1.7l34.2-9.4L255.4,281.7z"/>
	<path class="st0" d="M199.8,220.1c6-0.9,11.7-0.9,17.1-2.6s10.8-3.6,16.4-5.4C228.5,221,207.5,226.3,199.8,220.1z"/>
	<path class="st0" d="M186.2,155.4c6.7-5.9,14.7-7,23.3-6.3c0.8,0.1,1.5,0.5,1.4,1.2c-0.2,0.7-0.7,1.2-1.3,1.4
		c-7.6,1.7-15.3,3.3-22.9,5L186.2,155.4z"/>
	<path class="st0" d="M211.6,375.6c-8.4-2.3-16.1-6.9-22.1-13.2c-1.9-2-1-5.3-0.7-7.9c1.6-12.8,8.5-21.5,20.3-26.5
		c2.1-1.1,4.7-0.7,6.3,1c5.8,4.9,11.6,9.7,15.9,16.1c3.6,5.4,3.6,10.8,0.1,16.2C226.8,368.5,221.1,374.3,211.6,375.6z M229.9,353.1
		c0.1-3.8-2.9-9-8-14.3c-9.9-10.1-13.2-10-22.7,0.9c-0.1,0.1-0.3,0.3-0.4,0.4c-10.2,12.1-8.2,22.8,5.3,28.9c0.3,0.1,0.7,0.2,1,0.3
		C215.7,373.7,229.6,364.5,229.9,353.1z"/>
	<path class="st0" d="M247.2,349.6l-1.3-0.4l0.3-0.4L247.2,349.6L247.2,349.6z"/>
	<path class="st2" d="M229.9,353.1c-0.3,11.5-14.3,20.6-24.8,16.2c-0.3-0.1-0.7-0.2-1-0.3c-13.5-6.1-15.5-16.8-5.3-28.9
		c0.1-0.1,0.2-0.3,0.4-0.4c9.5-10.8,12.8-11,22.7-0.9C227.1,344,230,349.3,229.9,353.1z"/>
	<path class="st2" d="M293.5,508.3c-10.7,2.3-20.3-0.8-27.9-9c-1.1-1.2-2.7-2.5-2.2-4.5c-0.9,0.1-1.1-0.8-1.6-1.2
		c-2.3-4.5-6.4-7.5-9.4-11.5c-4.6-6.4-8.3-13.3-11-20.8c-0.7-1.2-0.7-2.7-0.1-3.9c3.1,2.4,3.2,6.7,6,9.1c2.1,0.2,2.1,1.7,2.1,3.3
		c2,0.1,3.3-0.6,3.5-2.8l0.1-0.3l-0.2-0.2c-1.4-0.9-1.2-2.3-1-3.6c0.2-0.2,0.1-0.6-0.2-0.7c0,0,0,0,0,0c-0.9-0.7-1.2-1.9-0.8-2.9
		c-2.5-6.3-2-13.2-4.5-19.6c-1-2.5-2.9-5-2.2-8.1c-7.3-10.8-17.1-19.3-27-29.7c0,3.5,0,5.5,0,7.6c0.2,8.4-2.6,15.3-10.1,19.6
		c-8.1,4.7-16.1,2.3-22.7-2.8c-4.9-3.9-8.5-4.5-13.9-1.2c-6.7,4.1-14.4,6-22.2,5.6c-1.8-0.1-3.6,0-5.9-2.4c11.8-1,22.3-3.9,32-10.1
		c-3-3.8-7.4-4.8-11.2-6.8c-10.4-5.5-18.5-13-22.1-24.7c-1.1-3.5-1.3-7.1-0.6-10.7c4.3,14,11.1,24.5,24.4,31.2c-3.4-8-6.8-15-5.8-23
		c2.3,5,3,10.7,5.9,15.5c6.5,11,14.8,20,26.3,25.6c10.4,5,20.6-1.5,21.6-13.1c1-11.3-2.9-20-12.2-26.5
		c-14.3-9.9-24.7-23.4-34.5-37.5c-2.4-3.5-8.3-4.6-13.7-2.2c-9.7,4.4-13.9,12.7-15.5,22.6c-1.7,10.2-1.3,20.4-0.2,30.7
		c0.8,7.9,0.5,15.8,1.1,23.7c2.1,25.5,4.5,50.9,13.3,75.2c1.3,3.1,2.7,6.1,4.3,9c5.5,6.3,10.3,13.2,14.5,20.4
		c6.8,11.6,16.4,20.9,24.9,31.1c5.3,2.5,11.4-0.5,17.5,2.5c-8,2.9-15.5,1.4-23,1.7c-4.2,5-6.2,11-7,17.3c10.2,5.5,20.6,3.1,30.9,0.4
		c8.9-2.3,17.1-6.2,26-10.9c-7,13.8-38.2,20.8-57.8,13.8c-6.9,18.5-13.5,37.2-21.8,55.2c-8.5,18.4-11,38.7-17.1,57.9
		c-7.2,22.5-14.1,45-21.1,67.5c-0.6,1.9-1.4,3-2.9,3.4c0,0.2,0,0.4,0,0.6c6.9,0.2,136,0.3,142.9-0.2c0-0.2-2-5.3-2-5.5
		c8.3-29.3,16.5-58.6,24.6-87.9c9.5-34,19.1-67.9,28.3-102c3.8-14.2,10.1-27.3,14.6-41.2c3.2-9.7,6.5-19.4,6.5-29.8
		C320.2,504.3,306.7,505.4,293.5,508.3z"/>
	<path class="st2" d="M194.1,438.4c-2.3,0.2-3.9,1.6-5.7,2.9c-10.2,7.7-15.4,18.9-20.2,30.1c-1.9,4.5-4.6,8.8-5.5,15.1
		c2.6-2.8,4.8-5.9,6.6-9.2c5.4-9.2,9.5-19,15.8-27.7C187.9,445.7,192.6,443.3,194.1,438.4l0.3-0.4L194.1,438.4z"/>
	<path class="st2" d="M238.6,500.2l-0.5-0.2L238.6,500.2c0.1,0.5,0.1,1.2,0.4,1.6c12.1,12.8,23.6,26.3,39,35.4
		c5.5,3.2,11.3,6.1,18.6,6.3c-0.9-0.8-1.2-1.2-1.6-1.5c-14.8-6.7-27-16.9-38.9-27.8C250.6,509.2,245.9,503,238.6,500.2z"/>
	<path class="st2" d="M245,558.8l0.5,0.2L245,558.8c-7.8-11.6-13.4-23.9-15.9-37.9c-4.1-23.1-4.5-46,1.4-68.9
		c1.3-4.8,2.5-9.7,3.7-14.5c-2,2.1-3.6,4.7-4.5,7.5c-8.4,22-9.7,44.8-6.1,67.9c1.8,11.9,4.3,23.8,10.8,34.2
		C237.2,551.5,239.6,556.6,245,558.8z"/>
	<path class="st2" d="M307.3,525.5c-16.6-1.9-30.2-9.1-42.2-19.8c-8.9-7.9-17.8-15.8-26.2-24.1c-0.8-0.8-1.5-2.2-3-1.2
		c-0.1,1.3,0.9,2,1.5,2.8c6.9,8.9,15.1,16.4,23.1,24.2c8.7,8.5,19.3,14.6,31,18C296.3,526.9,301.4,528.4,307.3,525.5z"/>
	<path class="st2" d="M222.8,425c-21.5,6.6-37.7,49.2-38.1,71.9C194.4,470.2,200.5,443.3,222.8,425z"/>
	<path class="st0" d="M191.5,395.1c5.3,0.7,9.9,3.5,14.2,8.6c-0.1,0.1-0.2,0.2-0.4,0.4l-2.2,2.3c-3.1,3.4-6.4,6.9-9.5,10.4
		c-0.2,0.2-0.6,0.6-0.9,0.6c-0.5-0.1-1-0.3-1.5-0.6c-3.2-2.1-5.9-4.9-7.8-8.2c-1.7-2.6-1.8-5.9-0.2-8.5
		C184.9,397.1,188,395.2,191.5,395.1 M191.5,392.9c-4.2,0.1-8.1,2.4-10.2,6.1c-2,3.3-1.9,7.5,0.2,10.8c2.1,3.6,5,6.6,8.5,8.9
		c0.8,0.6,1.7,0.9,2.6,1c1-0.1,1.9-0.6,2.5-1.4c3.9-4.3,7.8-8.5,11.7-12.7c0.9-1,1.6-2,0.5-3.3C203.1,397.4,198.1,393.8,191.5,392.9
		L191.5,392.9z"/>
	<path class="st2" d="M277.4,564.8c-13.9-6.3-21.8-19.8-34.1-27.8C251.9,549.9,260.6,562.6,277.4,564.8z"/>
	<path class="st2" d="M153.9,466.6c3.4-6.6,6-12.7,9.6-18.3s7.5-11.2,13-15.2C165,434.5,151.3,454.9,153.9,466.6z"/>
	<rect x="55.3" y="46" class="st3" width="364.2" height="720.9"/>
	<path class="st0" d="M101.7,767.8c17.2-52.3,34.5-104.6,51.7-156.9c5.3-16.1,9.8-32.4,13.5-48.9c0.7-2.9,0.4-6.1-1.1-8.7
		c-13.7-27.1-25.1-55.1-30.6-85c-4.4-24.1-6-48.6-6.4-73.2c-0.2-10.8-0.8-21.6,2.2-32.2c3.4-12.1,10.4-20.9,23.4-23.5
		c3.1-0.6,2.6-1.9,1.8-4c-2.7-7-3.3-14.5-1.8-21.8c4.3-19.6,23.3-28.8,41.4-20c3.5,1.7,6.7,4.2,10,6.3c0.2,0.4,0.3,1.1,0.9,0.6
		c0.2-0.1-0.1-0.9-0.1-1.4c-9.7-36-19.5-71.9-29.2-107.9c-7.7-28.5-15.9-56.9-22.7-85.6c-6.2-26.5,11.2-43.2,35.1-40.2
		c9.5,1.1,15.5,7.1,19.5,15.3c3.9,8,6.2,16.5,8.6,25c5.9,20.2,10.3,41,17.5,60.7c8.2,22.4,11.4,45.7,17.2,68.6
		c2.8,10.7,6.9,20.9,10.8,31.1c2,5.4,5.8,8.4,11.7,8.7c6.3,0.4,11.4-1.3,14.4-7.2c5-9.6,8.1-20,12-30.1c11.2-29.2,23.6-58,32.8-88
		c3.8-12.2,6.3-24.8,10.3-36.9c4.7-14.3,13.7-20.5,27.2-20c9.1,0.3,15.6,4.9,20.6,12.2c8.6,12.4,9.2,26.2,7,40.5
		c-3.2,20.9-9,41.1-16.5,60.9c-13.6,35.9-23.2,73.2-28.7,111.2c-2.1,14.6-6.6,28.8-8.5,43.5c-2.3,17-1.8,34.2-2.3,51.3
		c-0.8,26.5-1.2,53-2.1,79.5c-0.4,15.9-3.8,31.6-10.1,46.3c-10.4,24.3-16.5,49.8-23.9,75c-14.5,50.3-28.9,100.7-43.2,151
		c-0.4,1.2-0.5,2.5-0.8,3.7c-4.8,1-5.4-1-4.2-5.2c8.3-29.3,16.5-58.6,24.6-87.9c9.5-34,19.1-67.9,28.3-102
		c3.8-14.2,10.1-27.3,14.6-41.2c3.2-9.7,6.5-19.4,6.5-29.8c1.4-2.6,1.4-5.5,1.5-8.4c0.7-30,1.4-59.9,2.2-89.8
		c0.4-15.1-0.3-30.4,2.3-45.4c2.3-13.1,5.7-26.1,7.6-39.2c6.3-42.8,17.3-84.8,32.9-125.1c6.9-18.1,11.3-36.9,13.2-56.1
		c1.2-11.4-0.5-22.3-9.1-30.9c-7.5-8.7-19.1-9.1-26.9-0.7c-3.7,3.9-5.4,8.9-6.8,14c-4.5,15.8-7.6,31.9-13.4,47.3
		c-9.5,25.3-19,50.6-29,75.7c-4.1,10.3-6.7,21.3-13,30.8c-5.1,7.6-12.5,9.4-20.8,8.7c-7.7-0.7-13.9-4.2-16.8-11.7
		c-3.5-9-6.9-18.2-9.9-27.4c-5-15.3-6.5-31.4-10.6-46.8c-5.6-21.2-13.4-41.8-18.5-63.2c-3.9-15.9-8.8-31.6-14.5-47
		c-2.2-6-6-10.8-12.2-12.9c-8.6-2.9-16.7-0.7-23.2,5c-7.2,6.3-9.2,15.2-7,24.2c5.5,22.4,11.5,44.6,17.5,66.9
		c11.7,43.6,23.5,87.2,35.3,130.8c0.8,2.8,0.5,4.7-1.6,6.8c-3.9,4-1.7,11.6,3.7,13.4c16.8,5.9,31.5,14.9,42.2,29.6
		c7.3,10,14,20.5,25.3,26.8c4.5,2.6,8.7,5.8,12.5,9.4c3.2,3,4.5,1.9,6.6-1.1c6-8.7,11.2-18.1,15.3-27.9c2.4-5.6,3.7-11.8,8-16.5
		c-2.8,16.8-8.4,32.3-19.5,45.5c-1.4,1.7-5,3.3-3.5,5.4c2.2,3.2,4,7.7,9,7.9c-0.9,2.6,0.8,4.4,2,6.4c4.8,7.9,9.1,16,9.9,25.5
		c-1.1-1.6-2.1-3.3-2.8-5.1c-11.2-27.9-34.9-43.5-58.5-59.2c-1.1-2.1-3.2-3.2-4.8-4.9c-3.9-3.9-9.5-6.5-10.6-12.7l0-0.1
		c4.3,2.5,7.1,6.9,11.9,8.8l0.5,0.4l-0.4-0.5c0-0.3-0.1-0.7-0.2-1c-11.2-16.7-26.9-27.4-46-33.2c-10.1-3-21,1.6-27.1,10.1
		c-8.1,11.3-7.8,29.5,7.8,41.2c10.2,7.6,19,16.5,27.5,25.7c1.3,1.4,2.9,2.6,4.4,4c0.7,1.2,1.5,2.4,2.4,3.5
		c12.2,12,22.1,25.9,32.9,39.1c-0.3,0.2-0.6,0.4-0.8,0.7c-1.9-0.5-2.8-2.1-4-3.4c-4.1-4.4-8.1-8.7-12.2-13.1
		c-7.3-10.8-17.1-19.3-27-29.7c0,3.5,0,5.5,0,7.6c0.2,8.4-2.6,15.3-10.1,19.6c-8.1,4.7-16.1,2.3-22.7-2.8c-4.9-3.9-8.5-4.5-13.9-1.2
		c-6.7,4.1-14.4,6-22.2,5.6c-1.8-0.1-3.6,0-5.9-2.4c11.8-1,22.3-3.9,32-10.1c-3-3.8-7.4-4.8-11.2-6.8c-10.4-5.5-18.5-13-22.1-24.7
		c-1.1-3.5-1.3-7.1-0.6-10.7c4.3,14,11.1,24.5,24.4,31.2c-3.4-8-6.8-15-5.8-23c2.3,5,3,10.7,5.9,15.5c6.5,11,14.8,20,26.3,25.6
		c10.4,5,20.6-1.5,21.6-13.1c1-11.3-2.9-20-12.2-26.5c-14.3-9.9-24.7-23.4-34.5-37.5c-2.4-3.5-8.3-4.6-13.7-2.2
		c-9.7,4.4-13.9,12.7-15.5,22.6c-1.7,10.2-1.3,20.4-0.2,30.7c0.8,7.9,0.5,15.8,1.1,23.7c2.1,25.5,4.5,50.9,13.3,75.2
		c1.3,3.1,2.7,6.1,4.3,9c-1.5,0.9-0.9,1.8-0.4,3.1c4.1,10.8,9.1,21.3,13,32.2c3.5,10.2,10.5,14.4,20.4,15.6c2.1,0.3,4.3,0.3,6.4,0.4
		c5.3,2.5,11.4-0.5,17.5,2.5c-8,2.9-15.5,1.4-23,1.7c-5-1.6-10.2-2-15.2-4.3c-2.2,10-4.1,19.9-6.6,29.6c-8.2,31-19.1,61.1-29.1,91.5
		c-9.6,29.4-19.7,58.6-29.6,87.9L101.7,767.8z M182.3,330c7-5.6,13.8-11.6,23.8-11c2.6,0.1,2-1.8,1.4-3.5c-1.9-5.1-5.3-9-9.4-12.4
		c-10.7-8.8-25-7.2-32.2,3.4c-2.7,2.2-3.7,5.3-4.2,8.5c-2.9,16.2,5.5,28.4,14.7,40.4C175.1,346,178.5,338,182.3,330z"/>
</g>
<g class="st4">
	<path class="st2" d="M841.7,188.4c-0.8,1.7-1.9,3.1-3.3,4.2c-1.4,1.1-3.1,2-5,2.6c-1.9,0.6-4.1,0.9-6.5,0.9c-3.3,0-6.6-0.6-9.8-1.7
		c-3.2-1.1-6.1-2.9-8.7-5.3l5.7-6.8c2,1.6,4,2.9,6.1,3.9c2.1,1,4.4,1.4,6.9,1.4c2,0,3.5-0.4,4.6-1.1c1.1-0.7,1.7-1.7,1.7-3v-0.1
		c0-0.6-0.1-1.2-0.3-1.7c-0.2-0.5-0.7-0.9-1.3-1.3c-0.6-0.4-1.5-0.8-2.7-1.2c-1.1-0.4-2.6-0.9-4.5-1.3c-2.2-0.5-4.2-1.1-6-1.8
		c-1.8-0.7-3.3-1.5-4.6-2.5c-1.2-1-2.2-2.2-2.9-3.6s-1-3.3-1-5.4v-0.1c0-2,0.4-3.8,1.1-5.4c0.7-1.6,1.8-3,3.1-4.1s2.9-2.1,4.8-2.7
		c1.9-0.6,3.9-0.9,6.2-0.9c3.2,0,6.1,0.5,8.8,1.4s5.1,2.3,7.4,4.1l-5,7.2c-2-1.3-3.9-2.4-5.7-3.1c-1.9-0.8-3.7-1.2-5.6-1.2
		s-3.3,0.4-4.2,1.1c-0.9,0.7-1.4,1.6-1.4,2.7v0.1c0,0.7,0.1,1.3,0.4,1.8c0.3,0.5,0.8,1,1.5,1.4c0.7,0.4,1.7,0.8,2.9,1.2
		c1.2,0.4,2.8,0.8,4.7,1.3c2.2,0.6,4.2,1.2,5.9,2c1.7,0.7,3.2,1.6,4.4,2.6c1.2,1,2.1,2.2,2.7,3.6c0.6,1.4,0.9,3,0.9,4.9v0.1
		C842.8,184.8,842.4,186.7,841.7,188.4z"/>
	<path class="st2" d="M893.8,182.5c-1.2,2.7-2.8,5.1-4.8,7.2s-4.5,3.7-7.3,4.9c-2.8,1.2-5.9,1.8-9.3,1.8s-6.5-0.6-9.3-1.8
		c-2.8-1.2-5.3-2.8-7.3-4.8c-2.1-2-3.7-4.4-4.8-7.1c-1.1-2.7-1.7-5.6-1.7-8.7v-0.1c0-3.1,0.6-6,1.7-8.7c1.2-2.7,2.8-5.1,4.8-7.2
		c2.1-2.1,4.5-3.7,7.3-4.9c2.8-1.2,5.9-1.8,9.3-1.8c3.4,0,6.5,0.6,9.3,1.8s5.3,2.8,7.3,4.8c2.1,2,3.7,4.4,4.8,7.1
		c1.1,2.7,1.7,5.6,1.7,8.7v0.1C895.6,176.9,895,179.8,893.8,182.5z M885.5,173.8c0-1.9-0.3-3.6-1-5.3c-0.6-1.7-1.6-3.1-2.7-4.4
		s-2.6-2.2-4.2-3c-1.6-0.7-3.4-1.1-5.3-1.1c-2,0-3.7,0.4-5.3,1.1c-1.6,0.7-3,1.7-4.1,2.9c-1.1,1.2-2,2.7-2.7,4.3
		c-0.6,1.6-1,3.4-1,5.3v0.1c0,1.9,0.3,3.6,1,5.3c0.6,1.7,1.6,3.1,2.7,4.4c1.2,1.2,2.6,2.2,4.2,3c1.6,0.7,3.4,1.1,5.3,1.1
		c1.9,0,3.7-0.4,5.3-1.1c1.6-0.7,3-1.7,4.1-2.9c1.1-1.2,2-2.7,2.7-4.3c0.6-1.6,1-3.4,1-5.3V173.8z"/>
	<path class="st2" d="M926,178.2v17.4h-9.6v-17.2L899.6,152h11.2l10.4,17.5l10.6-17.5h10.9L926,178.2z"/>
	<path class="st2" d="M1003.3,185.2c-0.9,2.5-2.2,4.5-3.8,6.1c-1.7,1.6-3.7,2.9-6,3.7s-5,1.2-7.9,1.2c-5.9,0-10.5-1.6-13.8-4.9
		s-5-8.1-5-14.5V152h9.6v24.7c0,3.6,0.8,6.3,2.5,8.1s4,2.7,6.9,2.7c2.9,0,5.3-0.9,6.9-2.6c1.7-1.7,2.5-4.4,2.5-7.8v-25h9.6v24.6
		C1004.7,179.9,1004.2,182.8,1003.3,185.2z"/>
	<path class="st2" d="M1045,195.5l-21.1-27.7v27.7h-9.5V152h8.8l20.4,26.8V152h9.5v43.6H1045z"/>
</g>
<g class="st4">
	<path class="st2" d="M833.7,270.6h-8.5l-17.6-43.9h10.6l11.4,30.7l11.4-30.7h10.3L833.7,270.6z"/>
	<path class="st2" d="M858.5,270.3v-43.6h9.6v43.6H858.5z"/>
	<path class="st2" d="M909.3,263.1c-0.8,1.7-1.9,3.1-3.3,4.2c-1.4,1.1-3.1,2-5,2.6c-1.9,0.6-4.1,0.9-6.5,0.9c-3.3,0-6.6-0.6-9.8-1.7
		c-3.2-1.1-6.1-2.9-8.7-5.3l5.7-6.8c2,1.6,4,2.9,6.1,3.9c2.1,1,4.4,1.4,6.9,1.4c2,0,3.5-0.4,4.6-1.1c1.1-0.7,1.7-1.7,1.7-3v-0.1
		c0-0.6-0.1-1.2-0.3-1.7c-0.2-0.5-0.7-0.9-1.3-1.3c-0.6-0.4-1.5-0.8-2.7-1.2c-1.1-0.4-2.6-0.9-4.5-1.3c-2.2-0.5-4.2-1.1-6-1.8
		c-1.8-0.7-3.3-1.5-4.6-2.5c-1.2-1-2.2-2.2-2.9-3.6c-0.7-1.5-1-3.3-1-5.4v-0.1c0-2,0.4-3.8,1.1-5.4c0.7-1.6,1.8-3,3.1-4.1
		s2.9-2.1,4.8-2.7c1.9-0.6,3.9-0.9,6.2-0.9c3.2,0,6.1,0.5,8.8,1.4s5.1,2.3,7.4,4.1l-5,7.2c-2-1.3-3.9-2.4-5.7-3.1
		c-1.9-0.8-3.7-1.2-5.6-1.2s-3.3,0.4-4.2,1.1c-0.9,0.7-1.4,1.6-1.4,2.7v0.1c0,0.7,0.1,1.3,0.4,1.8c0.3,0.5,0.8,1,1.5,1.4
		c0.7,0.4,1.7,0.8,2.9,1.2c1.2,0.4,2.8,0.8,4.7,1.3c2.2,0.6,4.2,1.2,5.9,2c1.7,0.7,3.2,1.6,4.4,2.6c1.2,1,2.1,2.2,2.7,3.6
		c0.6,1.4,0.9,3,0.9,4.9v0.1C910.5,259.5,910.1,261.5,909.3,263.1z"/>
	<path class="st2" d="M919.2,270.3v-43.6h9.6v43.6H919.2z"/>
	<path class="st2" d="M959.5,235.5v34.7h-9.6v-34.7h-13.3v-8.8h36.1v8.8H959.5z"/>
	<path class="st2" d="M1012.5,270.3l-4-9.8h-18.4l-4,9.8h-9.8l18.7-43.9h8.8l18.7,43.9H1012.5z M999.3,237.9l-5.8,14.1h11.6
		L999.3,237.9z"/>
	<path class="st2" d="M1059.8,270.3l-21.1-27.7v27.7h-9.5v-43.6h8.8l20.4,26.8v-26.8h9.5v43.6H1059.8z"/>
	<path class="st2" d="M1098.2,235.5v34.7h-9.6v-34.7h-13.3v-8.8h36.1v8.8H1098.2z"/>
	<path class="st2" d="M1118.8,270.3v-43.6h32.8v8.5h-23.4v8.8h20.5v8.5h-20.5v9.2h23.7v8.5H1118.8z"/>
</g>
<g class="st4">
	<path class="st2" d="M849.8,452c-1.1,2.7-2.7,5-4.8,6.9c-2.1,2-4.5,3.5-7.3,4.6c-2.8,1.1-6,1.7-9.4,1.7h-17v-43.6h17
		c3.4,0,6.5,0.6,9.4,1.7c2.8,1.1,5.3,2.6,7.3,4.6c2.1,2,3.6,4.2,4.8,6.9c1.1,2.6,1.7,5.5,1.7,8.6v0.1
		C851.5,446.4,850.9,449.3,849.8,452z M841.5,443.4c0-1.9-0.3-3.7-1-5.3c-0.6-1.6-1.5-3-2.7-4.2c-1.1-1.2-2.5-2.1-4.1-2.7
		c-1.6-0.6-3.4-1-5.4-1h-7.4v26.3h7.4c2,0,3.7-0.3,5.4-0.9c1.6-0.6,3-1.5,4.1-2.7c1.1-1.2,2-2.5,2.7-4.1c0.6-1.6,1-3.3,1-5.3V443.4z
		"/>
	<path class="st2" d="M860,465.2v-43.6h32.8v8.5h-23.4v8.8H890v8.5h-20.5v9.2h23.7v8.5H860z"/>
	<path class="st2" d="M920.4,465.2v-43.6h9.6v34.9h21.7v8.7H920.4z"/>
	<path class="st2" d="M991.4,465.2l-4-9.8H969l-4,9.8h-9.8l18.7-43.9h8.8l18.7,43.9H991.4z M978.2,432.8l-5.8,14.1H984L978.2,432.8z
		"/>
	<path class="st2" d="M1038.5,458c-0.8,1.7-1.9,3.1-3.3,4.2c-1.4,1.1-3.1,2-5,2.6c-1.9,0.6-4.1,0.9-6.5,0.9c-3.3,0-6.6-0.6-9.8-1.7
		c-3.2-1.1-6.1-2.9-8.7-5.3l5.7-6.8c2,1.6,4,2.9,6.1,3.9c2.1,1,4.4,1.4,6.9,1.4c2,0,3.5-0.4,4.6-1.1c1.1-0.7,1.7-1.7,1.7-3v-0.1
		c0-0.6-0.1-1.2-0.3-1.7c-0.2-0.5-0.7-0.9-1.3-1.3c-0.6-0.4-1.5-0.8-2.7-1.2c-1.1-0.4-2.6-0.9-4.5-1.3c-2.2-0.5-4.2-1.1-6-1.8
		c-1.8-0.7-3.3-1.5-4.6-2.5s-2.2-2.2-2.9-3.6c-0.7-1.5-1-3.3-1-5.4v-0.1c0-2,0.4-3.8,1.1-5.4c0.7-1.6,1.8-3,3.1-4.1s2.9-2.1,4.8-2.7
		c1.9-0.6,3.9-0.9,6.2-0.9c3.2,0,6.1,0.5,8.8,1.4c2.7,1,5.1,2.3,7.4,4.1l-5,7.2c-2-1.3-3.9-2.4-5.7-3.1c-1.9-0.8-3.7-1.2-5.6-1.2
		s-3.3,0.4-4.2,1.1c-0.9,0.7-1.4,1.6-1.4,2.7v0.1c0,0.7,0.1,1.3,0.4,1.8c0.3,0.5,0.8,1,1.5,1.4c0.7,0.4,1.7,0.8,2.9,1.2
		c1.2,0.4,2.8,0.8,4.7,1.3c2.2,0.6,4.2,1.2,5.9,2c1.7,0.7,3.2,1.6,4.4,2.6c1.2,1,2.1,2.2,2.7,3.6c0.6,1.4,0.9,3,0.9,4.9v0.1
		C1039.7,454.4,1039.3,456.3,1038.5,458z"/>
	<path class="st2" d="M1099.1,465.2l-4-9.8h-18.4l-4,9.8h-9.8l18.7-43.9h8.8l18.7,43.9H1099.1z M1085.9,432.8l-5.8,14.1h11.6
		L1085.9,432.8z M1082.1,418.1l7-11l8.2,3.5l-8,7.5H1082.1z"/>
	<path class="st2" d="M1142.3,465.2l-9.3-13.9h-7.5v13.9h-9.6v-43.6h19.9c5.2,0,9.2,1.3,12.1,3.8c2.9,2.5,4.3,6.1,4.3,10.6v0.1
		c0,3.5-0.9,6.4-2.6,8.6c-1.7,2.2-4,3.9-6.8,4.9l10.6,15.6H1142.3z M1142.5,436.5c0-2.1-0.7-3.6-2-4.7c-1.3-1-3.2-1.6-5.5-1.6h-9.5
		v12.5h9.7c2.4,0,4.2-0.6,5.4-1.7c1.3-1.1,1.9-2.6,1.9-4.5V436.5z"/>
	<path class="st2" d="M1160.9,465.2v-43.6h32.8v8.5h-23.4v8.8h20.5v8.5h-20.5v9.2h23.7v8.5H1160.9z"/>
	<path class="st2" d="M1235.1,465.2l-4-9.8h-18.4l-4,9.8h-9.8l18.7-43.9h8.8l18.7,43.9H1235.1z M1221.9,432.8l-5.8,14.1h11.6
		L1221.9,432.8z"/>
	<path class="st2" d="M1282.1,458c-0.8,1.7-1.9,3.1-3.3,4.2c-1.4,1.1-3.1,2-5,2.6c-1.9,0.6-4.1,0.9-6.5,0.9c-3.3,0-6.6-0.6-9.8-1.7
		c-3.2-1.1-6.1-2.9-8.7-5.3l5.7-6.8c2,1.6,4,2.9,6.1,3.9c2.1,1,4.4,1.4,6.9,1.4c2,0,3.5-0.4,4.6-1.1c1.1-0.7,1.7-1.7,1.7-3v-0.1
		c0-0.6-0.1-1.2-0.3-1.7c-0.2-0.5-0.7-0.9-1.3-1.3c-0.6-0.4-1.5-0.8-2.7-1.2c-1.1-0.4-2.6-0.9-4.5-1.3c-2.2-0.5-4.2-1.1-6-1.8
		c-1.8-0.7-3.3-1.5-4.6-2.5s-2.2-2.2-2.9-3.6c-0.7-1.5-1-3.3-1-5.4v-0.1c0-2,0.4-3.8,1.1-5.4c0.7-1.6,1.8-3,3.1-4.1s2.9-2.1,4.8-2.7
		c1.9-0.6,3.9-0.9,6.2-0.9c3.2,0,6.1,0.5,8.8,1.4c2.7,1,5.1,2.3,7.4,4.1l-5,7.2c-2-1.3-3.9-2.4-5.7-3.1c-1.9-0.8-3.7-1.2-5.6-1.2
		s-3.3,0.4-4.2,1.1c-0.9,0.7-1.4,1.6-1.4,2.7v0.1c0,0.7,0.1,1.3,0.4,1.8c0.3,0.5,0.8,1,1.5,1.4c0.7,0.4,1.7,0.8,2.9,1.2
		c1.2,0.4,2.8,0.8,4.7,1.3c2.2,0.6,4.2,1.2,5.9,2c1.7,0.7,3.2,1.6,4.4,2.6c1.2,1,2.1,2.2,2.7,3.6c0.6,1.4,0.9,3,0.9,4.9v0.1
		C1283.3,454.4,1282.9,456.3,1282.1,458z"/>
</g>
<g class="st4">
	<path class="st2" d="M841.9,539.9l-21.1-27.7v27.7h-9.5v-43.6h8.8l20.4,26.8v-26.8h9.5v43.6H841.9z"/>
	<path class="st2" d="M893,539.9l-4-9.8h-18.4l-4,9.8h-9.8l18.7-43.9h8.8l18.7,43.9H893z M879.8,507.5l-5.8,14.1h11.6L879.8,507.5z"
		/>
	<path class="st2" d="M929.4,505.1v34.7h-9.6v-34.7h-13.3v-8.8h36.1v8.8H929.4z"/>
	<path class="st2" d="M986,529.6c-0.9,2.5-2.2,4.5-3.8,6.1c-1.7,1.6-3.7,2.9-6,3.7s-5,1.2-7.9,1.2c-5.9,0-10.5-1.6-13.8-4.9
		c-3.4-3.2-5-8.1-5-14.5v-24.9h9.6V521c0,3.6,0.8,6.3,2.5,8.1c1.7,1.8,4,2.7,6.9,2.7c2.9,0,5.3-0.9,6.9-2.6c1.7-1.7,2.5-4.4,2.5-7.8
		v-25h9.6v24.6C987.4,524.2,986.9,527.1,986,529.6z"/>
	<path class="st2" d="M1023.6,539.9l-9.3-13.9h-7.5v13.9h-9.6v-43.6h19.9c5.2,0,9.2,1.3,12.1,3.8c2.9,2.5,4.3,6.1,4.3,10.6v0.1
		c0,3.5-0.9,6.4-2.6,8.6c-1.7,2.2-4,3.9-6.8,4.9l10.6,15.6H1023.6z M1023.8,511.2c0-2.1-0.7-3.6-2-4.7c-1.3-1-3.2-1.6-5.5-1.6h-9.5
		v12.5h9.7c2.4,0,4.2-0.6,5.4-1.7s1.9-2.6,1.9-4.5V511.2z"/>
	<path class="st2" d="M1074.6,539.9l-4-9.8h-18.4l-4,9.8h-9.8l18.7-43.9h8.8l18.7,43.9H1074.6z M1061.4,507.5l-5.8,14.1h11.6
		L1061.4,507.5z"/>
	<path class="st2" d="M1091.3,539.9v-43.6h9.6v34.9h21.7v8.7H1091.3z"/>
	<path class="st2" d="M1129.9,539.9v-43.6h32.8v8.5h-23.4v8.8h20.5v8.5h-20.5v9.2h23.7v8.5H1129.9z"/>
	<path class="st2" d="M1201.9,532.8c-0.8,1.7-1.9,3.1-3.3,4.2c-1.4,1.1-3.1,2-5,2.6c-1.9,0.6-4.1,0.9-6.5,0.9
		c-3.3,0-6.6-0.6-9.8-1.7c-3.2-1.1-6.1-2.9-8.7-5.3l5.7-6.8c2,1.6,4,2.9,6.1,3.9c2.1,1,4.4,1.4,6.9,1.4c2,0,3.5-0.4,4.6-1.1
		c1.1-0.7,1.7-1.7,1.7-3v-0.1c0-0.6-0.1-1.2-0.3-1.7c-0.2-0.5-0.7-0.9-1.3-1.3c-0.6-0.4-1.5-0.8-2.7-1.2c-1.1-0.4-2.6-0.9-4.5-1.3
		c-2.2-0.5-4.2-1.1-6-1.8c-1.8-0.7-3.3-1.5-4.6-2.5c-1.2-1-2.2-2.2-2.9-3.6c-0.7-1.5-1-3.3-1-5.4v-0.1c0-2,0.4-3.8,1.1-5.4
		c0.7-1.6,1.8-3,3.1-4.1s2.9-2.1,4.8-2.7c1.9-0.6,3.9-0.9,6.2-0.9c3.2,0,6.1,0.5,8.8,1.4s5.1,2.3,7.4,4.1l-5,7.2
		c-2-1.3-3.9-2.4-5.7-3.1c-1.9-0.8-3.7-1.2-5.6-1.2s-3.3,0.4-4.2,1.1c-0.9,0.7-1.4,1.6-1.4,2.7v0.1c0,0.7,0.1,1.3,0.4,1.8
		c0.3,0.5,0.8,1,1.5,1.4c0.7,0.4,1.7,0.8,2.9,1.2c1.2,0.4,2.8,0.8,4.7,1.3c2.2,0.6,4.2,1.2,5.9,2c1.7,0.7,3.2,1.6,4.4,2.6
		c1.2,1,2.1,2.2,2.7,3.6c0.6,1.4,0.9,3,0.9,4.9v0.1C1203.1,529.2,1202.7,531.1,1201.9,532.8z"/>
</g>
<g class="st4">
	<path class="st2" d="M844.4,592.9c-0.9,1.9-2.2,3.5-3.8,4.8c-1.6,1.3-3.5,2.3-5.6,2.9c-2.1,0.6-4.4,1-6.9,1h-7.3v13.1h-9.6V571
		h17.8c2.6,0,5,0.4,7,1.1s3.8,1.8,5.2,3.1c1.4,1.3,2.5,2.9,3.3,4.8c0.8,1.8,1.2,3.9,1.2,6.1v0.1C845.8,588.7,845.4,591,844.4,592.9z
		 M836.1,586.3c0-2.2-0.7-3.8-2.1-4.9c-1.4-1.1-3.3-1.7-5.7-1.7h-7.4V593h7.6c2.4,0,4.3-0.6,5.6-1.9c1.3-1.3,2-2.8,2-4.7V586.3z"/>
	<path class="st2" d="M879.4,614.6l-9.3-13.9h-7.5v13.9h-9.6V571h19.9c5.2,0,9.2,1.3,12.1,3.8c2.9,2.5,4.3,6.1,4.3,10.6v0.1
		c0,3.5-0.9,6.4-2.6,8.6c-1.7,2.2-4,3.9-6.8,4.9l10.6,15.6H879.4z M879.6,585.9c0-2.1-0.7-3.6-2-4.7c-1.3-1-3.2-1.6-5.5-1.6h-9.5
		v12.5h9.7c2.4,0,4.2-0.6,5.4-1.7c1.3-1.1,1.9-2.6,1.9-4.5V585.9z"/>
	<path class="st2" d="M940.6,601.6c-1.2,2.7-2.8,5.1-4.8,7.2s-4.5,3.7-7.3,4.9c-2.8,1.2-5.9,1.8-9.3,1.8s-6.5-0.6-9.3-1.8
		c-2.8-1.2-5.3-2.8-7.3-4.8c-2.1-2-3.7-4.4-4.8-7.1c-1.1-2.7-1.7-5.6-1.7-8.7v-0.1c0-3.1,0.6-6,1.7-8.7c1.2-2.7,2.8-5.1,4.8-7.2
		c2.1-2.1,4.5-3.7,7.3-4.9c2.8-1.2,5.9-1.8,9.3-1.8c3.4,0,6.5,0.6,9.3,1.8s5.3,2.8,7.3,4.8c2.1,2,3.7,4.4,4.8,7.1
		c1.1,2.7,1.7,5.6,1.7,8.7v0.1C942.3,595.9,941.8,598.8,940.6,601.6z M932.3,592.8c0-1.9-0.3-3.6-1-5.3c-0.6-1.7-1.6-3.1-2.7-4.4
		s-2.6-2.2-4.2-3c-1.6-0.7-3.4-1.1-5.3-1.1c-2,0-3.7,0.4-5.3,1.1c-1.6,0.7-3,1.7-4.1,2.9c-1.1,1.2-2,2.7-2.7,4.3
		c-0.6,1.6-1,3.4-1,5.3v0.1c0,1.9,0.3,3.6,1,5.3c0.6,1.7,1.6,3.1,2.7,4.4c1.2,1.2,2.6,2.2,4.2,3c1.6,0.7,3.4,1.1,5.3,1.1
		c1.9,0,3.7-0.4,5.3-1.1c1.6-0.7,3-1.7,4.1-2.9c1.1-1.2,2-2.7,2.7-4.3c0.6-1.6,1-3.4,1-5.3V592.8z"/>
	<path class="st2" d="M970.6,579.9v34.7H961v-34.7h-13.3V571h36.1v8.8H970.6z"/>
	<path class="st2" d="M991.2,614.6V571h32.8v8.5h-23.4v8.8h20.5v8.5h-20.5v9.2h23.7v8.5H991.2z"/>
	<path class="st2" d="M1064.5,613.3c-3.1,1.3-6.6,2-10.6,2c-3.4,0-6.5-0.6-9.3-1.7c-2.8-1.1-5.2-2.7-7.2-4.7c-2-2-3.6-4.4-4.7-7.1
		s-1.7-5.7-1.7-9v-0.1c0-3.1,0.6-6,1.7-8.7c1.1-2.7,2.7-5.1,4.8-7.2c2-2.1,4.4-3.7,7.2-4.9s5.8-1.8,9.2-1.8c2,0,3.7,0.1,5.3,0.4
		c1.6,0.3,3.1,0.7,4.5,1.2s2.7,1.1,3.9,1.9s2.4,1.6,3.5,2.6l-6,7.3c-0.8-0.7-1.7-1.3-2.5-1.9c-0.8-0.5-1.7-1-2.6-1.4
		c-0.9-0.4-1.9-0.7-2.9-0.9c-1-0.2-2.2-0.3-3.4-0.3c-1.7,0-3.4,0.4-4.9,1.1s-2.8,1.7-4,2.9c-1.1,1.2-2,2.7-2.7,4.3
		c-0.6,1.6-1,3.4-1,5.3v0.1c0,2,0.3,3.8,1,5.5c0.6,1.7,1.6,3.2,2.7,4.4c1.2,1.2,2.6,2.2,4.2,2.9c1.6,0.7,3.4,1,5.3,1
		c3.6,0,6.6-0.9,9-2.6v-6.3h-9.7v-8.3h18.9v18.9C1070.3,610.4,1067.6,612,1064.5,613.3z"/>
	<path class="st2" d="M1082.2,614.6V571h9.6v43.6H1082.2z"/>
	<path class="st2" d="M1141.2,601.4c-1.1,2.7-2.7,5-4.8,6.9c-2.1,2-4.5,3.5-7.3,4.6c-2.8,1.1-6,1.7-9.4,1.7h-17V571h17
		c3.4,0,6.5,0.6,9.4,1.7c2.8,1.1,5.3,2.6,7.3,4.6c2.1,2,3.6,4.2,4.8,6.9c1.1,2.6,1.7,5.5,1.7,8.6v0.1
		C1142.8,595.9,1142.3,598.8,1141.2,601.4z M1132.8,592.8c0-1.9-0.3-3.7-1-5.3c-0.6-1.6-1.5-3-2.7-4.2c-1.1-1.2-2.5-2.1-4.1-2.7
		c-1.6-0.6-3.4-1-5.4-1h-7.4V606h7.4c2,0,3.7-0.3,5.4-0.9c1.6-0.6,3-1.5,4.1-2.7c1.1-1.2,2-2.5,2.7-4.1c0.6-1.6,1-3.3,1-5.3V592.8z"
		/>
	<path class="st2" d="M1183.8,614.6l-4-9.8h-18.4l-4,9.8h-9.8l18.7-43.9h8.8l18.7,43.9H1183.8z M1170.6,582.2l-5.8,14.1h11.6
		L1170.6,582.2z"/>
	<path class="st2" d="M1230.9,607.5c-0.8,1.7-1.9,3.1-3.3,4.2c-1.4,1.1-3.1,2-5,2.6c-1.9,0.6-4.1,0.9-6.5,0.9
		c-3.3,0-6.6-0.6-9.8-1.7c-3.2-1.1-6.1-2.9-8.7-5.3l5.7-6.8c2,1.6,4,2.9,6.1,3.9c2.1,1,4.4,1.4,6.9,1.4c2,0,3.5-0.4,4.6-1.1
		c1.1-0.7,1.7-1.7,1.7-3v-0.1c0-0.6-0.1-1.2-0.3-1.7c-0.2-0.5-0.7-0.9-1.3-1.3c-0.6-0.4-1.5-0.8-2.7-1.2c-1.1-0.4-2.6-0.9-4.5-1.3
		c-2.2-0.5-4.2-1.1-6-1.8c-1.8-0.7-3.3-1.5-4.6-2.5c-1.2-1-2.2-2.2-2.9-3.6c-0.7-1.5-1-3.3-1-5.4v-0.1c0-2,0.4-3.8,1.1-5.4
		c0.7-1.6,1.8-3,3.1-4.1s2.9-2.1,4.8-2.7c1.9-0.6,3.9-0.9,6.2-0.9c3.2,0,6.1,0.5,8.8,1.4s5.1,2.3,7.4,4.1l-5,7.2
		c-2-1.3-3.9-2.4-5.7-3.1c-1.9-0.8-3.7-1.2-5.6-1.2s-3.3,0.4-4.2,1.1c-0.9,0.7-1.4,1.6-1.4,2.7v0.1c0,0.7,0.1,1.3,0.4,1.8
		c0.3,0.5,0.8,1,1.5,1.4c0.7,0.4,1.7,0.8,2.9,1.2c1.2,0.4,2.8,0.8,4.7,1.3c2.2,0.6,4.2,1.2,5.9,2c1.7,0.7,3.2,1.6,4.4,2.6
		c1.2,1,2.1,2.2,2.7,3.6c0.6,1.4,0.9,3,0.9,4.9v0.1C1232.1,603.9,1231.7,605.8,1230.9,607.5z"/>
</g>
<g class="st4">
	<path class="st0" d="M858.8,389h-16.2l-33.6-83.8h20.2l21.8,58.6l21.8-58.6h19.7L858.8,389z"/>
	<path class="st0" d="M905.2,388.4v-83.2h62.7v16.3h-44.6v16.9h39.2v16.3h-39.2v17.5h45.2v16.3H905.2z"/>
	<path class="st0" d="M1035.4,388.4l-17.8-26.6h-14.4v26.6h-18.3v-83.2h38c9.9,0,17.6,2.4,23.1,7.3c5.5,4.8,8.3,11.6,8.3,20.2v0.2
		c0,6.7-1.6,12.2-4.9,16.5c-3.3,4.2-7.6,7.4-12.9,9.3l20.3,29.7H1035.4z M1035.8,333.6c0-4-1.3-6.9-3.8-8.9c-2.5-2-6.1-3-10.6-3
		h-18.2v23.9h18.5c4.5,0,8-1.1,10.4-3.2c2.4-2.1,3.6-5,3.6-8.6V333.6z"/>
	<path class="st0" d="M1144.3,363.2c-2.1,5.1-5.2,9.5-9.1,13.2c-3.9,3.7-8.6,6.7-14,8.8c-5.4,2.1-11.4,3.2-17.9,3.2h-32.5v-83.2
		h32.5c6.5,0,12.5,1.1,17.9,3.2c5.4,2.1,10.1,5,14,8.7c3.9,3.7,7,8.1,9.1,13.1c2.1,5,3.2,10.5,3.2,16.3v0.2
		C1147.5,352.6,1146.4,358.1,1144.3,363.2z M1128.4,346.8c0-3.6-0.6-7-1.8-10.1c-1.2-3.1-2.9-5.7-5.1-8c-2.2-2.2-4.8-3.9-7.9-5.2
		c-3.1-1.2-6.5-1.8-10.2-1.8h-14.1v50.2h14.1c3.7,0,7.1-0.6,10.2-1.8c3.1-1.2,5.7-2.9,7.9-5.1c2.2-2.2,3.9-4.8,5.1-7.8
		c1.2-3,1.8-6.4,1.8-10.1V346.8z"/>
	<path class="st0" d="M1163.8,388.4v-83.2h62.7v16.3h-44.6v16.9h39.2v16.3h-39.2v17.5h45.2v16.3H1163.8z"/>
</g>
</svg>
