<svg xmlns="http://www.w3.org/2000/svg" viewBox="0 0 57.59 57.58"><defs><style>.cls-1{fill:#24397b;fill-rule:evenodd;}.cls-2{fill:#fff;}</style></defs><g id="Capa_2" data-name="Capa 2"><g id="Simbologia"><path class="cls-1" d="M28.78,0A28.79,28.79,0,1,1,0,28.77,28.79,28.79,0,0,1,28.78,0"/><path class="cls-2" d="M39.85,40.14c.85,0,2.64.61,3-.68-8.84-.57-18.69-.15-27.92-.34-.18.05-.26.2-.24.46V40c8.08-.16,17.33.32,25.16.1m.48-5.31c-1.77-2.27-4.51,1.72-1.62,2.31.88.1,1.08-.46,1.61-.7,3.31,3,3.33-4.56,0-1.61m-24.7,2.22c.87.1,1.09-.45,1.62-.69.55.3.85.85,1.84.7.79-.28,1.08-1.07.94-2.3a1.84,1.84,0,0,0-2.77,0c-1.55-2.3-4.39,1.64-1.63,2.3M45.45,22.62a58.56,58.56,0,0,1,.89,11.31,54.89,54.89,0,0,0,0,9.46h-3v3.46l-6.23,0V43.36L20.68,43.3c-.53.7-.09,2.38-.24,3.45l-6.23,0V43.51c-.53-.53-2.07-.09-3-.25.87-4.8-.37-8,.06-13.61.16-2.26.86-4.94,1.18-7.38.66-5.09.13-9.1,4-10.61,3.33-1.31,16.49-.9,22.16-.38,6.21.58,6,4.82,6.87,11.34M30.21,28.79,44,28.85c-.16-3.66-.79-6.87-1.11-10.39-4.45-.1-8.38-.72-12.67-1Zm7.21-16.36-17.07-.06,0,3.69,17.08.07ZM27.2,28.78l.05-11.31c-4.19.26-8.1.8-12.48.88-.37,3.48-1,6.73-1.19,10.38Z"/></g></g></svg>