<?xml version="1.0" encoding="utf-8"?>
<!-- Generator: Adobe Illustrator 25.0.0, SVG Export Plug-In . SVG Version: 6.00 Build 0)  -->
<svg version="1.1" id="Capa_1" xmlns="http://www.w3.org/2000/svg" xmlns:xlink="http://www.w3.org/1999/xlink" x="0px" y="0px"
	 viewBox="0 0 283.5 283.5" style="enable-background:new 0 0 283.5 283.5;" xml:space="preserve">
<style type="text/css">
	.st0{fill:none;}
	.st1{fill:#898D8D;}
</style>
<g>
	<circle class="st0" cx="141.7" cy="141.7" r="141.7"/>
	<g id="Capa_2_1_">
		<g id="Capa_1-2">
			<path class="st1" d="M142.3,202.5c-27.8,0-55.5,0-83.3,0c-9.1,0-16-5.7-17.5-14.1c-1.6-8.8,3.9-17.4,12.6-19.4
				c1.9-0.4,2.2-1.2,2.2-3c-0.3-15.6,3-30.3,10.7-44c8.7-15.6,21.1-27.4,37-35.5c1.2-0.5,2-1.6,2.1-2.8c1.3-8.3,8-14.5,16.5-14.7
				c13.1-0.2,26.1-0.2,39.2,0c8.7,0.2,15.1,6.3,16.6,14.9c0.1,1.1,0.8,2,1.8,2.5c26,13.6,41.8,34.8,46.9,63.8
				c0.9,5.3,1.2,10.8,1,16.2c-0.1,1.5,0.3,2.1,1.9,2.5c7.8,1.9,13.1,8.6,13.2,16.4c0,7.8-5.2,14.6-12.7,16.6
				c-1.8,0.4-3.7,0.6-5.5,0.6L142.3,202.5z M177.6,100.2c-0.2,0.6-0.4,1.1-0.5,1.7c-1.2,11-2.4,21.9-3.6,32.9
				c-0.1,1.3-0.3,1.8-1.8,1.6c-3.3-0.5-6.6-0.8-9.9-1.1c-1.3-0.1-1.9-0.4-1.7-2c1.8-15.2,3.4-30.5,5.1-45.7c0.4-3.4-1.1-5.1-4.6-5.2
				s-7.1,0-10.7,0c-8.5,0-16.9,0-25.4,0c-3.8,0-5.2,1.6-4.9,5.4c0.2,2.1,0.3,4.1,0.6,6.2c1.5,13.2,3,26.3,4.5,39.5
				c0.2,1.6-0.5,1.7-1.7,1.8c-3.4,0.3-6.8,0.6-10.2,1.1c-1.2,0.2-1.6-0.2-1.7-1.3c-1.2-11-2.4-21.9-3.6-32.9c-0.2-1.8-0.7-2.2-2.2-1
				c-1.1,0.8-2.3,1.4-3.4,2.1c-21.7,15.1-32.1,36.1-32.2,62.3c0,2.1,0.5,2.7,2.7,2.7c21.1-0.1,42.2-0.1,63.2-0.1
				c25.8,0,51.5,0,77.3,0c1.2,0,2,0,2-1.7c0.1-12.3-2-24.1-7.5-35.1C200.7,118,190.9,107.7,177.6,100.2z M142.4,181.8L142.4,181.8
				c-24.9,0-49.9,0-74.8,0c-3.2,0-6.4,0-9.6,0.1c-2,0-3.2,1.3-3.3,3.2c-0.2,1.9,0.9,3.3,2.8,3.7c0.7,0.2,1.5,0.2,2.2,0.2
				c8.2,0,16.5,0,24.7,0h117.1c8,0,16,0,24.1,0c3.1,0,4.9-2.1,4.2-4.6c-0.7-2.4-2.5-2.7-4.5-2.7C197.6,181.8,170,181.8,142.4,181.8z
				"/>
		</g>
	</g>
</g>
</svg>
