<?xml version="1.0" encoding="utf-8"?>
<!-- Generator: Adobe Illustrator 25.0.0, SVG Export Plug-In . SVG Version: 6.00 Build 0)  -->
<svg version="1.1" id="Capa_1" xmlns="http://www.w3.org/2000/svg" xmlns:xlink="http://www.w3.org/1999/xlink" x="0px" y="0px"
	 viewBox="0 0 62.4 73.1" style="enable-background:new 0 0 62.4 73.1;" xml:space="preserve">
<style type="text/css">
	.st0{fill-rule:evenodd;clip-rule:evenodd;fill:#0F4C42;}
</style>
<g>
	<g>
		<g id="Grupo_845_1_">
			<g id="Grupo_844_1_">
				<path id="Trazado_2066_1_" class="st0" d="M22.4,40.3c0.4,0.5,1,0.9,1.6,0.8c0.7,0,1.3-0.4,1.6-0.9l17-21.5
					c0.7-0.9,1.9-1,2.8-0.3l0,0c0.8,0.7,0.9,1.8,0.3,2.7l-3.8,4.8l0,0c-0.6,0.7-0.7,1.7-0.1,2.5l0,0l3.8,4.8l12.2-15.1L53,12
					l-0.9-1.1c-0.6-0.7-1.5-1.2-2.5-1.3h-7.2c-1.1,0-2.2,0.5-3,1.3l-20,25.5L22.4,40.3z M21.5,27.3l-4.8-6.2
					c-0.6-0.9-0.4-2.1,0.5-2.7s2.1-0.4,2.7,0.5V19l4,5l4.7-6.1L23.1,11c-0.7-1.1-2-1.7-3.3-1.5h-6.2c-1.1-0.1-2.3,0.3-3,1.2L4.8,18
					l11.9,15.2L21.5,27.3z"/>
				<path id="Trazado_2067_1_" class="st0" d="M40,32.4c-0.7-0.9-2-1.1-2.9-0.4c-0.1,0.1-0.2,0.2-0.3,0.3l-17,21.8
					c-0.7,0.9-2,1-2.9,0.3c-0.8-0.6-0.9-1.8-0.3-2.6c0,0,0-0.1,0.1-0.1l3.8-4.9l0,0c0.6-0.7,0.7-1.7,0.1-2.5l0,0l-3.8-4.8L4.8,55
					l6.7,8.4H22l21.2-27L40,32.4z"/>
				<path id="Trazado_2068_1_" class="st0" d="M41,45.6l4.8,6.2c0.6,0.8,0.5,2-0.3,2.7c-0.9,0.7-2.2,0.5-2.9-0.4
					c0-0.1-0.1-0.1-0.1-0.2l-4-5.1l-4.7,6.1l6.8,8.7h10.5l6.7-8.5L45.7,39.6L41,45.6z"/>
				<path id="Trazado_2069_1_" class="st0" d="M57.6,31.7c-2.6,0.1-4.7,2.2-4.6,4.8l0,0c0.1,2.6,2.2,4.7,4.8,4.6
					c2.6-0.1,4.7-2.2,4.6-4.8C62.4,33.7,60.3,31.6,57.6,31.7z M57.6,39c-1.4,0-2.6-1.2-2.6-2.6c0-1.4,1.2-2.6,2.6-2.6
					s2.6,1.2,2.6,2.6l0,0C60.2,37.8,59.1,39,57.6,39C57.7,39,57.7,39,57.6,39z"/>
				<path id="Trazado_2070_1_" class="st0" d="M31.3,0c-2.6-0.1-4.8,2-4.8,4.7v0.1c-0.1,2.6,2,4.8,4.7,4.8h0.1h0.1
					c2.6,0.1,4.8-2,4.8-4.7V4.8c0.1-2.6-2-4.8-4.7-4.8h-0.1H31.3z M31.3,7.3c-1.4,0-2.6-1.1-2.6-2.5l0,0c0-1.4,1.1-2.6,2.5-2.6l0,0
					l0,0c1.4,0,2.5,1.1,2.5,2.4v0.1C33.8,6.1,32.7,7.2,31.3,7.3z"/>
				<path id="Trazado_2071_1_" class="st0" d="M31.3,63.6c-2.6,0-4.8,2.1-4.8,4.7c0,2.6,2.1,4.8,4.7,4.8l0,0h0.1
					c2.6,0,4.8-2.1,4.8-4.7c0-2.6-2.1-4.8-4.7-4.8H31.3z M31.3,70.9c-1.4,0-2.6-1.2-2.6-2.6s1.2-2.6,2.6-2.6l0,0
					c1.4,0,2.5,1.1,2.5,2.4v0.1C33.8,69.7,32.7,70.9,31.3,70.9z"/>
				<path id="Trazado_2072_1_" class="st0" d="M4.7,31.7c-2.6,0-4.8,2.2-4.7,4.8c0.1,2.6,2.2,4.7,4.8,4.7s4.7-2.1,4.7-4.7
					C9.6,33.9,7.5,31.7,4.7,31.7L4.7,31.7z M4.7,39c-1.4,0-2.6-1.1-2.6-2.5l0,0l0,0c0-1.4,1.1-2.6,2.5-2.6l0,0
					c1.4,0,2.6,1.1,2.6,2.5l0,0C7.3,37.8,6.1,39,4.7,39L4.7,39z"/>
			</g>
		</g>
	</g>
</g>
</svg>
