<svg xmlns="http://www.w3.org/2000/svg" viewBox="0 0 283.46 283.46"><defs><style>.cls-1{fill:#898d8d;}.cls-2{fill:none;}</style></defs><g id="Capa_2" data-name="Capa 2"><g id="Capa_1-2" data-name="Capa 1"><path class="cls-1" d="M226.77,75.23q-1,9.24-2.05,18.48c-1.2,10.81-2.33,21.63-3.65,32.42-.62,5.12.47,10.08,1,15.09,1.1,10.95,2.39,21.87,3.61,32.81.33,2.89.62,5.79,1,8.67.45,3.47-.67,5.68-3.82,7.26-15.66,7.83-31.33,15.63-47,23.52a8.18,8.18,0,0,1-7.25.25c-18.33-7.4-36.7-14.7-55-22.09a4.29,4.29,0,0,0-3.9.16C95.13,199.14,80.53,206.4,66,213.72c-2.37,1.19-4.64,1.28-6.79-.31a6.18,6.18,0,0,1-2.36-6.4c.14-.94.2-1.89.3-2.83,1.85-16.46,3.75-32.92,5.52-49.39.32-3-.48-6-.8-9.06-1.18-11-2.43-22-3.66-33-.44-4-.85-7.93-1.35-11.88-.46-3.58.63-5.76,3.89-7.39C76.26,85.7,91.82,78,107.33,70.12a8.46,8.46,0,0,1,7.59-.34c18.32,7.41,36.7,14.7,55,22.09a4.1,4.1,0,0,0,3.73-.16q21.75-11,43.57-21.82a6.6,6.6,0,0,1,4.91-.84A6.07,6.07,0,0,1,226.77,75.23Zm-57.72,30.41c.53-1.46-.84-1.5-1.7-1.85Q142.93,94,118.48,84.25c-3.33-1.33-3.27-1.34-2.87,2.15q2.27,19.88,4.43,39.75a2.37,2.37,0,0,0,1.47,2.15q20.27,10.08,40.49,20.25c1.31.65,1.65.45,1.82-1,.77-6.65,1.68-13.29,2.51-19.93C167.24,120.32,168.13,113,169.05,105.64ZM168,198.79c0-.49,0-.8-.07-1.12-1.51-13.57-3-27.14-4.51-40.72a2.07,2.07,0,0,0-1.44-1.76q-20.18-10.08-40.34-20.2c-1.38-.69-1.79-.5-1.94,1.08-.5,5.28-1.14,10.56-1.72,15.84-.95,8.54-1.86,17.09-2.86,25.63a1.9,1.9,0,0,0,1.47,2.35q24.9,9.9,49.77,19.91C167.68,200.34,168.44,200.41,168,198.79Zm-53.9-72.1c-.55-4.93-1.07-9.58-1.58-14.23q-1.56-14.14-3.1-28.29c-.12-1.12-.44-1.39-1.53-.84q-18.8,9.45-37.64,18.83a1.48,1.48,0,0,0-.94,1.77C70.9,118,72.51,132.08,74,146.16c.18,1.68.68,1.46,1.8.9q18.47-9.28,37-18.5C113.76,128.08,114.39,127.57,114.08,126.69Zm95.19,9.22a4.22,4.22,0,0,0-2,.73c-11.87,5.93-23.71,11.93-35.64,17.74-2,1-2.33,2.1-2.11,4.08q2.34,20.16,4.5,40.34c.17,1.54.42,1.93,2,1.14q18.36-9.27,36.8-18.4a2,2,0,0,0,1.33-2.44c-.92-7.41-1.68-14.83-2.5-22.25C210.85,149.88,210.06,142.92,209.27,135.91Zm-95.48-1.12c-1,.48-1.62.77-2.23,1.08-11.41,5.7-22.79,11.48-34.27,17.06a4.6,4.6,0,0,0-2.83,4.3c-1,9.81-2.15,19.6-3.23,29.4-.41,3.74-.81,7.49-1.23,11.43.52-.2.82-.27,1.09-.41q18.39-9.18,36.8-18.35a2.2,2.2,0,0,0,1.22-2.11c1.07-9.74,2.18-19.47,3.27-29.21C112.85,143.72,113.29,139.45,113.79,134.79Zm56,13.85c.95-.46,1.57-.75,2.18-1.06,11.36-5.67,22.69-11.41,34.1-17a4.74,4.74,0,0,0,3-4.41c1-9.81,2.13-19.6,3.22-29.39.41-3.74.8-7.48,1.22-11.39-.47.16-.72.21-.93.31q-18.14,9.06-36.29,18.1a2.1,2.1,0,0,0-1.16,2c-1.2,9.72-2.45,19.43-3.67,29.15C170.85,139.38,170.33,143.83,169.75,148.64Z"/><circle class="cls-2" cx="141.73" cy="141.73" r="141.73"/></g></g></svg>