<svg xmlns="http://www.w3.org/2000/svg" viewBox="0 0 283.46 283.46"><defs><style>.cls-1{fill:#898d8d;}.cls-2{fill:none;}</style></defs><g id="Capa_2" data-name="Capa 2"><g id="Capa_1-2" data-name="Capa 1"><path class="cls-1" d="M160.14,173.88c1.64-16.12,5.28-31.69,12.49-46.35,1.61-3.28,3.76-4.53,7.28-4.73a79,79,0,0,0,24.66-5.09c4-1.58,7.86-3.58,10.6-7a41.77,41.77,0,0,0,8.92-21.34c.7-5.88.1-11.8.85-17.67.44-3.49.78-7,.87-10.52.07-3.06-1.83-4.66-4.87-4.41a12.13,12.13,0,0,0-2.89.67,113.51,113.51,0,0,1-14.38,4c-4.12.86-8.34,1.33-12.33,2.75-9.65,3.43-17.33,9.18-21,19.1a50.57,50.57,0,0,0-2.57,22.43c.58,6.18,1.29,12.23-3.15,17.44a4.22,4.22,0,0,0-.42.82c-5.25,10.42-8.35,21.54-10.74,32.89-.14.68.05,1.8-.95,1.83-.74,0-.86-1-1.11-1.6A173.35,173.35,0,0,0,142,138.13a8.74,8.74,0,0,1-1.21-4.37c0-6.2.1-12.4-.44-18.6-.78-9-2.13-18-5.65-26.4a26.88,26.88,0,0,0-6.66-10.09A57.94,57.94,0,0,0,96.67,64c-6.76-.89-13.52-1.77-20.26-2.81-4.31-.67-8.57-1.68-12.87-2.46-4-.74-6.41,1.57-5.78,5.62a30,30,0,0,0,.77,3.35,152.31,152.31,0,0,1,4.14,24.45c.8,8.58,1.9,17,6.17,24.78,5.59,10.13,13.1,17.85,24.6,21a86.18,86.18,0,0,0,9.85,2.28,118.73,118.73,0,0,0,27.22,1.5c1.91-.15,3.57.09,4.7,2a142.71,142.71,0,0,1,14.27,35.27c.54,2.06,0,3.09-2.14,3.63-15.62,3.89-27.26,13.17-35.65,26.7-2.45,3.94-4.17,8.21-4,13a4.15,4.15,0,0,0,4,4.27,26.42,26.42,0,0,0,3.21.11h40.46q21,0,42.07,0c4.49,0,6.25-2.13,5.54-6.59a25.79,25.79,0,0,0-.9-3.79c-3.07-9.39-9.37-16.44-16.68-22.66a50.7,50.7,0,0,0-22.93-11.11c-2-.41-3-1.42-2.8-3.46C159.82,177.39,160,175.64,160.14,173.88Zm52.62-96.8c.62-.47,1.19-1.52,2.1-1,.73.38.41,1.39.44,2.13,0,1.23,0,2.45,0,3.68A36.18,36.18,0,0,1,210.68,101a18.53,18.53,0,0,1-10,8.35,71.37,71.37,0,0,1-15.85,3.72c-.79.1-1.83.43-2.28-.52-.37-.8.46-1.39.9-2a252.11,252.11,0,0,1,22.95-26.87C208.59,81.55,210.3,79,212.76,77.08ZM176.69,99.47a61.22,61.22,0,0,1,1.6-11.35c2.17-7.78,7.89-12.15,15-14.94A47.91,47.91,0,0,1,204,70.71c.56-.08,1.31-.44,1.65.26s-.35,1-.72,1.31a294.58,294.58,0,0,0-26.4,29.86c-.32.41-.61,1.06-1.21.92-.79-.18-.56-1-.61-1.54S176.69,100.45,176.69,99.47ZM127,132.37c-.45,1-1.64.52-2.51.58-1.07.06-2.15,0-3.22,0A127.08,127.08,0,0,1,99,130.34c-12.65-2.62-19.88-11-24.47-22.35-2.1-5.19-2.51-10.73-3-16.22-.4-4.58-1-9.13-1.67-13.68-.1-.71-.6-1.68.22-2.1s1.36.52,1.9,1C78,82.16,84.11,87.27,90,92.6c6.77,6.1,13.55,12.2,19.8,18.84A197.24,197.24,0,0,1,125.91,130C126.43,130.71,127.42,131.45,127,132.37ZM131.14,121c-.72.33-1-.48-1.4-.91a280.24,280.24,0,0,0-19.16-20.72c-9.45-9-19.09-17.89-29.13-26.28-.55-.46-1.39-.72-1.37-2,3.59.44,7.12.91,10.66,1.28,11.13,1.19,21.32,4.64,30,12a22.44,22.44,0,0,1,6.46,9.86,80.55,80.55,0,0,1,4,20.92c.1,1.37.25,2.74.35,4.11C131.55,119.87,131.79,120.65,131.14,121Zm37.32,73a51.92,51.92,0,0,1,22,19c.33.51.67,1,1,1.56,1.59,2.81,1.23,3.51-1.95,3.52-8,0-15.94,0-23.91,0H120.74c-3.17,0-3.59-.59-1.93-3.28,6.85-11.08,16.23-19.09,28.84-22.87C154.81,189.74,161.82,190.85,168.46,194Z"/><circle class="cls-2" cx="141.73" cy="141.73" r="141.73"/></g></g></svg>