<svg xmlns="http://www.w3.org/2000/svg" viewBox="0 0 57.38 57.38"><defs><style>.cls-1{fill:#24397b;fill-rule:evenodd;}.cls-2{fill:#f9f9fa;}</style></defs><g id="Capa_2" data-name="Capa 2"><g id="Simbologia"><path class="cls-1" d="M28.68,0A28.69,28.69,0,1,1,0,28.67,28.68,28.68,0,0,1,28.68,0"/><path class="cls-2" d="M45.89,30.43h-2V16.31h.53a.75.75,0,0,0,.74-.75V10.67a.74.74,0,0,0-.74-.74H31.34a.74.74,0,0,0-.74.74v4.89a.75.75,0,0,0,.74.75h.35v4.52H23.2V15.91h.21a.74.74,0,0,0,.74-.74V11.58a.75.75,0,0,0-.74-.75H16a.75.75,0,0,0-.74.75v3.59a.74.74,0,0,0,.74.74h.32v4.92H13.67a.74.74,0,0,0-.74.74v8.86H11.82a.75.75,0,0,0-.67.42l-4.34,9.2a.75.75,0,0,0,.67,1.06h5a5.62,5.62,0,0,0,11.15,0H29.8a5.63,5.63,0,0,0,11.18,0h4.91a.75.75,0,0,0,.74-.75V31.17A.74.74,0,0,0,45.89,30.43Zm-13.81-19H43.72v3.41H32.08Zm1.09,10v-5h9.27v14H33.19V21.57A.5.5,0,0,0,33.17,21.45ZM16.73,12.32h5.94v2.11H16.73Zm5,3.78v4.1H17.8V16.1Zm-7.31,6.21H31.69v8.05H14.41ZM18,44.41a4,4,0,1,1,4-4A4,4,0,0,1,18,44.41Zm17.43,0a4,4,0,1,1,4-4A4,4,0,0,1,35.43,44.41Zm9.72-4.79H41a5.63,5.63,0,0,0-11.14,0H23.59a5.62,5.62,0,0,0-11.15,0H8.65l3.64-7.71H45.15Z"/><path class="cls-2" d="M18,37.39a3,3,0,1,0,3,3A3,3,0,0,0,18,37.39Z"/><path class="cls-2" d="M35.43,37.39a3,3,0,1,0,3,3A3,3,0,0,0,35.43,37.39Z"/><rect class="cls-2" x="36.02" y="20.15" width="3.77" height="6.57"/></g></g></svg>