<svg xmlns="http://www.w3.org/2000/svg" viewBox="0 0 56.56 57.38"><defs><style>.cls-1{fill:#223c7c;}.cls-2{fill:#fdfeff;}</style></defs><g id="Capa_2" data-name="Capa 2"><g id="Simbologia"><path class="cls-1" d="M56.56,28.69A28.48,28.48,0,0,0,28.28,0,28.48,28.48,0,0,0,0,28.69,28.48,28.48,0,0,0,28.28,57.38,28.48,28.48,0,0,0,56.56,28.69Z"/><path class="cls-2" d="M44.75,18.76l-1-.08a4.65,4.65,0,0,1-2.74.94,4.39,4.39,0,0,1-2.74-.94l-1,.08a2.64,2.64,0,0,0-2.51,2.77L35.37,30A2.11,2.11,0,0,0,37.47,32h.15l.92,13.27c.07,1.24.8,1.91,1.67,1.91H42c.87,0,1.6-.67,1.67-1.91L44.56,32h.15A2.08,2.08,0,0,0,46.81,30l.53-8.51A2.8,2.8,0,0,0,44.75,18.76Z"/><path class="cls-2" d="M41.05,11.52a3.68,3.68,0,1,1-3.73,3.67A3.71,3.71,0,0,1,41.05,11.52Z"/><path class="cls-2" d="M15.67,11.52a3.68,3.68,0,1,1-3.74,3.67A3.7,3.7,0,0,1,15.67,11.52Z"/><path class="cls-2" d="M19.94,20.29a1.75,1.75,0,0,0-1.6-1.46h0a4.58,4.58,0,0,1-5.26,0h0a1.81,1.81,0,0,0-1.6,1.46L9.87,30.23a1.3,1.3,0,0,0,1.3,1.46h.12l-1.11,4.16a.84.84,0,0,0,.84,1l1.87.12.61,8.77a1.68,1.68,0,0,0,1.67,1.53h1a1.68,1.68,0,0,0,1.67-1.53l.61-8.77,1.87-.12a.87.87,0,0,0,.84-1l-1.07-4.16h.12a1.24,1.24,0,0,0,1.25-1.46Z"/><rect class="cls-2" x="27.14" y="11.52" width="2.1" height="35.72"/></g></g></svg>