<svg xmlns="http://www.w3.org/2000/svg" viewBox="0 0 250 250.37"><defs><style>.cls-1{fill:#898d8d;}</style></defs><g id="Capa_2" data-name="Capa 2"><g id="Capa_1-2" data-name="Capa 1"><path class="cls-1" d="M.29,120.82a75.8,75.8,0,0,1,1.44-17A129.38,129.38,0,0,1,6.9,84,124.37,124.37,0,0,1,17.8,60.69,121.92,121.92,0,0,1,34.19,39.16,124,124,0,0,1,85.41,6.56,125.56,125.56,0,0,1,107.84,1.3C111.92.74,116,.4,120.13,0a22.17,22.17,0,0,1,3.15.11A9.44,9.44,0,0,0,125,.25a39,39,0,0,1,8.37.12c2.24.17,4.44.53,6.66.73,3.28.29,6.5.86,9.71,1.47a105.18,105.18,0,0,1,14.59,3.86c3.65,1.24,7.25,2.58,10.79,4.09a124.46,124.46,0,0,1,46.29,34.77,124.58,124.58,0,0,1,16.55,26,134.44,134.44,0,0,1,7.37,19.39,129.63,129.63,0,0,1,2.94,12.65c1.86,9.89,2,19.89,1.61,29.89A97.15,97.15,0,0,1,248.46,145c-.52,3.31-1.14,6.59-1.92,9.84A125.2,125.2,0,0,1,238,178.94a124.63,124.63,0,0,1-51.41,55.3,120.82,120.82,0,0,1-19.27,8.8,119.42,119.42,0,0,1-21.47,5.62,107.88,107.88,0,0,1-15.4,1.65c-4.46,0-8.94.18-13.43-.17-4.18-.32-8.31-.94-12.47-1.43a89.73,89.73,0,0,1-14.09-3.19,117.91,117.91,0,0,1-23.54-9.4,127.63,127.63,0,0,1-27.78-19.84,125.71,125.71,0,0,1-26-34.88,112.34,112.34,0,0,1-7.3-18.07c-1.34-4.4-2.56-8.84-3.48-13.35C1.53,145.87,1,141.73.51,137.56a23.55,23.55,0,0,1-.21-3.35C.43,129.65-.43,125.1.29,120.82Zm240,4.44c.39-32.06-14-63.77-37.14-84.87C178.29,17.79,149,7.87,115.53,9.69c-28.68,3-53.67,14.08-73.74,35C17.23,70.25,6.35,101.09,9.52,136.34c2.51,28,14.29,52,34.49,71.69,21.74,21.14,48,32.29,78.21,32.89,33,.64,61.48-11.07,84.68-34.54C229,184,239.9,156.72,240.25,125.26Z"/><path class="cls-1" d="M224.52,124.83c.13,4.9-.62,9.4-1,13.93a85.74,85.74,0,0,1-4.44,19.14,94,94,0,0,1-6.92,15.49,108.45,108.45,0,0,1-8.74,13.33c-.55.73-1.14,1.42-1.73,2.12-1,1.24-1.11,1.28-2.26.15q-4.58-4.5-9.09-9.06l-29.16-29.17c-.39-.4-.81-.77-1.17-1.2s-1.15-.84-.78-1.56,1-.71,1.65-.76a63.32,63.32,0,0,0,7.25-1.06,4.59,4.59,0,0,0,3.9-5.12,4.48,4.48,0,0,0-5.24-3.69c-3,.39-6.06,1-9.11,1.31q-2.72.31-5.38.86a3.45,3.45,0,0,1-3.7-1.36c-.13-.17-.31-.29-.44-.45-.4-.54-1.37-.88-1.08-1.64s1.24-.43,1.91-.54c3.51-.53,7-1.17,10.54-1.58,2.89-.34,5.68-1.32,8.65-1.25,1.63.05,2.35-1,2.09-2.67-.38-2.48-.69-5-1.17-7.42a18.74,18.74,0,0,1-.58-4.49c0-1.21-.63-2.25-.72-3.46a64.69,64.69,0,0,0-1-6.63,4.35,4.35,0,0,0-3.16-3.6,4.19,4.19,0,0,0-4.25,1.16c-1.32,1.28-1.32,2.87-1.06,4.51.51,3.31,1.07,6.61,1.56,9.92a14.16,14.16,0,0,0,.55,3.7c.36.84-.29,1.14-.93,1.28-1.36.3-2.72.6-4.1.81-3.39.5-6.79.92-10.16,1.56a9.94,9.94,0,0,0-3.7,1.35c-1.41.91-1.45.9-2.65-.29q-7.16-7.11-14.3-14.26L62,51.52c-2.19-2.18-2.23-2.24.06-4.13a91.1,91.1,0,0,1,13.37-9.07,102.8,102.8,0,0,1,14.06-6.59,116,116,0,0,1,13.25-4,68.26,68.26,0,0,1,12.64-1.92c3.75-.22,7.5-1,11.28-.57,5.69.59,11.45.61,17.06,1.82A105.79,105.79,0,0,1,173.32,38a102.2,102.2,0,0,1,25,19.73A93.61,93.61,0,0,1,211,74.91a102.35,102.35,0,0,1,7,14.77,122.44,122.44,0,0,1,4.36,14.88c1,4.31,1.26,8.7,1.8,13.06A41.05,41.05,0,0,1,224.52,124.83Zm-72.8-32.4a8.4,8.4,0,0,0,2.36,5.88,9,9,0,0,0,5.95,2.81c3.85.2,8.4-4.56,8.53-8.49s-4.31-8.38-8.36-8.54C156.53,83.94,151.56,87.39,151.72,92.43Zm-6.29,26.75c2-.26,4-.45,6-.82a21.76,21.76,0,0,0,2.9-.3c.93-.3,1.51-.77,1.31-1.79a49.77,49.77,0,0,0-.82-5.13c-.38-1.22-.76-1.63-1.91-1.31a34.09,34.09,0,0,1-4.35.57c-3.21.47-4.62,2-5,5.21a10.72,10.72,0,0,0-.06,1.88C143.64,119.08,143.82,119.21,145.43,119.18Z"/><path class="cls-1" d="M118.86,154.15c-8.33,5.7-9.64,13.68-5.86,20.28,3,5.28,10.22,8.54,14.45,7.53,8.66-2.07,13.08-8.32,12.73-15.83-.24-5.09-4.84-12.39-13.59-13.52a7.63,7.63,0,0,1,2.81-.5c2.54-.48,5.09-.87,7.65-1.29a5.06,5.06,0,0,1,1,0c1.73.11,1.73.11,2,1.82a4.55,4.55,0,0,0,4.9,4.18,3.19,3.19,0,0,1,2.73,1.16q20.52,20.55,41.05,41.08c.25.24.48.51.74.75a.82.82,0,0,1,0,1.41c-.95.82-1.87,1.69-2.86,2.46a99.42,99.42,0,0,1-26.81,15.09,122.05,122.05,0,0,1-14.09,4.07c-6.85,1.64-13.81,2.08-20.77,2.48a43.53,43.53,0,0,1-8.38-.42c-3.4-.46-6.82-.69-10.18-1.4a107.8,107.8,0,0,1-22.18-6.9A101.93,101.93,0,0,1,63.3,204.14a99,99,0,0,1-21.79-23.46,102.52,102.52,0,0,1-11.1-22.09A118.79,118.79,0,0,1,26.29,143a44.49,44.49,0,0,1-.91-6.81c-.3-5-1.13-10-.66-15,.05-.55.13-1.1.22-1.65.26-1.51.8-3,.34-4.55a1.49,1.49,0,0,1,0-.63c.66-3.91,1.12-7.84,2.05-11.71a100.3,100.3,0,0,1,4.6-14.58,113.71,113.71,0,0,1,5.22-11,106.33,106.33,0,0,1,10.7-15.79c.09-.11.17-.23.26-.33,1.06-1.28,1.27-1.31,2.44-.14,3.39,3.36,6.75,6.74,10.13,10.11q34.58,34.6,69.17,69.2a8.35,8.35,0,0,1,.59.6c.36.47,1.18.79.84,1.5s-1.08.65-1.68.71c-4,.39-8,1.23-12,1.75-3.66.48-7.3,1.06-10.93,1.68-.41.07-.85-.05-1.26,0-1,.16-1.36-.32-1.47-1.26a14.17,14.17,0,0,0-.79-4.69c-2-4.27-5.47-6.27-10-5.5-3.84.66-7.73,1-11.53,1.93-.86.21-1.79,0-2.68.31-.72.22-1-.35-1.07-1a22.58,22.58,0,0,1-.7-4.33c0-2.15-.83-4.1-.93-6.19a18,18,0,0,0-.83-4.52c-.65-2-2.88-3.65-4.55-3.25a4.78,4.78,0,0,0-3.76,5.25c.32,3.35,1.32,6.59,1.55,9.93.25,3.75,1.45,7.35,1.56,11.12a4.9,4.9,0,0,0,.31,1.21c.52,1.78.53,1.79,2.29,1.52,3.24-.5,6.46-1.17,9.72-1.51,2.76-.28,5.44-1.17,8.25-1.1a10.15,10.15,0,0,0,2.4-.7c1.38-.29,2,.16,2.16,1.54.35,2.75.06,3-2.83,3.37s-5.67.81-8.51,1.19c-1.65.23-3.32.34-5,.61a25.61,25.61,0,0,0-4.26,1A4.57,4.57,0,0,0,72,155.89a4.72,4.72,0,0,0,4.24,4,11.41,11.41,0,0,0,3.52-.36,35.76,35.76,0,0,1,4.74-.78c1.91-.24,3.83-.37,5.72-.8s4-.59,6-.85c.86-.1,1.1.49,1.16,1.17a5.12,5.12,0,0,0,.68,2.61,4.21,4.21,0,0,0,5.09,1.85,4.91,4.91,0,0,0,3-5c-.08-.6-.63-1.18-.13-1.78a2.68,2.68,0,0,1,2.11-.78,65.34,65.34,0,0,0,8.67-1.34A2.78,2.78,0,0,1,118.86,154.15ZM77,106.25c.08-4.29-3.8-8.52-8-8.59-3.2-.06-8.29,2.92-8.43,8.27-.12,4.17,3.67,8.56,7.51,8.65C73.2,114.7,76.93,111.22,77,106.25ZM79.66,122c0,2,.7,3.69,1,5.46.12.71.44,1.28,1.45,1a68.1,68.1,0,0,1,7.79-1.32c3-.44,3.42-1.24,2.08-4a16.51,16.51,0,0,0-1-1.62,4.76,4.76,0,0,0-5.27-2.15c-1.58.28-3.15.6-4.71.94C80.05,120.54,79.25,120.93,79.66,122Z"/></g></g></svg>