<svg xmlns="http://www.w3.org/2000/svg" viewBox="0 0 250 249.9"><defs><style>.cls-1{fill:#898d8d;}</style></defs><g id="Capa_2" data-name="Capa 2"><g id="Capa_1-2" data-name="Capa 1"><path class="cls-1" d="M.12,124.1a70.82,70.82,0,0,1,.62-13.19A117.06,117.06,0,0,1,3.3,96.29a132.25,132.25,0,0,1,5.28-17,124,124,0,0,1,10.1-20.27A121.89,121.89,0,0,1,40.11,33,124.29,124.29,0,0,1,69.63,12.77,129.38,129.38,0,0,1,93.56,3.83a106,106,0,0,1,12.07-2.52A147.94,147.94,0,0,1,121.24,0c4.77-.17,9.51.28,14.26.22a45.55,45.55,0,0,1,6.62.83c2.27.3,4.53.74,6.78,1.13A107.47,107.47,0,0,1,165.7,6.6a124.37,124.37,0,0,1,35,18.73,127.17,127.17,0,0,1,20.17,19.25,122.66,122.66,0,0,1,14.51,21.57,120.66,120.66,0,0,1,9.47,23.29c.9,3.15,1.73,6.31,2.36,9.54.67,3.43,1.43,6.84,1.81,10.31a44.24,44.24,0,0,1,.6,8.54,21,21,0,0,0,.26,6.28,3.42,3.42,0,0,1,0,1.46,19.64,19.64,0,0,0-.27,5.87,47.9,47.9,0,0,1-.74,10.43,126.88,126.88,0,0,1-7.58,29.1,125.15,125.15,0,0,1-59.84,65.55,119.17,119.17,0,0,1-17.42,7.24,135.37,135.37,0,0,1-19.5,4.69c-4.09.67-8.2,1-12.3,1.41-1.37.14-2.79-.15-4.18-.14-3.29,0-6.59.13-9.87.13a82.16,82.16,0,0,1-10.23-1,106.47,106.47,0,0,1-12.53-2.39,125,125,0,0,1-13.23-4A127.24,127.24,0,0,1,52.9,227.16a125.69,125.69,0,0,1-40.23-47.37,130.59,130.59,0,0,1-7.92-20.73c-1.3-4.42-2.14-8.95-3.13-13.43C1,142.85,1,140,.59,137.12A89.27,89.27,0,0,1,.12,124.1ZM123.87,9.18C91,9.86,62.34,22,39.6,46.83S6.65,101.32,9.47,134.89c2.35,27.9,13.62,52.11,33.66,71.8,26.71,26.24,59,36.89,96.11,33.05a100.59,100.59,0,0,0,24.56-6,116.42,116.42,0,0,0,72-77.21,108.56,108.56,0,0,0,4.21-39.94c-2.59-29.3-14.14-54.67-35.55-75.08C182.21,20.23,155.4,9.69,123.87,9.18Z"/><path class="cls-1" d="M224.46,125.16c-.79,59.15-48.67,101.31-103.09,99.59-27.43-.86-50.93-11.61-69.75-31.76-18.57-19.87-26.93-43.79-27-70.8C26.18,94.91,36,71.27,56,52.39s43.9-27.91,71.24-27.21c27.68.71,51.29,11.36,70.27,31.54C216.37,76.75,224.31,101,224.46,125.16Zm-47.32-2.22q0-9.87,0-19.76c0-.63,0-1.26,0-1.89a1.2,1.2,0,0,0-1.29-1.33l-1.89,0h-24.8c-3.57,0-7.15,0-10.72,0-1.79,0-1.94.16-2,1.9,0,2.18,0,4.35,0,6.52s.19,2.38,2.43,2.4c5.18,0,10.37,0,15.55,0,3.36,0,6.73,0,10.09,0,1.94,0,2,.12,2.08,2,0,1.48,0,2.95,0,4.42,0,6.94,0,13.88,0,20.81,0,2-.11,2.06-2,2.15-2.53.13-2.53.13-2.55,2.63v1.68c0,6.1,0,12.19,0,18.29,0,1.8-.14,1.93-1.91,1.94q-5.68,0-11.35,0c-1.64,0-1.78-.18-1.81-1.84,0-2,0-4.06,0-6.1s-.15-2.22-2.31-2.25c-1.89,0-3.78,0-5.68,0-2.43,0-2.55.14-2.56,2.67q0,7.47,0,14.93c0,2.76,0,2.77,2.82,2.78h29.64l1.47,0a1.18,1.18,0,0,0,1.29-1.31c0-.63,0-1.26,0-1.89v-22.5c0-.63,0-1.26,0-1.89a1.4,1.4,0,0,1,1.56-1.56c.7,0,1.4,0,2.1,0,1.53-.09,1.69-.24,1.77-1.71,0-.56,0-1.12,0-1.68Q177.16,132.62,177.14,122.94Zm-80-23H79.66c-2.34,0-2.44.12-2.49,2.53,0,.21,0,.42,0,.63q0,19.88,0,39.75c0,.56,0,1.12,0,1.68a1.45,1.45,0,0,0,1.59,1.56l1.89,0a1.29,1.29,0,0,1,1.46,1.41c0,.63,0,1.26,0,1.89v22.29c0,.57,0,1.13,0,1.69,0,1.07.54,1.51,1.57,1.48.42,0,.84,0,1.26,0h29.23c.42,0,.84,0,1.26,0,1.07,0,1.49-.49,1.49-1.54,0-5.68,0-11.35,0-17,0-1.54-.28-1.75-1.93-1.79s-3.5,0-5.25,0c-2.22,0-2.37.19-2.39,2.42,0,2.39,0,4.77,0,7.15,0,1.42-.25,1.7-1.55,1.71-3.92,0-7.85,0-11.77,0-1.39,0-1.64-.37-1.71-1.82,0-.56,0-1.12,0-1.68,0-6.66,0-13.32,0-20,0-2-.13-2-2-2.14-2.26-.13-2.27-.13-2.27-2.44q0-9.57,0-19.14c0-2,0-4.06,0-6.1,0-1.69,0-1.7,1.81-1.72,1.26,0,2.52,0,3.79,0,7,0,14,0,21,0,2.15,0,2.27-.15,2.29-2.26s0-4.21,0-6.31-.06-2.25-2.23-2.26Zm30.17,31.16h7.78c5,0,9.95,0,14.93,0,1.92,0,2-.1,2-2,0-2.31,0-4.63,0-6.94,0-2.79,0-2.79-2.81-2.81H105.69c-.56,0-1.12,0-1.68,0a1.24,1.24,0,0,0-1.29,1.35q0,4.64,0,9.25c0,.78.49,1.12,1.23,1.13l1.68,0ZM158,96.15c6.55.29,12.11-5.62,12.16-11.81a12.1,12.1,0,0,0-11.83-12.15c-7.92,0-12.47,5.81-12.46,12A12,12,0,0,0,158,96.15Zm-61.53,0a11.87,11.87,0,0,0,12.1-11.94c0-6.13-4.22-11.92-12.24-12a12,12,0,1,0,.14,24Z"/></g></g></svg>