<svg xmlns="http://www.w3.org/2000/svg" viewBox="0 0 250 250.33"><defs><style>.cls-1{fill:#898d8d;}</style></defs><g id="Capa_2" data-name="Capa 2"><g id="Capa_1-2" data-name="Capa 1"><path class="cls-1" d="M.13,125a72.51,72.51,0,0,1,.51-13.42A130.13,130.13,0,0,1,3.37,96.12,123.19,123.19,0,0,1,11.55,72.4a121.81,121.81,0,0,1,9.79-17.35A131.75,131.75,0,0,1,34.66,38.58,121.75,121.75,0,0,1,62.1,16.9,123.32,123.32,0,0,1,93.67,4c4.94-1.27,10-2.08,15-3a22.36,22.36,0,0,1,6-.47,20.42,20.42,0,0,0,4.16-.4,6.36,6.36,0,0,1,1-.15c4.81.32,9.66-.4,14.44.49,1.45.27,2.89,0,4.36.2,4.92.58,9.77,1.5,14.6,2.53a111.67,111.67,0,0,1,15.06,4.47,125.74,125.74,0,0,1,31.14,16.78,115.3,115.3,0,0,1,10.94,9.18,129.32,129.32,0,0,1,13,14A123.48,123.48,0,0,1,235.07,65.6a121.62,121.62,0,0,1,8.34,19.22,111.82,111.82,0,0,1,3.84,14.34c.63,3.36,1.36,6.71,1.81,10.09a44.81,44.81,0,0,1,.6,9,21.42,21.42,0,0,0,.25,6.08,4.53,4.53,0,0,1,0,1.87,14,14,0,0,0-.25,4c.44,6.42-.69,12.69-1.89,18.92a123.87,123.87,0,0,1-27.69,57.34,124.34,124.34,0,0,1-22.56,20.68,122.65,122.65,0,0,1-34.24,17.07,127,127,0,0,1-18.08,4.4,114.53,114.53,0,0,1-24.46,1.64c-3.55-.21-7.1-.51-10.65-1s-7.33-1-10.95-1.77a125.52,125.52,0,0,1-21.79-6.68,123.28,123.28,0,0,1-24.6-13.55,126.28,126.28,0,0,1-22.87-21,124,124,0,0,1-18.61-29.11,115.92,115.92,0,0,1-7.11-19.93,112.27,112.27,0,0,1-2.8-13.5C.54,137.51-.27,131.27.13,125Zm128.64,115.9c15-1.22,26.91-3.67,38.37-8.26a116.44,116.44,0,0,0,31.45-18.72,114.75,114.75,0,0,0,23.92-27.44,118.1,118.1,0,0,0,14.37-33.6,106.64,106.64,0,0,0,3.18-36.32c-2.93-31.33-15.81-58-39.75-78.68-25.78-22.27-56-31-89.75-27.76C81.81,14.33,57.21,26.67,38,48.64c-21.76,24.87-31.53,54.15-28.54,87C12.16,165.51,25,190.89,47.34,211,71.21,232.39,99.51,241.91,128.77,240.85Z"/><path class="cls-1" d="M224.44,126.19c-.61,28.45-11.27,53.16-32.79,72.88-19.07,17.47-41.93,25.48-67.58,26.06-30.16-1-55.64-12.26-75.44-35.28-16.74-19.47-24.09-42.43-24-67.94C26.3,94.64,36.22,71,56.33,52.23s44-27.92,71.32-26.9C187,27.54,224.89,76.23,224.44,126.19Zm-116.52-13.7a5.18,5.18,0,0,1,.31,2.36c0,3.86.23,7.73-.07,11.57-.25,3.32.53,5.85,3.55,7.48a2,2,0,0,1,.33.26c5.76,4.32,11.51,8.67,17.31,12.94a3.62,3.62,0,0,1,1.63,3.35c-.08,3.64,0,7.29,0,10.93a11.92,11.92,0,0,0,.2,2.3,5.93,5.93,0,0,0,6.77,4.88,5.86,5.86,0,0,0,5.13-5.95c.06-6.17,0-12.34,0-18.5a2.91,2.91,0,0,0-1.23-2.52c-3.09-2.29-6.18-4.57-9.26-6.88q-5.7-4.29-11.37-8.63a2.43,2.43,0,0,1-1.1-1.22,25.4,25.4,0,0,1,.36-6.66c1.31,1,2.61,1.93,3.88,2.9,3.46,2.62,6.9,5.26,10.36,7.87,1.21.91,1.69.92,2.24-.06a11.1,11.1,0,0,0-2.71-15.17c-4.21-3.36-8.5-6.61-12.81-9.84a3,3,0,0,1-1.41-2.8,13.12,13.12,0,0,0,0-4c-1.26-4.93-6.71-7-10.75-3-5.74,5.75-11.44,11.53-17.2,17.26a3.89,3.89,0,0,0-1.2,3c0,2.73.06,5.46-.12,8.2A9,9,0,0,0,92,127.83c2,3.44,5.18,5.18,8.84,6.23,1,.28,1.39-.1,1.51-1.17a15.65,15.65,0,0,0,0-1.68q0-5.67,0-11.36c0-.76-.17-1.62.41-2.22C104.43,115.94,106.11,114.3,107.92,112.49Zm6.47-25.84c3,.22,5.54-1.17,7.81-3.32a11.57,11.57,0,0,0,3.46-10.07,10.78,10.78,0,0,0-3.24-6.44,11.43,11.43,0,0,0-8.23-3.63,12,12,0,0,0-11.83,11.73A11.8,11.8,0,0,0,114.39,86.65ZM93.75,168.44c2.51,0,4.13-1.49,5.53-3.3s2.78-3.68,4.18-5.5c3.74-4.88,7.51-9.74,11.25-14.62.8-1.05.79-1.35-.15-2.08-2.45-1.86-4.92-3.68-7.38-5.52a1.13,1.13,0,0,0-1.68.13,14.27,14.27,0,0,0-1,1.11c-4.34,5.65-8.69,11.29-13,17a30.08,30.08,0,0,0-3.16,4.42C86.47,163.77,89.8,168.32,93.75,168.44Zm24.23,9.9h38a16.32,16.32,0,0,0,2.1-.07,1.33,1.33,0,0,0,1.32-1.36,1.24,1.24,0,0,0-1.24-1.39,13.1,13.1,0,0,0-1.88-.13H79.6a13.11,13.11,0,0,0-1.88.14,1.17,1.17,0,0,0-1.1,1.3,1.3,1.3,0,0,0,1.22,1.44,18.34,18.34,0,0,0,2.1.07Z"/></g></g></svg>