<svg xmlns="http://www.w3.org/2000/svg" viewBox="0 0 250 249.97"><defs><style>.cls-1{fill:#898d8d;}</style></defs><g id="Capa_2" data-name="Capa 2"><g id="Capa_1-2" data-name="Capa 1"><path class="cls-1" d="M125.21,0c69.11.43,123,54.85,124.74,121.48.92,34.88-10.85,65.32-35.15,90.53-20.66,21.43-46,34-75.55,37.15-37.63,4-70.9-6.68-98.92-32.31C16.85,195.37,4,168.32.61,136.81a119.87,119.87,0,0,1,1.66-34.94,125,125,0,0,1,14.3-39A120.26,120.26,0,0,1,33.45,40a127.15,127.15,0,0,1,28-22.57,123.56,123.56,0,0,1,28-12.2A124.89,124.89,0,0,1,125.21,0Zm-.61,240.41c30.67.35,60.73-12.72,81.54-33.77,22.36-22.61,33.33-50,34.13-81.62C239.55,61.64,189,8.29,121.49,9.72c-30.4.64-56.83,12.12-78.27,33.81-25.89,26.18-37,58-33.19,94.56C12.74,164.22,23.76,187,42.27,205.7,64.87,228.56,92.46,240,124.6,240.41Z"/><path class="cls-1" d="M223.91,116.64c-.26,1.5.49,2.9.47,4.36,0,3.49.31,7-.38,10.46-.37,1.89-.15,3.88-.35,5.84a93.53,93.53,0,0,1-6.81,26.08,96.4,96.4,0,0,1-13.37,22.94c-1.64,2.08-1.65,2.12-3.6.17q-8.24-8.22-16.46-16.48l-21.95-21.95q-16.38-16.41-32.78-32.8c-3.65-3.66-7.28-7.35-11-11a2.28,2.28,0,0,1-.65-2.92,13.74,13.74,0,0,0,1-8.56c-1.47-6.34-5-10.7-11.37-12.77a14.53,14.53,0,0,0-10.41.56,2.33,2.33,0,0,1-2.91-.67c-3.54-3.58-7.12-7.12-10.68-10.69Q75,61.61,67.39,54c-1.58-1.59-3.18-3.15-4.74-4.75-1.12-1.16-1.13-1.55.14-2.51A119.16,119.16,0,0,1,75.87,38,107.39,107.39,0,0,1,90.7,31.16a46.3,46.3,0,0,1,9.84-2.86,13,13,0,0,0,1.81-.47,48.21,48.21,0,0,1,11.33-1.95c4.38-.21,8.72-1.18,13.13-.78a20.74,20.74,0,0,1,2.51.17c2.94.67,6,.36,8.92.83,2.61.41,5.22.85,7.81,1.46a104.22,104.22,0,0,1,10.29,2.8,105,105,0,0,1,16.46,7.28,99.68,99.68,0,0,1,47.8,59.85,69.37,69.37,0,0,1,3,15.2C223.67,114,224.22,115.29,223.91,116.64ZM137.7,97.31a1.13,1.13,0,0,0-.77-1.46,11.62,11.62,0,0,0-2-.55c-2.25-.41-4.51-.72-6.75-1.17-.87-.17-1.49-.26-1.71.83-.32,1.59-.12,2.11.94,2.46,2.72.89,5.61.85,8.38,1.48C137,99.18,137.51,98.67,137.7,97.31Zm-7.58,13.42a1.88,1.88,0,0,0-.14-.42c-1.61-2.7-3.2-5.4-4.87-8.07-.64-1-1.42-.4-2.17,0s-1.1,1-.56,1.86c1.19,1.89,2.34,3.81,3.51,5.71.43.72.85,1.44,1.33,2.12a1,1,0,0,0,1.47.17C129.23,111.71,130,111.55,130.12,110.73Zm-.57-11a1,1,0,0,0-.93.55.8.8,0,0,0,0,1,19.17,19.17,0,0,0,3.89,3.12c.55.36,1.07,0,1.41-.52s0-.93-.43-1.22c-1.09-.87-2.2-1.7-3.32-2.53A5.86,5.86,0,0,0,129.55,99.76Z"/><path class="cls-1" d="M124.55,224.74a89.47,89.47,0,0,1-18.35-1.52,91.6,91.6,0,0,1-12-3.09A106.13,106.13,0,0,1,78.6,213.6a103,103,0,0,1-11.28-6.85,95.62,95.62,0,0,1-14.19-12.07A97.78,97.78,0,0,1,40,177.86a100.38,100.38,0,0,1-11.55-26.43,102.07,102.07,0,0,1-3.36-22.75,104.12,104.12,0,0,1,1.58-22.53,88.92,88.92,0,0,1,4.73-16.5,103.15,103.15,0,0,1,9.09-18.17,111,111,0,0,1,8-11c.26-.32.59-.6.86-.92.63-.79,1.22-.72,1.9,0,2.07,2.09,4.17,4.14,6.25,6.22L74.72,83c3.51,3.51,7,7,10.54,10.53a3.1,3.1,0,0,1,1,2.44c-.23,6.43,5,13.06,11.15,15a20.33,20.33,0,0,0,4.52.82,4.61,4.61,0,0,1,3.09,1.52q7.33,7.36,14.69,14.69l19,19q13.28,13.31,26.54,26.59,11.94,12,23.92,23.86c2,2,2.07,2.31-.12,4.05a115.74,115.74,0,0,1-15.71,10.76,101.6,101.6,0,0,1-22.85,9.29,85.84,85.84,0,0,1-17.3,2.92C130.27,224.59,127.41,224.59,124.55,224.74Zm-14.1-69.15c1.86.34,2.72,1.54,3.82,2.36,5.15,3.85,10.26,7.74,15.39,11.62.78.59,1.58,1.16,2.36,1.75A1.16,1.16,0,0,0,134,171a16.38,16.38,0,0,0,2.36-9.83,17.52,17.52,0,0,0-7.52-12.56c-5.62-4.15-11.09-8.51-16.72-12.65a3.68,3.68,0,0,1-1.68-3.51,25.31,25.31,0,0,0-.56-6.87c-.82-3.38-5.1-6.68-9.24-5.75a10.41,10.41,0,0,0-5.15,3c-2.33,2.32-4.62,4.66-7,7-6,5.95-11.9,12-17.89,18a3.76,3.76,0,0,0-1.18,3c0,4,0,8,0,12a5.45,5.45,0,0,0,.12,1.67c2.09,6.55,6,11.33,13,12.93,3,.67,3.19.51,3.21-2.41v-1c0-5.53,0-11.06,0-16.59A4.23,4.23,0,0,1,87.13,154c1.61-1.64,3.39-3.12,5-4.82.49-.52.86-1.6,1.71-1.25s.4,1.39.4,2.11c0,7.21,0,14.42,0,21.63,0,2.18.13,2.31,2.23,2.32q11.13,0,22.26,0c.45,0,1,.16,1.31-.37,0-.69-.6-.9-1-1.23q-3.66-2.79-7.35-5.56c-.57-.42-1.18-.81-1.18-1.62C110.44,162,110.45,158.9,110.45,155.59Z"/></g></g></svg>