<svg xmlns="http://www.w3.org/2000/svg" viewBox="0 0 250 249.87"><defs><style>.cls-1{fill:#898d8d;}</style></defs><g id="Capa_2" data-name="Capa 2"><g id="Capa_1-2" data-name="Capa 1"><path class="cls-1" d="M249.91,124.45A101.57,101.57,0,0,1,248.07,147,128.15,128.15,0,0,1,240,174,131.35,131.35,0,0,1,227.4,196.7a121.89,121.89,0,0,1-19.52,21.87,127.11,127.11,0,0,1-20,14.46A121.24,121.24,0,0,1,166,243a112.2,112.2,0,0,1-18,4.8,101.31,101.31,0,0,1-14.33,1.8c-2.78.05-5.58.13-8.35.21-3.65.11-7.25-.21-10.87-.3a62.65,62.65,0,0,1-6.66-.79,118,118,0,0,1-20.59-4.66,126.83,126.83,0,0,1-24.51-10.8,129.29,129.29,0,0,1-18.19-12.74,107,107,0,0,1-9.94-9.34A126.84,126.84,0,0,1,18,189.56,122.09,122.09,0,0,1,6.65,164.85a119.16,119.16,0,0,1-4-15.36,87.58,87.58,0,0,1-1.8-11.56c-.18-4.16-1.37-8.28-.54-12.49a2.6,2.6,0,0,0,0-1,23.36,23.36,0,0,1,0-6.68c.39-4.72.8-9.43,1.63-14.09a134.83,134.83,0,0,1,3.23-14A124.64,124.64,0,0,1,21.44,55,124.66,124.66,0,0,1,68.8,13.3,127.32,127.32,0,0,1,82.48,7.44,117.59,117.59,0,0,1,98.56,2.79,129.67,129.67,0,0,1,117.39.16c2.44-.12,4.86-.22,7.32-.11,2.63.11,5.27-.11,7.94.08a142.86,142.86,0,0,1,16,2.12,122.76,122.76,0,0,1,57.26,27.33A121.55,121.55,0,0,1,234.3,64.29,119.4,119.4,0,0,1,245,90.2a118.51,118.51,0,0,1,4.17,20.67C249.6,115.6,250.23,120.32,249.91,124.45Zm-127.79,116c66.49-.42,117.29-51.4,118.1-115.5-.81-31.15-11.28-58.42-33.33-80.65C182,19.15,151.55,7.48,116.23,9.91c-29.2,2-54.3,13.84-74.52,35-24.86,26-35,57.34-31.88,93.08,3.81,27.86,15.4,51.85,36,71.11C68,229.76,94.42,239.88,122.12,240.43Z"/><path class="cls-1" d="M137.37,117.3c0-1.12,0-2.24,0-3.36.21-5.07-2.38-8.48-6.54-10.87a11.11,11.11,0,0,0-6.37-1.48c-3,.17-6-.19-9-.18-1,0-1.63-.72-2.27-1.36l-14-13.94q-18-18-36.07-36.1c-2.08-2.07-2.1-2.07.18-3.83a98.52,98.52,0,0,1,31-16.29A87.28,87.28,0,0,1,113,25.94c4.52-.38,9-1.11,13.57-.87A116.44,116.44,0,0,1,143,26.8a100.1,100.1,0,0,1,16.91,4.78,103.84,103.84,0,0,1,18,9A99.76,99.76,0,0,1,199.55,59a96,96,0,0,1,10.85,14.9,101.69,101.69,0,0,1,5.61,11,100.16,100.16,0,0,1,5.17,14.83,78.82,78.82,0,0,1,2.63,14.83c.28,4.67,1,9.34.52,14-.53,5.27-.57,10.61-1.76,15.8A110.73,110.73,0,0,1,216,165.14a101.09,101.09,0,0,1-12.52,21c-.17.22-.33.45-.51.67-1.33,1.62-1.35,1.64-2.85.14l-26.27-26.29c-2.38-2.38-4.75-4.76-7.15-7.11a3.84,3.84,0,0,1-1.24-2.74c-.13-2.65-.95-5.21-1.42-7.81-.17-.91-.66-1.17-1.48-.56a19,19,0,0,0-2.85,2.12c-.85.92-1.33.63-2-.06-2.66-2.69-5.35-5.35-8-8-3.56-3.56-7.1-7.15-10.71-10.67a4.6,4.6,0,0,1-1.57-3.71C137.43,120.53,137.37,118.91,137.37,117.3ZM116.51,70.22c-6.27-.23-12.83,5.51-12.69,12.88a12.79,12.79,0,0,0,25.58-.2C129.44,76.49,123.68,70,116.51,70.22Zm40.9,66.1a5.76,5.76,0,0,0,6.14-5.77,7.63,7.63,0,0,0-1.2-3.94q-2.39-4.19-4.8-8.33c-1.55-2.65-3-5.34-4.69-7.93a5.61,5.61,0,0,0-7.69-1.95c-2.77,1.71-4.19,4.89-2.35,8.08q1.14,2,2.29,4c2.44,4.23,4.85,8.48,7.34,12.68C153.61,135.1,155.24,136.46,157.41,136.32Z"/><path class="cls-1" d="M116.91,145.56c6.58,0,13.16,0,19.74,0a2.61,2.61,0,0,1,2,.81q6.9,6.9,13.81,13.8a1.58,1.58,0,0,1,.35,2.23,8.22,8.22,0,0,1-.75,1.26c-2.4,2.5-1.17,5-.09,7.55a1.7,1.7,0,0,0,1.61,1.16c2.37,0,4.76.47,7.1-.23.34-.1.76-.07,1-.27,1.24-1,2.07-.44,3,.51q12.51,12.59,25.08,25.11c.2.2.4.39.58.6.85,1,.89,1.2-.11,2.05-2,1.68-3.95,3.36-6,4.9a98.46,98.46,0,0,1-33.19,16.17,84.89,84.89,0,0,1-14.58,2.76c-4.66.4-9.3,1.06-14,.85a107.72,107.72,0,0,1-16-1.68,102.41,102.41,0,0,1-21.21-6.45,99.4,99.4,0,0,1-24.6-15.09,100.12,100.12,0,0,1-28.1-38.14,109.15,109.15,0,0,1-4.65-14.13,88.74,88.74,0,0,1-2.58-15.9A78.77,78.77,0,0,1,25,122.1c.24-3.84.54-7.67.95-11.49a56.65,56.65,0,0,1,1.27-7.21,109.14,109.14,0,0,1,4.22-14.05A101.69,101.69,0,0,1,41.35,70c2.12-3.23,4.49-6.24,6.86-9.28.47-.6,1-1.13,1.56-1.7a.92.92,0,0,1,1.46-.09c.41.38.82.76,1.22,1.16l43.8,43.81c.25.25.48.51.74.74a1.35,1.35,0,0,1,.24,2c-2.13,2.93-2.44,6.28-2.4,9.78.08,8.54,0,17.09,0,25.63,0,.56,0,1.12,0,1.68.09,1.57.28,1.81,1.88,1.84,2.66,0,5.32,0,8,0h12.18Zm2.77,19.2h0c0,3.7,0,7.41,0,11.12a6.83,6.83,0,0,0,2.58,5.5,5.68,5.68,0,0,0,6.4.93c3-1.5,4-3.94,4-7,0-7.27,0-14.54,0-21.81,0-2.07-.17-2.21-2.33-2.23-2.8,0-5.59,0-8.39,0-2.13,0-2.27.06-2.28,2.19C119.66,157.21,119.68,161,119.68,164.76Zm-18.47.5h0c0,3.84.09,7.68,0,11.52a5.16,5.16,0,0,0,1.68,4.09c1.56,1.5,3.41,2.5,5.68,2a6.91,6.91,0,0,0,5.28-6.52c.08-7.69,0-15.37,0-23.05,0-1.77-.28-2-2.15-2q-4.1,0-8.17,0c-2.16,0-2.27.13-2.29,2.25C101.19,157.43,101.21,161.34,101.21,165.26ZM76.45,136.32a5,5,0,0,0,4.33-2.17,22.83,22.83,0,0,0,1.5-2.27q3.19-5.4,6.35-10.84a53,53,0,0,0,2.77-5.14,5.78,5.78,0,0,0-2.48-7.43c-2.34-1.47-5.11-1-7.24,1.11a9.23,9.23,0,0,0-1.42,2.06c-3,5.26-6,10.54-9.09,15.78a5.45,5.45,0,0,0-.2,5.76A5.67,5.67,0,0,0,76.45,136.32Z"/><path class="cls-1" d="M105.35,113c7.41,7.36,14.43,14.42,21.42,21.4-.26.73-.74.62-1.12.62q-9.33,0-18.66,0c-1.72,0-1.93-.19-1.94-1.73,0-6.29,0-12.58,0-18.87A11.56,11.56,0,0,1,105.35,113Z"/><path class="cls-1" d="M126.91,113.11c.07.09.18.18.19.29a.16.16,0,0,1-.23.18c-.1,0-.15-.18-.23-.28Z"/></g></g></svg>