<svg xmlns="http://www.w3.org/2000/svg" viewBox="0 0 250 250.04"><defs><style>.cls-1{fill:#898d8d;}</style></defs><g id="Capa_2" data-name="Capa 2"><g id="Capa_1-2" data-name="Capa 1"><path class="cls-1" d="M0,115.28C.45,91.34,11.86,61.93,35.51,37.63,57.28,15.26,84,2.64,115,.39c37.76-2.75,70.78,9.08,97.91,35.72,23.28,22.86,35.59,51.07,36.95,83.54,1.41,34-9.33,64.1-32.27,89.37s-51.9,39.27-86,40.87C55.73,253.45-.28,193.16,0,115.28Zm240,9.82a112.15,112.15,0,0,0-6.2-37.26,115.88,115.88,0,0,0-45.59-59.1,116.17,116.17,0,0,0-34.48-15.48C141.45,10,128.91,9.13,116.24,9.52,86.69,12.61,61.09,24,40.63,45.89c-21.9,23.36-32,51.33-31.73,83.22,1.94,30.39,12.9,56.9,34.86,78.23C69.11,232,99.74,243,135,240c29.05-2.45,53.75-14.74,73.7-36C229.41,181.92,239.67,155.42,240,125.1Z"/><path class="cls-1" d="M224.45,125.16a106.54,106.54,0,0,1-1.09,13.59,86.41,86.41,0,0,1-3.74,16.74,102.23,102.23,0,0,1-7.79,18,98.94,98.94,0,0,1-18.67,24.13,92.63,92.63,0,0,1-18.46,13.79,98,98,0,0,1-28.85,11.11,132.24,132.24,0,0,1-15.32,2.16c-2.17.18-4.32.39-6.49.38a80.41,80.41,0,0,1-9.82-.79c-2.91-.38-5.84-.56-8.71-1.2a103.43,103.43,0,0,1-14-3.76,110.86,110.86,0,0,1-15.08-6.81A99.14,99.14,0,0,1,60.86,202a99.89,99.89,0,0,1-30.37-43.3,93,93,0,0,1-4.27-16.38,46.32,46.32,0,0,1-.8-5.6c-.23-5.42-1.39-10.84-.59-16.27.38-2.62.49-5.25.69-7.87a82.9,82.9,0,0,1,1.86-10.3,90.5,90.5,0,0,1,8.75-23.73A99.57,99.57,0,0,1,61.19,47.84,101.3,101.3,0,0,1,92,30.6a89,89,0,0,1,16.66-4.19,84.68,84.68,0,0,1,10.21-1c2.44-.06,4.88-.38,7.33-.25,3.91.21,7.8.55,11.7,1a81.8,81.8,0,0,1,13.76,2.76,97.14,97.14,0,0,1,21.09,8.69,104.46,104.46,0,0,1,13.16,8.61,101.27,101.27,0,0,1,19.35,20,100,100,0,0,1,9.38,15.63,97.58,97.58,0,0,1,7.15,20.33A115.62,115.62,0,0,1,224.45,125.16ZM184,107.26a23.51,23.51,0,0,0-.26-7.43,38.12,38.12,0,0,0-2.67-7.69A34.34,34.34,0,0,0,171.6,80a30.6,30.6,0,0,0-12.47-6.21c-2.74-.61-5.51-.81-8.26-1.24a6.67,6.67,0,0,0-1.89,0A78.24,78.24,0,0,0,141,74a28.66,28.66,0,0,0-5.67,2.14,36.27,36.27,0,0,0-9.46,6.9c-.6.6-1.12.85-1.73.09A20.25,20.25,0,0,0,121.6,81c-6.34-5.7-13.95-8-22.28-8.36-1.17,0-2.35.35-3.53.37A23.38,23.38,0,0,0,88,74.59,34.44,34.44,0,0,0,69.36,90.92,32.29,32.29,0,0,0,65.6,107c0,2.13.17,4.32.39,6.47a10.19,10.19,0,0,0,.2,2.08c1.21,3.77,2.09,7.65,3.88,11.24a48.45,48.45,0,0,0,8,11.74c3.94,4.17,8,8.22,12,12.35q9.42,9.72,18.81,19.48c2,2.11,4.15,4.16,6.2,6.27,2.88,3,5.71,6,8.6,8.92,1.28,1.3,1.37,1.28,2.65,0,1.9-2,3.7-4,5.6-6,2.74-2.81,5.57-5.53,8.3-8.35,5.89-6.08,11.72-12.22,17.61-18.3,4.62-4.78,9.31-9.5,13.92-14.29a49.46,49.46,0,0,0,10.31-17.57,33.45,33.45,0,0,0,1.75-6.63A29.89,29.89,0,0,0,184,107.26Z"/><path class="cls-1" d="M82.4,106.84C82,102.09,84,97.72,87.49,94.19c4-4,9-5.52,14.76-4.64A17.31,17.31,0,0,1,112.37,95a14.49,14.49,0,0,1,3.42,6.4,9.71,9.71,0,0,1,.64,3.47c-.07.82.48,1.27,1.3,1.35a9.05,9.05,0,0,0,1,.05c4.14,0,8.27,0,12.4,0,2.1,0,2.23-.21,2.43-2.25.62-6.27,4-10.63,9.6-13.19a16.75,16.75,0,0,1,14.39,0A17.14,17.14,0,0,1,166,99.28c1.61,3.28,1.63,6.76,1.39,10.24-.53,7.43-3.77,13.67-8.85,19-5.89,6.17-11.85,12.29-17.79,18.41q-7.08,7.31-14.2,14.58c-1.48,1.5-1.55,1.53-3,.1-2.47-2.48-4.86-5-7.3-7.53-4.44-4.56-8.93-9.08-13.33-13.67-4.16-4.35-8.39-8.63-12.53-13-4.53-4.74-6.84-10.64-8-17A23,23,0,0,1,82.4,106.84Z"/></g></g></svg>